G04 start of page 8 for group -4062 idx -4062 *
G04 Title: Balsamo, soldermask *
G04 Creator: pcb 1.99z *
G04 CreationDate: jue 24 oct 2013 15:42:49 GMT UTC *
G04 For: jalon *
G04 Format: Gerber/RS-274X *
G04 PCB-Dimensions (mil): 10000.00 10000.00 *
G04 PCB-Coordinate-Origin: lower left *
%MOIN*%
%FSLAX25Y25*%
%LNBOTTOMMASK*%
%ADD159C,0.1871*%
%ADD158C,0.1832*%
%ADD157C,0.2068*%
%ADD156C,0.0493*%
%ADD155C,0.1300*%
%ADD154C,0.0750*%
%ADD153C,0.0395*%
%ADD152C,0.0510*%
%ADD151C,0.0760*%
%ADD150C,0.0860*%
%ADD149C,0.0460*%
%ADD148C,0.0960*%
%ADD147C,0.1440*%
%ADD146C,0.1044*%
%ADD145C,0.0001*%
%ADD144C,0.0660*%
G54D144*X340000Y562500D03*
G54D145*G36*
X346700Y565800D02*Y559200D01*
X353300D01*
Y565800D01*
X346700D01*
G37*
G54D144*X360000Y562500D03*
X370000D03*
G54D145*G36*
X306700Y565800D02*Y559200D01*
X313300D01*
Y565800D01*
X306700D01*
G37*
G54D144*X320000Y562500D03*
X330000D03*
X380000D03*
G54D146*X483680Y549425D03*
G54D147*X479000Y511000D03*
G54D145*G36*
X153200Y791300D02*Y784700D01*
X159800D01*
Y791300D01*
X153200D01*
G37*
G54D147*X151000Y811000D03*
G54D144*X166500Y788000D03*
G54D148*X291551Y762542D03*
Y781242D03*
Y799942D03*
G54D145*G36*
X370739Y764064D02*Y759464D01*
X375339D01*
Y764064D01*
X370739D01*
G37*
G54D149*X373039Y781843D03*
G54D150*X338258Y735551D03*
G54D145*G36*
X367257Y723128D02*Y716528D01*
X373857D01*
Y723128D01*
X367257D01*
G37*
G54D144*X370557Y709828D03*
G54D149*X385638Y761764D03*
Y781843D03*
X394299Y761764D03*
Y781843D03*
X402961Y761764D03*
Y781843D03*
G54D145*G36*
X413958Y739851D02*Y731251D01*
X422558D01*
Y739851D01*
X413958D01*
G37*
G54D146*X188404Y549425D03*
G54D147*X151000Y511000D03*
G54D145*G36*
X154200Y559800D02*Y552200D01*
X161800D01*
Y559800D01*
X154200D01*
G37*
G54D151*X158000Y566000D03*
G54D145*G36*
X154200Y590800D02*Y583200D01*
X161800D01*
Y590800D01*
X154200D01*
G37*
G54D151*X158000Y597000D03*
G54D145*G36*
X154200Y621800D02*Y614200D01*
X161800D01*
Y621800D01*
X154200D01*
G37*
G54D151*X158000Y628000D03*
G54D145*G36*
X154200Y652800D02*Y645200D01*
X161800D01*
Y652800D01*
X154200D01*
G37*
G54D151*X158000Y659000D03*
G54D152*X225500Y510300D03*
X205500D03*
X215500Y530300D03*
G54D145*G36*
X206257Y675272D02*Y667672D01*
X213857D01*
Y675272D01*
X206257D01*
G37*
G54D146*X188404Y671472D03*
G54D152*X170058Y693251D03*
X180058Y713251D03*
X190058Y693251D03*
G54D151*X220057Y671472D03*
X230057D03*
X240057D03*
X250057D03*
X260057D03*
G54D145*G36*
X256242Y613449D02*Y606849D01*
X262842D01*
Y613449D01*
X256242D01*
G37*
G54D144*X269542Y610149D03*
G54D145*G36*
X235242Y613749D02*Y607149D01*
X241842D01*
Y613749D01*
X235242D01*
G37*
G54D153*X265719Y585855D03*
Y590185D03*
G54D145*G36*
X266042Y628649D02*Y622049D01*
X272642D01*
Y628649D01*
X266042D01*
G37*
G54D144*X259342Y625349D03*
X238542Y629649D03*
G54D145*G36*
X211700Y659300D02*Y652700D01*
X218300D01*
Y659300D01*
X211700D01*
G37*
G54D144*X225000Y656000D03*
X235000D03*
X245000D03*
X255000D03*
X265000D03*
X275000D03*
G54D145*G36*
X281700Y659300D02*Y652700D01*
X288300D01*
Y659300D01*
X281700D01*
G37*
G36*
X335542Y695049D02*Y688449D01*
X342142D01*
Y695049D01*
X335542D01*
G37*
G54D148*X333551Y799942D03*
Y781242D03*
G54D145*G36*
X328751Y767342D02*Y757742D01*
X338351D01*
Y767342D01*
X328751D01*
G37*
G54D144*X348842Y691749D03*
X358842D03*
X368842D03*
X378842D03*
G54D152*X414000Y696000D03*
X394000Y706000D03*
X414000Y716000D03*
G54D151*X270057Y671472D03*
X280057D03*
X290057D03*
X300057D03*
X310057D03*
X320057D03*
X330057D03*
X340057D03*
X350057D03*
X360057D03*
G54D146*X483680D03*
G54D154*X447500Y746000D03*
G54D155*X482500Y738500D03*
G54D154*X457500Y751000D03*
Y761000D03*
Y771000D03*
X447500Y756000D03*
Y766000D03*
G54D150*X377738Y801851D03*
G54D145*G36*
X419535Y786465D02*Y781535D01*
X424465D01*
Y786465D01*
X419535D01*
G37*
G54D156*X427906Y784000D03*
X433811D03*
G54D155*X482500Y778500D03*
G54D147*X479000Y811000D03*
G54D145*G36*
X453438Y806151D02*Y797551D01*
X462038D01*
Y806151D01*
X453438D01*
G37*
G36*
X452938Y820651D02*Y812051D01*
X461538D01*
Y820651D01*
X452938D01*
G37*
G54D150*X377238Y816351D03*
G54D157*X457591Y704000D03*
G54D158*X470189Y722504D03*
G54D159*X482000Y704000D03*
M02*
