G04 start of page 10 for group -4015 idx -4015 *
G04 Title: Balsamo, toppaste *
G04 Creator: pcb 1.99z *
G04 CreationDate: jue 24 oct 2013 15:42:49 GMT UTC *
G04 For: jalon *
G04 Format: Gerber/RS-274X *
G04 PCB-Dimensions (mil): 10000.00 10000.00 *
G04 PCB-Coordinate-Origin: lower left *
%MOIN*%
%FSLAX25Y25*%
%LNTOPPASTE*%
%ADD184R,0.1200X0.1200*%
%ADD183C,0.0240*%
%ADD182R,0.0240X0.0240*%
%ADD181R,0.0850X0.0850*%
%ADD180R,0.0115X0.0115*%
%ADD179R,0.0300X0.0300*%
%ADD178C,0.0157*%
%ADD177R,0.0157X0.0157*%
%ADD176R,0.0340X0.0340*%
%ADD175C,0.0200*%
%ADD174R,0.0200X0.0200*%
%ADD173R,0.0600X0.0600*%
%ADD172R,0.0510X0.0510*%
%ADD171R,0.0390X0.0390*%
%ADD170R,0.0310X0.0310*%
%ADD169R,0.0280X0.0280*%
%ADD168R,0.0512X0.0512*%
%ADD167R,0.0290X0.0290*%
%ADD166R,0.0512X0.0512*%
%ADD165R,0.0450X0.0450*%
G54D165*X387000Y546200D02*Y544800D01*
X379000Y546200D02*Y544800D01*
G54D166*X381000Y671393D02*Y670607D01*
X373914Y671393D02*Y670607D01*
G54D165*X358000Y702700D02*Y701300D01*
X350000Y702700D02*Y701300D01*
G54D167*X410400Y658800D02*Y658200D01*
X415500Y658800D02*Y658200D01*
X413000Y665800D02*Y665200D01*
G54D168*X240783Y503513D02*Y502489D01*
X258500Y503513D02*Y502489D01*
X240783Y534812D02*Y533788D01*
X258500Y534812D02*Y533788D01*
X309083Y504113D02*Y503089D01*
X326800Y504113D02*Y503089D01*
X309083Y535412D02*Y534388D01*
X326800Y535412D02*Y534388D01*
G54D165*X252000Y546700D02*Y545300D01*
X244000Y546700D02*Y545300D01*
X172000Y544700D02*Y543300D01*
X164000Y544700D02*Y543300D01*
X322000Y546700D02*Y545300D01*
X314000Y546700D02*Y545300D01*
G54D168*X173142Y504764D02*Y503740D01*
X190858Y504764D02*Y503740D01*
X173142Y536063D02*Y535039D01*
X190858Y536063D02*Y535039D01*
G54D166*X153607Y703543D02*X154393D01*
X153607Y696457D02*X154393D01*
G54D165*X456000Y546700D02*Y545300D01*
X448000Y546700D02*Y545300D01*
G54D169*X429142Y619849D02*X431142D01*
X429142Y615549D02*X431142D01*
X429142Y611149D02*X431142D01*
X429142Y606849D02*X431142D01*
X429142Y602549D02*X431142D01*
X429142Y598149D02*X431142D01*
X429142Y593849D02*X431142D01*
X429142Y589549D02*X431142D01*
X429142Y585749D02*X431142D01*
G54D170*X471442Y582449D02*Y581649D01*
G54D171*X429742Y625949D02*X430542D01*
X446642Y582049D02*X447442D01*
X484242D02*X491342D01*
G54D172*X488442Y635249D02*X490742D01*
G54D165*X410300Y599000D02*X411700D01*
X410300Y607000D02*X411700D01*
X420300Y599000D02*X421700D01*
X420300Y607000D02*X421700D01*
G54D166*X362000Y657393D02*Y656607D01*
X354914Y657393D02*Y656607D01*
G54D168*X443083Y503213D02*Y502189D01*
X460800Y503213D02*Y502189D01*
X443083Y534512D02*Y533488D01*
X460800Y534512D02*Y533488D01*
G54D165*X335300Y724000D02*X336700D01*
X335300Y716000D02*X336700D01*
G54D173*X349500Y714000D02*X350500D01*
X349500Y726000D02*X350500D01*
X429500Y740000D02*X430500D01*
X429500Y728000D02*X430500D01*
G54D166*X261607Y804000D02*X262393D01*
X261607Y796914D02*X262393D01*
X269107D02*X269893D01*
X269107Y804000D02*X269893D01*
G54D165*X270000Y814657D02*Y813257D01*
X262000Y814657D02*Y813257D01*
X244900Y705700D02*Y704300D01*
X236900Y705700D02*Y704300D01*
G54D166*X256357Y707893D02*Y707107D01*
X263443Y707893D02*Y707107D01*
G54D165*X262400Y698200D02*Y696800D01*
X254400Y698200D02*Y696800D01*
G54D174*X255250Y714000D02*X261750D01*
G54D175*X255250Y719000D02*X261750D01*
X255250Y724000D02*X261750D01*
X255250Y729000D02*X261750D01*
X234750D02*X241250D01*
X234750Y724000D02*X241250D01*
X234750Y719000D02*X241250D01*
X234750Y714000D02*X241250D01*
G54D165*X262000Y739400D02*Y738000D01*
X270000Y739400D02*Y738000D01*
G54D166*X260957Y749393D02*Y748607D01*
X268043Y749393D02*Y748607D01*
G54D165*X267500Y759700D02*Y758300D01*
X259500Y759700D02*Y758300D01*
X216300Y773500D02*X217700D01*
X216300Y781500D02*X217700D01*
G54D174*X227000Y772000D02*Y765500D01*
G54D175*X232000Y772000D02*Y765500D01*
X237000Y772000D02*Y765500D01*
X242000Y772000D02*Y765500D01*
Y792500D02*Y786000D01*
X237000Y792500D02*Y786000D01*
X232000Y792500D02*Y786000D01*
X227000Y792500D02*Y786000D01*
G54D173*X252449Y771258D02*X253449D01*
X252449Y783258D02*X253449D01*
X264949D02*X265949D01*
X264949Y771258D02*X265949D01*
G54D165*X236300Y809500D02*X237700D01*
X236300Y801500D02*X237700D01*
G54D173*X224949Y814258D02*X225949D01*
X224949Y802258D02*X225949D01*
G54D166*X246607Y808043D02*X247393D01*
X246607Y800957D02*X247393D01*
X254107Y808043D02*X254893D01*
X254107Y800957D02*X254893D01*
G54D165*X186300Y799500D02*X187700D01*
X186300Y791500D02*X187700D01*
G54D166*X198457Y792393D02*Y791607D01*
X205543Y792393D02*Y791607D01*
X214107Y808043D02*X214893D01*
X214107Y800957D02*X214893D01*
G54D176*X206600Y799957D02*X207200D01*
X206600Y807757D02*X207200D01*
X198400Y803857D02*X199000D01*
G54D165*X244500Y754700D02*Y753300D01*
X236500Y754700D02*Y753300D01*
G54D166*X243607Y745043D02*X244393D01*
X243607Y737957D02*X244393D01*
X236107D02*X236893D01*
X236107Y745043D02*X236893D01*
G54D165*X166000Y771700D02*Y770300D01*
X158000Y771700D02*Y770300D01*
G54D166*X153607Y712457D02*X154393D01*
X153607Y719543D02*X154393D01*
G54D168*X154132Y731170D02*Y730146D01*
X171849Y731170D02*Y730146D01*
X154132Y762469D02*Y761446D01*
X171849Y762469D02*Y761446D01*
X375142Y502764D02*Y501740D01*
X392858Y502764D02*Y501740D01*
X375142Y534063D02*Y533039D01*
X392858Y534063D02*Y533039D01*
G54D166*X181543Y660393D02*Y659607D01*
X174457Y660393D02*Y659607D01*
X181543Y629393D02*Y628607D01*
X174457Y629393D02*Y628607D01*
X181543Y595393D02*Y594607D01*
X174457Y595393D02*Y594607D01*
X181543Y566393D02*Y565607D01*
X174457Y566393D02*Y565607D01*
X289000Y591393D02*Y590607D01*
X281914Y591393D02*Y590607D01*
G54D165*X197000Y646200D02*Y644800D01*
X205000Y646200D02*Y644800D01*
X197000Y656200D02*Y654800D01*
X205000Y656200D02*Y654800D01*
G54D177*X358788Y590839D02*X361714D01*
G54D178*X358788Y593398D02*X361714D01*
X358788Y595957D02*X361714D01*
X358788Y598516D02*X361714D01*
X358788Y601075D02*X361714D01*
X358788Y603634D02*X361714D01*
X358788Y606193D02*X361714D01*
X358788Y608752D02*X361714D01*
X358788Y611311D02*X361714D01*
G54D177*X358788Y613870D02*X361714D01*
G54D178*X358788Y616429D02*X361714D01*
X358788Y618988D02*X361714D01*
X358788Y621547D02*X361714D01*
X358788Y624106D02*X361714D01*
X358788Y626665D02*X361714D01*
X358788Y629224D02*X361714D01*
X358788Y631783D02*X361714D01*
X358788Y634342D02*X361714D01*
X358788Y636901D02*X361714D01*
G54D177*X358788Y639460D02*X361714D01*
G54D178*X354252Y646921D02*Y643995D01*
X351693Y646921D02*Y643995D01*
X349134Y646921D02*Y643995D01*
X346575Y646921D02*Y643995D01*
X344016Y646921D02*Y643995D01*
X341457Y646921D02*Y643995D01*
X338898Y646921D02*Y643995D01*
X336339Y646921D02*Y643995D01*
X333780Y646921D02*Y643995D01*
G54D177*X331221Y646921D02*Y643995D01*
G54D178*X328662Y646921D02*Y643995D01*
X326103Y646921D02*Y643995D01*
X323544Y646921D02*Y643995D01*
X320985Y646921D02*Y643995D01*
X318426Y646921D02*Y643995D01*
X315867Y646921D02*Y643995D01*
X313308Y646921D02*Y643995D01*
X310749Y646921D02*Y643995D01*
X308190Y646921D02*Y643995D01*
G54D177*X305631Y646921D02*Y643995D01*
G54D178*X298170Y639459D02*X301096D01*
X298170Y636900D02*X301096D01*
X298170Y634341D02*X301096D01*
X298170Y631782D02*X301096D01*
X298170Y629223D02*X301096D01*
X298170Y626664D02*X301096D01*
X298170Y624105D02*X301096D01*
X298170Y621546D02*X301096D01*
X298170Y618987D02*X301096D01*
G54D177*X298170Y616428D02*X301096D01*
G54D178*X298170Y613869D02*X301096D01*
X298170Y611310D02*X301096D01*
X298170Y608751D02*X301096D01*
X298170Y606192D02*X301096D01*
X298170Y603633D02*X301096D01*
X298170Y601074D02*X301096D01*
X298170Y598515D02*X301096D01*
X298170Y595956D02*X301096D01*
X298170Y593397D02*X301096D01*
G54D177*X298170Y590838D02*X301096D01*
G54D178*X305632Y586303D02*Y583377D01*
X308191Y586303D02*Y583377D01*
X310750Y586303D02*Y583377D01*
X313309Y586303D02*Y583377D01*
X315868Y586303D02*Y583377D01*
X318427Y586303D02*Y583377D01*
X320986Y586303D02*Y583377D01*
X323545Y586303D02*Y583377D01*
X326104Y586303D02*Y583377D01*
G54D177*X328663Y586303D02*Y583377D01*
G54D178*X331222Y586303D02*Y583377D01*
X333781Y586303D02*Y583377D01*
X336340Y586303D02*Y583377D01*
X338899Y586303D02*Y583377D01*
X341458Y586303D02*Y583377D01*
X344017Y586303D02*Y583377D01*
X346576Y586303D02*Y583377D01*
X349135Y586303D02*Y583377D01*
X351694Y586303D02*Y583377D01*
G54D177*X354253Y586303D02*Y583377D01*
G54D179*X330642Y655249D02*Y654249D01*
X324642Y655249D02*Y654249D01*
X224000Y631500D02*X225000D01*
X224000Y625500D02*X225000D01*
X224000Y609500D02*X225000D01*
X224000Y615500D02*X225000D01*
G54D166*X289000Y615393D02*Y614607D01*
X281914Y615393D02*Y614607D01*
G54D179*X267000Y601000D02*Y600000D01*
X261000Y601000D02*Y600000D01*
X267000Y576000D02*Y575000D01*
X261000Y576000D02*Y575000D01*
X326000Y576000D02*Y575000D01*
X332000Y576000D02*Y575000D01*
X371500Y614500D02*X372500D01*
X371500Y620500D02*X372500D01*
G54D165*X207068Y621458D02*Y620058D01*
X199068Y621458D02*Y620058D01*
G54D180*X200031Y592862D02*Y588138D01*
X202000Y592862D02*Y588138D01*
X203968Y592862D02*Y588138D01*
X205936Y592862D02*Y588138D01*
X207905Y592862D02*Y588138D01*
Y610578D02*Y605854D01*
X205936Y610578D02*Y605854D01*
X203968Y610578D02*Y605854D01*
X202000Y610578D02*Y605854D01*
X200031Y610578D02*Y605854D01*
G54D165*X197168Y578758D02*X198568D01*
X197168Y570758D02*X198568D01*
X207168Y578758D02*X208568D01*
X207168Y570758D02*X208568D01*
X362520Y786900D02*Y785500D01*
X354520Y786900D02*Y785500D01*
G54D181*X358700Y815500D02*X361300D01*
X358700Y798000D02*X361300D01*
G54D166*X389385Y790157D02*Y789371D01*
X382299Y790157D02*Y789371D01*
X404299Y790157D02*Y789371D01*
X397213Y790157D02*Y789371D01*
G54D165*X326000Y734700D02*Y733300D01*
X318000Y734700D02*Y733300D01*
X326000Y710700D02*Y709300D01*
X318000Y710700D02*Y709300D01*
G54D182*X325200Y718000D02*X326800D01*
G54D183*X325200Y721900D02*X326800D01*
X325200Y725800D02*X326800D01*
X317000D02*X318600D01*
X317000Y718000D02*X318600D01*
G54D165*X194343Y731500D02*X195743D01*
X194343Y739500D02*X195743D01*
G54D166*X214000Y712393D02*Y711607D01*
X221086Y712393D02*Y711607D01*
X206024Y742174D02*X206810D01*
X206024Y749260D02*X206810D01*
G54D173*X207543Y732500D02*Y731500D01*
X219543Y732500D02*Y731500D01*
Y722500D02*Y721500D01*
X207543Y722500D02*Y721500D01*
G54D166*X221086Y749893D02*Y749107D01*
X214000Y749893D02*Y749107D01*
Y742393D02*Y741607D01*
X221086Y742393D02*Y741607D01*
X387643Y754593D02*Y753807D01*
X380557Y754593D02*Y753807D01*
X387643Y746593D02*Y745807D01*
X380557Y746593D02*Y745807D01*
G54D176*X394200Y746300D02*Y745700D01*
X402000Y746300D02*Y745700D01*
X398100Y754500D02*Y753900D01*
G54D173*X358826Y773923D02*X359826D01*
X358826Y761923D02*X359826D01*
G54D179*X282242Y623649D02*Y622649D01*
X288242Y623649D02*Y622649D01*
G54D166*X279943Y692893D02*Y692107D01*
X272857Y692893D02*Y692107D01*
X279943Y709893D02*Y709107D01*
X272857Y709893D02*Y709107D01*
X279943Y701393D02*Y700607D01*
X272857Y701393D02*Y700607D01*
X279486Y729293D02*Y728507D01*
X272400Y729293D02*Y728507D01*
G54D165*X280400Y719600D02*Y718200D01*
X272400Y719600D02*Y718200D01*
G54D184*X228765Y588023D02*X253465D01*
M02*
