G04 start of page 3 for group 1 idx 2 *
G04 Title: Balsamo, bot *
G04 Creator: pcb 1.99z *
G04 CreationDate: jue 24 oct 2013 15:42:48 GMT UTC *
G04 For: jalon *
G04 Format: Gerber/RS-274X *
G04 PCB-Dimensions (mil): 10000.00 10000.00 *
G04 PCB-Coordinate-Origin: lower left *
%MOIN*%
%FSLAX25Y25*%
%LNBOTTOM*%
%ADD90C,0.1181*%
%ADD89C,0.1142*%
%ADD88C,0.1378*%
%ADD87C,0.0236*%
%ADD86C,0.1280*%
%ADD85C,0.0157*%
%ADD84C,0.0320*%
%ADD83C,0.0394*%
%ADD82C,0.0250*%
%ADD81C,0.0300*%
%ADD80C,0.0500*%
%ADD79C,0.0200*%
%ADD78C,0.1380*%
%ADD77C,0.0984*%
%ADD76C,0.0120*%
%ADD75C,0.0280*%
%ADD74C,0.1811*%
%ADD73C,0.1772*%
%ADD72C,0.2008*%
%ADD71C,0.0433*%
%ADD70C,0.0335*%
%ADD69C,0.0450*%
%ADD68C,0.0700*%
%ADD67C,0.0800*%
%ADD66C,0.0400*%
%ADD65C,0.0900*%
%ADD64C,0.0600*%
%ADD63C,0.0150*%
%ADD62C,0.0080*%
%ADD61C,0.0001*%
G54D61*G36*
X478653Y725105D02*X478835Y724433D01*
X478971Y723667D01*
X479039Y722893D01*
Y722115D01*
X478971Y721341D01*
X478835Y720575D01*
X478653Y719902D01*
Y725105D01*
G37*
G36*
Y543958D02*X479304Y543403D01*
X480300Y542792D01*
X481379Y542345D01*
X482515Y542073D01*
X483680Y541981D01*
X484844Y542073D01*
X485980Y542345D01*
X487059Y542792D01*
X488055Y543403D01*
X488943Y544161D01*
X489015Y544246D01*
Y520723D01*
X479085D01*
X479000Y520730D01*
X478653Y520703D01*
Y543958D01*
G37*
G36*
Y666006D02*X479304Y665450D01*
X480300Y664840D01*
X481379Y664393D01*
X482515Y664120D01*
X483680Y664028D01*
X484844Y664120D01*
X485980Y664393D01*
X487059Y664840D01*
X488055Y665450D01*
X488943Y666209D01*
X489015Y666293D01*
Y554605D01*
X488943Y554689D01*
X488055Y555448D01*
X487059Y556058D01*
X485980Y556505D01*
X484844Y556778D01*
X483680Y556869D01*
X482515Y556778D01*
X481379Y556505D01*
X480300Y556058D01*
X479304Y555448D01*
X478653Y554892D01*
Y666006D01*
G37*
G36*
Y730886D02*X489015Y723223D01*
Y710006D01*
X489015Y710004D01*
X489011Y709908D01*
X489015Y709865D01*
Y676652D01*
X488943Y676736D01*
X488055Y677495D01*
X487059Y678105D01*
X485980Y678552D01*
X484844Y678825D01*
X483680Y678917D01*
X482515Y678825D01*
X481379Y678552D01*
X480300Y678105D01*
X479304Y677495D01*
X478653Y676939D01*
Y694304D01*
X478883Y694220D01*
X479756Y693983D01*
X480647Y693825D01*
X481548Y693745D01*
X482452D01*
X483353Y693825D01*
X484244Y693983D01*
X485117Y694220D01*
X485966Y694532D01*
X486784Y694918D01*
X487565Y695374D01*
X488303Y695898D01*
X488374Y695962D01*
X488434Y696037D01*
X488481Y696120D01*
X488515Y696210D01*
X488534Y696303D01*
X488539Y696399D01*
X488528Y696494D01*
X488502Y696587D01*
X488463Y696674D01*
X488410Y696754D01*
X488346Y696825D01*
X488271Y696885D01*
X488187Y696932D01*
X488098Y696966D01*
X488004Y696985D01*
X487908Y696989D01*
X487813Y696979D01*
X487721Y696953D01*
X487633Y696914D01*
X487554Y696860D01*
X486909Y696391D01*
X486220Y695988D01*
X485498Y695648D01*
X484750Y695372D01*
X483979Y695164D01*
X483194Y695024D01*
X482399Y694954D01*
X481601D01*
X480806Y695024D01*
X480021Y695164D01*
X479250Y695372D01*
X478653Y695592D01*
Y712408D01*
X479250Y712628D01*
X480021Y712836D01*
X480806Y712976D01*
X481601Y713046D01*
X482399D01*
X483194Y712976D01*
X483979Y712836D01*
X484750Y712628D01*
X485498Y712352D01*
X486220Y712012D01*
X486909Y711609D01*
X487560Y711147D01*
X487638Y711094D01*
X487724Y711055D01*
X487815Y711030D01*
X487908Y711019D01*
X488003Y711024D01*
X488095Y711043D01*
X488184Y711076D01*
X488266Y711123D01*
X488340Y711182D01*
X488403Y711251D01*
X488455Y711330D01*
X488494Y711416D01*
X488519Y711507D01*
X488530Y711601D01*
X488525Y711695D01*
X488506Y711788D01*
X488473Y711876D01*
X488426Y711958D01*
X488367Y712032D01*
X488297Y712094D01*
X487565Y712626D01*
X486784Y713082D01*
X485966Y713468D01*
X485117Y713780D01*
X484244Y714017D01*
X483353Y714175D01*
X482452Y714255D01*
X481548D01*
X480647Y714175D01*
X479756Y714017D01*
X478883Y713780D01*
X478653Y713696D01*
Y717054D01*
X478661Y717065D01*
X479106Y717829D01*
X479481Y718629D01*
X479785Y719458D01*
X480015Y720312D01*
X480170Y721182D01*
X480247Y722062D01*
Y722946D01*
X480170Y723826D01*
X480015Y724696D01*
X479785Y725549D01*
X479481Y726379D01*
X479106Y727179D01*
X478661Y727943D01*
X478653Y727954D01*
Y730886D01*
G37*
G36*
X473367Y734796D02*X478653Y730886D01*
Y727954D01*
X478152Y728665D01*
X478088Y728736D01*
X478013Y728796D01*
X477930Y728844D01*
X477840Y728878D01*
X477747Y728897D01*
X477651Y728902D01*
X477556Y728892D01*
X477463Y728867D01*
X477376Y728827D01*
X477296Y728775D01*
X477225Y728710D01*
X477165Y728636D01*
X477117Y728553D01*
X477084Y728463D01*
X477064Y728369D01*
X477059Y728273D01*
X477070Y728178D01*
X477095Y728086D01*
X477134Y727999D01*
X477188Y727920D01*
X477643Y727290D01*
X478034Y726617D01*
X478365Y725914D01*
X478632Y725184D01*
X478653Y725105D01*
Y719902D01*
X478632Y719824D01*
X478365Y719094D01*
X478034Y718390D01*
X477643Y717718D01*
X477195Y717083D01*
X477142Y717005D01*
X477103Y716919D01*
X477078Y716828D01*
X477068Y716734D01*
X477072Y716640D01*
X477092Y716547D01*
X477125Y716459D01*
X477172Y716377D01*
X477231Y716303D01*
X477301Y716240D01*
X477380Y716188D01*
X477466Y716149D01*
X477557Y716125D01*
X477651Y716114D01*
X477746Y716119D01*
X477838Y716138D01*
X477926Y716172D01*
X478008Y716219D01*
X478082Y716278D01*
X478144Y716349D01*
X478653Y717054D01*
Y713696D01*
X478034Y713468D01*
X477216Y713082D01*
X476435Y712626D01*
X475697Y712102D01*
X475626Y712038D01*
X475566Y711963D01*
X475519Y711880D01*
X475485Y711790D01*
X475466Y711697D01*
X475461Y711601D01*
X475472Y711506D01*
X475498Y711413D01*
X475537Y711326D01*
X475590Y711246D01*
X475654Y711175D01*
X475729Y711115D01*
X475813Y711068D01*
X475902Y711034D01*
X475996Y711015D01*
X476092Y711011D01*
X476187Y711021D01*
X476279Y711047D01*
X476367Y711086D01*
X476446Y711140D01*
X477091Y711609D01*
X477780Y712012D01*
X478502Y712352D01*
X478653Y712408D01*
Y695592D01*
X478502Y695648D01*
X477780Y695988D01*
X477091Y696391D01*
X476440Y696853D01*
X476362Y696906D01*
X476276Y696945D01*
X476185Y696970D01*
X476092Y696981D01*
X475997Y696976D01*
X475905Y696957D01*
X475816Y696924D01*
X475734Y696877D01*
X475660Y696818D01*
X475597Y696749D01*
X475545Y696670D01*
X475506Y696584D01*
X475481Y696493D01*
X475470Y696399D01*
X475475Y696305D01*
X475494Y696212D01*
X475527Y696124D01*
X475574Y696042D01*
X475633Y695968D01*
X475703Y695906D01*
X476435Y695374D01*
X477216Y694918D01*
X478034Y694532D01*
X478653Y694304D01*
Y676939D01*
X478416Y676736D01*
X477657Y675848D01*
X477047Y674852D01*
X476600Y673773D01*
X476327Y672637D01*
X476235Y671472D01*
X476327Y670308D01*
X476600Y669172D01*
X477047Y668093D01*
X477657Y667097D01*
X478416Y666209D01*
X478653Y666006D01*
Y554892D01*
X478416Y554689D01*
X477657Y553801D01*
X477047Y552805D01*
X476600Y551726D01*
X476327Y550590D01*
X476235Y549425D01*
X476327Y548261D01*
X476600Y547125D01*
X477047Y546046D01*
X477657Y545050D01*
X478416Y544161D01*
X478653Y543958D01*
Y520703D01*
X477478Y520610D01*
X475993Y520254D01*
X474583Y519669D01*
X473367Y518925D01*
Y698447D01*
X473374Y698435D01*
X473898Y697697D01*
X473962Y697626D01*
X474037Y697566D01*
X474120Y697519D01*
X474210Y697485D01*
X474303Y697466D01*
X474399Y697461D01*
X474494Y697472D01*
X474587Y697498D01*
X474674Y697537D01*
X474754Y697590D01*
X474825Y697654D01*
X474885Y697729D01*
X474932Y697813D01*
X474966Y697902D01*
X474985Y697996D01*
X474989Y698092D01*
X474979Y698187D01*
X474953Y698279D01*
X474914Y698367D01*
X474860Y698446D01*
X474391Y699091D01*
X473988Y699780D01*
X473648Y700502D01*
X473372Y701250D01*
X473367Y701270D01*
Y706730D01*
X473372Y706750D01*
X473648Y707498D01*
X473988Y708220D01*
X474391Y708909D01*
X474853Y709560D01*
X474906Y709638D01*
X474945Y709724D01*
X474970Y709815D01*
X474981Y709908D01*
X474976Y710003D01*
X474957Y710095D01*
X474924Y710184D01*
X474877Y710266D01*
X474818Y710340D01*
X474749Y710403D01*
X474670Y710455D01*
X474584Y710494D01*
X474493Y710519D01*
X474399Y710530D01*
X474305Y710525D01*
X474212Y710506D01*
X474124Y710473D01*
X474042Y710426D01*
X473968Y710367D01*
X473906Y710297D01*
X473374Y709565D01*
X473367Y709553D01*
Y712956D01*
X474064Y713212D01*
X474864Y713587D01*
X475628Y714032D01*
X476350Y714541D01*
X476421Y714605D01*
X476481Y714680D01*
X476529Y714763D01*
X476563Y714852D01*
X476582Y714946D01*
X476587Y715042D01*
X476577Y715137D01*
X476552Y715230D01*
X476512Y715317D01*
X476460Y715397D01*
X476395Y715468D01*
X476321Y715528D01*
X476238Y715575D01*
X476148Y715609D01*
X476054Y715629D01*
X475959Y715634D01*
X475863Y715623D01*
X475771Y715598D01*
X475684Y715559D01*
X475605Y715505D01*
X474975Y715050D01*
X474302Y714659D01*
X473599Y714328D01*
X473367Y714243D01*
Y730765D01*
X473599Y730680D01*
X474302Y730349D01*
X474975Y729958D01*
X475610Y729510D01*
X475688Y729457D01*
X475774Y729418D01*
X475865Y729393D01*
X475959Y729383D01*
X476053Y729387D01*
X476146Y729407D01*
X476234Y729440D01*
X476316Y729487D01*
X476389Y729546D01*
X476453Y729616D01*
X476505Y729695D01*
X476543Y729781D01*
X476568Y729872D01*
X476579Y729966D01*
X476574Y730061D01*
X476555Y730153D01*
X476521Y730241D01*
X476474Y730323D01*
X476415Y730397D01*
X476344Y730459D01*
X475628Y730976D01*
X474864Y731421D01*
X474064Y731796D01*
X473367Y732052D01*
Y734796D01*
G37*
G36*
Y701270D02*X473164Y702021D01*
X473024Y702806D01*
X472954Y703601D01*
Y704399D01*
X473024Y705194D01*
X473164Y705979D01*
X473367Y706730D01*
Y701270D01*
G37*
G36*
Y714243D02*X472869Y714061D01*
X472118Y713858D01*
X471352Y713722D01*
X470578Y713654D01*
X470193D01*
Y731354D01*
X470578D01*
X471352Y731285D01*
X472118Y731150D01*
X472869Y730947D01*
X473367Y730765D01*
Y714243D01*
G37*
G36*
Y518925D02*X473281Y518872D01*
X472120Y517880D01*
X471128Y516719D01*
X470331Y515417D01*
X470193Y515086D01*
Y712446D01*
X470631D01*
X471511Y712523D01*
X472381Y712678D01*
X473235Y712908D01*
X473367Y712956D01*
Y709553D01*
X472918Y708784D01*
X472532Y707966D01*
X472220Y707117D01*
X471983Y706244D01*
X471825Y705353D01*
X471745Y704452D01*
Y703548D01*
X471825Y702647D01*
X471983Y701756D01*
X472220Y700883D01*
X472532Y700034D01*
X472918Y699216D01*
X473367Y698447D01*
Y518925D01*
G37*
G36*
X470193Y737143D02*X473367Y734796D01*
Y732052D01*
X473235Y732100D01*
X472381Y732330D01*
X471511Y732485D01*
X470631Y732562D01*
X470193D01*
Y737143D01*
G37*
G36*
X461725Y739123D02*X467515D01*
X470193Y737143D01*
Y732562D01*
X469747D01*
X468867Y732485D01*
X467997Y732330D01*
X467143Y732100D01*
X466314Y731796D01*
X465514Y731421D01*
X464750Y730976D01*
X464028Y730467D01*
X463957Y730403D01*
X463897Y730328D01*
X463849Y730245D01*
X463815Y730155D01*
X463795Y730062D01*
X463791Y729966D01*
X463801Y729871D01*
X463826Y729778D01*
X463866Y729691D01*
X463918Y729611D01*
X463983Y729540D01*
X464057Y729480D01*
X464140Y729432D01*
X464230Y729398D01*
X464324Y729379D01*
X464419Y729374D01*
X464515Y729385D01*
X464607Y729410D01*
X464694Y729449D01*
X464773Y729503D01*
X465403Y729958D01*
X466076Y730349D01*
X466779Y730680D01*
X467509Y730947D01*
X468260Y731150D01*
X469026Y731285D01*
X469800Y731354D01*
X470193D01*
Y713654D01*
X469800D01*
X469026Y713722D01*
X468260Y713858D01*
X467509Y714061D01*
X466779Y714328D01*
X466076Y714659D01*
X465403Y715050D01*
X464768Y715498D01*
X464690Y715551D01*
X464604Y715590D01*
X464513Y715615D01*
X464419Y715625D01*
X464325Y715620D01*
X464232Y715601D01*
X464144Y715568D01*
X464062Y715521D01*
X463988Y715462D01*
X463925Y715392D01*
X463873Y715313D01*
X463834Y715227D01*
X463810Y715135D01*
X463799Y715042D01*
X463804Y714947D01*
X463823Y714855D01*
X463857Y714767D01*
X463904Y714685D01*
X463963Y714611D01*
X464034Y714549D01*
X464750Y714032D01*
X465514Y713587D01*
X466314Y713212D01*
X467143Y712908D01*
X467997Y712678D01*
X468867Y712523D01*
X469747Y712446D01*
X470193D01*
Y515086D01*
X469746Y514007D01*
X469390Y512522D01*
X469270Y511000D01*
X469315Y510425D01*
Y500923D01*
X461725D01*
Y693547D01*
X462709Y693955D01*
X464217Y694879D01*
X465562Y696028D01*
X466711Y697373D01*
X467636Y698882D01*
X468313Y700516D01*
X468726Y702236D01*
X468830Y704000D01*
X468726Y705764D01*
X468313Y707484D01*
X467636Y709118D01*
X466711Y710627D01*
X465562Y711972D01*
X464217Y713121D01*
X462709Y714045D01*
X461725Y714453D01*
Y717054D01*
X462226Y716343D01*
X462290Y716271D01*
X462365Y716211D01*
X462448Y716164D01*
X462537Y716130D01*
X462631Y716110D01*
X462727Y716106D01*
X462822Y716116D01*
X462915Y716141D01*
X463002Y716181D01*
X463082Y716233D01*
X463153Y716298D01*
X463213Y716372D01*
X463260Y716455D01*
X463294Y716545D01*
X463314Y716639D01*
X463319Y716734D01*
X463308Y716830D01*
X463283Y716922D01*
X463244Y717009D01*
X463190Y717088D01*
X462735Y717718D01*
X462344Y718390D01*
X462013Y719094D01*
X461746Y719824D01*
X461725Y719902D01*
Y725105D01*
X461746Y725184D01*
X462013Y725914D01*
X462344Y726617D01*
X462735Y727290D01*
X463183Y727925D01*
X463236Y728003D01*
X463275Y728089D01*
X463300Y728180D01*
X463310Y728274D01*
X463305Y728368D01*
X463286Y728461D01*
X463253Y728549D01*
X463206Y728631D01*
X463147Y728704D01*
X463077Y728768D01*
X462998Y728820D01*
X462912Y728858D01*
X462821Y728883D01*
X462727Y728894D01*
X462632Y728889D01*
X462540Y728870D01*
X462452Y728836D01*
X462370Y728789D01*
X462296Y728730D01*
X462234Y728659D01*
X461725Y727954D01*
Y739123D01*
G37*
G36*
Y719902D02*X461543Y720575D01*
X461407Y721341D01*
X461339Y722115D01*
Y722893D01*
X461407Y723667D01*
X461543Y724433D01*
X461725Y725105D01*
Y719902D01*
G37*
G36*
Y500923D02*X457573D01*
Y692727D01*
X457591Y692726D01*
X459354Y692865D01*
X461074Y693278D01*
X461725Y693547D01*
Y500923D01*
G37*
G36*
X457573Y739123D02*X461725D01*
Y727954D01*
X461717Y727943D01*
X461272Y727179D01*
X460897Y726379D01*
X460593Y725549D01*
X460363Y724696D01*
X460208Y723826D01*
X460131Y722946D01*
Y722062D01*
X460208Y721182D01*
X460363Y720312D01*
X460593Y719458D01*
X460897Y718629D01*
X461272Y717829D01*
X461717Y717065D01*
X461725Y717054D01*
Y714453D01*
X461074Y714722D01*
X459354Y715135D01*
X457591Y715274D01*
X457573Y715273D01*
Y739123D01*
G37*
G36*
X433347Y790523D02*X439515D01*
Y739123D01*
X457573D01*
Y715273D01*
X455827Y715135D01*
X454107Y714722D01*
X452472Y714045D01*
X450964Y713121D01*
X449619Y711972D01*
X448470Y710627D01*
X447545Y709118D01*
X446868Y707484D01*
X446455Y705764D01*
X446317Y704000D01*
X446455Y702236D01*
X446868Y700516D01*
X447545Y698882D01*
X448470Y697373D01*
X449619Y696028D01*
X450964Y694879D01*
X452472Y693955D01*
X454107Y693278D01*
X455827Y692865D01*
X457573Y692727D01*
Y500923D01*
X433347D01*
Y780962D01*
X433811Y780925D01*
X434292Y780963D01*
X434761Y781076D01*
X435207Y781260D01*
X435618Y781512D01*
X435985Y781826D01*
X436299Y782193D01*
X436551Y782604D01*
X436735Y783050D01*
X436848Y783519D01*
X436876Y784000D01*
X436848Y784481D01*
X436735Y784950D01*
X436551Y785396D01*
X436299Y785807D01*
X435985Y786174D01*
X435618Y786488D01*
X435207Y786740D01*
X434761Y786924D01*
X434292Y787037D01*
X433811Y787075D01*
X433347Y787038D01*
Y790523D01*
G37*
G36*
X427907D02*X433347D01*
Y787038D01*
X433330Y787037D01*
X432861Y786924D01*
X432415Y786740D01*
X432004Y786488D01*
X431637Y786174D01*
X431323Y785807D01*
X431071Y785396D01*
X430887Y784950D01*
X430858Y784831D01*
X430785Y785061D01*
X430680Y785310D01*
X430645Y785372D01*
X430600Y785428D01*
X430548Y785476D01*
X430488Y785515D01*
X430423Y785544D01*
X430355Y785563D01*
X430284Y785570D01*
X430213Y785567D01*
X430143Y785552D01*
X430077Y785527D01*
X430015Y785492D01*
X429959Y785447D01*
X429912Y785394D01*
X429873Y785335D01*
X429843Y785270D01*
X429825Y785201D01*
X429817Y785131D01*
X429820Y785060D01*
X429835Y784990D01*
X429862Y784924D01*
X429937Y784749D01*
X429995Y784567D01*
X430037Y784380D01*
X430062Y784191D01*
X430071Y784000D01*
X430062Y783809D01*
X430037Y783620D01*
X429995Y783433D01*
X429937Y783251D01*
X429863Y783075D01*
X429837Y783010D01*
X429823Y782940D01*
X429819Y782869D01*
X429827Y782799D01*
X429845Y782731D01*
X429874Y782666D01*
X429913Y782607D01*
X429961Y782554D01*
X430016Y782510D01*
X430078Y782475D01*
X430144Y782450D01*
X430213Y782435D01*
X430284Y782432D01*
X430354Y782439D01*
X430423Y782458D01*
X430487Y782487D01*
X430546Y782526D01*
X430599Y782574D01*
X430643Y782629D01*
X430677Y782691D01*
X430785Y782939D01*
X430858Y783169D01*
X430887Y783050D01*
X431071Y782604D01*
X431323Y782193D01*
X431637Y781826D01*
X432004Y781512D01*
X432415Y781260D01*
X432861Y781076D01*
X433330Y780963D01*
X433347Y780962D01*
Y500923D01*
X427907D01*
Y780932D01*
X428176Y780944D01*
X428444Y780979D01*
X428708Y781039D01*
X428966Y781121D01*
X429216Y781226D01*
X429278Y781260D01*
X429333Y781305D01*
X429381Y781358D01*
X429420Y781417D01*
X429449Y781482D01*
X429468Y781551D01*
X429476Y781622D01*
X429472Y781693D01*
X429458Y781762D01*
X429433Y781829D01*
X429397Y781891D01*
X429353Y781946D01*
X429300Y781994D01*
X429240Y782033D01*
X429176Y782062D01*
X429107Y782081D01*
X429036Y782088D01*
X428965Y782085D01*
X428895Y782070D01*
X428829Y782044D01*
X428654Y781968D01*
X428472Y781910D01*
X428286Y781868D01*
X428096Y781843D01*
X427907Y781835D01*
Y786165D01*
X428096Y786157D01*
X428286Y786132D01*
X428472Y786090D01*
X428654Y786032D01*
X428830Y785958D01*
X428896Y785932D01*
X428965Y785917D01*
X429036Y785914D01*
X429106Y785921D01*
X429175Y785940D01*
X429239Y785969D01*
X429299Y786008D01*
X429351Y786055D01*
X429395Y786111D01*
X429431Y786172D01*
X429456Y786238D01*
X429470Y786308D01*
X429474Y786378D01*
X429466Y786449D01*
X429447Y786517D01*
X429418Y786582D01*
X429380Y786641D01*
X429332Y786693D01*
X429277Y786738D01*
X429215Y786772D01*
X428966Y786879D01*
X428708Y786961D01*
X428444Y787021D01*
X428176Y787056D01*
X427907Y787068D01*
Y790523D01*
G37*
G36*
X422464D02*X427907D01*
Y787068D01*
X427906Y787068D01*
X427635Y787056D01*
X427367Y787021D01*
X427103Y786961D01*
X426845Y786879D01*
X426595Y786774D01*
X426533Y786740D01*
X426478Y786695D01*
X426430Y786642D01*
X426391Y786583D01*
X426362Y786518D01*
X426343Y786449D01*
X426335Y786378D01*
X426339Y786307D01*
X426353Y786238D01*
X426378Y786171D01*
X426414Y786109D01*
X426458Y786054D01*
X426511Y786006D01*
X426571Y785967D01*
X426636Y785938D01*
X426704Y785919D01*
X426775Y785912D01*
X426846Y785915D01*
X426916Y785930D01*
X426982Y785956D01*
X427157Y786032D01*
X427339Y786090D01*
X427525Y786132D01*
X427715Y786157D01*
X427906Y786165D01*
X427907Y786165D01*
Y781835D01*
X427906Y781835D01*
X427715Y781843D01*
X427525Y781868D01*
X427339Y781910D01*
X427157Y781968D01*
X426981Y782042D01*
X426915Y782068D01*
X426846Y782083D01*
X426775Y782086D01*
X426705Y782079D01*
X426636Y782060D01*
X426572Y782031D01*
X426512Y781992D01*
X426460Y781945D01*
X426416Y781889D01*
X426380Y781828D01*
X426355Y781762D01*
X426341Y781692D01*
X426337Y781622D01*
X426345Y781551D01*
X426364Y781483D01*
X426393Y781418D01*
X426431Y781359D01*
X426479Y781307D01*
X426534Y781262D01*
X426596Y781228D01*
X426845Y781121D01*
X427103Y781039D01*
X427367Y780979D01*
X427635Y780944D01*
X427906Y780932D01*
X427907Y780932D01*
Y500923D01*
X422464D01*
Y587869D01*
X422570Y587844D01*
X422915Y587816D01*
X423261Y587844D01*
X423597Y587924D01*
X423917Y588057D01*
X424212Y588238D01*
X424476Y588463D01*
X424701Y588726D01*
X424882Y589021D01*
X425014Y589341D01*
X425095Y589678D01*
X425115Y590023D01*
X425095Y590368D01*
X425014Y590705D01*
X424882Y591025D01*
X424701Y591320D01*
X424476Y591584D01*
X424212Y591809D01*
X423917Y591989D01*
X423597Y592122D01*
X423261Y592203D01*
X423170Y592210D01*
X422464Y593719D01*
Y730675D01*
X422537Y730693D01*
X422668Y730747D01*
X422789Y730821D01*
X422897Y730913D01*
X422989Y731021D01*
X423063Y731141D01*
X423117Y731272D01*
X423150Y731410D01*
X423158Y731551D01*
X423150Y739692D01*
X423117Y739830D01*
X423063Y739961D01*
X422989Y740082D01*
X422897Y740190D01*
X422789Y740282D01*
X422668Y740356D01*
X422537Y740410D01*
X422464Y740427D01*
Y780940D01*
X424307Y780943D01*
X424444Y780976D01*
X424575Y781030D01*
X424696Y781104D01*
X424804Y781196D01*
X424896Y781304D01*
X424970Y781425D01*
X425024Y781556D01*
X425057Y781693D01*
X425065Y781835D01*
X425063Y782851D01*
X425131Y782690D01*
X425166Y782628D01*
X425211Y782572D01*
X425263Y782524D01*
X425323Y782485D01*
X425388Y782456D01*
X425456Y782437D01*
X425527Y782430D01*
X425598Y782433D01*
X425668Y782448D01*
X425734Y782473D01*
X425796Y782508D01*
X425852Y782553D01*
X425899Y782606D01*
X425938Y782665D01*
X425968Y782730D01*
X425986Y782799D01*
X425994Y782869D01*
X425991Y782940D01*
X425976Y783010D01*
X425949Y783076D01*
X425874Y783251D01*
X425816Y783433D01*
X425774Y783620D01*
X425749Y783809D01*
X425740Y784000D01*
X425749Y784191D01*
X425774Y784380D01*
X425816Y784567D01*
X425874Y784749D01*
X425948Y784925D01*
X425974Y784990D01*
X425988Y785060D01*
X425992Y785131D01*
X425984Y785201D01*
X425966Y785269D01*
X425937Y785334D01*
X425898Y785393D01*
X425850Y785446D01*
X425795Y785490D01*
X425733Y785525D01*
X425667Y785550D01*
X425598Y785565D01*
X425527Y785568D01*
X425457Y785561D01*
X425388Y785542D01*
X425324Y785513D01*
X425265Y785474D01*
X425212Y785426D01*
X425168Y785371D01*
X425134Y785309D01*
X425059Y785137D01*
X425057Y786307D01*
X425024Y786444D01*
X424970Y786575D01*
X424896Y786696D01*
X424804Y786804D01*
X424696Y786896D01*
X424575Y786970D01*
X424444Y787024D01*
X424307Y787057D01*
X424165Y787065D01*
X422464Y787062D01*
Y790523D01*
G37*
G36*
Y593719D02*X414912Y609862D01*
Y692979D01*
X414976Y692995D01*
X415434Y693185D01*
X415857Y693444D01*
X416234Y693766D01*
X416556Y694143D01*
X416815Y694566D01*
X417005Y695024D01*
X417121Y695506D01*
X417150Y696000D01*
X417121Y696494D01*
X417005Y696976D01*
X416815Y697434D01*
X416556Y697857D01*
X416234Y698234D01*
X415857Y698556D01*
X415434Y698815D01*
X414976Y699005D01*
X414912Y699021D01*
Y712979D01*
X414976Y712995D01*
X415434Y713185D01*
X415857Y713444D01*
X416234Y713766D01*
X416556Y714143D01*
X416815Y714566D01*
X417005Y715024D01*
X417121Y715506D01*
X417150Y716000D01*
X417121Y716494D01*
X417005Y716976D01*
X416815Y717434D01*
X416556Y717857D01*
X416234Y718234D01*
X415857Y718556D01*
X415434Y718815D01*
X414976Y719005D01*
X414912Y719021D01*
Y730652D01*
X422399Y730660D01*
X422464Y730675D01*
Y593719D01*
G37*
G36*
Y500923D02*X414912D01*
Y604199D01*
X421021Y591142D01*
X420949Y591025D01*
X420817Y590705D01*
X420736Y590368D01*
X420709Y590023D01*
X420736Y589678D01*
X420817Y589341D01*
X420949Y589021D01*
X421130Y588726D01*
X421355Y588463D01*
X421618Y588238D01*
X421913Y588057D01*
X422233Y587924D01*
X422464Y587869D01*
Y500923D01*
G37*
G36*
X414912Y790523D02*X422464D01*
Y787062D01*
X419693Y787057D01*
X419556Y787024D01*
X419425Y786970D01*
X419304Y786896D01*
X419196Y786804D01*
X419104Y786696D01*
X419030Y786575D01*
X418976Y786444D01*
X418943Y786307D01*
X418935Y786165D01*
X418943Y781693D01*
X418976Y781556D01*
X419030Y781425D01*
X419104Y781304D01*
X419196Y781196D01*
X419304Y781104D01*
X419425Y781030D01*
X419556Y780976D01*
X419693Y780943D01*
X419835Y780935D01*
X422464Y780940D01*
Y740427D01*
X422399Y740443D01*
X422258Y740451D01*
X414912Y740444D01*
Y790523D01*
G37*
G36*
X390950Y757023D02*X412515D01*
Y790523D01*
X414912D01*
Y740444D01*
X414117Y740443D01*
X413979Y740410D01*
X413848Y740356D01*
X413728Y740282D01*
X413620Y740190D01*
X413528Y740082D01*
X413454Y739961D01*
X413400Y739830D01*
X413367Y739692D01*
X413358Y739551D01*
X413367Y731410D01*
X413400Y731272D01*
X413454Y731141D01*
X413528Y731021D01*
X413620Y730913D01*
X413728Y730821D01*
X413848Y730747D01*
X413979Y730693D01*
X414117Y730660D01*
X414258Y730651D01*
X414912Y730652D01*
Y719021D01*
X414494Y719121D01*
X414000Y719160D01*
X413506Y719121D01*
X413024Y719005D01*
X412566Y718815D01*
X412143Y718556D01*
X411766Y718234D01*
X411444Y717857D01*
X411185Y717434D01*
X410995Y716976D01*
X410879Y716494D01*
X410840Y716000D01*
X410879Y715506D01*
X410995Y715024D01*
X411185Y714566D01*
X411444Y714143D01*
X411766Y713766D01*
X412143Y713444D01*
X412566Y713185D01*
X413024Y712995D01*
X413506Y712879D01*
X414000Y712840D01*
X414494Y712879D01*
X414912Y712979D01*
Y699021D01*
X414494Y699121D01*
X414000Y699160D01*
X413506Y699121D01*
X413024Y699005D01*
X412566Y698815D01*
X412143Y698556D01*
X411766Y698234D01*
X411444Y697857D01*
X411185Y697434D01*
X410995Y696976D01*
X410879Y696494D01*
X410840Y696000D01*
X410879Y695506D01*
X410995Y695024D01*
X411185Y694566D01*
X411444Y694143D01*
X411766Y693766D01*
X412143Y693444D01*
X412566Y693185D01*
X413024Y692995D01*
X413506Y692879D01*
X414000Y692840D01*
X414494Y692879D01*
X414912Y692979D01*
Y609862D01*
X409035Y622425D01*
X409026Y622447D01*
X408984Y622545D01*
X408952Y622646D01*
X408929Y622749D01*
X408916Y622854D01*
X408911Y622960D01*
X408916Y623066D01*
X408929Y623171D01*
X408952Y623274D01*
X408976Y623350D01*
X409014Y623441D01*
X409095Y623778D01*
X409115Y624123D01*
X409095Y624468D01*
X409014Y624805D01*
X408882Y625125D01*
X408701Y625420D01*
X408476Y625684D01*
X408212Y625909D01*
X407917Y626089D01*
X407597Y626222D01*
X407261Y626303D01*
X406915Y626330D01*
X406570Y626303D01*
X406233Y626222D01*
X405913Y626089D01*
X405618Y625909D01*
X405355Y625684D01*
X405130Y625420D01*
X404949Y625125D01*
X404817Y624805D01*
X404736Y624468D01*
X404709Y624123D01*
X404736Y623778D01*
X404817Y623441D01*
X404949Y623121D01*
X405130Y622826D01*
X405355Y622563D01*
X405618Y622338D01*
X405913Y622157D01*
X406233Y622024D01*
X406245Y622022D01*
X406265Y622014D01*
X406359Y621965D01*
X406448Y621908D01*
X406532Y621844D01*
X406610Y621772D01*
X406682Y621694D01*
X406746Y621610D01*
X406803Y621520D01*
X406835Y621460D01*
X406847Y621431D01*
X406868Y621392D01*
X414912Y604199D01*
Y500923D01*
X390950D01*
Y612080D01*
X403515Y606296D01*
X403518Y606295D01*
X403519Y606294D01*
X403521Y606293D01*
X403522Y606292D01*
X403523Y606291D01*
X403524Y606290D01*
X403626Y606045D01*
X403807Y605749D01*
X404032Y605486D01*
X404295Y605261D01*
X404590Y605080D01*
X404910Y604948D01*
X405247Y604867D01*
X405592Y604840D01*
X405937Y604867D01*
X406274Y604948D01*
X406594Y605080D01*
X406889Y605261D01*
X407153Y605486D01*
X407377Y605749D01*
X407558Y606045D01*
X407691Y606365D01*
X407772Y606701D01*
X407792Y607046D01*
X407772Y607392D01*
X407691Y607728D01*
X407558Y608048D01*
X407377Y608344D01*
X407153Y608607D01*
X406889Y608832D01*
X406594Y609013D01*
X406274Y609145D01*
X405937Y609226D01*
X405592Y609253D01*
X405247Y609226D01*
X405081Y609186D01*
X405062Y609184D01*
X405036Y609175D01*
X404910Y609145D01*
X404822Y609109D01*
X404822Y609109D01*
X404780Y609129D01*
X404751Y609140D01*
X390950Y615493D01*
Y705209D01*
X390995Y705024D01*
X391185Y704566D01*
X391444Y704143D01*
X391766Y703766D01*
X392143Y703444D01*
X392566Y703185D01*
X393024Y702995D01*
X393506Y702879D01*
X394000Y702840D01*
X394494Y702879D01*
X394976Y702995D01*
X395434Y703185D01*
X395857Y703444D01*
X396234Y703766D01*
X396556Y704143D01*
X396815Y704566D01*
X397005Y705024D01*
X397121Y705506D01*
X397150Y706000D01*
X397121Y706494D01*
X397005Y706976D01*
X396815Y707434D01*
X396556Y707857D01*
X396234Y708234D01*
X395857Y708556D01*
X395434Y708815D01*
X394976Y709005D01*
X394494Y709121D01*
X394000Y709160D01*
X393506Y709121D01*
X393024Y709005D01*
X392566Y708815D01*
X392143Y708556D01*
X391766Y708234D01*
X391444Y707857D01*
X391185Y707434D01*
X390995Y706976D01*
X390950Y706791D01*
Y757023D01*
G37*
G36*
X320051Y696466D02*X335366Y695513D01*
X335311Y695479D01*
X335203Y695387D01*
X335111Y695279D01*
X335037Y695159D01*
X334983Y695028D01*
X334950Y694890D01*
X334942Y694749D01*
X334950Y688608D01*
X334983Y688470D01*
X335037Y688339D01*
X335111Y688218D01*
X335203Y688110D01*
X335311Y688018D01*
X335432Y687944D01*
X335563Y687890D01*
X335701Y687857D01*
X335842Y687849D01*
X336442Y687850D01*
X336507Y687495D01*
X336550Y687054D01*
X336554Y686611D01*
X336519Y686170D01*
X336446Y685733D01*
X336443Y685713D01*
X334070Y673537D01*
X333709Y674126D01*
X333249Y674664D01*
X332711Y675124D01*
X332107Y675494D01*
X331452Y675765D01*
X330764Y675931D01*
X330057Y675986D01*
X329351Y675931D01*
X328663Y675765D01*
X328008Y675494D01*
X327404Y675124D01*
X326866Y674664D01*
X326406Y674126D01*
X326036Y673522D01*
X325765Y672867D01*
X325599Y672179D01*
X325544Y671472D01*
X325599Y670766D01*
X325765Y670078D01*
X326036Y669423D01*
X326406Y668819D01*
X326866Y668281D01*
X327404Y667821D01*
X328008Y667451D01*
X328663Y667179D01*
X329351Y667014D01*
X330057Y666959D01*
X330764Y667014D01*
X331452Y667179D01*
X332107Y667451D01*
X332711Y667821D01*
X333249Y668281D01*
X333709Y668819D01*
X334079Y669423D01*
X334150Y669595D01*
X334216Y669392D01*
X334447Y668859D01*
X334495Y668775D01*
X356483Y624087D01*
X356397Y624122D01*
X356061Y624203D01*
X355715Y624230D01*
X355370Y624203D01*
X355033Y624122D01*
X354713Y623989D01*
X354566Y623899D01*
X354564Y623898D01*
X354563Y623898D01*
X354561Y623897D01*
X354561Y623897D01*
X354525Y623907D01*
X354489Y623913D01*
X320051Y632206D01*
Y666959D01*
X320057Y666959D01*
X320764Y667014D01*
X321452Y667179D01*
X322107Y667451D01*
X322711Y667821D01*
X323249Y668281D01*
X323709Y668819D01*
X324079Y669423D01*
X324350Y670078D01*
X324516Y670766D01*
X324557Y671472D01*
X324516Y672179D01*
X324350Y672867D01*
X324079Y673522D01*
X323709Y674126D01*
X323249Y674664D01*
X322711Y675124D01*
X322107Y675494D01*
X321452Y675765D01*
X320764Y675931D01*
X320057Y675986D01*
X320051Y675986D01*
Y696466D01*
G37*
G36*
X310051Y697089D02*X320051Y696466D01*
Y675986D01*
X319351Y675931D01*
X318663Y675765D01*
X318008Y675494D01*
X317404Y675124D01*
X316866Y674664D01*
X316406Y674126D01*
X316036Y673522D01*
X315765Y672867D01*
X315599Y672179D01*
X315544Y671472D01*
X315599Y670766D01*
X315765Y670078D01*
X316036Y669423D01*
X316406Y668819D01*
X316866Y668281D01*
X317404Y667821D01*
X318008Y667451D01*
X318663Y667179D01*
X319351Y667014D01*
X320051Y666959D01*
Y632206D01*
X310051Y634614D01*
Y666959D01*
X310057Y666959D01*
X310764Y667014D01*
X311452Y667179D01*
X312107Y667451D01*
X312711Y667821D01*
X313249Y668281D01*
X313709Y668819D01*
X314079Y669423D01*
X314350Y670078D01*
X314516Y670766D01*
X314557Y671472D01*
X314516Y672179D01*
X314350Y672867D01*
X314079Y673522D01*
X313709Y674126D01*
X313249Y674664D01*
X312711Y675124D01*
X312107Y675494D01*
X311452Y675765D01*
X310764Y675931D01*
X310057Y675986D01*
X310051Y675986D01*
Y697089D01*
G37*
G36*
X300051Y697711D02*X310051Y697089D01*
Y675986D01*
X309351Y675931D01*
X308663Y675765D01*
X308008Y675494D01*
X307404Y675124D01*
X306866Y674664D01*
X306406Y674126D01*
X306036Y673522D01*
X305765Y672867D01*
X305599Y672179D01*
X305544Y671472D01*
X305599Y670766D01*
X305765Y670078D01*
X306036Y669423D01*
X306406Y668819D01*
X306866Y668281D01*
X307404Y667821D01*
X308008Y667451D01*
X308663Y667179D01*
X309351Y667014D01*
X310051Y666959D01*
Y634614D01*
X300051Y637022D01*
Y666959D01*
X300057Y666959D01*
X300764Y667014D01*
X301452Y667179D01*
X302107Y667451D01*
X302711Y667821D01*
X303249Y668281D01*
X303709Y668819D01*
X304079Y669423D01*
X304350Y670078D01*
X304516Y670766D01*
X304557Y671472D01*
X304516Y672179D01*
X304350Y672867D01*
X304079Y673522D01*
X303709Y674126D01*
X303249Y674664D01*
X302711Y675124D01*
X302107Y675494D01*
X301452Y675765D01*
X300764Y675931D01*
X300057Y675986D01*
X300051Y675986D01*
Y697711D01*
G37*
G36*
X290051Y698334D02*X300051Y697711D01*
Y675986D01*
X299351Y675931D01*
X298663Y675765D01*
X298008Y675494D01*
X297404Y675124D01*
X296866Y674664D01*
X296406Y674126D01*
X296036Y673522D01*
X295765Y672867D01*
X295599Y672179D01*
X295544Y671472D01*
X295599Y670766D01*
X295765Y670078D01*
X296036Y669423D01*
X296406Y668819D01*
X296866Y668281D01*
X297404Y667821D01*
X298008Y667451D01*
X298663Y667179D01*
X299351Y667014D01*
X300051Y666959D01*
Y637022D01*
X290051Y639430D01*
Y666959D01*
X290057Y666959D01*
X290764Y667014D01*
X291452Y667179D01*
X292107Y667451D01*
X292711Y667821D01*
X293249Y668281D01*
X293709Y668819D01*
X294079Y669423D01*
X294350Y670078D01*
X294516Y670766D01*
X294557Y671472D01*
X294516Y672179D01*
X294350Y672867D01*
X294079Y673522D01*
X293709Y674126D01*
X293249Y674664D01*
X292711Y675124D01*
X292107Y675494D01*
X291452Y675765D01*
X290764Y675931D01*
X290057Y675986D01*
X290051Y675986D01*
Y698334D01*
G37*
G36*
X285000Y698648D02*X290051Y698334D01*
Y675986D01*
X289351Y675931D01*
X288663Y675765D01*
X288008Y675494D01*
X287404Y675124D01*
X286866Y674664D01*
X286406Y674126D01*
X286036Y673522D01*
X285765Y672867D01*
X285599Y672179D01*
X285544Y671472D01*
X285599Y670766D01*
X285765Y670078D01*
X286036Y669423D01*
X286406Y668819D01*
X286866Y668281D01*
X287404Y667821D01*
X288008Y667451D01*
X288663Y667179D01*
X289351Y667014D01*
X290051Y666959D01*
Y639430D01*
X285000Y640647D01*
Y652104D01*
X288141Y652108D01*
X288279Y652141D01*
X288410Y652196D01*
X288531Y652270D01*
X288638Y652362D01*
X288730Y652469D01*
X288804Y652590D01*
X288859Y652721D01*
X288892Y652859D01*
X288900Y653000D01*
X288892Y659141D01*
X288859Y659279D01*
X288804Y659410D01*
X288730Y659531D01*
X288638Y659638D01*
X288531Y659730D01*
X288410Y659804D01*
X288279Y659859D01*
X288141Y659892D01*
X288000Y659900D01*
X285000Y659896D01*
Y698648D01*
G37*
G36*
X280051Y698956D02*X285000Y698648D01*
Y659896D01*
X281859Y659892D01*
X281721Y659859D01*
X281590Y659804D01*
X281469Y659730D01*
X281362Y659638D01*
X281270Y659531D01*
X281196Y659410D01*
X281141Y659279D01*
X281108Y659141D01*
X281100Y659000D01*
X281108Y652859D01*
X281141Y652721D01*
X281196Y652590D01*
X281270Y652469D01*
X281362Y652362D01*
X281469Y652270D01*
X281590Y652196D01*
X281721Y652141D01*
X281859Y652108D01*
X282000Y652100D01*
X285000Y652104D01*
Y640647D01*
X280051Y641839D01*
Y666959D01*
X280057Y666959D01*
X280764Y667014D01*
X281452Y667179D01*
X282107Y667451D01*
X282711Y667821D01*
X283249Y668281D01*
X283709Y668819D01*
X284079Y669423D01*
X284350Y670078D01*
X284516Y670766D01*
X284557Y671472D01*
X284516Y672179D01*
X284350Y672867D01*
X284079Y673522D01*
X283709Y674126D01*
X283249Y674664D01*
X282711Y675124D01*
X282107Y675494D01*
X281452Y675765D01*
X280764Y675931D01*
X280057Y675986D01*
X280051Y675986D01*
Y698956D01*
G37*
G36*
X274994Y699271D02*X280051Y698956D01*
Y675986D01*
X279351Y675931D01*
X278663Y675765D01*
X278008Y675494D01*
X277404Y675124D01*
X276866Y674664D01*
X276406Y674126D01*
X276036Y673522D01*
X275765Y672867D01*
X275599Y672179D01*
X275544Y671472D01*
X275599Y670766D01*
X275765Y670078D01*
X276036Y669423D01*
X276406Y668819D01*
X276866Y668281D01*
X277404Y667821D01*
X278008Y667451D01*
X278663Y667179D01*
X279351Y667014D01*
X280051Y666959D01*
Y641839D01*
X274994Y643056D01*
Y652088D01*
X275000Y652088D01*
X275612Y652136D01*
X276209Y652279D01*
X276776Y652514D01*
X277299Y652835D01*
X277766Y653234D01*
X278165Y653701D01*
X278486Y654224D01*
X278721Y654791D01*
X278864Y655388D01*
X278900Y656000D01*
X278864Y656612D01*
X278721Y657209D01*
X278486Y657776D01*
X278165Y658299D01*
X277766Y658766D01*
X277299Y659165D01*
X276776Y659486D01*
X276209Y659721D01*
X275612Y659864D01*
X275000Y659912D01*
X274994Y659912D01*
Y699271D01*
G37*
G36*
X270051Y699563D02*X270145Y699569D01*
X270190Y699568D01*
X270213Y699565D01*
X270267Y699565D01*
X274994Y699271D01*
Y659912D01*
X274388Y659864D01*
X273791Y659721D01*
X273224Y659486D01*
X272701Y659165D01*
X272234Y658766D01*
X271835Y658299D01*
X271514Y657776D01*
X271279Y657209D01*
X271136Y656612D01*
X271088Y656000D01*
X271136Y655388D01*
X271279Y654791D01*
X271514Y654224D01*
X271835Y653701D01*
X272234Y653234D01*
X272701Y652835D01*
X273224Y652514D01*
X273791Y652279D01*
X274388Y652136D01*
X274994Y652088D01*
Y643056D01*
X270051Y644247D01*
Y666959D01*
X270057Y666959D01*
X270764Y667014D01*
X271452Y667179D01*
X272107Y667451D01*
X272711Y667821D01*
X273249Y668281D01*
X273709Y668819D01*
X274079Y669423D01*
X274350Y670078D01*
X274516Y670766D01*
X274557Y671472D01*
X274516Y672179D01*
X274350Y672867D01*
X274079Y673522D01*
X273709Y674126D01*
X273249Y674664D01*
X272711Y675124D01*
X272107Y675494D01*
X271452Y675765D01*
X270764Y675931D01*
X270057Y675986D01*
X270051Y675986D01*
Y699563D01*
G37*
G36*
X264994Y698798D02*X266643Y699108D01*
X266904Y698948D01*
X267224Y698815D01*
X267561Y698735D01*
X267906Y698707D01*
X268252Y698735D01*
X268588Y698815D01*
X268908Y698948D01*
X269203Y699129D01*
X269360Y699262D01*
X269370Y699270D01*
X269452Y699337D01*
X269540Y699395D01*
X269633Y699446D01*
X269731Y699488D01*
X269831Y699522D01*
X269934Y699547D01*
X270039Y699562D01*
X270051Y699563D01*
Y675986D01*
X269351Y675931D01*
X268663Y675765D01*
X268008Y675494D01*
X267404Y675124D01*
X266866Y674664D01*
X266406Y674126D01*
X266036Y673522D01*
X265765Y672867D01*
X265599Y672179D01*
X265544Y671472D01*
X265599Y670766D01*
X265765Y670078D01*
X266036Y669423D01*
X266406Y668819D01*
X266866Y668281D01*
X267404Y667821D01*
X268008Y667451D01*
X268663Y667179D01*
X269351Y667014D01*
X270051Y666959D01*
Y644247D01*
X264994Y645464D01*
Y652088D01*
X265000Y652088D01*
X265612Y652136D01*
X266209Y652279D01*
X266776Y652514D01*
X267299Y652835D01*
X267766Y653234D01*
X268165Y653701D01*
X268486Y654224D01*
X268721Y654791D01*
X268864Y655388D01*
X268900Y656000D01*
X268864Y656612D01*
X268721Y657209D01*
X268486Y657776D01*
X268165Y658299D01*
X267766Y658766D01*
X267299Y659165D01*
X266776Y659486D01*
X266209Y659721D01*
X265612Y659864D01*
X265000Y659912D01*
X264994Y659912D01*
Y698798D01*
G37*
G36*
X260051Y697869D02*X264994Y698798D01*
Y659912D01*
X264388Y659864D01*
X263791Y659721D01*
X263224Y659486D01*
X262701Y659165D01*
X262234Y658766D01*
X261835Y658299D01*
X261514Y657776D01*
X261279Y657209D01*
X261136Y656612D01*
X261088Y656000D01*
X261136Y655388D01*
X261279Y654791D01*
X261514Y654224D01*
X261835Y653701D01*
X262234Y653234D01*
X262701Y652835D01*
X263224Y652514D01*
X263791Y652279D01*
X264388Y652136D01*
X264994Y652088D01*
Y645464D01*
X260051Y646655D01*
Y666959D01*
X260057Y666959D01*
X260764Y667014D01*
X261452Y667179D01*
X262107Y667451D01*
X262711Y667821D01*
X263249Y668281D01*
X263709Y668819D01*
X264079Y669423D01*
X264350Y670078D01*
X264516Y670766D01*
X264557Y671472D01*
X264516Y672179D01*
X264350Y672867D01*
X264079Y673522D01*
X263709Y674126D01*
X263249Y674664D01*
X262711Y675124D01*
X262107Y675494D01*
X261452Y675765D01*
X260764Y675931D01*
X260057Y675986D01*
X260051Y675986D01*
Y697869D01*
G37*
G36*
X250662Y660436D02*X254039Y659780D01*
X253791Y659721D01*
X253224Y659486D01*
X252701Y659165D01*
X252234Y658766D01*
X251835Y658299D01*
X251514Y657776D01*
X251279Y657209D01*
X251136Y656612D01*
X251088Y656000D01*
X251136Y655388D01*
X251279Y654791D01*
X251514Y654224D01*
X251835Y653701D01*
X252234Y653234D01*
X252701Y652835D01*
X253224Y652514D01*
X253791Y652279D01*
X254388Y652136D01*
X255000Y652088D01*
X255612Y652136D01*
X256209Y652279D01*
X256776Y652514D01*
X257299Y652835D01*
X257766Y653234D01*
X258165Y653701D01*
X258486Y654224D01*
X258721Y654791D01*
X258864Y655388D01*
X258900Y656000D01*
X258864Y656612D01*
X258721Y657209D01*
X258486Y657776D01*
X258165Y658299D01*
X257906Y658603D01*
X257997Y658624D01*
X258317Y658757D01*
X258612Y658938D01*
X258876Y659163D01*
X259101Y659426D01*
X259282Y659721D01*
X259414Y660041D01*
X259495Y660378D01*
X259515Y660723D01*
X259495Y661068D01*
X259414Y661405D01*
X259282Y661725D01*
X259101Y662020D01*
X258876Y662284D01*
X258612Y662509D01*
X258317Y662689D01*
X257997Y662822D01*
X257661Y662903D01*
X257315Y662930D01*
X256970Y662903D01*
X256633Y662822D01*
X256313Y662689D01*
X256076Y662544D01*
X256018Y662557D01*
X255987Y662560D01*
X250662Y663594D01*
Y667006D01*
X250764Y667014D01*
X251452Y667179D01*
X252107Y667451D01*
X252711Y667821D01*
X253249Y668281D01*
X253709Y668819D01*
X254079Y669423D01*
X254350Y670078D01*
X254516Y670766D01*
X254557Y671472D01*
X254516Y672179D01*
X254350Y672867D01*
X254079Y673522D01*
X253709Y674126D01*
X253249Y674664D01*
X252711Y675124D01*
X252107Y675494D01*
X251452Y675765D01*
X250764Y675931D01*
X250662Y675939D01*
Y695493D01*
X250817Y695557D01*
X251112Y695738D01*
X251376Y695963D01*
X251481Y696086D01*
X251483Y696088D01*
X251488Y696095D01*
X251601Y696226D01*
X251638Y696286D01*
X251663Y696290D01*
X251702Y696301D01*
X260051Y697869D01*
Y675986D01*
X259351Y675931D01*
X258663Y675765D01*
X258008Y675494D01*
X257404Y675124D01*
X256866Y674664D01*
X256406Y674126D01*
X256036Y673522D01*
X255765Y672867D01*
X255599Y672179D01*
X255544Y671472D01*
X255599Y670766D01*
X255765Y670078D01*
X256036Y669423D01*
X256406Y668819D01*
X256866Y668281D01*
X257404Y667821D01*
X258008Y667451D01*
X258663Y667179D01*
X259351Y667014D01*
X260051Y666959D01*
Y646655D01*
X250662Y648916D01*
Y660436D01*
G37*
G36*
X379994Y617124D02*X390950Y612080D01*
Y500923D01*
X379994D01*
Y558588D01*
X380000Y558588D01*
X380612Y558636D01*
X381209Y558779D01*
X381776Y559014D01*
X382299Y559335D01*
X382766Y559734D01*
X383165Y560201D01*
X383486Y560724D01*
X383721Y561291D01*
X383864Y561888D01*
X383900Y562500D01*
X383864Y563112D01*
X383721Y563709D01*
X383486Y564276D01*
X383165Y564799D01*
X382766Y565266D01*
X382299Y565665D01*
X381776Y565986D01*
X381209Y566221D01*
X380612Y566364D01*
X380000Y566412D01*
X379994Y566412D01*
Y617124D01*
G37*
G36*
Y757023D02*X390950D01*
Y706791D01*
X390879Y706494D01*
X390840Y706000D01*
X390879Y705506D01*
X390950Y705209D01*
Y615493D01*
X379994Y620536D01*
Y688015D01*
X380051Y688028D01*
X380618Y688263D01*
X381141Y688584D01*
X381608Y688983D01*
X382007Y689449D01*
X382327Y689973D01*
X382562Y690540D01*
X382706Y691137D01*
X382742Y691749D01*
X382706Y692361D01*
X382562Y692958D01*
X382327Y693525D01*
X382007Y694048D01*
X381608Y694515D01*
X381141Y694914D01*
X380618Y695234D01*
X380051Y695469D01*
X379994Y695483D01*
Y738468D01*
X380004Y738510D01*
X380038Y738611D01*
X380080Y738708D01*
X380131Y738801D01*
X380189Y738889D01*
X380255Y738972D01*
X380328Y739049D01*
X380394Y739107D01*
X380576Y739263D01*
X380801Y739526D01*
X380982Y739821D01*
X381114Y740141D01*
X381195Y740478D01*
X381215Y740823D01*
X381195Y741168D01*
X381114Y741505D01*
X380982Y741825D01*
X380801Y742120D01*
X380576Y742384D01*
X380312Y742609D01*
X380017Y742789D01*
X379994Y742799D01*
Y757023D01*
G37*
G36*
Y695483D02*X379454Y695613D01*
X378842Y695661D01*
X378230Y695613D01*
X377633Y695469D01*
X377066Y695234D01*
X376542Y694914D01*
X376076Y694515D01*
X375677Y694048D01*
X375386Y693573D01*
X379962Y738282D01*
X379965Y738302D01*
X379979Y738407D01*
X379994Y738468D01*
Y695483D01*
G37*
G36*
Y620536D02*X378405Y621268D01*
X378403Y621269D01*
X378398Y621271D01*
X378387Y621276D01*
X378386Y621277D01*
X378384Y621278D01*
X378384Y621278D01*
X378282Y621525D01*
X378101Y621820D01*
X377876Y622084D01*
X377612Y622309D01*
X377317Y622489D01*
X376997Y622622D01*
X376661Y622703D01*
X376315Y622730D01*
X375970Y622703D01*
X375633Y622622D01*
X375313Y622489D01*
X375018Y622309D01*
X374755Y622084D01*
X374530Y621820D01*
X374349Y621525D01*
X374217Y621205D01*
X374136Y620868D01*
X374109Y620523D01*
X374136Y620178D01*
X374217Y619841D01*
X374349Y619521D01*
X374530Y619226D01*
X374755Y618963D01*
X375018Y618738D01*
X375313Y618557D01*
X375633Y618424D01*
X375970Y618344D01*
X376315Y618316D01*
X376661Y618344D01*
X376997Y618424D01*
X377084Y618460D01*
X377120Y618446D01*
X379994Y617124D01*
Y566412D01*
X379388Y566364D01*
X378791Y566221D01*
X378224Y565986D01*
X377701Y565665D01*
X377234Y565266D01*
X376835Y564799D01*
X376514Y564276D01*
X376279Y563709D01*
X376136Y563112D01*
X376088Y562500D01*
X376136Y561888D01*
X376279Y561291D01*
X376514Y560724D01*
X376835Y560201D01*
X377234Y559734D01*
X377701Y559335D01*
X378224Y559014D01*
X378791Y558779D01*
X379388Y558636D01*
X379994Y558588D01*
Y500923D01*
X369994D01*
Y558588D01*
X370000Y558588D01*
X370612Y558636D01*
X371209Y558779D01*
X371776Y559014D01*
X372299Y559335D01*
X372766Y559734D01*
X373165Y560201D01*
X373486Y560724D01*
X373721Y561291D01*
X373864Y561888D01*
X373900Y562500D01*
X373864Y563112D01*
X373721Y563709D01*
X373486Y564276D01*
X373165Y564799D01*
X372766Y565266D01*
X372299Y565665D01*
X371776Y565986D01*
X371209Y566221D01*
X370612Y566364D01*
X370000Y566412D01*
X369994Y566412D01*
Y640891D01*
X375089Y690674D01*
X375121Y690540D01*
X375356Y689973D01*
X375677Y689449D01*
X376076Y688983D01*
X376542Y688584D01*
X377066Y688263D01*
X377633Y688028D01*
X378230Y687885D01*
X378842Y687837D01*
X379454Y687885D01*
X379994Y688015D01*
Y620536D01*
G37*
G36*
X373775Y786023D02*X377715D01*
Y757023D01*
X379994D01*
Y742799D01*
X379697Y742922D01*
X379361Y743003D01*
X379015Y743030D01*
X378670Y743003D01*
X378333Y742922D01*
X378013Y742789D01*
X377718Y742609D01*
X377455Y742384D01*
X377230Y742120D01*
X377049Y741825D01*
X376917Y741505D01*
X376836Y741168D01*
X376809Y740823D01*
X376836Y740478D01*
X376917Y740141D01*
X377049Y739821D01*
X377230Y739526D01*
X377305Y739439D01*
X377310Y739431D01*
X377374Y739346D01*
X377430Y739256D01*
X377477Y739161D01*
X377516Y739063D01*
X377546Y738961D01*
X377567Y738857D01*
X377579Y738752D01*
X377582Y738646D01*
X377578Y738583D01*
X377573Y738554D01*
X377572Y738505D01*
X373775Y701405D01*
Y707714D01*
X373788Y707721D01*
X373845Y707764D01*
X373893Y707815D01*
X373932Y707874D01*
X374093Y708175D01*
X374224Y708490D01*
X374327Y708815D01*
X374401Y709148D01*
X374446Y709487D01*
X374460Y709828D01*
X374446Y710168D01*
X374401Y710507D01*
X374327Y710840D01*
X374224Y711165D01*
X374093Y711480D01*
X373936Y711783D01*
X373896Y711842D01*
X373847Y711893D01*
X373790Y711937D01*
X373775Y711945D01*
Y715954D01*
X373836Y715969D01*
X373967Y716023D01*
X374087Y716097D01*
X374195Y716189D01*
X374287Y716297D01*
X374361Y716418D01*
X374415Y716549D01*
X374448Y716686D01*
X374457Y716828D01*
X374448Y722969D01*
X374415Y723107D01*
X374361Y723237D01*
X374287Y723358D01*
X374195Y723466D01*
X374087Y723558D01*
X373967Y723632D01*
X373836Y723686D01*
X373775Y723701D01*
Y758770D01*
X375196Y758773D01*
X375349Y758810D01*
X375495Y758870D01*
X375629Y758952D01*
X375749Y759054D01*
X375851Y759174D01*
X375933Y759308D01*
X375993Y759454D01*
X376030Y759607D01*
X376039Y759764D01*
X376030Y763921D01*
X375993Y764074D01*
X375933Y764219D01*
X375851Y764353D01*
X375749Y764473D01*
X375629Y764575D01*
X375495Y764658D01*
X375349Y764718D01*
X375196Y764755D01*
X375039Y764764D01*
X373775Y764761D01*
Y778934D01*
X373969Y778981D01*
X374406Y779161D01*
X374808Y779408D01*
X375167Y779715D01*
X375474Y780074D01*
X375721Y780476D01*
X375901Y780913D01*
X376012Y781372D01*
X376039Y781843D01*
X376012Y782313D01*
X375901Y782772D01*
X375721Y783209D01*
X375474Y783611D01*
X375167Y783970D01*
X374808Y784277D01*
X374406Y784524D01*
X373969Y784704D01*
X373775Y784751D01*
Y786023D01*
G37*
G36*
Y764761D02*X373039Y764759D01*
Y778833D01*
X373510Y778870D01*
X373775Y778934D01*
Y764761D01*
G37*
G36*
Y723701D02*X373698Y723719D01*
X373557Y723728D01*
X373039Y723727D01*
Y758768D01*
X373775Y758770D01*
Y723701D01*
G37*
G36*
Y701405D02*X373039Y694219D01*
Y715935D01*
X373698Y715936D01*
X373775Y715954D01*
Y711945D01*
X373727Y711971D01*
X373660Y711994D01*
X373590Y712007D01*
X373519Y712009D01*
X373448Y712000D01*
X373380Y711979D01*
X373315Y711949D01*
X373257Y711908D01*
X373205Y711859D01*
X373162Y711802D01*
X373128Y711740D01*
X373104Y711673D01*
X373091Y711602D01*
X373089Y711531D01*
X373099Y711460D01*
X373119Y711392D01*
X373151Y711329D01*
X373275Y711098D01*
X373375Y710855D01*
X373454Y710605D01*
X373511Y710349D01*
X373545Y710089D01*
X373557Y709828D01*
X373545Y709566D01*
X373511Y709306D01*
X373454Y709050D01*
X373375Y708800D01*
X373275Y708558D01*
X373153Y708325D01*
X373122Y708262D01*
X373101Y708194D01*
X373092Y708124D01*
X373094Y708053D01*
X373107Y707983D01*
X373130Y707917D01*
X373164Y707854D01*
X373207Y707798D01*
X373258Y707749D01*
X373317Y707709D01*
X373381Y707679D01*
X373449Y707658D01*
X373519Y707649D01*
X373590Y707651D01*
X373659Y707664D01*
X373726Y707687D01*
X373775Y707714D01*
Y701405D01*
G37*
G36*
X373039Y786023D02*X373775D01*
Y784751D01*
X373510Y784815D01*
X373039Y784852D01*
Y786023D01*
G37*
G36*
Y694219D02*X369994Y664463D01*
Y688015D01*
X370051Y688028D01*
X370618Y688263D01*
X371141Y688584D01*
X371608Y688983D01*
X372007Y689449D01*
X372327Y689973D01*
X372562Y690540D01*
X372706Y691137D01*
X372742Y691749D01*
X372706Y692361D01*
X372562Y692958D01*
X372327Y693525D01*
X372007Y694048D01*
X371608Y694515D01*
X371141Y694914D01*
X370618Y695234D01*
X370051Y695469D01*
X369994Y695483D01*
Y705968D01*
X370216Y705939D01*
X370557Y705924D01*
X370898Y705939D01*
X371236Y705983D01*
X371569Y706057D01*
X371894Y706160D01*
X372209Y706291D01*
X372512Y706449D01*
X372571Y706489D01*
X372622Y706538D01*
X372666Y706594D01*
X372700Y706657D01*
X372723Y706724D01*
X372736Y706794D01*
X372738Y706866D01*
X372729Y706936D01*
X372708Y707005D01*
X372678Y707069D01*
X372637Y707128D01*
X372588Y707179D01*
X372532Y707223D01*
X372469Y707257D01*
X372402Y707280D01*
X372332Y707293D01*
X372260Y707295D01*
X372190Y707286D01*
X372121Y707265D01*
X372058Y707233D01*
X371827Y707110D01*
X371584Y707009D01*
X371334Y706930D01*
X371079Y706873D01*
X370819Y706839D01*
X370557Y706828D01*
X370295Y706839D01*
X370035Y706873D01*
X369994Y706882D01*
Y712773D01*
X370035Y712782D01*
X370295Y712816D01*
X370557Y712828D01*
X370819Y712816D01*
X371079Y712782D01*
X371334Y712725D01*
X371584Y712646D01*
X371827Y712546D01*
X372059Y712424D01*
X372122Y712392D01*
X372190Y712372D01*
X372260Y712363D01*
X372331Y712365D01*
X372401Y712378D01*
X372468Y712401D01*
X372530Y712435D01*
X372586Y712478D01*
X372635Y712529D01*
X372675Y712588D01*
X372706Y712652D01*
X372726Y712719D01*
X372735Y712790D01*
X372733Y712861D01*
X372721Y712930D01*
X372697Y712997D01*
X372663Y713059D01*
X372620Y713115D01*
X372569Y713164D01*
X372510Y713203D01*
X372209Y713364D01*
X371894Y713495D01*
X371569Y713598D01*
X371236Y713672D01*
X370898Y713716D01*
X370557Y713731D01*
X370216Y713716D01*
X369994Y713687D01*
Y715931D01*
X373039Y715935D01*
Y694219D01*
G37*
G36*
X369994Y784002D02*X372015Y786023D01*
X373039D01*
Y784852D01*
X372569Y784815D01*
X372109Y784704D01*
X371673Y784524D01*
X371271Y784277D01*
X370912Y783970D01*
X370605Y783611D01*
X370358Y783209D01*
X370177Y782772D01*
X370067Y782313D01*
X370030Y781843D01*
X370067Y781372D01*
X370177Y780913D01*
X370358Y780476D01*
X370605Y780074D01*
X370912Y779715D01*
X371271Y779408D01*
X371673Y779161D01*
X372109Y778981D01*
X372569Y778870D01*
X373039Y778833D01*
Y764759D01*
X370882Y764755D01*
X370729Y764718D01*
X370584Y764658D01*
X370450Y764575D01*
X370330Y764473D01*
X370228Y764353D01*
X370146Y764219D01*
X370085Y764074D01*
X370049Y763921D01*
X370039Y763764D01*
X370049Y759607D01*
X370085Y759454D01*
X370146Y759308D01*
X370228Y759174D01*
X370330Y759054D01*
X370450Y758952D01*
X370584Y758870D01*
X370729Y758810D01*
X370882Y758773D01*
X371039Y758764D01*
X373039Y758768D01*
Y723727D01*
X369994Y723723D01*
Y784002D01*
G37*
G36*
Y500923D02*X359994D01*
Y558588D01*
X360000Y558588D01*
X360612Y558636D01*
X361209Y558779D01*
X361776Y559014D01*
X362299Y559335D01*
X362766Y559734D01*
X363165Y560201D01*
X363486Y560724D01*
X363721Y561291D01*
X363864Y561888D01*
X363900Y562500D01*
X363864Y563112D01*
X363721Y563709D01*
X363486Y564276D01*
X363165Y564799D01*
X362766Y565266D01*
X362299Y565665D01*
X361776Y565986D01*
X361209Y566221D01*
X360612Y566364D01*
X360000Y566412D01*
X359994Y566412D01*
Y638261D01*
X362586Y633575D01*
X362595Y633555D01*
X362643Y633461D01*
X362682Y633363D01*
X362712Y633261D01*
X362733Y633157D01*
X362745Y633052D01*
X362748Y632946D01*
X362742Y632840D01*
X362726Y632736D01*
X362722Y632718D01*
X362717Y632705D01*
X362636Y632368D01*
X362609Y632023D01*
X362636Y631678D01*
X362717Y631341D01*
X362849Y631021D01*
X363030Y630726D01*
X363255Y630463D01*
X363518Y630238D01*
X363813Y630057D01*
X364133Y629924D01*
X364470Y629844D01*
X364815Y629816D01*
X365161Y629844D01*
X365497Y629924D01*
X365817Y630057D01*
X366112Y630238D01*
X366376Y630463D01*
X366533Y630647D01*
X363672Y602696D01*
X363668Y602665D01*
X363655Y602560D01*
X363632Y602457D01*
X363600Y602356D01*
X363560Y602258D01*
X363511Y602164D01*
X363454Y602074D01*
X363390Y601990D01*
X363318Y601912D01*
X363254Y601854D01*
X363055Y601684D01*
X362830Y601420D01*
X362649Y601125D01*
X362517Y600805D01*
X362436Y600468D01*
X362409Y600123D01*
X362436Y599778D01*
X362517Y599441D01*
X362649Y599121D01*
X362830Y598826D01*
X363055Y598563D01*
X363318Y598338D01*
X363613Y598157D01*
X363933Y598024D01*
X364270Y597944D01*
X364615Y597916D01*
X364961Y597944D01*
X365297Y598024D01*
X365617Y598157D01*
X365912Y598338D01*
X366176Y598563D01*
X366401Y598826D01*
X366582Y599121D01*
X366714Y599441D01*
X366795Y599778D01*
X366815Y600123D01*
X366795Y600468D01*
X366714Y600805D01*
X366582Y601125D01*
X366452Y601336D01*
X366446Y601348D01*
X366439Y601358D01*
X366401Y601420D01*
X366338Y601494D01*
X366334Y601499D01*
X366268Y601583D01*
X366211Y601672D01*
X366163Y601766D01*
X366122Y601864D01*
X366090Y601965D01*
X366067Y602068D01*
X366053Y602173D01*
X366049Y602279D01*
X366053Y602379D01*
X366063Y602456D01*
X366064Y602490D01*
X369994Y640891D01*
Y566412D01*
X369388Y566364D01*
X368791Y566221D01*
X368224Y565986D01*
X367701Y565665D01*
X367234Y565266D01*
X366835Y564799D01*
X366514Y564276D01*
X366279Y563709D01*
X366136Y563112D01*
X366088Y562500D01*
X366136Y561888D01*
X366279Y561291D01*
X366514Y560724D01*
X366835Y560201D01*
X367234Y559734D01*
X367701Y559335D01*
X368224Y559014D01*
X368791Y558779D01*
X369388Y558636D01*
X369994Y558588D01*
Y500923D01*
G37*
G36*
X367339Y688150D02*X367633Y688028D01*
X368230Y687885D01*
X368842Y687837D01*
X369454Y687885D01*
X369994Y688015D01*
Y664463D01*
X367339Y638517D01*
Y688150D01*
G37*
G36*
Y715954D02*X367415Y715936D01*
X367557Y715928D01*
X369994Y715931D01*
Y713687D01*
X369878Y713672D01*
X369545Y713598D01*
X369219Y713495D01*
X368904Y713364D01*
X368602Y713206D01*
X368543Y713167D01*
X368491Y713117D01*
X368448Y713061D01*
X368414Y712998D01*
X368390Y712931D01*
X368377Y712861D01*
X368375Y712790D01*
X368385Y712719D01*
X368405Y712651D01*
X368436Y712586D01*
X368476Y712528D01*
X368525Y712476D01*
X368582Y712433D01*
X368645Y712399D01*
X368712Y712375D01*
X368782Y712362D01*
X368853Y712360D01*
X368924Y712369D01*
X368992Y712390D01*
X369056Y712422D01*
X369287Y712546D01*
X369529Y712646D01*
X369779Y712725D01*
X369994Y712773D01*
Y706882D01*
X369779Y706930D01*
X369529Y707009D01*
X369287Y707110D01*
X369054Y707231D01*
X368991Y707263D01*
X368923Y707283D01*
X368853Y707292D01*
X368782Y707290D01*
X368712Y707277D01*
X368646Y707254D01*
X368583Y707220D01*
X368527Y707177D01*
X368478Y707126D01*
X368438Y707067D01*
X368408Y707004D01*
X368387Y706936D01*
X368378Y706865D01*
X368380Y706795D01*
X368393Y706725D01*
X368416Y706658D01*
X368450Y706596D01*
X368493Y706540D01*
X368545Y706491D01*
X368604Y706452D01*
X368904Y706291D01*
X369219Y706160D01*
X369545Y706057D01*
X369878Y705983D01*
X369994Y705968D01*
Y695483D01*
X369454Y695613D01*
X368842Y695661D01*
X368230Y695613D01*
X367633Y695469D01*
X367339Y695347D01*
Y707710D01*
X367386Y707685D01*
X367453Y707661D01*
X367523Y707648D01*
X367595Y707646D01*
X367665Y707656D01*
X367734Y707676D01*
X367798Y707707D01*
X367857Y707747D01*
X367908Y707796D01*
X367952Y707853D01*
X367986Y707915D01*
X368009Y707983D01*
X368022Y708053D01*
X368024Y708124D01*
X368015Y708195D01*
X367994Y708263D01*
X367962Y708327D01*
X367839Y708558D01*
X367738Y708800D01*
X367659Y709050D01*
X367602Y709306D01*
X367568Y709566D01*
X367557Y709828D01*
X367568Y710089D01*
X367602Y710349D01*
X367659Y710605D01*
X367738Y710855D01*
X367839Y711098D01*
X367960Y711330D01*
X367992Y711393D01*
X368012Y711461D01*
X368021Y711531D01*
X368019Y711602D01*
X368007Y711672D01*
X367983Y711739D01*
X367949Y711801D01*
X367906Y711857D01*
X367855Y711906D01*
X367797Y711946D01*
X367733Y711977D01*
X367665Y711997D01*
X367595Y712006D01*
X367524Y712004D01*
X367454Y711991D01*
X367387Y711968D01*
X367339Y711941D01*
Y715954D01*
G37*
G36*
Y781346D02*X369994Y784002D01*
Y723723D01*
X367415Y723719D01*
X367339Y723701D01*
Y781346D01*
G37*
G36*
X362060Y778923D02*X364915D01*
X367339Y781346D01*
Y723701D01*
X367278Y723686D01*
X367147Y723632D01*
X367026Y723558D01*
X366918Y723466D01*
X366826Y723358D01*
X366752Y723237D01*
X366698Y723107D01*
X366665Y722969D01*
X366657Y722828D01*
X366665Y716686D01*
X366698Y716549D01*
X366752Y716418D01*
X366826Y716297D01*
X366918Y716189D01*
X367026Y716097D01*
X367147Y716023D01*
X367278Y715969D01*
X367339Y715954D01*
Y711941D01*
X367325Y711934D01*
X367269Y711891D01*
X367220Y711840D01*
X367181Y711781D01*
X367020Y711480D01*
X366889Y711165D01*
X366786Y710840D01*
X366712Y710507D01*
X366668Y710168D01*
X366653Y709828D01*
X366668Y709487D01*
X366712Y709148D01*
X366786Y708815D01*
X366889Y708490D01*
X367020Y708175D01*
X367178Y707873D01*
X367218Y707814D01*
X367267Y707762D01*
X367323Y707719D01*
X367339Y707710D01*
Y695347D01*
X367066Y695234D01*
X366542Y694914D01*
X366076Y694515D01*
X365677Y694048D01*
X365356Y693525D01*
X365121Y692958D01*
X364978Y692361D01*
X364930Y691749D01*
X364978Y691137D01*
X365121Y690540D01*
X365356Y689973D01*
X365677Y689449D01*
X366076Y688983D01*
X366542Y688584D01*
X367066Y688263D01*
X367339Y688150D01*
Y638517D01*
X366777Y633032D01*
X366601Y633320D01*
X366376Y633584D01*
X366112Y633809D01*
X365817Y633989D01*
X365497Y634122D01*
X365413Y634142D01*
X365324Y634171D01*
X365227Y634213D01*
X365134Y634264D01*
X365046Y634322D01*
X364963Y634388D01*
X364886Y634461D01*
X364816Y634540D01*
X364753Y634625D01*
X364716Y634685D01*
X364698Y634721D01*
X364673Y634760D01*
X362060Y639485D01*
Y667539D01*
X362061Y667540D01*
X362652Y667902D01*
X363178Y668352D01*
X363628Y668878D01*
X363990Y669469D01*
X364255Y670109D01*
X364417Y670782D01*
X364457Y671472D01*
X364417Y672163D01*
X364255Y672836D01*
X363990Y673476D01*
X363628Y674067D01*
X363178Y674593D01*
X362652Y675043D01*
X362061Y675405D01*
X362060Y675406D01*
Y689635D01*
X362073Y689642D01*
X362130Y689685D01*
X362178Y689737D01*
X362217Y689796D01*
X362378Y690096D01*
X362509Y690411D01*
X362612Y690737D01*
X362686Y691070D01*
X362731Y691408D01*
X362745Y691749D01*
X362731Y692090D01*
X362686Y692428D01*
X362612Y692761D01*
X362509Y693086D01*
X362378Y693401D01*
X362221Y693704D01*
X362181Y693763D01*
X362132Y693814D01*
X362075Y693858D01*
X362060Y693866D01*
Y778923D01*
G37*
G36*
Y639485D02*X359994Y643220D01*
Y667064D01*
X360057Y667059D01*
X360748Y667113D01*
X361421Y667275D01*
X362060Y667539D01*
Y639485D01*
G37*
G36*
X359994Y778923D02*X362060D01*
Y693866D01*
X362012Y693892D01*
X361945Y693915D01*
X361875Y693928D01*
X361804Y693930D01*
X361733Y693921D01*
X361665Y693901D01*
X361600Y693870D01*
X361542Y693829D01*
X361490Y693780D01*
X361447Y693724D01*
X361413Y693661D01*
X361389Y693594D01*
X361376Y693524D01*
X361374Y693452D01*
X361384Y693382D01*
X361404Y693313D01*
X361436Y693250D01*
X361560Y693019D01*
X361660Y692777D01*
X361739Y692527D01*
X361796Y692271D01*
X361830Y692011D01*
X361842Y691749D01*
X361830Y691487D01*
X361796Y691227D01*
X361739Y690971D01*
X361660Y690721D01*
X361560Y690479D01*
X361438Y690246D01*
X361407Y690183D01*
X361386Y690115D01*
X361377Y690045D01*
X361379Y689974D01*
X361392Y689905D01*
X361415Y689838D01*
X361449Y689776D01*
X361492Y689719D01*
X361544Y689671D01*
X361602Y689630D01*
X361666Y689600D01*
X361734Y689580D01*
X361804Y689570D01*
X361875Y689572D01*
X361944Y689585D01*
X362011Y689609D01*
X362060Y689635D01*
Y675406D01*
X361421Y675670D01*
X360748Y675832D01*
X360057Y675886D01*
X359994Y675881D01*
Y688023D01*
X360179Y688081D01*
X360494Y688212D01*
X360797Y688370D01*
X360856Y688410D01*
X360907Y688459D01*
X360951Y688516D01*
X360985Y688578D01*
X361008Y688645D01*
X361021Y688716D01*
X361023Y688787D01*
X361014Y688858D01*
X360993Y688926D01*
X360963Y688990D01*
X360922Y689049D01*
X360873Y689101D01*
X360817Y689144D01*
X360754Y689178D01*
X360687Y689202D01*
X360617Y689214D01*
X360545Y689216D01*
X360475Y689207D01*
X360406Y689187D01*
X360343Y689155D01*
X360112Y689031D01*
X359994Y688982D01*
Y694516D01*
X360112Y694467D01*
X360344Y694346D01*
X360407Y694314D01*
X360475Y694294D01*
X360545Y694284D01*
X360616Y694286D01*
X360686Y694299D01*
X360753Y694322D01*
X360815Y694356D01*
X360871Y694399D01*
X360920Y694451D01*
X360960Y694509D01*
X360991Y694573D01*
X361011Y694641D01*
X361020Y694711D01*
X361018Y694782D01*
X361006Y694851D01*
X360982Y694918D01*
X360948Y694980D01*
X360905Y695037D01*
X360854Y695086D01*
X360795Y695125D01*
X360494Y695286D01*
X360179Y695416D01*
X359994Y695475D01*
Y778923D01*
G37*
G36*
Y500923D02*X350000D01*
Y558604D01*
X353141Y558608D01*
X353279Y558641D01*
X353410Y558696D01*
X353531Y558770D01*
X353638Y558862D01*
X353730Y558969D01*
X353804Y559090D01*
X353859Y559221D01*
X353892Y559359D01*
X353900Y559500D01*
X353892Y565641D01*
X353859Y565779D01*
X353804Y565910D01*
X353730Y566031D01*
X353638Y566138D01*
X353531Y566230D01*
X353410Y566304D01*
X353279Y566359D01*
X353141Y566392D01*
X353000Y566400D01*
X350000Y566396D01*
Y621805D01*
X353828Y620883D01*
X353828Y620883D01*
X353830Y620883D01*
X353831Y620882D01*
X353833Y620881D01*
X353834Y620880D01*
X353836Y620879D01*
X353837Y620878D01*
X353838Y620877D01*
X353930Y620726D01*
X354155Y620463D01*
X354418Y620238D01*
X354713Y620057D01*
X355033Y619924D01*
X355370Y619844D01*
X355715Y619816D01*
X356061Y619844D01*
X356397Y619924D01*
X356717Y620057D01*
X356865Y620147D01*
X355196Y613993D01*
X355189Y613971D01*
X355158Y613870D01*
X355117Y613772D01*
X355068Y613678D01*
X355012Y613589D01*
X354947Y613505D01*
X354875Y613426D01*
X354797Y613355D01*
X354713Y613290D01*
X354670Y613263D01*
X354418Y613109D01*
X354155Y612884D01*
X353930Y612620D01*
X353749Y612325D01*
X353617Y612005D01*
X353536Y611668D01*
X353509Y611323D01*
X353536Y610978D01*
X353617Y610641D01*
X353749Y610321D01*
X353930Y610026D01*
X354155Y609763D01*
X354418Y609538D01*
X354713Y609357D01*
X355033Y609224D01*
X355370Y609144D01*
X355715Y609116D01*
X356061Y609144D01*
X356397Y609224D01*
X356717Y609357D01*
X357012Y609538D01*
X357276Y609763D01*
X357501Y610026D01*
X357682Y610321D01*
X357814Y610641D01*
X357895Y610978D01*
X357915Y611323D01*
X357895Y611668D01*
X357814Y612005D01*
X357682Y612325D01*
X357628Y612413D01*
X357627Y612415D01*
X357577Y612509D01*
X357536Y612606D01*
X357504Y612707D01*
X357481Y612811D01*
X357468Y612916D01*
X357463Y613022D01*
X357468Y613127D01*
X357481Y613232D01*
X357498Y613305D01*
X357511Y613349D01*
X357520Y613392D01*
X359578Y620984D01*
X359579Y620987D01*
X359579Y620988D01*
X359658Y621328D01*
X359704Y621674D01*
X359719Y622023D01*
X359712Y622130D01*
X359702Y622400D01*
X359649Y622774D01*
X359561Y623140D01*
X359439Y623497D01*
X359283Y623841D01*
X359257Y623885D01*
X350000Y642699D01*
Y648544D01*
X350155Y648363D01*
X350418Y648138D01*
X350713Y647957D01*
X351033Y647824D01*
X351370Y647744D01*
X351715Y647716D01*
X352061Y647744D01*
X352397Y647824D01*
X352717Y647957D01*
X353012Y648138D01*
X353276Y648363D01*
X353501Y648626D01*
X353682Y648921D01*
X353814Y649241D01*
X353846Y649376D01*
X359994Y638261D01*
Y566412D01*
X359388Y566364D01*
X358791Y566221D01*
X358224Y565986D01*
X357701Y565665D01*
X357234Y565266D01*
X356835Y564799D01*
X356514Y564276D01*
X356279Y563709D01*
X356136Y563112D01*
X356088Y562500D01*
X356136Y561888D01*
X356279Y561291D01*
X356514Y560724D01*
X356835Y560201D01*
X357234Y559734D01*
X357701Y559335D01*
X358224Y559014D01*
X358791Y558779D01*
X359388Y558636D01*
X359994Y558588D01*
Y500923D01*
G37*
G36*
X355624Y778923D02*X359994D01*
Y695475D01*
X359854Y695519D01*
X359521Y695593D01*
X359183Y695638D01*
X358842Y695653D01*
X358501Y695638D01*
X358163Y695593D01*
X357830Y695519D01*
X357504Y695416D01*
X357189Y695286D01*
X356887Y695128D01*
X356828Y695088D01*
X356776Y695039D01*
X356733Y694982D01*
X356699Y694919D01*
X356675Y694852D01*
X356662Y694782D01*
X356660Y694711D01*
X356670Y694640D01*
X356690Y694572D01*
X356721Y694508D01*
X356761Y694449D01*
X356810Y694397D01*
X356867Y694354D01*
X356930Y694320D01*
X356997Y694296D01*
X357067Y694283D01*
X357138Y694281D01*
X357209Y694291D01*
X357277Y694311D01*
X357341Y694343D01*
X357572Y694467D01*
X357814Y694567D01*
X358064Y694646D01*
X358320Y694703D01*
X358580Y694737D01*
X358842Y694749D01*
X359104Y694737D01*
X359364Y694703D01*
X359620Y694646D01*
X359870Y694567D01*
X359994Y694516D01*
Y688982D01*
X359870Y688930D01*
X359620Y688851D01*
X359364Y688795D01*
X359104Y688760D01*
X358842Y688749D01*
X358580Y688760D01*
X358320Y688795D01*
X358064Y688851D01*
X357814Y688930D01*
X357572Y689031D01*
X357339Y689152D01*
X357276Y689184D01*
X357208Y689204D01*
X357138Y689213D01*
X357067Y689212D01*
X356998Y689199D01*
X356931Y689175D01*
X356868Y689141D01*
X356812Y689098D01*
X356763Y689047D01*
X356723Y688989D01*
X356693Y688925D01*
X356673Y688857D01*
X356663Y688787D01*
X356665Y688716D01*
X356678Y688646D01*
X356701Y688579D01*
X356735Y688517D01*
X356778Y688461D01*
X356830Y688412D01*
X356889Y688373D01*
X357189Y688212D01*
X357504Y688081D01*
X357830Y687979D01*
X358163Y687905D01*
X358501Y687860D01*
X358842Y687845D01*
X359183Y687860D01*
X359521Y687905D01*
X359854Y687979D01*
X359994Y688023D01*
Y675881D01*
X359367Y675832D01*
X358694Y675670D01*
X358054Y675405D01*
X357463Y675043D01*
X356937Y674593D01*
X356487Y674067D01*
X356125Y673476D01*
X355860Y672836D01*
X355698Y672163D01*
X355644Y671472D01*
X355698Y670782D01*
X355860Y670109D01*
X356125Y669469D01*
X356487Y668878D01*
X356937Y668352D01*
X357463Y667902D01*
X358054Y667540D01*
X358694Y667275D01*
X359367Y667113D01*
X359994Y667064D01*
Y643220D01*
X355624Y651121D01*
Y689632D01*
X355671Y689606D01*
X355738Y689582D01*
X355808Y689569D01*
X355880Y689567D01*
X355950Y689577D01*
X356019Y689597D01*
X356083Y689628D01*
X356142Y689668D01*
X356193Y689717D01*
X356237Y689774D01*
X356271Y689837D01*
X356294Y689904D01*
X356307Y689974D01*
X356309Y690045D01*
X356300Y690116D01*
X356279Y690184D01*
X356248Y690248D01*
X356124Y690479D01*
X356023Y690721D01*
X355944Y690971D01*
X355887Y691227D01*
X355853Y691487D01*
X355842Y691749D01*
X355853Y692011D01*
X355887Y692271D01*
X355944Y692527D01*
X356023Y692777D01*
X356124Y693019D01*
X356245Y693251D01*
X356277Y693314D01*
X356297Y693382D01*
X356306Y693453D01*
X356305Y693523D01*
X356292Y693593D01*
X356268Y693660D01*
X356234Y693722D01*
X356191Y693778D01*
X356140Y693827D01*
X356082Y693867D01*
X356018Y693898D01*
X355950Y693918D01*
X355880Y693927D01*
X355809Y693926D01*
X355739Y693913D01*
X355672Y693889D01*
X355624Y693863D01*
Y778923D01*
G37*
G36*
X350000Y750923D02*X351815D01*
Y778923D01*
X355624D01*
Y693863D01*
X355610Y693855D01*
X355554Y693812D01*
X355505Y693761D01*
X355466Y693702D01*
X355305Y693401D01*
X355174Y693086D01*
X355071Y692761D01*
X354998Y692428D01*
X354953Y692090D01*
X354938Y691749D01*
X354953Y691408D01*
X354998Y691070D01*
X355071Y690737D01*
X355174Y690411D01*
X355305Y690096D01*
X355463Y689794D01*
X355503Y689735D01*
X355552Y689683D01*
X355608Y689640D01*
X355624Y689632D01*
Y651121D01*
X355280Y651742D01*
X350000Y662951D01*
Y667063D01*
X350057Y667059D01*
X350748Y667113D01*
X351421Y667275D01*
X352061Y667540D01*
X352652Y667902D01*
X353178Y668352D01*
X353628Y668878D01*
X353990Y669469D01*
X354255Y670109D01*
X354417Y670782D01*
X354457Y671472D01*
X354417Y672163D01*
X354255Y672836D01*
X353990Y673476D01*
X353628Y674067D01*
X353178Y674593D01*
X352652Y675043D01*
X352061Y675405D01*
X351421Y675670D01*
X350748Y675832D01*
X350057Y675886D01*
X350000Y675881D01*
Y688016D01*
X350051Y688028D01*
X350618Y688263D01*
X351141Y688584D01*
X351608Y688983D01*
X352007Y689449D01*
X352327Y689973D01*
X352562Y690540D01*
X352706Y691137D01*
X352742Y691749D01*
X352706Y692361D01*
X352562Y692958D01*
X352327Y693525D01*
X352007Y694048D01*
X351608Y694515D01*
X351141Y694914D01*
X350618Y695234D01*
X350051Y695469D01*
X350000Y695482D01*
Y750923D01*
G37*
G36*
Y662951D02*X347751Y667725D01*
X348054Y667540D01*
X348694Y667275D01*
X349367Y667113D01*
X350000Y667063D01*
Y662951D01*
G37*
G36*
Y642699D02*X339994Y663036D01*
Y666869D01*
X340366Y666658D01*
X340818Y666348D01*
X341241Y665999D01*
X341632Y665615D01*
X341988Y665198D01*
X342306Y664751D01*
X342506Y664413D01*
X342526Y664370D01*
X342595Y664260D01*
X349494Y651507D01*
X349504Y651486D01*
X349553Y651392D01*
X349591Y651293D01*
X349621Y651192D01*
X349643Y651088D01*
X349655Y650983D01*
X349657Y650877D01*
X349651Y650771D01*
X349635Y650666D01*
X349626Y650628D01*
X349617Y650605D01*
X349536Y650268D01*
X349509Y649923D01*
X349536Y649578D01*
X349617Y649241D01*
X349749Y648921D01*
X349930Y648626D01*
X350000Y648544D01*
Y642699D01*
G37*
G36*
Y500923D02*X339994D01*
Y558588D01*
X340000Y558588D01*
X340612Y558636D01*
X341209Y558779D01*
X341776Y559014D01*
X342299Y559335D01*
X342766Y559734D01*
X343165Y560201D01*
X343486Y560724D01*
X343721Y561291D01*
X343864Y561888D01*
X343900Y562500D01*
X343864Y563112D01*
X343721Y563709D01*
X343486Y564276D01*
X343165Y564799D01*
X342766Y565266D01*
X342299Y565665D01*
X341776Y565986D01*
X341209Y566221D01*
X340612Y566364D01*
X340000Y566412D01*
X339994Y566412D01*
Y568223D01*
X343168D01*
X343215Y568220D01*
X343404Y568234D01*
X343587Y568278D01*
X343762Y568351D01*
X343923Y568449D01*
X344066Y568572D01*
X344097Y568608D01*
X348431Y572941D01*
X348466Y572972D01*
X348589Y573116D01*
X348589Y573116D01*
X348688Y573277D01*
X348760Y573451D01*
X348804Y573635D01*
X348819Y573823D01*
X348815Y573870D01*
Y586982D01*
X348817Y587009D01*
X348820Y587115D01*
X348834Y587220D01*
X348857Y587323D01*
X348889Y587424D01*
X348930Y587522D01*
X348978Y587616D01*
X349035Y587705D01*
X349100Y587790D01*
X349136Y587828D01*
X349176Y587863D01*
X349401Y588126D01*
X349582Y588421D01*
X349714Y588741D01*
X349795Y589078D01*
X349815Y589423D01*
X349795Y589768D01*
X349714Y590105D01*
X349582Y590425D01*
X349401Y590720D01*
X349176Y590984D01*
X348912Y591209D01*
X348617Y591389D01*
X348297Y591522D01*
X347961Y591603D01*
X347615Y591630D01*
X347270Y591603D01*
X346933Y591522D01*
X346613Y591389D01*
X346318Y591209D01*
X346055Y590984D01*
X345830Y590720D01*
X345649Y590425D01*
X345517Y590105D01*
X345436Y589768D01*
X345409Y589423D01*
X345436Y589078D01*
X345517Y588741D01*
X345649Y588421D01*
X345830Y588126D01*
X346055Y587863D01*
X346094Y587830D01*
X346131Y587790D01*
X346196Y587705D01*
X346253Y587616D01*
X346302Y587522D01*
X346342Y587424D01*
X346374Y587323D01*
X346397Y587220D01*
X346411Y587115D01*
X346414Y587043D01*
X346412Y587009D01*
X346415Y586967D01*
Y577233D01*
X346301Y577420D01*
X346076Y577684D01*
X345812Y577909D01*
X345517Y578089D01*
X345197Y578222D01*
X344861Y578303D01*
X344515Y578330D01*
X344170Y578303D01*
X343833Y578222D01*
X343513Y578089D01*
X343218Y577909D01*
X342955Y577684D01*
X342730Y577420D01*
X342549Y577125D01*
X342417Y576805D01*
X342336Y576468D01*
X342309Y576123D01*
X342318Y576004D01*
X342312Y576009D01*
X342017Y576189D01*
X341697Y576322D01*
X341361Y576403D01*
X341015Y576430D01*
X340670Y576403D01*
X340333Y576322D01*
X340013Y576189D01*
X340001Y576182D01*
X340015Y576423D01*
X339995Y576768D01*
X339994Y576773D01*
Y624215D01*
X350000Y621805D01*
Y566396D01*
X346859Y566392D01*
X346721Y566359D01*
X346590Y566304D01*
X346469Y566230D01*
X346362Y566138D01*
X346270Y566031D01*
X346196Y565910D01*
X346141Y565779D01*
X346108Y565641D01*
X346100Y565500D01*
X346108Y559359D01*
X346141Y559221D01*
X346196Y559090D01*
X346270Y558969D01*
X346362Y558862D01*
X346469Y558770D01*
X346590Y558696D01*
X346721Y558641D01*
X346859Y558608D01*
X347000Y558600D01*
X350000Y558604D01*
Y500923D01*
G37*
G36*
X339994Y750923D02*X350000D01*
Y695482D01*
X349454Y695613D01*
X348842Y695661D01*
X348230Y695613D01*
X347633Y695469D01*
X347066Y695234D01*
X346542Y694914D01*
X346076Y694515D01*
X345677Y694048D01*
X345356Y693525D01*
X345121Y692958D01*
X344978Y692361D01*
X344930Y691749D01*
X344978Y691137D01*
X345121Y690540D01*
X345356Y689973D01*
X345677Y689449D01*
X346076Y688983D01*
X346542Y688584D01*
X347066Y688263D01*
X347633Y688028D01*
X348230Y687885D01*
X348842Y687837D01*
X349454Y687885D01*
X350000Y688016D01*
Y675881D01*
X349367Y675832D01*
X348694Y675670D01*
X348054Y675405D01*
X347463Y675043D01*
X346937Y674593D01*
X346487Y674067D01*
X346172Y673553D01*
X344708Y694638D01*
X344708Y694639D01*
X344679Y694919D01*
X344621Y695194D01*
X344539Y695462D01*
X344433Y695722D01*
X344304Y695972D01*
X344153Y696209D01*
X343982Y696431D01*
X343790Y696637D01*
X343581Y696824D01*
X343356Y696992D01*
X343117Y697139D01*
X342865Y697264D01*
X342603Y697365D01*
X342333Y697442D01*
X342057Y697495D01*
X341778Y697522D01*
X341732Y697521D01*
X339994Y697629D01*
Y730534D01*
X340672Y730814D01*
X341383Y731250D01*
X342017Y731792D01*
X342559Y732426D01*
X342995Y733138D01*
X343314Y733908D01*
X343509Y734720D01*
X343558Y735551D01*
X343509Y736383D01*
X343314Y737194D01*
X342995Y737965D01*
X342559Y738676D01*
X342017Y739310D01*
X341383Y739852D01*
X340672Y740288D01*
X339994Y740569D01*
Y750923D01*
G37*
G36*
Y663036D02*X337659Y667782D01*
X338054Y667540D01*
X338694Y667275D01*
X339367Y667113D01*
X339507Y667102D01*
X339889Y666928D01*
X339994Y666869D01*
Y663036D01*
G37*
G36*
Y576773D02*X339914Y577105D01*
X339782Y577425D01*
X339601Y577720D01*
X339376Y577984D01*
X339112Y578209D01*
X338817Y578389D01*
X338497Y578522D01*
X338352Y578557D01*
X338476Y578663D01*
X338701Y578926D01*
X338882Y579221D01*
X339014Y579541D01*
X339095Y579878D01*
X339115Y580223D01*
X339095Y580568D01*
X339014Y580905D01*
X338882Y581225D01*
X338701Y581520D01*
X338476Y581784D01*
X338212Y582009D01*
X337917Y582189D01*
X337597Y582322D01*
X337261Y582403D01*
X336915Y582430D01*
X336570Y582403D01*
X336233Y582322D01*
X335913Y582189D01*
X335642Y582023D01*
X333412D01*
X333764Y582375D01*
X333889Y582516D01*
X333988Y582677D01*
X334003Y582714D01*
X334631Y583341D01*
X334666Y583372D01*
X334789Y583516D01*
X334789Y583516D01*
X334888Y583677D01*
X334960Y583851D01*
X335004Y584035D01*
X335019Y584223D01*
X335015Y584270D01*
Y587082D01*
X335017Y587109D01*
X335020Y587215D01*
X335034Y587320D01*
X335057Y587423D01*
X335089Y587524D01*
X335130Y587622D01*
X335178Y587716D01*
X335235Y587805D01*
X335300Y587890D01*
X335336Y587928D01*
X335376Y587963D01*
X335601Y588226D01*
X335782Y588521D01*
X335914Y588841D01*
X335995Y589178D01*
X336015Y589523D01*
X335995Y589868D01*
X335914Y590205D01*
X335782Y590525D01*
X335601Y590820D01*
X335376Y591084D01*
X335112Y591309D01*
X334817Y591489D01*
X334497Y591622D01*
X334161Y591703D01*
X333815Y591730D01*
X333470Y591703D01*
X333133Y591622D01*
X332813Y591489D01*
X332518Y591309D01*
X332255Y591084D01*
X332030Y590820D01*
X331849Y590525D01*
X331717Y590205D01*
X331636Y589868D01*
X331609Y589523D01*
X331636Y589178D01*
X331717Y588841D01*
X331849Y588521D01*
X332030Y588226D01*
X332255Y587963D01*
X332294Y587930D01*
X332331Y587890D01*
X332396Y587805D01*
X332453Y587716D01*
X332502Y587622D01*
X332542Y587524D01*
X332574Y587423D01*
X332597Y587320D01*
X332611Y587215D01*
X332614Y587143D01*
X332612Y587109D01*
X332615Y587067D01*
Y584720D01*
X331718Y583823D01*
X269536D01*
Y606237D01*
X269542Y606237D01*
X270154Y606285D01*
X270751Y606428D01*
X271318Y606663D01*
X271841Y606984D01*
X272308Y607383D01*
X272707Y607849D01*
X273027Y608373D01*
X273262Y608940D01*
X273406Y609537D01*
X273442Y610149D01*
X273406Y610761D01*
X273262Y611358D01*
X273027Y611925D01*
X272707Y612448D01*
X272308Y612915D01*
X271841Y613314D01*
X271318Y613634D01*
X270751Y613869D01*
X270154Y614013D01*
X269542Y614061D01*
X269536Y614060D01*
Y621453D01*
X272483Y621457D01*
X272621Y621490D01*
X272752Y621544D01*
X272872Y621618D01*
X272980Y621710D01*
X273072Y621818D01*
X273146Y621939D01*
X273200Y622070D01*
X273233Y622208D01*
X273242Y622349D01*
X273233Y628490D01*
X273200Y628628D01*
X273146Y628759D01*
X273072Y628879D01*
X272980Y628987D01*
X272872Y629079D01*
X272752Y629153D01*
X272621Y629207D01*
X272483Y629240D01*
X272342Y629249D01*
X269536Y629245D01*
Y641182D01*
X339994Y624215D01*
Y576773D01*
G37*
G36*
X269536Y583823D02*X267456D01*
X267615Y583959D01*
X267888Y584279D01*
X268108Y584637D01*
X268269Y585026D01*
X268367Y585435D01*
X268392Y585855D01*
X268367Y586274D01*
X268269Y586683D01*
X268108Y587072D01*
X267888Y587431D01*
X267615Y587751D01*
X267300Y588020D01*
X267615Y588289D01*
X267888Y588609D01*
X268108Y588968D01*
X268269Y589357D01*
X268367Y589766D01*
X268392Y590185D01*
X268367Y590605D01*
X268269Y591014D01*
X268108Y591403D01*
X267888Y591762D01*
X267615Y592082D01*
X267295Y592355D01*
X266936Y592575D01*
X266548Y592736D01*
X266138Y592834D01*
X265719Y592867D01*
X265299Y592834D01*
X264890Y592736D01*
X264502Y592575D01*
X264143Y592355D01*
X263823Y592082D01*
X263550Y591762D01*
X263330Y591403D01*
X263169Y591014D01*
X263070Y590605D01*
X263037Y590185D01*
X263070Y589766D01*
X263169Y589357D01*
X263330Y588968D01*
X263550Y588609D01*
X263823Y588289D01*
X264138Y588020D01*
X263823Y587751D01*
X263550Y587431D01*
X263330Y587072D01*
X263169Y586683D01*
X263070Y586274D01*
X263037Y585855D01*
X263070Y585435D01*
X263169Y585026D01*
X263330Y584637D01*
X263550Y584279D01*
X263823Y583959D01*
X263981Y583823D01*
X259542D01*
Y606253D01*
X262683Y606257D01*
X262821Y606290D01*
X262952Y606344D01*
X263072Y606418D01*
X263180Y606510D01*
X263272Y606618D01*
X263346Y606739D01*
X263400Y606870D01*
X263433Y607008D01*
X263442Y607149D01*
X263433Y613290D01*
X263400Y613428D01*
X263346Y613559D01*
X263272Y613679D01*
X263180Y613787D01*
X263072Y613879D01*
X262952Y613953D01*
X262821Y614007D01*
X262683Y614040D01*
X262542Y614049D01*
X259542Y614045D01*
Y621453D01*
X259954Y621485D01*
X260551Y621628D01*
X261118Y621863D01*
X261641Y622184D01*
X262108Y622583D01*
X262507Y623049D01*
X262827Y623573D01*
X263062Y624140D01*
X263206Y624737D01*
X263242Y625349D01*
X263206Y625961D01*
X263062Y626558D01*
X262827Y627125D01*
X262507Y627648D01*
X262108Y628115D01*
X261641Y628514D01*
X261118Y628834D01*
X260551Y629069D01*
X259954Y629213D01*
X259542Y629245D01*
Y643589D01*
X269536Y641182D01*
Y629245D01*
X266201Y629240D01*
X266063Y629207D01*
X265932Y629153D01*
X265811Y629079D01*
X265703Y628987D01*
X265611Y628879D01*
X265537Y628759D01*
X265483Y628628D01*
X265450Y628490D01*
X265442Y628349D01*
X265450Y622208D01*
X265483Y622070D01*
X265537Y621939D01*
X265611Y621818D01*
X265703Y621710D01*
X265811Y621618D01*
X265932Y621544D01*
X266063Y621490D01*
X266201Y621457D01*
X266342Y621449D01*
X269536Y621453D01*
Y614060D01*
X268930Y614013D01*
X268333Y613869D01*
X267766Y613634D01*
X267242Y613314D01*
X266776Y612915D01*
X266377Y612448D01*
X266056Y611925D01*
X265821Y611358D01*
X265678Y610761D01*
X265630Y610149D01*
X265678Y609537D01*
X265821Y608940D01*
X266056Y608373D01*
X266377Y607849D01*
X266776Y607383D01*
X267242Y606984D01*
X267766Y606663D01*
X268333Y606428D01*
X268930Y606285D01*
X269536Y606237D01*
Y583823D01*
G37*
G36*
X259542D02*X250662D01*
Y645727D01*
X259542Y643589D01*
Y629245D01*
X259342Y629261D01*
X258730Y629213D01*
X258133Y629069D01*
X257566Y628834D01*
X257042Y628514D01*
X256576Y628115D01*
X256177Y627648D01*
X255856Y627125D01*
X255621Y626558D01*
X255478Y625961D01*
X255430Y625349D01*
X255478Y624737D01*
X255621Y624140D01*
X255856Y623573D01*
X256177Y623049D01*
X256576Y622583D01*
X257042Y622184D01*
X257566Y621863D01*
X258133Y621628D01*
X258730Y621485D01*
X259342Y621437D01*
X259542Y621453D01*
Y614045D01*
X256401Y614040D01*
X256263Y614007D01*
X256132Y613953D01*
X256011Y613879D01*
X255903Y613787D01*
X255811Y613679D01*
X255737Y613559D01*
X255683Y613428D01*
X255650Y613290D01*
X255642Y613149D01*
X255650Y607008D01*
X255683Y606870D01*
X255737Y606739D01*
X255811Y606618D01*
X255903Y606510D01*
X256011Y606418D01*
X256132Y606344D01*
X256263Y606290D01*
X256401Y606257D01*
X256542Y606249D01*
X259542Y606253D01*
Y583823D01*
G37*
G36*
X339994Y500923D02*X329994D01*
Y558588D01*
X330000Y558588D01*
X330612Y558636D01*
X331209Y558779D01*
X331776Y559014D01*
X332299Y559335D01*
X332766Y559734D01*
X333165Y560201D01*
X333486Y560724D01*
X333721Y561291D01*
X333864Y561888D01*
X333900Y562500D01*
X333864Y563112D01*
X333721Y563709D01*
X333486Y564276D01*
X333165Y564799D01*
X332766Y565266D01*
X332299Y565665D01*
X331776Y565986D01*
X331209Y566221D01*
X330612Y566364D01*
X330000Y566412D01*
X329994Y566412D01*
Y571848D01*
X333234Y568608D01*
X333264Y568572D01*
X333408Y568450D01*
X333408Y568449D01*
X333569Y568351D01*
X333743Y568278D01*
X333927Y568234D01*
X334115Y568220D01*
X334162Y568223D01*
X339994D01*
Y566412D01*
X339388Y566364D01*
X338791Y566221D01*
X338224Y565986D01*
X337701Y565665D01*
X337234Y565266D01*
X336835Y564799D01*
X336514Y564276D01*
X336279Y563709D01*
X336136Y563112D01*
X336088Y562500D01*
X336136Y561888D01*
X336279Y561291D01*
X336514Y560724D01*
X336835Y560201D01*
X337234Y559734D01*
X337701Y559335D01*
X338224Y559014D01*
X338791Y558779D01*
X339388Y558636D01*
X339994Y558588D01*
Y500923D01*
G37*
G36*
X329994D02*X319994D01*
Y558588D01*
X320000Y558588D01*
X320612Y558636D01*
X321209Y558779D01*
X321776Y559014D01*
X322299Y559335D01*
X322766Y559734D01*
X323165Y560201D01*
X323486Y560724D01*
X323721Y561291D01*
X323864Y561888D01*
X323900Y562500D01*
X323864Y563112D01*
X323721Y563709D01*
X323486Y564276D01*
X323165Y564799D01*
X322766Y565266D01*
X322299Y565665D01*
X321776Y565986D01*
X321209Y566221D01*
X320612Y566364D01*
X320000Y566412D01*
X319994Y566412D01*
Y572423D01*
X329418D01*
X329994Y571848D01*
Y566412D01*
X329388Y566364D01*
X328791Y566221D01*
X328224Y565986D01*
X327701Y565665D01*
X327234Y565266D01*
X326835Y564799D01*
X326514Y564276D01*
X326279Y563709D01*
X326136Y563112D01*
X326088Y562500D01*
X326136Y561888D01*
X326279Y561291D01*
X326514Y560724D01*
X326835Y560201D01*
X327234Y559734D01*
X327701Y559335D01*
X328224Y559014D01*
X328791Y558779D01*
X329388Y558636D01*
X329994Y558588D01*
Y500923D01*
G37*
G36*
X319994D02*X310000D01*
Y558505D01*
X313157Y558509D01*
X313310Y558546D01*
X313455Y558606D01*
X313590Y558688D01*
X313709Y558791D01*
X313812Y558910D01*
X313894Y559045D01*
X313954Y559190D01*
X313991Y559343D01*
X314000Y559500D01*
X313991Y565657D01*
X313954Y565810D01*
X313894Y565955D01*
X313812Y566090D01*
X313709Y566209D01*
X313590Y566312D01*
X313455Y566394D01*
X313310Y566454D01*
X313157Y566491D01*
X313000Y566500D01*
X310000Y566495D01*
Y572423D01*
X319994D01*
Y566412D01*
X319388Y566364D01*
X318791Y566221D01*
X318224Y565986D01*
X317701Y565665D01*
X317234Y565266D01*
X316835Y564799D01*
X316514Y564276D01*
X316279Y563709D01*
X316136Y563112D01*
X316088Y562500D01*
X316136Y561888D01*
X316279Y561291D01*
X316514Y560724D01*
X316835Y560201D01*
X317234Y559734D01*
X317701Y559335D01*
X318224Y559014D01*
X318791Y558779D01*
X319388Y558636D01*
X319994Y558588D01*
Y500923D01*
G37*
G36*
X310000D02*X250662D01*
Y561179D01*
X294173Y564662D01*
X294318Y564538D01*
X294613Y564357D01*
X294933Y564224D01*
X295270Y564144D01*
X295615Y564116D01*
X295961Y564144D01*
X296297Y564224D01*
X296617Y564357D01*
X296912Y564538D01*
X297176Y564763D01*
X297401Y565026D01*
X297582Y565321D01*
X297714Y565641D01*
X297795Y565978D01*
X297815Y566323D01*
X297795Y566668D01*
X297714Y567005D01*
X297582Y567325D01*
X297401Y567620D01*
X297176Y567884D01*
X296912Y568109D01*
X296617Y568289D01*
X296297Y568422D01*
X295961Y568503D01*
X295615Y568530D01*
X295270Y568503D01*
X294933Y568422D01*
X294613Y568289D01*
X294318Y568109D01*
X294055Y567884D01*
X293944Y567754D01*
X250662Y564288D01*
Y572423D01*
X310000D01*
Y566495D01*
X306843Y566491D01*
X306690Y566454D01*
X306545Y566394D01*
X306410Y566312D01*
X306291Y566209D01*
X306188Y566090D01*
X306106Y565955D01*
X306046Y565810D01*
X306009Y565657D01*
X306000Y565500D01*
X306009Y559343D01*
X306046Y559190D01*
X306106Y559045D01*
X306188Y558910D01*
X306291Y558791D01*
X306410Y558688D01*
X306545Y558606D01*
X306690Y558546D01*
X306843Y558509D01*
X307000Y558500D01*
X310000Y558505D01*
Y500923D01*
G37*
G36*
X296132Y821823D02*X312515D01*
Y750923D01*
X339994D01*
Y740569D01*
X339901Y740607D01*
X339090Y740802D01*
X338258Y740868D01*
X337427Y740802D01*
X336615Y740607D01*
X335845Y740288D01*
X335133Y739852D01*
X334499Y739310D01*
X333957Y738676D01*
X333521Y737965D01*
X333202Y737194D01*
X333007Y736383D01*
X332942Y735551D01*
X333007Y734720D01*
X333202Y733908D01*
X333521Y733138D01*
X333957Y732426D01*
X334499Y731792D01*
X335133Y731250D01*
X335845Y730814D01*
X336615Y730495D01*
X337427Y730300D01*
X338258Y730235D01*
X339090Y730300D01*
X339901Y730495D01*
X339994Y730534D01*
Y697629D01*
X296132Y700360D01*
Y759491D01*
X296467Y760037D01*
X296798Y760837D01*
X297000Y761679D01*
X297051Y762542D01*
X297000Y763405D01*
X296798Y764247D01*
X296467Y765046D01*
X296132Y765593D01*
Y778191D01*
X296467Y778737D01*
X296798Y779537D01*
X297000Y780379D01*
X297051Y781242D01*
X297000Y782105D01*
X296798Y782947D01*
X296467Y783746D01*
X296132Y784293D01*
Y796898D01*
X296135Y796903D01*
X296395Y797325D01*
X296611Y797771D01*
X296785Y798235D01*
X296918Y798713D01*
X297007Y799200D01*
X297051Y799694D01*
Y800190D01*
X297007Y800683D01*
X296918Y801171D01*
X296785Y801649D01*
X296611Y802112D01*
X296395Y802559D01*
X296140Y802984D01*
X296132Y802994D01*
Y821823D01*
G37*
G36*
Y765593D02*X296014Y765785D01*
X295452Y766443D01*
X294794Y767005D01*
X294056Y767457D01*
X293256Y767789D01*
X292414Y767991D01*
X291551Y768059D01*
X291543Y768058D01*
Y775725D01*
X291551Y775725D01*
X292414Y775793D01*
X293256Y775995D01*
X294056Y776326D01*
X294794Y776778D01*
X295452Y777341D01*
X296014Y777999D01*
X296132Y778191D01*
Y765593D01*
G37*
G36*
Y700360D02*X291543Y700645D01*
Y757025D01*
X291551Y757025D01*
X292414Y757093D01*
X293256Y757295D01*
X294056Y757626D01*
X294794Y758078D01*
X295452Y758641D01*
X296014Y759299D01*
X296132Y759491D01*
Y700360D01*
G37*
G36*
X291543Y821823D02*X296132D01*
Y802994D01*
X296092Y803047D01*
X296033Y803101D01*
X295968Y803145D01*
X295896Y803179D01*
X295819Y803200D01*
X295740Y803210D01*
X295661Y803207D01*
X295583Y803192D01*
X295508Y803165D01*
X295439Y803126D01*
X295376Y803077D01*
X295322Y803019D01*
X295278Y802953D01*
X295244Y802881D01*
X295223Y802805D01*
X295213Y802726D01*
X295216Y802647D01*
X295231Y802569D01*
X295258Y802494D01*
X295298Y802426D01*
X295510Y802081D01*
X295687Y801716D01*
X295829Y801337D01*
X295938Y800946D01*
X296010Y800548D01*
X296047Y800144D01*
Y799739D01*
X296010Y799336D01*
X295938Y798937D01*
X295829Y798547D01*
X295687Y798168D01*
X295510Y797803D01*
X295302Y797455D01*
X295262Y797387D01*
X295235Y797313D01*
X295220Y797236D01*
X295218Y797158D01*
X295227Y797079D01*
X295249Y797004D01*
X295282Y796932D01*
X295326Y796867D01*
X295380Y796810D01*
X295442Y796761D01*
X295510Y796723D01*
X295584Y796696D01*
X295662Y796681D01*
X295740Y796678D01*
X295818Y796688D01*
X295894Y796709D01*
X295965Y796742D01*
X296031Y796786D01*
X296088Y796840D01*
X296132Y796898D01*
Y784293D01*
X296014Y784485D01*
X295452Y785143D01*
X294794Y785705D01*
X294056Y786157D01*
X293256Y786489D01*
X292414Y786691D01*
X291551Y786759D01*
X291543Y786758D01*
Y794442D01*
X291799D01*
X292293Y794486D01*
X292780Y794575D01*
X293258Y794707D01*
X293722Y794882D01*
X294168Y795098D01*
X294593Y795353D01*
X294656Y795401D01*
X294710Y795459D01*
X294755Y795525D01*
X294788Y795597D01*
X294810Y795674D01*
X294819Y795753D01*
X294817Y795832D01*
X294801Y795910D01*
X294774Y795984D01*
X294736Y796054D01*
X294687Y796116D01*
X294629Y796171D01*
X294563Y796215D01*
X294491Y796248D01*
X294414Y796270D01*
X294336Y796280D01*
X294256Y796277D01*
X294178Y796262D01*
X294104Y796235D01*
X294035Y796195D01*
X293690Y795983D01*
X293325Y795806D01*
X292946Y795663D01*
X292556Y795555D01*
X292157Y795483D01*
X291754Y795446D01*
X291543D01*
Y804437D01*
X291754D01*
X292157Y804401D01*
X292556Y804328D01*
X292946Y804220D01*
X293325Y804077D01*
X293690Y803901D01*
X294038Y803692D01*
X294106Y803653D01*
X294179Y803626D01*
X294257Y803611D01*
X294335Y803608D01*
X294413Y803618D01*
X294489Y803639D01*
X294560Y803673D01*
X294626Y803716D01*
X294683Y803770D01*
X294732Y803832D01*
X294770Y803901D01*
X294797Y803975D01*
X294812Y804052D01*
X294815Y804131D01*
X294805Y804209D01*
X294784Y804284D01*
X294751Y804356D01*
X294707Y804421D01*
X294653Y804479D01*
X294590Y804526D01*
X294168Y804786D01*
X293722Y805001D01*
X293258Y805176D01*
X292780Y805308D01*
X292293Y805397D01*
X291799Y805442D01*
X291543D01*
Y821823D01*
G37*
G36*
X286970Y759491D02*X287088Y759299D01*
X287650Y758641D01*
X288308Y758078D01*
X289047Y757626D01*
X289846Y757295D01*
X290688Y757093D01*
X291543Y757025D01*
Y700645D01*
X286970Y700930D01*
Y759491D01*
G37*
G36*
Y778191D02*X287088Y777999D01*
X287650Y777341D01*
X288308Y776778D01*
X289047Y776326D01*
X289846Y775995D01*
X290688Y775793D01*
X291543Y775725D01*
Y768058D01*
X290688Y767991D01*
X289846Y767789D01*
X289047Y767457D01*
X288308Y767005D01*
X287650Y766443D01*
X287088Y765785D01*
X286970Y765593D01*
Y778191D01*
G37*
G36*
Y821823D02*X291543D01*
Y805442D01*
X291303D01*
X290810Y805397D01*
X290322Y805308D01*
X289844Y805176D01*
X289380Y805001D01*
X288934Y804786D01*
X288509Y804531D01*
X288446Y804482D01*
X288392Y804424D01*
X288348Y804358D01*
X288314Y804286D01*
X288292Y804210D01*
X288283Y804131D01*
X288286Y804052D01*
X288301Y803974D01*
X288328Y803899D01*
X288367Y803830D01*
X288416Y803767D01*
X288474Y803713D01*
X288540Y803669D01*
X288612Y803635D01*
X288688Y803613D01*
X288767Y803604D01*
X288846Y803606D01*
X288924Y803622D01*
X288999Y803649D01*
X289067Y803689D01*
X289412Y803901D01*
X289777Y804077D01*
X290156Y804220D01*
X290547Y804328D01*
X290945Y804401D01*
X291349Y804437D01*
X291543D01*
Y795446D01*
X291349D01*
X290945Y795483D01*
X290547Y795555D01*
X290156Y795663D01*
X289777Y795806D01*
X289412Y795983D01*
X289065Y796191D01*
X288997Y796230D01*
X288923Y796257D01*
X288846Y796273D01*
X288767Y796275D01*
X288689Y796266D01*
X288613Y796244D01*
X288542Y796211D01*
X288477Y796167D01*
X288419Y796113D01*
X288370Y796051D01*
X288332Y795983D01*
X288305Y795909D01*
X288290Y795831D01*
X288287Y795753D01*
X288297Y795675D01*
X288319Y795599D01*
X288352Y795528D01*
X288396Y795462D01*
X288449Y795405D01*
X288512Y795358D01*
X288934Y795098D01*
X289380Y794882D01*
X289844Y794707D01*
X290322Y794575D01*
X290810Y794486D01*
X291303Y794442D01*
X291543D01*
Y786758D01*
X290688Y786691D01*
X289846Y786489D01*
X289047Y786157D01*
X288308Y785705D01*
X287650Y785143D01*
X287088Y784485D01*
X286970Y784293D01*
Y796889D01*
X287011Y796837D01*
X287069Y796783D01*
X287135Y796738D01*
X287207Y796705D01*
X287283Y796683D01*
X287362Y796673D01*
X287441Y796676D01*
X287519Y796691D01*
X287594Y796719D01*
X287663Y796757D01*
X287726Y796806D01*
X287780Y796864D01*
X287824Y796930D01*
X287858Y797002D01*
X287880Y797079D01*
X287889Y797157D01*
X287887Y797237D01*
X287871Y797315D01*
X287844Y797389D01*
X287804Y797458D01*
X287592Y797803D01*
X287416Y798168D01*
X287273Y798547D01*
X287165Y798937D01*
X287092Y799336D01*
X287056Y799739D01*
Y800144D01*
X287092Y800548D01*
X287165Y800946D01*
X287273Y801337D01*
X287416Y801716D01*
X287592Y802081D01*
X287800Y802428D01*
X287840Y802496D01*
X287867Y802570D01*
X287882Y802647D01*
X287885Y802726D01*
X287875Y802804D01*
X287854Y802880D01*
X287820Y802951D01*
X287776Y803016D01*
X287723Y803074D01*
X287661Y803122D01*
X287592Y803161D01*
X287518Y803188D01*
X287441Y803203D01*
X287362Y803205D01*
X287284Y803196D01*
X287208Y803174D01*
X287137Y803141D01*
X287072Y803097D01*
X287014Y803043D01*
X286970Y802985D01*
Y821823D01*
G37*
G36*
X250662D02*X286970D01*
Y802985D01*
X286967Y802981D01*
X286707Y802559D01*
X286492Y802112D01*
X286317Y801649D01*
X286185Y801171D01*
X286096Y800683D01*
X286051Y800190D01*
Y799694D01*
X286096Y799200D01*
X286185Y798713D01*
X286317Y798235D01*
X286492Y797771D01*
X286707Y797325D01*
X286962Y796900D01*
X286970Y796889D01*
Y784293D01*
X286636Y783746D01*
X286304Y782947D01*
X286102Y782105D01*
X286034Y781242D01*
X286102Y780379D01*
X286304Y779537D01*
X286636Y778737D01*
X286970Y778191D01*
Y765593D01*
X286636Y765046D01*
X286304Y764247D01*
X286102Y763405D01*
X286034Y762542D01*
X286102Y761679D01*
X286304Y760837D01*
X286636Y760037D01*
X286970Y759491D01*
Y700930D01*
X270398Y701961D01*
X270381Y701964D01*
X270276Y701974D01*
X270172Y701996D01*
X270070Y702026D01*
X269972Y702064D01*
X269877Y702112D01*
X269787Y702167D01*
X269702Y702230D01*
X269622Y702300D01*
X269556Y702370D01*
X269467Y702475D01*
X269203Y702700D01*
X268908Y702880D01*
X268588Y703013D01*
X268252Y703094D01*
X267906Y703121D01*
X267561Y703094D01*
X267224Y703013D01*
X266904Y702880D01*
X266609Y702700D01*
X266346Y702475D01*
X266121Y702211D01*
X266088Y702158D01*
X251069Y699336D01*
X251068Y699336D01*
X251068Y699336D01*
X250817Y699489D01*
X250662Y699554D01*
Y759052D01*
X271008Y748379D01*
X271008Y748379D01*
X271017Y748341D01*
X271149Y748021D01*
X271330Y747726D01*
X271555Y747463D01*
X271818Y747238D01*
X272113Y747057D01*
X272433Y746924D01*
X272770Y746844D01*
X273115Y746816D01*
X273461Y746844D01*
X273797Y746924D01*
X274117Y747057D01*
X274412Y747238D01*
X274676Y747463D01*
X274901Y747726D01*
X275082Y748021D01*
X275214Y748341D01*
X275295Y748678D01*
X275315Y749023D01*
X275295Y749368D01*
X275214Y749705D01*
X275082Y750025D01*
X274901Y750320D01*
X274676Y750584D01*
X274412Y750809D01*
X274117Y750989D01*
X273797Y751122D01*
X273461Y751203D01*
X273115Y751230D01*
X272770Y751203D01*
X272448Y751126D01*
X272414Y751145D01*
X272382Y751158D01*
X250662Y762552D01*
Y809633D01*
X264021Y807536D01*
X264024Y807535D01*
X264024Y807535D01*
X264030Y807526D01*
X264255Y807263D01*
X264518Y807038D01*
X264813Y806857D01*
X265133Y806724D01*
X265470Y806644D01*
X265815Y806616D01*
X266161Y806644D01*
X266497Y806724D01*
X266817Y806857D01*
X267112Y807038D01*
X267376Y807263D01*
X267601Y807526D01*
X267782Y807821D01*
X267914Y808141D01*
X267995Y808478D01*
X268015Y808823D01*
X267995Y809168D01*
X267914Y809505D01*
X267782Y809825D01*
X267601Y810120D01*
X267376Y810384D01*
X267112Y810609D01*
X266817Y810789D01*
X266497Y810922D01*
X266161Y811003D01*
X265815Y811030D01*
X265470Y811003D01*
X265133Y810922D01*
X264813Y810789D01*
X264737Y810743D01*
X264723Y810736D01*
X264674Y810704D01*
X264518Y810609D01*
X264507Y810599D01*
X264456Y810608D01*
X264428Y810610D01*
X250662Y812771D01*
Y821823D01*
G37*
G36*
Y564288D02*X187205Y559208D01*
X187170Y559203D01*
X187139Y559201D01*
X186994Y559179D01*
X186963Y559174D01*
X186960Y559173D01*
X186307Y559071D01*
X185491Y558860D01*
X184697Y558579D01*
X184561Y558512D01*
X165986Y550766D01*
X166082Y550921D01*
X166214Y551241D01*
X166295Y551578D01*
X166304Y551726D01*
X166306Y551735D01*
X166317Y551923D01*
X166320Y552029D01*
X166334Y552134D01*
X166357Y552237D01*
X166389Y552339D01*
X166430Y552436D01*
X166478Y552530D01*
X166535Y552620D01*
X166600Y552704D01*
X166647Y552756D01*
X166673Y552779D01*
X166705Y552816D01*
X188112Y574223D01*
X242618D01*
X242455Y574084D01*
X242230Y573820D01*
X242049Y573525D01*
X241917Y573205D01*
X241836Y572868D01*
X241809Y572523D01*
X241836Y572178D01*
X241917Y571841D01*
X242049Y571521D01*
X242230Y571226D01*
X242455Y570963D01*
X242718Y570738D01*
X243013Y570557D01*
X243333Y570424D01*
X243670Y570344D01*
X244015Y570316D01*
X244361Y570344D01*
X244697Y570424D01*
X245017Y570557D01*
X245312Y570738D01*
X245576Y570963D01*
X245801Y571226D01*
X245982Y571521D01*
X246114Y571841D01*
X246195Y572178D01*
X246209Y572423D01*
X250662D01*
Y564288D01*
G37*
G36*
X225495Y559164D02*X250662Y561179D01*
Y500923D01*
X225495D01*
Y507040D01*
X225500Y507040D01*
X226010Y507080D01*
X226507Y507200D01*
X226980Y507395D01*
X227416Y507663D01*
X227805Y507995D01*
X228137Y508384D01*
X228405Y508820D01*
X228600Y509293D01*
X228720Y509790D01*
X228750Y510300D01*
X228720Y510810D01*
X228600Y511307D01*
X228405Y511780D01*
X228137Y512216D01*
X227805Y512605D01*
X227416Y512937D01*
X226980Y513205D01*
X226507Y513400D01*
X226010Y513520D01*
X225500Y513560D01*
X225495Y513560D01*
Y559164D01*
G37*
G36*
X218962Y558641D02*X225495Y559164D01*
Y513560D01*
X224990Y513520D01*
X224493Y513400D01*
X224020Y513205D01*
X223584Y512937D01*
X223195Y512605D01*
X222863Y512216D01*
X222595Y511780D01*
X222400Y511307D01*
X222280Y510810D01*
X222240Y510300D01*
X222280Y509790D01*
X222400Y509293D01*
X222595Y508820D01*
X222863Y508384D01*
X223195Y507995D01*
X223584Y507663D01*
X224020Y507395D01*
X224493Y507200D01*
X224990Y507080D01*
X225495Y507040D01*
Y500923D01*
X218962D01*
Y558641D01*
G37*
G36*
X238542Y648646D02*X250662Y645727D01*
Y583823D01*
X238542D01*
Y606553D01*
X241683Y606557D01*
X241821Y606590D01*
X241952Y606644D01*
X242072Y606718D01*
X242180Y606810D01*
X242272Y606918D01*
X242346Y607039D01*
X242400Y607170D01*
X242433Y607308D01*
X242442Y607449D01*
X242433Y613590D01*
X242400Y613728D01*
X242346Y613859D01*
X242272Y613979D01*
X242180Y614087D01*
X242072Y614179D01*
X241952Y614253D01*
X241821Y614307D01*
X241683Y614340D01*
X241542Y614349D01*
X238542Y614345D01*
Y625737D01*
X239154Y625785D01*
X239751Y625928D01*
X240318Y626163D01*
X240841Y626484D01*
X241308Y626883D01*
X241707Y627349D01*
X242027Y627873D01*
X242262Y628440D01*
X242406Y629037D01*
X242442Y629649D01*
X242406Y630261D01*
X242262Y630858D01*
X242027Y631425D01*
X241707Y631948D01*
X241308Y632415D01*
X240841Y632814D01*
X240318Y633134D01*
X239751Y633369D01*
X239154Y633513D01*
X238542Y633561D01*
Y648646D01*
G37*
G36*
X244994Y661536D02*X250662Y660436D01*
Y648916D01*
X244994Y650281D01*
Y652088D01*
X245000Y652088D01*
X245612Y652136D01*
X246209Y652279D01*
X246776Y652514D01*
X247299Y652835D01*
X247766Y653234D01*
X248165Y653701D01*
X248486Y654224D01*
X248721Y654791D01*
X248864Y655388D01*
X248900Y656000D01*
X248864Y656612D01*
X248721Y657209D01*
X248486Y657776D01*
X248165Y658299D01*
X247766Y658766D01*
X247299Y659165D01*
X246776Y659486D01*
X246209Y659721D01*
X245612Y659864D01*
X245000Y659912D01*
X244994Y659912D01*
Y661536D01*
G37*
G36*
X238542Y662788D02*X244994Y661536D01*
Y659912D01*
X244388Y659864D01*
X243791Y659721D01*
X243224Y659486D01*
X242701Y659165D01*
X242234Y658766D01*
X241835Y658299D01*
X241514Y657776D01*
X241279Y657209D01*
X241136Y656612D01*
X241088Y656000D01*
X241136Y655388D01*
X241279Y654791D01*
X241514Y654224D01*
X241835Y653701D01*
X242234Y653234D01*
X242701Y652835D01*
X243224Y652514D01*
X243791Y652279D01*
X244388Y652136D01*
X244994Y652088D01*
Y650281D01*
X238542Y651834D01*
Y654359D01*
X238721Y654791D01*
X238864Y655388D01*
X238900Y656000D01*
X238864Y656612D01*
X238721Y657209D01*
X238542Y657641D01*
Y662788D01*
G37*
G36*
Y651834D02*X236387Y652353D01*
X236776Y652514D01*
X237299Y652835D01*
X237766Y653234D01*
X238165Y653701D01*
X238486Y654224D01*
X238542Y654359D01*
Y651834D01*
G37*
G36*
X218962Y667210D02*X219367Y667113D01*
X220057Y667059D01*
X220748Y667113D01*
X221421Y667275D01*
X221632Y667362D01*
X221857Y667380D01*
X222301Y667376D01*
X222743Y667334D01*
X223180Y667253D01*
X223608Y667134D01*
X224023Y666979D01*
X224424Y666787D01*
X224714Y666617D01*
X224772Y666576D01*
X224871Y666520D01*
X226575Y665421D01*
X226787Y665301D01*
X226971Y665236D01*
X227414Y665027D01*
X228143Y664797D01*
X228384Y664757D01*
X228397Y664757D01*
X238542Y662788D01*
Y657641D01*
X238486Y657776D01*
X238165Y658299D01*
X237766Y658766D01*
X237299Y659165D01*
X236776Y659486D01*
X236209Y659721D01*
X235612Y659864D01*
X235000Y659912D01*
X234388Y659864D01*
X233791Y659721D01*
X233224Y659486D01*
X232701Y659165D01*
X232234Y658766D01*
X231835Y658299D01*
X231514Y657776D01*
X231279Y657209D01*
X231136Y656612D01*
X231088Y656000D01*
X231136Y655388D01*
X231279Y654791D01*
X231508Y654240D01*
X230533Y654767D01*
X230483Y654799D01*
X230192Y654973D01*
X229920Y655175D01*
X229666Y655399D01*
X229433Y655645D01*
X229222Y655910D01*
X229036Y656192D01*
X228874Y656490D01*
X228871Y656497D01*
X228864Y656612D01*
X228721Y657209D01*
X228486Y657776D01*
X228165Y658299D01*
X227766Y658766D01*
X227299Y659165D01*
X226776Y659486D01*
X226209Y659721D01*
X225612Y659864D01*
X225000Y659912D01*
X224388Y659864D01*
X223791Y659721D01*
X223224Y659486D01*
X222701Y659165D01*
X222234Y658766D01*
X221835Y658299D01*
X221514Y657776D01*
X221279Y657209D01*
X221136Y656612D01*
X221088Y656000D01*
X221136Y655388D01*
X221279Y654791D01*
X221514Y654224D01*
X221835Y653701D01*
X222234Y653234D01*
X222701Y652835D01*
X223224Y652514D01*
X223791Y652279D01*
X224388Y652136D01*
X225000Y652088D01*
X225612Y652136D01*
X226209Y652279D01*
X226707Y652486D01*
X226786Y652498D01*
X227124Y652518D01*
X227462Y652509D01*
X227799Y652471D01*
X228130Y652404D01*
X228455Y652307D01*
X228770Y652183D01*
X228955Y652091D01*
X228975Y652079D01*
X229041Y652048D01*
X229073Y652032D01*
X229081Y652029D01*
X232071Y650410D01*
X232078Y650407D01*
X232081Y650405D01*
X232771Y650077D01*
X233501Y649848D01*
X233657Y649822D01*
X238542Y648646D01*
Y633561D01*
X237930Y633513D01*
X237333Y633369D01*
X236766Y633134D01*
X236242Y632814D01*
X235776Y632415D01*
X235377Y631948D01*
X235056Y631425D01*
X234821Y630858D01*
X234678Y630261D01*
X234630Y629649D01*
X234678Y629037D01*
X234821Y628440D01*
X235056Y627873D01*
X235377Y627349D01*
X235776Y626883D01*
X236242Y626484D01*
X236766Y626163D01*
X237333Y625928D01*
X237930Y625785D01*
X238542Y625737D01*
Y614345D01*
X235401Y614340D01*
X235263Y614307D01*
X235132Y614253D01*
X235011Y614179D01*
X234903Y614087D01*
X234811Y613979D01*
X234737Y613859D01*
X234683Y613728D01*
X234650Y613590D01*
X234642Y613449D01*
X234650Y607308D01*
X234683Y607170D01*
X234737Y607039D01*
X234811Y606918D01*
X234903Y606810D01*
X235011Y606718D01*
X235132Y606644D01*
X235263Y606590D01*
X235401Y606557D01*
X235542Y606549D01*
X238542Y606553D01*
Y583823D01*
X218962D01*
Y667210D01*
G37*
G36*
Y677973D02*X223104Y674994D01*
X223213Y674908D01*
X223651Y674579D01*
X224055Y674209D01*
X224426Y673805D01*
X224760Y673370D01*
X225054Y672907D01*
X225307Y672421D01*
X225517Y671915D01*
X225566Y671759D01*
X225544Y671472D01*
X225599Y670766D01*
X225765Y670078D01*
X225988Y669538D01*
X225765Y669728D01*
X225454Y670045D01*
X225172Y670387D01*
X224920Y670753D01*
X224702Y671140D01*
X224517Y671544D01*
X224440Y671761D01*
X224417Y672163D01*
X224255Y672836D01*
X223990Y673476D01*
X223628Y674067D01*
X223178Y674593D01*
X222652Y675043D01*
X222061Y675405D01*
X221421Y675670D01*
X220748Y675832D01*
X220057Y675886D01*
X219383Y675833D01*
X219258Y675849D01*
X218962Y675915D01*
Y677973D01*
G37*
G36*
Y709757D02*X232881Y680330D01*
X232891Y680305D01*
X232934Y680208D01*
X232968Y680108D01*
X232993Y680005D01*
X233008Y679900D01*
X233015Y679794D01*
X233012Y679689D01*
X233000Y679583D01*
X232979Y679479D01*
X232954Y679396D01*
X232917Y679305D01*
X232836Y678968D01*
X232809Y678623D01*
X232836Y678278D01*
X232856Y678192D01*
X218962Y686946D01*
Y709757D01*
G37*
G36*
Y775681D02*X250662Y759052D01*
Y699554D01*
X250497Y699622D01*
X250161Y699703D01*
X249815Y699730D01*
X249470Y699703D01*
X249133Y699622D01*
X248813Y699489D01*
X248518Y699309D01*
X248255Y699084D01*
X248030Y698820D01*
X247849Y698525D01*
X247717Y698205D01*
X247636Y697868D01*
X247609Y697523D01*
X247636Y697178D01*
X247717Y696841D01*
X247849Y696521D01*
X248030Y696226D01*
X248255Y695963D01*
X248518Y695738D01*
X248813Y695557D01*
X249133Y695424D01*
X249470Y695344D01*
X249815Y695316D01*
X250161Y695344D01*
X250497Y695424D01*
X250662Y695493D01*
Y675939D01*
X250057Y675986D01*
X249351Y675931D01*
X248663Y675765D01*
X248008Y675494D01*
X247404Y675124D01*
X246866Y674664D01*
X246406Y674126D01*
X246036Y673522D01*
X245765Y672867D01*
X245599Y672179D01*
X245544Y671472D01*
X245599Y670766D01*
X245765Y670078D01*
X246036Y669423D01*
X246406Y668819D01*
X246866Y668281D01*
X247404Y667821D01*
X248008Y667451D01*
X248663Y667179D01*
X249351Y667014D01*
X250057Y666959D01*
X250662Y667006D01*
Y663594D01*
X231687Y667277D01*
X232107Y667451D01*
X232711Y667821D01*
X233249Y668281D01*
X233709Y668819D01*
X234079Y669423D01*
X234350Y670078D01*
X234516Y670766D01*
X234557Y671472D01*
X234516Y672179D01*
X234350Y672867D01*
X234079Y673522D01*
X233709Y674126D01*
X233249Y674664D01*
X233180Y674723D01*
X234922D01*
X235015Y674719D01*
X235069Y674723D01*
X235101Y674723D01*
X235127Y674727D01*
X235204Y674733D01*
X235206Y674733D01*
X235272Y674738D01*
X235454Y674785D01*
X235493Y674802D01*
X237725Y675321D01*
X237404Y675124D01*
X236866Y674664D01*
X236406Y674126D01*
X236036Y673522D01*
X235765Y672867D01*
X235599Y672179D01*
X235544Y671472D01*
X235599Y670766D01*
X235765Y670078D01*
X236036Y669423D01*
X236406Y668819D01*
X236866Y668281D01*
X237404Y667821D01*
X238008Y667451D01*
X238663Y667179D01*
X239351Y667014D01*
X240057Y666959D01*
X240764Y667014D01*
X241452Y667179D01*
X242107Y667451D01*
X242711Y667821D01*
X243249Y668281D01*
X243709Y668819D01*
X244079Y669423D01*
X244350Y670078D01*
X244516Y670766D01*
X244557Y671472D01*
X244516Y672179D01*
X244350Y672867D01*
X244079Y673522D01*
X243709Y674126D01*
X243249Y674664D01*
X242711Y675124D01*
X242331Y675357D01*
X242414Y675341D01*
X242515Y675311D01*
X242614Y675272D01*
X242709Y675225D01*
X242799Y675170D01*
X242884Y675107D01*
X242963Y675036D01*
X243036Y674960D01*
X243088Y674894D01*
X243130Y674826D01*
X243355Y674563D01*
X243618Y674338D01*
X243913Y674157D01*
X244233Y674024D01*
X244570Y673944D01*
X244915Y673916D01*
X245261Y673944D01*
X245597Y674024D01*
X245917Y674157D01*
X246212Y674338D01*
X246476Y674563D01*
X246701Y674826D01*
X246882Y675121D01*
X247014Y675441D01*
X247095Y675778D01*
X247115Y676123D01*
X247095Y676468D01*
X247014Y676805D01*
X246882Y677125D01*
X246701Y677420D01*
X246476Y677684D01*
X246212Y677909D01*
X245917Y678089D01*
X245597Y678222D01*
X245261Y678303D01*
X244915Y678330D01*
X244570Y678303D01*
X244233Y678222D01*
X243913Y678089D01*
X243839Y678044D01*
X243827Y678039D01*
X243740Y677983D01*
X243618Y677909D01*
X243589Y677883D01*
X243580Y677878D01*
X243487Y677827D01*
X243390Y677785D01*
X243290Y677751D01*
X243187Y677727D01*
X243082Y677711D01*
X242976Y677705D01*
X242870Y677707D01*
X242773Y677718D01*
X242686Y677736D01*
X242651Y677739D01*
X240896Y678047D01*
X240889Y678048D01*
X240876Y678051D01*
X240258Y678125D01*
X239636Y678129D01*
X239016Y678071D01*
X238404Y677951D01*
X238322Y677923D01*
X236975Y677610D01*
X236982Y677621D01*
X237114Y677941D01*
X237195Y678278D01*
X237215Y678623D01*
X237195Y678968D01*
X237114Y679305D01*
X236982Y679625D01*
X236801Y679920D01*
X236576Y680184D01*
X236312Y680409D01*
X236017Y680589D01*
X235697Y680722D01*
X235674Y680728D01*
X235672Y680729D01*
X235577Y680776D01*
X235486Y680831D01*
X235401Y680894D01*
X235322Y680964D01*
X235249Y681041D01*
X235183Y681124D01*
X235125Y681212D01*
X235082Y681292D01*
X235052Y681359D01*
X235033Y681392D01*
X218962Y715370D01*
Y739385D01*
X229309Y729037D01*
X229310Y729037D01*
X229309Y729023D01*
X229336Y728678D01*
X229417Y728341D01*
X229549Y728021D01*
X229730Y727726D01*
X229955Y727463D01*
X230218Y727238D01*
X230513Y727057D01*
X230833Y726924D01*
X231170Y726844D01*
X231515Y726816D01*
X231861Y726844D01*
X232197Y726924D01*
X232517Y727057D01*
X232812Y727238D01*
X233076Y727463D01*
X233301Y727726D01*
X233482Y728021D01*
X233614Y728341D01*
X233695Y728678D01*
X233715Y729023D01*
X233695Y729368D01*
X233614Y729705D01*
X233482Y730025D01*
X233301Y730320D01*
X233076Y730584D01*
X232812Y730809D01*
X232517Y730989D01*
X232197Y731122D01*
X231861Y731203D01*
X231515Y731230D01*
X231505Y731229D01*
X231504Y731231D01*
X231472Y731259D01*
X218962Y743769D01*
Y775681D01*
G37*
G36*
Y821823D02*X250662D01*
Y812771D01*
X233218Y815509D01*
X233210Y815511D01*
X233206Y815511D01*
X233201Y815520D01*
X232976Y815784D01*
X232712Y816009D01*
X232417Y816189D01*
X232097Y816322D01*
X231761Y816403D01*
X231415Y816430D01*
X231070Y816403D01*
X230733Y816322D01*
X230413Y816189D01*
X230118Y816009D01*
X229855Y815784D01*
X229630Y815520D01*
X229449Y815225D01*
X229317Y814905D01*
X229236Y814568D01*
X229209Y814223D01*
X229236Y813878D01*
X229317Y813541D01*
X229449Y813221D01*
X229630Y812926D01*
X229855Y812663D01*
X230118Y812438D01*
X230413Y812257D01*
X230733Y812124D01*
X231070Y812044D01*
X231415Y812016D01*
X231761Y812044D01*
X232097Y812124D01*
X232417Y812257D01*
X232712Y812438D01*
X232722Y812446D01*
X232765Y812442D01*
X250662Y809633D01*
Y762552D01*
X218962Y779182D01*
Y821823D01*
G37*
G36*
X215495Y558363D02*X218962Y558641D01*
Y500923D01*
X215495D01*
Y527040D01*
X215500Y527040D01*
X216010Y527080D01*
X216507Y527200D01*
X216980Y527395D01*
X217416Y527663D01*
X217805Y527995D01*
X218137Y528384D01*
X218405Y528820D01*
X218600Y529293D01*
X218720Y529790D01*
X218750Y530300D01*
X218720Y530810D01*
X218600Y531307D01*
X218405Y531780D01*
X218137Y532216D01*
X217805Y532605D01*
X217416Y532937D01*
X216980Y533205D01*
X216507Y533400D01*
X216010Y533520D01*
X215500Y533560D01*
X215495Y533560D01*
Y558363D01*
G37*
G36*
X212112Y558092D02*X215495Y558363D01*
Y533560D01*
X214990Y533520D01*
X214493Y533400D01*
X214020Y533205D01*
X213584Y532937D01*
X213195Y532605D01*
X212863Y532216D01*
X212595Y531780D01*
X212400Y531307D01*
X212280Y530810D01*
X212240Y530300D01*
X212280Y529790D01*
X212400Y529293D01*
X212595Y528820D01*
X212863Y528384D01*
X213195Y527995D01*
X213584Y527663D01*
X214020Y527395D01*
X214493Y527200D01*
X214990Y527080D01*
X215495Y527040D01*
Y500923D01*
X212112D01*
Y558092D01*
G37*
G36*
X218450Y667376D02*X218694Y667275D01*
X218962Y667210D01*
Y583823D01*
X218450D01*
Y653449D01*
X218521Y653454D01*
X218589Y653471D01*
X218655Y653498D01*
X218715Y653535D01*
X218769Y653581D01*
X218815Y653635D01*
X218852Y653695D01*
X218879Y653761D01*
X218896Y653829D01*
X218900Y653900D01*
Y658100D01*
X218896Y658171D01*
X218879Y658239D01*
X218852Y658305D01*
X218815Y658365D01*
X218769Y658419D01*
X218715Y658465D01*
X218655Y658502D01*
X218589Y658529D01*
X218521Y658546D01*
X218450Y658551D01*
Y667376D01*
G37*
G36*
X214057Y675369D02*X214197Y675227D01*
X214264Y675152D01*
X214567Y674828D01*
X214838Y674476D01*
X215076Y674101D01*
X215281Y673707D01*
X215451Y673297D01*
X215584Y672874D01*
X215681Y672440D01*
X215710Y672214D01*
X215698Y672163D01*
X215644Y671472D01*
X215698Y670782D01*
X215860Y670109D01*
X216125Y669469D01*
X216487Y668878D01*
X216937Y668352D01*
X217463Y667902D01*
X218054Y667540D01*
X218450Y667376D01*
Y658551D01*
X218379Y658546D01*
X218311Y658529D01*
X218245Y658502D01*
X218185Y658465D01*
X218131Y658419D01*
X218085Y658365D01*
X218048Y658305D01*
X218021Y658239D01*
X218004Y658171D01*
X218000Y658100D01*
Y653900D01*
X218004Y653829D01*
X218021Y653761D01*
X218048Y653695D01*
X218085Y653635D01*
X218131Y653581D01*
X218185Y653535D01*
X218245Y653498D01*
X218311Y653471D01*
X218379Y653454D01*
X218450Y653449D01*
Y583823D01*
X214057D01*
Y652100D01*
X217100D01*
X217171Y652104D01*
X217239Y652121D01*
X217305Y652148D01*
X217365Y652185D01*
X217419Y652231D01*
X217465Y652285D01*
X217502Y652345D01*
X217529Y652411D01*
X217546Y652479D01*
X217551Y652550D01*
X217546Y652621D01*
X217529Y652689D01*
X217502Y652755D01*
X217465Y652815D01*
X217419Y652869D01*
X217365Y652915D01*
X217305Y652952D01*
X217239Y652979D01*
X217171Y652996D01*
X217100Y653000D01*
X214057D01*
Y659000D01*
X217100D01*
X217171Y659004D01*
X217239Y659021D01*
X217305Y659048D01*
X217365Y659085D01*
X217419Y659131D01*
X217465Y659185D01*
X217502Y659245D01*
X217529Y659311D01*
X217546Y659379D01*
X217551Y659450D01*
X217546Y659521D01*
X217529Y659589D01*
X217502Y659655D01*
X217465Y659715D01*
X217419Y659769D01*
X217365Y659815D01*
X217305Y659852D01*
X217239Y659879D01*
X217171Y659896D01*
X217100Y659900D01*
X214057D01*
Y668471D01*
X214136Y668477D01*
X214212Y668495D01*
X214285Y668526D01*
X214352Y668567D01*
X214412Y668618D01*
X214463Y668678D01*
X214504Y668745D01*
X214534Y668817D01*
X214553Y668894D01*
X214557Y668972D01*
Y673972D01*
X214553Y674051D01*
X214534Y674127D01*
X214504Y674200D01*
X214463Y674267D01*
X214412Y674327D01*
X214352Y674378D01*
X214285Y674419D01*
X214212Y674449D01*
X214136Y674468D01*
X214057Y674474D01*
Y675369D01*
G37*
G36*
X212112Y676334D02*X213663Y675770D01*
X214057Y675369D01*
Y674474D01*
X213979Y674468D01*
X213902Y674449D01*
X213830Y674419D01*
X213763Y674378D01*
X213703Y674327D01*
X213652Y674267D01*
X213611Y674200D01*
X213580Y674127D01*
X213562Y674051D01*
X213557Y673972D01*
Y668972D01*
X213562Y668894D01*
X213580Y668817D01*
X213611Y668745D01*
X213652Y668678D01*
X213703Y668618D01*
X213763Y668567D01*
X213830Y668526D01*
X213902Y668495D01*
X213979Y668477D01*
X214057Y668471D01*
Y659900D01*
X212900D01*
X212829Y659896D01*
X212761Y659879D01*
X212695Y659852D01*
X212635Y659815D01*
X212581Y659769D01*
X212535Y659715D01*
X212498Y659655D01*
X212471Y659589D01*
X212454Y659521D01*
X212449Y659450D01*
X212454Y659379D01*
X212471Y659311D01*
X212498Y659245D01*
X212535Y659185D01*
X212581Y659131D01*
X212635Y659085D01*
X212695Y659048D01*
X212761Y659021D01*
X212829Y659004D01*
X212900Y659000D01*
X214057D01*
Y653000D01*
X212900D01*
X212829Y652996D01*
X212761Y652979D01*
X212695Y652952D01*
X212635Y652915D01*
X212581Y652869D01*
X212535Y652815D01*
X212498Y652755D01*
X212471Y652689D01*
X212454Y652621D01*
X212449Y652550D01*
X212454Y652479D01*
X212471Y652411D01*
X212498Y652345D01*
X212535Y652285D01*
X212581Y652231D01*
X212635Y652185D01*
X212695Y652148D01*
X212761Y652121D01*
X212829Y652104D01*
X212900Y652100D01*
X214057D01*
Y583823D01*
X212112D01*
Y666972D01*
X212557D01*
X212636Y666977D01*
X212712Y666995D01*
X212785Y667026D01*
X212852Y667067D01*
X212912Y667118D01*
X212963Y667178D01*
X213004Y667245D01*
X213034Y667317D01*
X213053Y667394D01*
X213059Y667472D01*
X213053Y667551D01*
X213034Y667627D01*
X213004Y667700D01*
X212963Y667767D01*
X212912Y667827D01*
X212852Y667878D01*
X212785Y667919D01*
X212712Y667949D01*
X212636Y667968D01*
X212557Y667972D01*
X212112D01*
Y674972D01*
X212557D01*
X212636Y674977D01*
X212712Y674995D01*
X212785Y675026D01*
X212852Y675067D01*
X212912Y675118D01*
X212963Y675178D01*
X213004Y675245D01*
X213034Y675317D01*
X213053Y675394D01*
X213059Y675472D01*
X213053Y675551D01*
X213034Y675627D01*
X213004Y675700D01*
X212963Y675767D01*
X212912Y675827D01*
X212852Y675878D01*
X212785Y675919D01*
X212712Y675949D01*
X212636Y675968D01*
X212557Y675972D01*
X212112D01*
Y676334D01*
G37*
G36*
Y682898D02*X218962Y677973D01*
Y675915D01*
X218825Y675945D01*
X218401Y676079D01*
X217991Y676249D01*
X217597Y676454D01*
X217223Y676692D01*
X216871Y676963D01*
X216569Y677239D01*
X216465Y677353D01*
X216394Y677414D01*
X215812Y678007D01*
X215807Y678011D01*
X215802Y678017D01*
X215627Y678181D01*
X215436Y678327D01*
X215234Y678456D01*
X215021Y678567D01*
X214799Y678659D01*
X214797Y678657D01*
X212112Y679632D01*
Y682898D01*
G37*
G36*
Y724240D02*X218962Y709757D01*
Y686946D01*
X212112Y691261D01*
Y695917D01*
X212115Y695916D01*
X212461Y695944D01*
X212797Y696024D01*
X213117Y696157D01*
X213412Y696338D01*
X213676Y696563D01*
X213901Y696826D01*
X214082Y697121D01*
X214214Y697441D01*
X214295Y697778D01*
X214315Y698123D01*
X214295Y698468D01*
X214214Y698805D01*
X214082Y699125D01*
X213901Y699420D01*
X213676Y699684D01*
X213412Y699909D01*
X213117Y700089D01*
X212797Y700222D01*
X212461Y700303D01*
X212115Y700330D01*
X212112Y700330D01*
Y724240D01*
G37*
G36*
Y746235D02*X218962Y739385D01*
Y715370D01*
X212112Y729853D01*
Y746235D01*
G37*
G36*
Y779275D02*X218962Y775681D01*
Y743769D01*
X212112Y750619D01*
Y779275D01*
G37*
G36*
Y821823D02*X218962D01*
Y779182D01*
X212112Y782775D01*
Y821823D01*
G37*
G36*
X156500Y551602D02*X161641Y551608D01*
X161779Y551641D01*
X161910Y551696D01*
X161926Y551705D01*
X161936Y551578D01*
X162017Y551241D01*
X162149Y550921D01*
X162330Y550626D01*
X162555Y550363D01*
X162777Y550173D01*
X156500D01*
Y551602D01*
G37*
G36*
Y582602D02*X159022Y582605D01*
X159158Y582585D01*
X159691Y582457D01*
X160211Y582283D01*
X160714Y582064D01*
X161196Y581803D01*
X161653Y581500D01*
X162082Y581159D01*
X162321Y580932D01*
X162331Y580921D01*
X162367Y580888D01*
X162480Y580782D01*
X162485Y580777D01*
X165032Y578210D01*
X165064Y578172D01*
X165193Y578062D01*
X165204Y578052D01*
X165206Y578051D01*
X165208Y578049D01*
X165286Y578001D01*
X165365Y577953D01*
X165367Y577952D01*
X165369Y577951D01*
X165454Y577915D01*
X165539Y577880D01*
X165541Y577879D01*
X165543Y577878D01*
X165633Y577857D01*
X165722Y577835D01*
X165725Y577835D01*
X165727Y577834D01*
X165742Y577833D01*
X165911Y577820D01*
X165960Y577823D01*
X178118D01*
X162635Y562334D01*
X162514Y562223D01*
X162121Y561841D01*
X161692Y561500D01*
X161235Y561198D01*
X160753Y560936D01*
X160250Y560717D01*
X159730Y560543D01*
X159197Y560415D01*
X159075Y560397D01*
X156500Y560394D01*
Y561859D01*
X156636Y561802D01*
X157310Y561641D01*
X158000Y561586D01*
X158690Y561641D01*
X159364Y561802D01*
X160004Y562067D01*
X160594Y562429D01*
X161121Y562879D01*
X161571Y563406D01*
X161933Y563996D01*
X162198Y564636D01*
X162359Y565310D01*
X162400Y566000D01*
X162359Y566690D01*
X162198Y567364D01*
X161933Y568004D01*
X161571Y568594D01*
X161121Y569121D01*
X160594Y569571D01*
X160004Y569933D01*
X159364Y570198D01*
X158690Y570359D01*
X158000Y570414D01*
X157310Y570359D01*
X156636Y570198D01*
X156500Y570141D01*
Y582602D01*
G37*
G36*
Y613602D02*X159039Y613605D01*
X159175Y613585D01*
X159708Y613457D01*
X160228Y613283D01*
X160731Y613064D01*
X161213Y612803D01*
X161670Y612500D01*
X162099Y612159D01*
X162326Y611944D01*
X162331Y611938D01*
X162350Y611921D01*
X162496Y611782D01*
X162504Y611775D01*
X170315Y603928D01*
Y583424D01*
X170312Y583377D01*
X170326Y583190D01*
X170326Y583189D01*
X170326Y583189D01*
X170326Y583189D01*
X170344Y583114D01*
X170371Y583006D01*
X170371Y583006D01*
X170371Y583006D01*
X170402Y582930D01*
X170443Y582831D01*
X170443Y582831D01*
X170443Y582831D01*
X170485Y582762D01*
X170542Y582670D01*
X170542Y582670D01*
X170542Y582670D01*
X170542Y582670D01*
X170664Y582526D01*
X170700Y582496D01*
X172973Y580223D01*
X166415D01*
X164124Y582532D01*
X164068Y582598D01*
X163700Y583004D01*
X163374Y583445D01*
X163088Y583912D01*
X162843Y584403D01*
X162642Y584913D01*
X162486Y585439D01*
X162397Y585876D01*
X162392Y590641D01*
X162359Y590779D01*
X162304Y590910D01*
X162230Y591031D01*
X162138Y591138D01*
X162031Y591230D01*
X161910Y591304D01*
X161779Y591359D01*
X161641Y591392D01*
X161500Y591400D01*
X156500Y591394D01*
Y592859D01*
X156636Y592802D01*
X157310Y592641D01*
X158000Y592586D01*
X158690Y592641D01*
X159364Y592802D01*
X160004Y593067D01*
X160594Y593429D01*
X161121Y593879D01*
X161571Y594406D01*
X161933Y594996D01*
X162198Y595636D01*
X162359Y596310D01*
X162400Y597000D01*
X162359Y597690D01*
X162198Y598364D01*
X161933Y599004D01*
X161571Y599594D01*
X161121Y600121D01*
X160594Y600571D01*
X160004Y600933D01*
X159364Y601198D01*
X158690Y601359D01*
X158000Y601414D01*
X157310Y601359D01*
X156636Y601198D01*
X156500Y601141D01*
Y613602D01*
G37*
G36*
Y644602D02*X159101Y644605D01*
X159105Y644605D01*
X159640Y644486D01*
X160163Y644321D01*
X160669Y644112D01*
X161156Y643858D01*
X161618Y643564D01*
X162053Y643230D01*
X162375Y642935D01*
X162437Y642867D01*
X162529Y642787D01*
X172215Y633125D01*
Y605421D01*
X164124Y613549D01*
X164068Y613615D01*
X163700Y614021D01*
X163374Y614462D01*
X163088Y614929D01*
X162843Y615420D01*
X162642Y615930D01*
X162486Y616456D01*
X162397Y616893D01*
X162392Y621641D01*
X162359Y621779D01*
X162304Y621910D01*
X162230Y622031D01*
X162138Y622138D01*
X162031Y622230D01*
X161910Y622304D01*
X161779Y622359D01*
X161641Y622392D01*
X161500Y622400D01*
X156500Y622394D01*
Y623859D01*
X156636Y623802D01*
X157310Y623641D01*
X158000Y623586D01*
X158690Y623641D01*
X159364Y623802D01*
X160004Y624067D01*
X160594Y624429D01*
X161121Y624879D01*
X161571Y625406D01*
X161933Y625996D01*
X162198Y626636D01*
X162359Y627310D01*
X162400Y628000D01*
X162359Y628690D01*
X162198Y629364D01*
X161933Y630004D01*
X161571Y630594D01*
X161121Y631121D01*
X160594Y631571D01*
X160004Y631933D01*
X159364Y632198D01*
X158690Y632359D01*
X158000Y632414D01*
X157310Y632359D01*
X156636Y632198D01*
X156500Y632141D01*
Y644602D01*
G37*
G36*
X211550Y666972D02*X212112D01*
Y583823D01*
X211550D01*
Y653449D01*
X211621Y653454D01*
X211689Y653471D01*
X211755Y653498D01*
X211815Y653535D01*
X211869Y653581D01*
X211915Y653635D01*
X211952Y653695D01*
X211979Y653761D01*
X211996Y653829D01*
X212000Y653900D01*
Y658100D01*
X211996Y658171D01*
X211979Y658239D01*
X211952Y658305D01*
X211915Y658365D01*
X211869Y658419D01*
X211815Y658465D01*
X211755Y658502D01*
X211689Y658529D01*
X211621Y658546D01*
X211550Y658551D01*
Y666972D01*
G37*
G36*
Y674972D02*X212112D01*
Y667972D01*
X211550D01*
Y674972D01*
G37*
G36*
Y676538D02*X212112Y676334D01*
Y675972D01*
X211550D01*
Y676538D01*
G37*
G36*
X206057Y678532D02*X211550Y676538D01*
Y675972D01*
X207557D01*
X207479Y675968D01*
X207402Y675949D01*
X207330Y675919D01*
X207263Y675878D01*
X207203Y675827D01*
X207152Y675767D01*
X207111Y675700D01*
X207080Y675627D01*
X207062Y675551D01*
X207056Y675472D01*
X207062Y675394D01*
X207080Y675317D01*
X207111Y675245D01*
X207152Y675178D01*
X207203Y675118D01*
X207263Y675067D01*
X207330Y675026D01*
X207402Y674995D01*
X207479Y674977D01*
X207557Y674972D01*
X211550D01*
Y667972D01*
X207557D01*
X207479Y667968D01*
X207402Y667949D01*
X207330Y667919D01*
X207263Y667878D01*
X207203Y667827D01*
X207152Y667767D01*
X207111Y667700D01*
X207080Y667627D01*
X207062Y667551D01*
X207056Y667472D01*
X207062Y667394D01*
X207080Y667317D01*
X207111Y667245D01*
X207152Y667178D01*
X207203Y667118D01*
X207263Y667067D01*
X207330Y667026D01*
X207402Y666995D01*
X207479Y666977D01*
X207557Y666972D01*
X211550D01*
Y658551D01*
X211479Y658546D01*
X211411Y658529D01*
X211345Y658502D01*
X211285Y658465D01*
X211231Y658419D01*
X211185Y658365D01*
X211148Y658305D01*
X211121Y658239D01*
X211104Y658171D01*
X211100Y658100D01*
Y653900D01*
X211104Y653829D01*
X211121Y653761D01*
X211148Y653695D01*
X211185Y653635D01*
X211231Y653581D01*
X211285Y653535D01*
X211345Y653498D01*
X211411Y653471D01*
X211479Y653454D01*
X211550Y653449D01*
Y583823D01*
X206057D01*
Y668471D01*
X206136Y668477D01*
X206212Y668495D01*
X206285Y668526D01*
X206352Y668567D01*
X206412Y668618D01*
X206463Y668678D01*
X206504Y668745D01*
X206534Y668817D01*
X206553Y668894D01*
X206557Y668972D01*
Y673972D01*
X206553Y674051D01*
X206534Y674127D01*
X206504Y674200D01*
X206463Y674267D01*
X206412Y674327D01*
X206352Y674378D01*
X206285Y674419D01*
X206212Y674449D01*
X206136Y674468D01*
X206057Y674474D01*
Y678532D01*
G37*
G36*
Y687252D02*X212112Y682898D01*
Y679632D01*
X206057Y681830D01*
Y687252D01*
G37*
G36*
Y737040D02*X212112Y724240D01*
Y700330D01*
X211770Y700303D01*
X211433Y700222D01*
X211113Y700089D01*
X210818Y699909D01*
X210555Y699684D01*
X210330Y699420D01*
X210149Y699125D01*
X210017Y698805D01*
X209936Y698468D01*
X209909Y698123D01*
X209936Y697778D01*
X210017Y697441D01*
X210149Y697121D01*
X210330Y696826D01*
X210555Y696563D01*
X210818Y696338D01*
X211113Y696157D01*
X211433Y696024D01*
X211770Y695944D01*
X212112Y695917D01*
Y691261D01*
X206057Y695075D01*
Y737040D01*
G37*
G36*
Y751947D02*X206070Y751944D01*
X206415Y751916D01*
X206425Y751917D01*
X206427Y751915D01*
X206459Y751888D01*
X212112Y746235D01*
Y729853D01*
X206057Y742653D01*
Y751947D01*
G37*
G36*
Y782451D02*X212112Y779275D01*
Y750619D01*
X208621Y754109D01*
X208621Y754110D01*
X208621Y754110D01*
X208620Y754111D01*
X208619Y754112D01*
X208618Y754114D01*
X208617Y754115D01*
X208617Y754117D01*
X208616Y754118D01*
X208616Y754120D01*
X208615Y754122D01*
X208615Y754123D01*
X208595Y754468D01*
X208514Y754805D01*
X208382Y755125D01*
X208201Y755420D01*
X207976Y755684D01*
X207712Y755909D01*
X207417Y756089D01*
X207097Y756222D01*
X206761Y756303D01*
X206415Y756330D01*
X206070Y756303D01*
X206057Y756300D01*
Y782451D01*
G37*
G36*
Y821823D02*X212112D01*
Y782775D01*
X206057Y785951D01*
Y821823D01*
G37*
G36*
X188392Y684946D02*X206057Y678532D01*
Y674474D01*
X205979Y674468D01*
X205902Y674449D01*
X205830Y674419D01*
X205763Y674378D01*
X205703Y674327D01*
X205652Y674267D01*
X205611Y674200D01*
X205580Y674127D01*
X205562Y674051D01*
X205557Y673972D01*
Y668972D01*
X205562Y668894D01*
X205580Y668817D01*
X205611Y668745D01*
X205652Y668678D01*
X205703Y668618D01*
X205763Y668567D01*
X205830Y668526D01*
X205902Y668495D01*
X205979Y668477D01*
X206057Y668471D01*
Y583823D01*
X188392D01*
Y664029D01*
X188404Y664028D01*
X189568Y664120D01*
X190704Y664393D01*
X191784Y664840D01*
X192779Y665450D01*
X193668Y666209D01*
X194426Y667097D01*
X195037Y668093D01*
X195484Y669172D01*
X195756Y670308D01*
X195825Y671472D01*
X195756Y672637D01*
X195484Y673773D01*
X195037Y674852D01*
X194426Y675848D01*
X193668Y676736D01*
X192779Y677495D01*
X191784Y678105D01*
X190704Y678552D01*
X189568Y678825D01*
X188404Y678917D01*
X188392Y678916D01*
Y684946D01*
G37*
G36*
X192686Y696867D02*X206057Y687252D01*
Y681830D01*
X192686Y686685D01*
Y691639D01*
X192746Y691657D01*
X192817Y691690D01*
X192882Y691735D01*
X192939Y691789D01*
X192987Y691851D01*
X193023Y691921D01*
X193138Y692203D01*
X193223Y692496D01*
X193280Y692795D01*
X193308Y693099D01*
Y693404D01*
X193280Y693707D01*
X193223Y694007D01*
X193138Y694299D01*
X193027Y694583D01*
X192989Y694653D01*
X192941Y694715D01*
X192883Y694770D01*
X192818Y694814D01*
X192747Y694848D01*
X192686Y694866D01*
Y696867D01*
G37*
G36*
X190060Y698756D02*X192686Y696867D01*
Y694866D01*
X192671Y694870D01*
X192592Y694880D01*
X192513Y694878D01*
X192435Y694863D01*
X192361Y694837D01*
X192292Y694799D01*
X192229Y694751D01*
X192175Y694693D01*
X192130Y694628D01*
X192096Y694556D01*
X192074Y694480D01*
X192064Y694402D01*
X192066Y694323D01*
X192081Y694245D01*
X192109Y694171D01*
X192188Y693976D01*
X192247Y693774D01*
X192286Y693566D01*
X192306Y693357D01*
Y693146D01*
X192286Y692936D01*
X192247Y692729D01*
X192188Y692526D01*
X192111Y692330D01*
X192083Y692257D01*
X192069Y692179D01*
X192066Y692101D01*
X192076Y692023D01*
X192099Y691947D01*
X192132Y691876D01*
X192177Y691811D01*
X192231Y691754D01*
X192293Y691706D01*
X192362Y691668D01*
X192436Y691641D01*
X192513Y691627D01*
X192592Y691624D01*
X192670Y691635D01*
X192686Y691639D01*
Y686685D01*
X190060Y687638D01*
Y690001D01*
X190211D01*
X190514Y690030D01*
X190814Y690087D01*
X191107Y690171D01*
X191390Y690283D01*
X191460Y690320D01*
X191522Y690369D01*
X191577Y690426D01*
X191621Y690491D01*
X191655Y690563D01*
X191677Y690639D01*
X191687Y690717D01*
X191685Y690796D01*
X191670Y690874D01*
X191644Y690948D01*
X191606Y691018D01*
X191558Y691080D01*
X191500Y691135D01*
X191435Y691179D01*
X191363Y691213D01*
X191287Y691235D01*
X191209Y691246D01*
X191130Y691243D01*
X191052Y691229D01*
X190978Y691201D01*
X190783Y691121D01*
X190581Y691063D01*
X190374Y691023D01*
X190164Y691004D01*
X190060D01*
Y695499D01*
X190164D01*
X190374Y695479D01*
X190581Y695440D01*
X190783Y695381D01*
X190979Y695304D01*
X191053Y695276D01*
X191130Y695262D01*
X191209Y695259D01*
X191287Y695269D01*
X191362Y695291D01*
X191434Y695325D01*
X191499Y695370D01*
X191556Y695424D01*
X191604Y695486D01*
X191642Y695555D01*
X191668Y695629D01*
X191683Y695706D01*
X191685Y695785D01*
X191675Y695863D01*
X191653Y695939D01*
X191619Y696010D01*
X191575Y696075D01*
X191521Y696132D01*
X191458Y696180D01*
X191389Y696216D01*
X191107Y696331D01*
X190814Y696416D01*
X190514Y696473D01*
X190211Y696501D01*
X190060D01*
Y698756D01*
G37*
G36*
X188392Y699954D02*X190060Y698756D01*
Y696501D01*
X189906D01*
X189602Y696473D01*
X189303Y696416D01*
X189010Y696331D01*
X188726Y696220D01*
X188657Y696182D01*
X188594Y696134D01*
X188540Y696076D01*
X188495Y696011D01*
X188461Y695939D01*
X188439Y695864D01*
X188429Y695785D01*
X188431Y695706D01*
X188446Y695628D01*
X188473Y695554D01*
X188511Y695484D01*
X188559Y695422D01*
X188616Y695368D01*
X188682Y695323D01*
X188753Y695289D01*
X188829Y695267D01*
X188908Y695257D01*
X188987Y695259D01*
X189064Y695274D01*
X189138Y695302D01*
X189333Y695381D01*
X189536Y695440D01*
X189743Y695479D01*
X189953Y695499D01*
X190060D01*
Y691004D01*
X189953D01*
X189743Y691023D01*
X189536Y691063D01*
X189333Y691121D01*
X189137Y691198D01*
X189064Y691226D01*
X188986Y691241D01*
X188908Y691243D01*
X188830Y691233D01*
X188754Y691211D01*
X188683Y691177D01*
X188618Y691133D01*
X188561Y691079D01*
X188513Y691017D01*
X188475Y690947D01*
X188448Y690873D01*
X188434Y690796D01*
X188432Y690717D01*
X188442Y690639D01*
X188464Y690564D01*
X188497Y690493D01*
X188542Y690428D01*
X188596Y690370D01*
X188658Y690322D01*
X188728Y690286D01*
X189010Y690171D01*
X189303Y690087D01*
X189602Y690030D01*
X189906Y690001D01*
X190060D01*
Y687638D01*
X188392Y688244D01*
Y699954D01*
G37*
G36*
Y774388D02*X206057Y737040D01*
Y695075D01*
X190700Y704750D01*
X190684Y704762D01*
X190597Y704822D01*
X190517Y704891D01*
X190443Y704967D01*
X190375Y705048D01*
X190315Y705136D01*
X190263Y705228D01*
X190219Y705324D01*
X190184Y705424D01*
X190157Y705527D01*
X190155Y705534D01*
X190114Y705705D01*
X189982Y706025D01*
X189801Y706320D01*
X189576Y706584D01*
X189312Y706809D01*
X189017Y706989D01*
X188697Y707122D01*
X188392Y707195D01*
Y774388D01*
G37*
G36*
Y791718D02*X206057Y782451D01*
Y756300D01*
X205733Y756222D01*
X205413Y756089D01*
X205118Y755909D01*
X204855Y755684D01*
X204630Y755420D01*
X204449Y755125D01*
X204317Y754805D01*
X204236Y754468D01*
X204209Y754123D01*
X204236Y753778D01*
X204317Y753441D01*
X204449Y753121D01*
X204630Y752826D01*
X204855Y752563D01*
X205118Y752338D01*
X205413Y752157D01*
X205733Y752024D01*
X206057Y751947D01*
Y742653D01*
X188392Y780001D01*
Y791718D01*
G37*
G36*
Y821823D02*X206057D01*
Y785951D01*
X188392Y795218D01*
Y821823D01*
G37*
G36*
X187430Y664105D02*X188392Y664029D01*
Y583823D01*
X187430D01*
Y664105D01*
G37*
G36*
Y685295D02*X188392Y684946D01*
Y678916D01*
X187430Y678840D01*
Y685295D01*
G37*
G36*
Y700646D02*X188392Y699954D01*
Y688244D01*
X187430Y688593D01*
Y691637D01*
X187446Y691632D01*
X187524Y691622D01*
X187603Y691624D01*
X187681Y691639D01*
X187756Y691666D01*
X187825Y691704D01*
X187888Y691752D01*
X187942Y691809D01*
X187986Y691875D01*
X188020Y691946D01*
X188043Y692022D01*
X188053Y692100D01*
X188050Y692180D01*
X188036Y692257D01*
X188008Y692331D01*
X187928Y692526D01*
X187870Y692729D01*
X187830Y692936D01*
X187811Y693146D01*
Y693357D01*
X187830Y693566D01*
X187870Y693774D01*
X187928Y693976D01*
X188005Y694172D01*
X188033Y694246D01*
X188048Y694323D01*
X188050Y694402D01*
X188040Y694480D01*
X188018Y694555D01*
X187984Y694626D01*
X187940Y694691D01*
X187886Y694749D01*
X187824Y694797D01*
X187755Y694835D01*
X187680Y694861D01*
X187603Y694876D01*
X187524Y694878D01*
X187446Y694868D01*
X187430Y694863D01*
Y700646D01*
G37*
G36*
Y776422D02*X188392Y774388D01*
Y707195D01*
X188361Y707203D01*
X188015Y707230D01*
X187670Y707203D01*
X187430Y707145D01*
Y776422D01*
G37*
G36*
Y792222D02*X188392Y791718D01*
Y780001D01*
X187430Y782035D01*
Y792222D01*
G37*
G36*
Y821823D02*X188392D01*
Y795218D01*
X187430Y795723D01*
Y821823D01*
G37*
G36*
X166494D02*X187430D01*
Y795723D01*
X183742Y797658D01*
X183740Y797659D01*
X183737Y797660D01*
X183723Y797668D01*
X183723Y797668D01*
X183714Y797705D01*
X183582Y798025D01*
X183401Y798320D01*
X183176Y798584D01*
X182912Y798809D01*
X182617Y798989D01*
X182297Y799122D01*
X181961Y799203D01*
X181615Y799230D01*
X181270Y799203D01*
X180933Y799122D01*
X180613Y798989D01*
X180318Y798809D01*
X180055Y798584D01*
X179830Y798320D01*
X179649Y798025D01*
X179517Y797705D01*
X179436Y797368D01*
X179409Y797023D01*
X179436Y796678D01*
X179517Y796341D01*
X179649Y796021D01*
X179830Y795726D01*
X180055Y795463D01*
X180318Y795238D01*
X180613Y795057D01*
X180933Y794924D01*
X181270Y794844D01*
X181615Y794816D01*
X181961Y794844D01*
X182282Y794921D01*
X182311Y794908D01*
X187430Y792222D01*
Y782035D01*
X183741Y789835D01*
X183741Y789836D01*
X183740Y789839D01*
X183738Y789842D01*
X183731Y789861D01*
X183689Y789958D01*
X183657Y790059D01*
X183634Y790162D01*
X183620Y790267D01*
X183616Y790373D01*
X183620Y790479D01*
X183634Y790584D01*
X183657Y790687D01*
X183679Y790756D01*
X183714Y790841D01*
X183795Y791178D01*
X183815Y791523D01*
X183795Y791868D01*
X183714Y792205D01*
X183582Y792525D01*
X183401Y792820D01*
X183176Y793084D01*
X182912Y793309D01*
X182617Y793489D01*
X182297Y793622D01*
X181961Y793703D01*
X181615Y793730D01*
X181270Y793703D01*
X180933Y793622D01*
X180613Y793489D01*
X180318Y793309D01*
X180055Y793084D01*
X179830Y792820D01*
X179649Y792525D01*
X179517Y792205D01*
X179436Y791868D01*
X179409Y791523D01*
X179436Y791178D01*
X179517Y790841D01*
X179649Y790521D01*
X179830Y790226D01*
X180055Y789963D01*
X180318Y789738D01*
X180613Y789557D01*
X180933Y789424D01*
X180950Y789420D01*
X180978Y789409D01*
X181072Y789360D01*
X181162Y789303D01*
X181246Y789239D01*
X181324Y789167D01*
X181395Y789089D01*
X181460Y789005D01*
X181517Y788916D01*
X181541Y788870D01*
X181551Y788844D01*
X181576Y788801D01*
X187430Y776422D01*
Y707145D01*
X187333Y707122D01*
X187013Y706989D01*
X186718Y706809D01*
X186455Y706584D01*
X186230Y706320D01*
X186049Y706025D01*
X185917Y705705D01*
X185836Y705368D01*
X185809Y705023D01*
X185815Y704938D01*
X185723Y705067D01*
X183204Y709852D01*
X183184Y709899D01*
X183063Y710156D01*
X182968Y710425D01*
X182896Y710701D01*
X182849Y710982D01*
X182827Y711266D01*
X182829Y711551D01*
X182830Y711553D01*
X182963Y711771D01*
X183159Y712244D01*
X183278Y712741D01*
X183308Y713251D01*
X183278Y713761D01*
X183159Y714259D01*
X182963Y714731D01*
X182696Y715167D01*
X182363Y715556D01*
X181974Y715889D01*
X181538Y716156D01*
X181066Y716352D01*
X180568Y716471D01*
X180058Y716511D01*
X179548Y716471D01*
X179051Y716352D01*
X178578Y716156D01*
X178142Y715889D01*
X177753Y715556D01*
X177421Y715167D01*
X177154Y714731D01*
X176958Y714259D01*
X176838Y713761D01*
X176798Y713251D01*
X176838Y712741D01*
X176958Y712244D01*
X177154Y711771D01*
X177421Y711335D01*
X177753Y710946D01*
X178142Y710614D01*
X178578Y710346D01*
X179051Y710151D01*
X179548Y710031D01*
X179886Y710005D01*
X179966Y709958D01*
X180198Y709792D01*
X180415Y709607D01*
X180614Y709404D01*
X180795Y709184D01*
X180957Y708949D01*
X181034Y708813D01*
X181038Y708805D01*
X181051Y708783D01*
X181097Y708701D01*
X181100Y708696D01*
X183593Y703961D01*
X183596Y703954D01*
X183613Y703924D01*
X183633Y703884D01*
X183661Y703838D01*
X183689Y703790D01*
X183702Y703772D01*
X183731Y703723D01*
X183754Y703697D01*
X183973Y703384D01*
X184297Y703010D01*
X184654Y702667D01*
X185040Y702357D01*
X185116Y702311D01*
X187430Y700646D01*
Y694863D01*
X187371Y694846D01*
X187300Y694812D01*
X187235Y694768D01*
X187178Y694714D01*
X187129Y694651D01*
X187093Y694582D01*
X186978Y694299D01*
X186894Y694007D01*
X186837Y693707D01*
X186808Y693404D01*
Y693099D01*
X186837Y692795D01*
X186894Y692496D01*
X186978Y692203D01*
X187090Y691919D01*
X187127Y691850D01*
X187176Y691787D01*
X187233Y691733D01*
X187298Y691688D01*
X187370Y691654D01*
X187430Y691637D01*
Y688593D01*
X174022Y693461D01*
X173990Y693475D01*
X173823Y693542D01*
X173662Y693626D01*
X173510Y693723D01*
X173367Y693833D01*
X173233Y693955D01*
X173231Y693957D01*
X173159Y694259D01*
X172963Y694731D01*
X172696Y695167D01*
X172363Y695556D01*
X171974Y695889D01*
X171538Y696156D01*
X171066Y696352D01*
X170568Y696471D01*
X170058Y696511D01*
X169548Y696471D01*
X169051Y696352D01*
X168578Y696156D01*
X168142Y695889D01*
X167753Y695556D01*
X167421Y695167D01*
X167154Y694731D01*
X166958Y694259D01*
X166838Y693761D01*
X166798Y693251D01*
X166838Y692741D01*
X166958Y692244D01*
X167154Y691771D01*
X167421Y691335D01*
X167753Y690946D01*
X168142Y690614D01*
X168578Y690346D01*
X169051Y690151D01*
X169548Y690031D01*
X170058Y689991D01*
X170568Y690031D01*
X171066Y690151D01*
X171538Y690346D01*
X171974Y690614D01*
X172046Y690675D01*
X172226Y690683D01*
X172407Y690675D01*
X172586Y690651D01*
X172762Y690612D01*
X172880Y690575D01*
X172928Y690555D01*
X172994Y690536D01*
X187430Y685295D01*
Y678840D01*
X187239Y678825D01*
X186104Y678552D01*
X185024Y678105D01*
X184028Y677495D01*
X183140Y676736D01*
X182381Y675848D01*
X181771Y674852D01*
X181324Y673773D01*
X181051Y672637D01*
X180960Y671472D01*
X181051Y670308D01*
X181324Y669172D01*
X181771Y668093D01*
X182381Y667097D01*
X183140Y666209D01*
X184028Y665450D01*
X185024Y664840D01*
X186104Y664393D01*
X187239Y664120D01*
X187430Y664105D01*
Y583823D01*
X175312D01*
X174615Y584520D01*
Y633577D01*
X174619Y633625D01*
X174605Y633806D01*
X174604Y633812D01*
X174604Y633812D01*
X174604Y633813D01*
X174582Y633904D01*
X174560Y633995D01*
X174560Y633996D01*
X174560Y633997D01*
X174524Y634083D01*
X174488Y634170D01*
X174487Y634170D01*
X174487Y634171D01*
X174438Y634252D01*
X174389Y634331D01*
X174389Y634331D01*
X174388Y634332D01*
X174385Y634336D01*
X174266Y634474D01*
X174230Y634506D01*
X166494Y642222D01*
Y784088D01*
X166500Y784088D01*
X167112Y784136D01*
X167709Y784279D01*
X168276Y784514D01*
X168799Y784835D01*
X169266Y785234D01*
X169665Y785701D01*
X169986Y786224D01*
X170221Y786791D01*
X170364Y787388D01*
X170400Y788000D01*
X170364Y788612D01*
X170221Y789209D01*
X169986Y789776D01*
X169665Y790299D01*
X169266Y790766D01*
X168799Y791165D01*
X168276Y791486D01*
X167709Y791721D01*
X167112Y791864D01*
X166500Y791912D01*
X166494Y791912D01*
Y821823D01*
G37*
G36*
X156500Y802994D02*X156719Y803128D01*
X157880Y804120D01*
X158872Y805281D01*
X159669Y806583D01*
X160254Y807993D01*
X160610Y809478D01*
X160700Y811000D01*
X160699Y811023D01*
X160715Y811023D01*
Y821823D01*
X166494D01*
Y791912D01*
X165888Y791864D01*
X165291Y791721D01*
X164724Y791486D01*
X164201Y791165D01*
X163734Y790766D01*
X163335Y790299D01*
X163014Y789776D01*
X162779Y789209D01*
X162636Y788612D01*
X162588Y788000D01*
X162636Y787388D01*
X162779Y786791D01*
X163014Y786224D01*
X163335Y785701D01*
X163734Y785234D01*
X164201Y784835D01*
X164724Y784514D01*
X165291Y784279D01*
X165888Y784136D01*
X166494Y784088D01*
Y642222D01*
X164208Y644503D01*
X164144Y644574D01*
X163770Y644974D01*
X163436Y645409D01*
X163142Y645871D01*
X162888Y646358D01*
X162679Y646864D01*
X162514Y647387D01*
X162397Y647913D01*
X162392Y652641D01*
X162359Y652779D01*
X162304Y652910D01*
X162230Y653031D01*
X162138Y653138D01*
X162031Y653230D01*
X161910Y653304D01*
X161779Y653359D01*
X161641Y653392D01*
X161500Y653400D01*
X156500Y653394D01*
Y654859D01*
X156636Y654802D01*
X157310Y654641D01*
X158000Y654586D01*
X158690Y654641D01*
X159364Y654802D01*
X160004Y655067D01*
X160594Y655429D01*
X161121Y655879D01*
X161571Y656406D01*
X161933Y656996D01*
X162198Y657636D01*
X162359Y658310D01*
X162400Y659000D01*
X162359Y659690D01*
X162198Y660364D01*
X161933Y661004D01*
X161571Y661594D01*
X161121Y662121D01*
X160594Y662571D01*
X160004Y662933D01*
X159364Y663198D01*
X158690Y663359D01*
X158000Y663414D01*
X157310Y663359D01*
X156636Y663198D01*
X156500Y663141D01*
Y784104D01*
X159641Y784108D01*
X159779Y784141D01*
X159910Y784196D01*
X160031Y784270D01*
X160138Y784362D01*
X160230Y784469D01*
X160304Y784590D01*
X160359Y784721D01*
X160392Y784859D01*
X160400Y785000D01*
X160392Y791141D01*
X160359Y791279D01*
X160304Y791410D01*
X160230Y791531D01*
X160138Y791638D01*
X160031Y791730D01*
X159910Y791804D01*
X159779Y791859D01*
X159641Y791892D01*
X159500Y791900D01*
X156500Y791896D01*
Y802994D01*
G37*
G36*
X208128Y557773D02*X212112Y558092D01*
Y500923D01*
X208128D01*
Y508688D01*
X208187Y508705D01*
X208259Y508739D01*
X208324Y508784D01*
X208381Y508838D01*
X208429Y508900D01*
X208465Y508970D01*
X208580Y509252D01*
X208665Y509545D01*
X208721Y509844D01*
X208750Y510148D01*
Y510452D01*
X208721Y510756D01*
X208665Y511055D01*
X208580Y511348D01*
X208468Y511632D01*
X208431Y511701D01*
X208383Y511764D01*
X208325Y511818D01*
X208260Y511863D01*
X208188Y511897D01*
X208128Y511915D01*
Y557773D01*
G37*
G36*
X205501Y557563D02*X208128Y557773D01*
Y511915D01*
X208112Y511919D01*
X208034Y511929D01*
X207955Y511927D01*
X207877Y511912D01*
X207803Y511886D01*
X207733Y511848D01*
X207671Y511799D01*
X207616Y511742D01*
X207572Y511677D01*
X207538Y511605D01*
X207516Y511529D01*
X207506Y511451D01*
X207508Y511372D01*
X207523Y511294D01*
X207551Y511220D01*
X207630Y511025D01*
X207689Y510822D01*
X207728Y510615D01*
X207748Y510405D01*
Y510195D01*
X207728Y509985D01*
X207689Y509778D01*
X207630Y509575D01*
X207553Y509379D01*
X207525Y509305D01*
X207510Y509228D01*
X207508Y509149D01*
X207518Y509071D01*
X207540Y508996D01*
X207574Y508925D01*
X207618Y508860D01*
X207672Y508802D01*
X207735Y508754D01*
X207804Y508717D01*
X207878Y508690D01*
X207955Y508676D01*
X208034Y508673D01*
X208112Y508683D01*
X208128Y508688D01*
Y500923D01*
X205501D01*
Y507050D01*
X205652D01*
X205956Y507079D01*
X206255Y507135D01*
X206548Y507220D01*
X206832Y507332D01*
X206901Y507369D01*
X206964Y507417D01*
X207018Y507475D01*
X207063Y507540D01*
X207097Y507612D01*
X207119Y507688D01*
X207129Y507766D01*
X207127Y507845D01*
X207112Y507923D01*
X207086Y507997D01*
X207048Y508067D01*
X206999Y508129D01*
X206942Y508184D01*
X206877Y508228D01*
X206805Y508262D01*
X206729Y508284D01*
X206651Y508294D01*
X206572Y508292D01*
X206494Y508277D01*
X206420Y508249D01*
X206225Y508170D01*
X206022Y508111D01*
X205815Y508072D01*
X205605Y508052D01*
X205501D01*
Y512548D01*
X205605D01*
X205815Y512528D01*
X206022Y512489D01*
X206225Y512430D01*
X206421Y512353D01*
X206495Y512325D01*
X206572Y512310D01*
X206651Y512308D01*
X206729Y512318D01*
X206804Y512340D01*
X206875Y512374D01*
X206940Y512418D01*
X206998Y512472D01*
X207046Y512535D01*
X207083Y512604D01*
X207110Y512678D01*
X207124Y512755D01*
X207127Y512834D01*
X207117Y512912D01*
X207095Y512987D01*
X207061Y513059D01*
X207016Y513124D01*
X206962Y513181D01*
X206900Y513229D01*
X206830Y513265D01*
X206548Y513380D01*
X206255Y513465D01*
X205956Y513521D01*
X205652Y513550D01*
X205501D01*
Y557563D01*
G37*
G36*
X202872Y557352D02*X205501Y557563D01*
Y513550D01*
X205348D01*
X205044Y513521D01*
X204745Y513465D01*
X204452Y513380D01*
X204168Y513268D01*
X204099Y513231D01*
X204036Y513183D01*
X203982Y513125D01*
X203937Y513060D01*
X203903Y512988D01*
X203881Y512912D01*
X203871Y512834D01*
X203873Y512755D01*
X203888Y512677D01*
X203914Y512603D01*
X203952Y512533D01*
X204001Y512471D01*
X204058Y512416D01*
X204123Y512372D01*
X204195Y512338D01*
X204271Y512316D01*
X204349Y512306D01*
X204428Y512308D01*
X204506Y512323D01*
X204580Y512351D01*
X204775Y512430D01*
X204978Y512489D01*
X205185Y512528D01*
X205395Y512548D01*
X205501D01*
Y508052D01*
X205395D01*
X205185Y508072D01*
X204978Y508111D01*
X204775Y508170D01*
X204579Y508247D01*
X204505Y508275D01*
X204428Y508290D01*
X204349Y508292D01*
X204271Y508282D01*
X204196Y508260D01*
X204125Y508226D01*
X204060Y508182D01*
X204002Y508128D01*
X203954Y508065D01*
X203917Y507996D01*
X203890Y507922D01*
X203876Y507845D01*
X203873Y507766D01*
X203883Y507688D01*
X203905Y507613D01*
X203939Y507541D01*
X203984Y507476D01*
X204038Y507419D01*
X204100Y507371D01*
X204170Y507335D01*
X204452Y507220D01*
X204745Y507135D01*
X205044Y507079D01*
X205348Y507050D01*
X205501D01*
Y500923D01*
X202872D01*
Y508685D01*
X202888Y508681D01*
X202966Y508671D01*
X203045Y508673D01*
X203123Y508688D01*
X203197Y508714D01*
X203267Y508752D01*
X203329Y508801D01*
X203384Y508858D01*
X203428Y508923D01*
X203462Y508995D01*
X203484Y509071D01*
X203494Y509149D01*
X203492Y509228D01*
X203477Y509306D01*
X203449Y509380D01*
X203370Y509575D01*
X203311Y509778D01*
X203272Y509985D01*
X203252Y510195D01*
Y510405D01*
X203272Y510615D01*
X203311Y510822D01*
X203370Y511025D01*
X203447Y511221D01*
X203475Y511295D01*
X203490Y511372D01*
X203492Y511451D01*
X203482Y511529D01*
X203460Y511604D01*
X203426Y511675D01*
X203382Y511740D01*
X203328Y511798D01*
X203265Y511846D01*
X203196Y511883D01*
X203122Y511910D01*
X203045Y511924D01*
X202966Y511927D01*
X202888Y511917D01*
X202872Y511912D01*
Y557352D01*
G37*
G36*
X160715Y511023D02*X160699Y511023D01*
X160610Y512522D01*
X160254Y514007D01*
X159669Y515417D01*
X158872Y516719D01*
X157880Y517880D01*
X156719Y518872D01*
X156500Y519006D01*
Y547073D01*
X164215D01*
X164216Y547073D01*
X164702Y547092D01*
X165184Y547165D01*
X165655Y547286D01*
X166113Y547453D01*
X166178Y547487D01*
X182970Y554490D01*
X182381Y553801D01*
X181771Y552805D01*
X181324Y551726D01*
X181051Y550590D01*
X180960Y549425D01*
X181051Y548261D01*
X181324Y547125D01*
X181771Y546046D01*
X182381Y545050D01*
X183140Y544161D01*
X184028Y543403D01*
X185024Y542792D01*
X186104Y542345D01*
X187239Y542073D01*
X188404Y541981D01*
X189568Y542073D01*
X190704Y542345D01*
X191784Y542792D01*
X192779Y543403D01*
X193668Y544161D01*
X194426Y545050D01*
X195037Y546046D01*
X195484Y547125D01*
X195756Y548261D01*
X195825Y549425D01*
X195756Y550590D01*
X195484Y551726D01*
X195037Y552805D01*
X194426Y553801D01*
X193668Y554689D01*
X192779Y555448D01*
X191784Y556058D01*
X190961Y556399D01*
X202872Y557352D01*
Y511912D01*
X202813Y511895D01*
X202741Y511861D01*
X202676Y511816D01*
X202619Y511762D01*
X202571Y511700D01*
X202535Y511630D01*
X202420Y511348D01*
X202335Y511055D01*
X202279Y510756D01*
X202250Y510452D01*
Y510148D01*
X202279Y509844D01*
X202335Y509545D01*
X202420Y509252D01*
X202532Y508968D01*
X202569Y508899D01*
X202617Y508836D01*
X202675Y508782D01*
X202740Y508737D01*
X202812Y508703D01*
X202872Y508685D01*
Y500923D01*
X160715D01*
Y511023D01*
G37*
G36*
X156500Y519006D02*X155417Y519669D01*
X154007Y520254D01*
X152522Y520610D01*
X151000Y520730D01*
X150915Y520723D01*
X140615D01*
X140515Y801323D01*
X150325D01*
X151000Y801270D01*
X152522Y801390D01*
X154007Y801746D01*
X155417Y802331D01*
X156500Y802994D01*
Y791896D01*
X153359Y791892D01*
X153221Y791859D01*
X153090Y791804D01*
X152969Y791730D01*
X152862Y791638D01*
X152770Y791531D01*
X152696Y791410D01*
X152641Y791279D01*
X152608Y791141D01*
X152600Y791000D01*
X152608Y784859D01*
X152641Y784721D01*
X152696Y784590D01*
X152770Y784469D01*
X152862Y784362D01*
X152969Y784270D01*
X153090Y784196D01*
X153221Y784141D01*
X153359Y784108D01*
X153500Y784100D01*
X156500Y784104D01*
Y663141D01*
X155996Y662933D01*
X155406Y662571D01*
X154879Y662121D01*
X154429Y661594D01*
X154067Y661004D01*
X153802Y660364D01*
X153641Y659690D01*
X153586Y659000D01*
X153641Y658310D01*
X153802Y657636D01*
X154067Y656996D01*
X154429Y656406D01*
X154879Y655879D01*
X155406Y655429D01*
X155996Y655067D01*
X156500Y654859D01*
Y653394D01*
X154359Y653392D01*
X154221Y653359D01*
X154090Y653304D01*
X153969Y653230D01*
X153862Y653138D01*
X153770Y653031D01*
X153696Y652910D01*
X153641Y652779D01*
X153608Y652641D01*
X153600Y652500D01*
X153608Y645359D01*
X153641Y645221D01*
X153696Y645090D01*
X153770Y644969D01*
X153862Y644862D01*
X153969Y644770D01*
X154090Y644696D01*
X154221Y644641D01*
X154359Y644608D01*
X154500Y644600D01*
X156500Y644602D01*
Y632141D01*
X155996Y631933D01*
X155406Y631571D01*
X154879Y631121D01*
X154429Y630594D01*
X154067Y630004D01*
X153802Y629364D01*
X153641Y628690D01*
X153586Y628000D01*
X153641Y627310D01*
X153802Y626636D01*
X154067Y625996D01*
X154429Y625406D01*
X154879Y624879D01*
X155406Y624429D01*
X155996Y624067D01*
X156500Y623859D01*
Y622394D01*
X154359Y622392D01*
X154221Y622359D01*
X154090Y622304D01*
X153969Y622230D01*
X153862Y622138D01*
X153770Y622031D01*
X153696Y621910D01*
X153641Y621779D01*
X153608Y621641D01*
X153600Y621500D01*
X153608Y614359D01*
X153641Y614221D01*
X153696Y614090D01*
X153770Y613969D01*
X153862Y613862D01*
X153969Y613770D01*
X154090Y613696D01*
X154221Y613641D01*
X154359Y613608D01*
X154500Y613600D01*
X156500Y613602D01*
Y601141D01*
X155996Y600933D01*
X155406Y600571D01*
X154879Y600121D01*
X154429Y599594D01*
X154067Y599004D01*
X153802Y598364D01*
X153641Y597690D01*
X153586Y597000D01*
X153641Y596310D01*
X153802Y595636D01*
X154067Y594996D01*
X154429Y594406D01*
X154879Y593879D01*
X155406Y593429D01*
X155996Y593067D01*
X156500Y592859D01*
Y591394D01*
X154359Y591392D01*
X154221Y591359D01*
X154090Y591304D01*
X153969Y591230D01*
X153862Y591138D01*
X153770Y591031D01*
X153696Y590910D01*
X153641Y590779D01*
X153608Y590641D01*
X153600Y590500D01*
X153608Y583359D01*
X153641Y583221D01*
X153696Y583090D01*
X153770Y582969D01*
X153862Y582862D01*
X153969Y582770D01*
X154090Y582696D01*
X154221Y582641D01*
X154359Y582608D01*
X154500Y582600D01*
X156500Y582602D01*
Y570141D01*
X155996Y569933D01*
X155406Y569571D01*
X154879Y569121D01*
X154429Y568594D01*
X154067Y568004D01*
X153802Y567364D01*
X153641Y566690D01*
X153586Y566000D01*
X153641Y565310D01*
X153802Y564636D01*
X154067Y563996D01*
X154429Y563406D01*
X154879Y562879D01*
X155406Y562429D01*
X155996Y562067D01*
X156500Y561859D01*
Y560394D01*
X154359Y560392D01*
X154221Y560359D01*
X154090Y560304D01*
X153969Y560230D01*
X153862Y560138D01*
X153770Y560031D01*
X153696Y559910D01*
X153641Y559779D01*
X153608Y559641D01*
X153600Y559500D01*
X153608Y552359D01*
X153641Y552221D01*
X153696Y552090D01*
X153770Y551969D01*
X153862Y551862D01*
X153969Y551770D01*
X154090Y551696D01*
X154221Y551641D01*
X154359Y551608D01*
X154500Y551600D01*
X156500Y551602D01*
Y550173D01*
X155285D01*
X155285Y550173D01*
X155276Y550184D01*
X155012Y550409D01*
X154717Y550589D01*
X154397Y550722D01*
X154061Y550803D01*
X153715Y550830D01*
X153370Y550803D01*
X153033Y550722D01*
X152713Y550589D01*
X152418Y550409D01*
X152155Y550184D01*
X151930Y549920D01*
X151749Y549625D01*
X151617Y549305D01*
X151536Y548968D01*
X151509Y548623D01*
X151536Y548278D01*
X151617Y547941D01*
X151749Y547621D01*
X151930Y547326D01*
X152155Y547063D01*
X152418Y546838D01*
X152713Y546657D01*
X153033Y546524D01*
X153370Y546444D01*
X153715Y546416D01*
X154061Y546444D01*
X154397Y546524D01*
X154717Y546657D01*
X155012Y546838D01*
X155276Y547063D01*
X155282Y547070D01*
X155285Y547070D01*
X155326Y547073D01*
X156500D01*
Y519006D01*
G37*
G54D62*X364615Y600123D02*X379015Y740823D01*
X364858Y602490D02*G75*G03X365414Y600727I2405J-210D01*G01*
X364011Y600922D02*G75*G03X364864Y602560I-1552J1849D01*G01*
X378769Y738415D02*G75*G03X378244Y740187I-2401J252D01*G01*
X379652Y740052D02*G75*G03X378770Y738428I1519J-1876D01*G01*
X173415Y633623D02*X158000Y649000D01*
X171515Y604423D02*X158000Y618000D01*
X174070Y580823D02*X171515Y583378D01*
X187615Y575423D02*X164115Y551923D01*
X165915Y579023D02*X158000Y587000D01*
X171515Y583378D02*Y604423D01*
X179215Y577223D02*X158000Y556000D01*
G54D63*X165505Y548885D02*X185281Y557133D01*
X164215Y548623D02*X153715D01*
G54D62*X406915Y624123D02*X422915Y589923D01*
G54D63*X376315Y620523D02*X405592Y607046D01*
G54D62*X332315Y582623D02*X174815D01*
X355715Y611323D02*X358420Y621298D01*
X336915Y580223D02*X336315Y580823D01*
X337815Y576423D02*X334915D01*
X332315Y579023D01*
X341015Y574223D02*X340315Y573523D01*
X335375D01*
X334115Y574623D02*X331515Y577223D01*
X334165Y574573D03*
X344515Y576123D02*Y573763D01*
X347615Y589423D02*Y573823D01*
X344515Y573763D02*X342075Y571323D01*
X334815D01*
X347615Y573823D02*X343215Y569423D01*
X334115D01*
G54D63*X377738Y801851D02*X394299Y781843D01*
G54D62*X351715Y649923D02*X340057Y671472D01*
X354253Y651107D02*X345584Y669510D01*
X345128Y671274D02*X343511Y694556D01*
X335531Y669387D02*X358210Y623294D01*
X338842Y691749D02*X335109Y672596D01*
X364815Y632023D02*X354164Y651281D01*
X230057Y671472D02*X185749Y703333D01*
G54D63*X220057Y671472D02*X214706Y676921D01*
G54D62*X174815Y582623D02*X173415Y584023D01*
Y606523D01*
Y606423D02*Y633623D01*
G54D63*X227415Y666723D02*X220057Y671472D01*
X249815Y697523D02*X267865Y700915D01*
X231515Y729023D02*X206415Y754123D01*
X265815Y808823D02*X231415Y814223D01*
X225000Y656000D02*X232809Y651773D01*
X257315Y660723D02*X228520Y666312D01*
X181615Y797023D02*X273115Y749023D01*
G54D62*X181615Y791523D02*X235015Y678623D01*
X188015Y705023D02*X233531Y676349D01*
X180058Y713251D02*X184695Y704443D01*
X336315Y580823D02*X174070D01*
X332315Y579023D02*X165915D01*
X331515Y577223D02*X179215D01*
X330715Y575423D02*X187615D01*
X335315Y573523D02*X335215D01*
X329915Y573623D02*X245115D01*
X244015Y572523D01*
G54D63*X295422Y566317D02*X187328Y557663D01*
G54D62*X335215Y573523D02*X334165Y574573D01*
X334815Y571323D02*X330715Y575423D01*
X334115Y569423D02*X329915Y573623D01*
X332915Y583223D02*X332315Y582623D01*
X332215D02*X333815Y584223D01*
Y589523D01*
G54D63*X355715Y622023D02*X233878Y651363D01*
G54D62*X267906Y700914D02*X341715Y696320D01*
X244915Y676123D02*X240688Y676865D01*
X235015Y675923D02*X238696Y676778D01*
G54D63*X170058Y693251D02*X214268Y677200D01*
G54D62*X358420Y621299D02*G75*G03X358515Y622023I-2705J725D01*G01*
G75*G03X358210Y623294I-2800J0D01*G01*
G54D63*X354204Y622387D02*G75*G03X355389Y622585I353J1529D01*G01*
X355153Y621697D02*G75*G03X354175Y622394I-1331J-832D01*G01*
G54D62*X363648Y634134D02*G75*G03X365094Y632984I2111J1170D01*G01*
X363855Y632302D02*G75*G03X363646Y634138I-2321J665D01*G01*
G54D63*X382794Y795742D02*G75*G03X377517Y798607I-6098J-4938D01*G01*
X380982Y801630D02*G75*G03X382688Y795872I7803J-820D01*G01*
X392388Y784152D02*G75*G03X394437Y783085I2312J1940D01*G01*
X393056Y781980D02*G75*G03X392362Y784183I-3006J263D01*G01*
G54D62*X407940Y621934D02*G75*G03X406577Y623182I-2188J-1020D01*G01*
X407857Y623786D02*G75*G03X407937Y621940I2269J-826D01*G01*
G54D63*X377748Y619864D02*G75*G03X376548Y619916I-663J-1422D01*G01*
G54D62*X356345Y613646D02*G75*G03X356586Y611815I2332J-625D01*G01*
X355224Y612194D02*G75*G03X356349Y613660I-1207J2091D01*G01*
G54D63*X376922Y620756D02*G75*G03X377734Y619870I1475J537D01*G01*
X404185Y607694D02*G75*G03X405385Y607663I638J1434D01*G01*
X404975Y606840D02*G75*G03X404148Y607711I-1465J-562D01*G01*
G54D62*X335401Y576423D02*G75*G03X337108Y577130I0J2414D01*G01*
X337108Y575716D02*G75*G03X335401Y576423I-1707J-1707D01*G01*
X344515Y573763D02*G75*G03X343846Y575379I-2284J0D01*G01*
X345185Y575379D02*G75*G03X344516Y573763I1615J-1615D01*G01*
X347615Y587009D02*G75*G03X346908Y588716I-2414J0D01*G01*
X348323Y588716D02*G75*G03X347616Y587009I1707J-1707D01*G01*
X333815Y587109D02*G75*G03X333108Y588816I-2414J0D01*G01*
X334523Y588816D02*G75*G03X333816Y587109I1707J-1707D01*G01*
X343511Y694556D02*G75*G03X341715Y696321I-1895J-133D01*G01*
X337620Y685484D02*G75*G03X336744Y690207I-6140J1305D01*G01*
X340383Y689651D02*G75*G03X337662Y685692I3419J-5264D01*G01*
X338308Y688491D02*G75*G03X337382Y690621I-6828J-1702D01*G01*
X339969Y690289D02*G75*G03X338257Y688719I3833J-5902D01*G01*
X335109Y672596D02*G75*G03X335532Y669388I5006J-973D01*G01*
X354253Y651107D02*G75*G03X354164Y651281I-2538J-1183D01*G01*
X350579Y652025D02*G75*G03X352025Y650875I2111J1170D01*G01*
X350764Y650233D02*G75*G03X350555Y652068I-2321J665D01*G01*
X345128Y671274D02*G75*G03X345584Y669510I4988J349D01*G01*
X343644Y664842D02*G75*G03X339224Y668486I-6608J-3514D01*G01*
X343044Y670639D02*G75*G03X343593Y664937I7157J-2188D01*G01*
X342111Y667825D02*G75*G03X339446Y669213I-5076J-6496D01*G01*
X342317Y670861D02*G75*G03X341977Y667876I7884J-2410D01*G01*
G54D63*X187328Y557663D02*G75*G03X185281Y557133I987J-8040D01*G01*
X164215Y548623D02*G75*G03X165505Y548886I0J3300D01*G01*
X155285Y548623D02*G75*G03X154175Y548164I0J-1569D01*G01*
X154175Y549083D02*G75*G03X155285Y548623I1110J1110D01*G01*
G54D62*X165823Y553630D02*G75*G03X165116Y551923I1707J-1707D01*G01*
X164115Y552923D02*G75*G03X165822Y553630I0J2414D01*G01*
X163201Y561201D02*G75*G03X161101Y555871I5384J-5199D01*G01*
X158129Y559101D02*G75*G03X163382Y561385I-131J7483D01*G01*
X160837Y558822D02*G75*G03X160341Y555858I7747J-2820D01*G01*
X158142Y558341D02*G75*G03X161086Y558940I-144J8243D01*G01*
X163343Y581615D02*G75*G03X158090Y583899I-5384J-5199D01*G01*
X161047Y584060D02*G75*G03X158103Y584659I-3088J-7644D01*G01*
X161101Y587090D02*G75*G03X163200Y581760I7483J-131D01*G01*
X160341Y587103D02*G75*G03X160837Y584139I8243J-144D01*G01*
X163360Y612615D02*G75*G03X158107Y614899I-5384J-5199D01*G01*
X161101Y618107D02*G75*G03X163200Y612777I7483J-131D01*G01*
X161064Y615060D02*G75*G03X158120Y615659I-3088J-7644D01*G01*
X160341Y618120D02*G75*G03X160837Y615156I8243J-144D01*G01*
X163306Y643708D02*G75*G03X158013Y645900I-5292J-5292D01*G01*
X161100Y649013D02*G75*G03X163292Y643721I7484J0D01*G01*
X160968Y646113D02*G75*G03X158013Y646660I-2954J-7697D01*G01*
X160340Y649013D02*G75*G03X160887Y646059I8244J0D01*G01*
G54D63*X264290Y809063D02*G75*G03X265453Y809364I218J1554D01*G01*
X265275Y808461D02*G75*G03X264240Y809070I-1253J-944D01*G01*
X271742Y749743D02*G75*G03X272940Y749649I712J1398D01*G01*
X272489Y748848D02*G75*G03X271709Y749761I-1492J-485D01*G01*
X232968Y813980D02*G75*G03X231800Y813700I-245J-1550D01*G01*
X231939Y814608D02*G75*G03X232964Y813980I1270J922D01*G01*
X207525Y753014D02*G75*G03X206415Y753473I-1110J-1110D01*G01*
X207065Y754123D02*G75*G03X207525Y753014I1569J0D01*G01*
X230406Y730133D02*G75*G03X231515Y729673I1110J1110D01*G01*
X230865Y729023D02*G75*G03X230406Y730133I-1569J0D01*G01*
G54D62*X184695Y704443D02*G75*G03X185749Y703333I3522J2287D01*G01*
X190086Y703718D02*G75*G03X188269Y704055I-1315J-2025D01*G01*
X188983Y705277D02*G75*G03X190030Y703754I2361J502D01*G01*
X182653Y789329D02*G75*G03X181291Y790577I-2188J-1020D01*G01*
X182561Y791199D02*G75*G03X182642Y789353I2269J-826D01*G01*
G54D63*X183013Y796290D02*G75*G03X181817Y796405I-737J-1386D01*G01*
X182233Y797225D02*G75*G03X182997Y796298I1501J459D01*G01*
X173465Y692014D02*G75*G03X170696Y691893I-1239J-3403D01*G01*
X171416Y693889D02*G75*G03X173459Y692016I3282J1530D01*G01*
G54D62*X182166Y709246D02*G75*G03X179567Y711466I-3979J-2028D01*G01*
X181843Y712760D02*G75*G03X182112Y709352I4248J-1380D01*G01*
X233532Y676349D02*G75*G03X235015Y675923I1484J2375D01*G01*
G75*G03X235062Y675924I0J2700D01*G01*
X240688Y676866D02*G75*G03X238697Y676779I-782J-4938D01*G01*
X233996Y680779D02*G75*G03X235379Y679555I2170J1058D01*G01*
X242577Y676534D02*G75*G03X244374Y676965I378J2384D01*G01*
X270334Y700763D02*G75*G03X268582Y700177I-168J-2408D01*G01*
X268644Y701590D02*G75*G03X270297Y700765I1822J1584D01*G01*
G54D63*X251348Y697811D02*G75*G03X250346Y697148I299J-1540D01*G01*
X250190Y698054D02*G75*G03X251367Y697815I878J1301D01*G01*
X255802Y661017D02*G75*G03X256974Y661277I273J1545D01*G01*
X256761Y660382D02*G75*G03X255748Y661027I-1285J-900D01*G01*
G54D62*X244073Y675582D02*G75*G03X242498Y676547I-1953J-1419D01*G01*
G54D63*X214706Y676921D02*G75*G03X214268Y677200I-849J-849D01*G01*
X215447Y676167D02*G75*G03X220142Y674222I4694J4694D01*G01*
X217308Y671557D02*G75*G03X215363Y676251I-6639J0D01*G01*
X232809Y651773D02*G75*G03X233878Y651363I2207J4150D01*G01*
X227451Y666723D02*G75*G03X228520Y666312I2207J4150D01*G01*
X225651Y667862D02*G75*G03X220655Y668788I-3616J-5568D01*G01*
X222742Y672070D02*G75*G03X225620Y667882I6494J1380D01*G01*
G54D62*X234083Y678987D02*G75*G03X233971Y680832I-2283J786D01*G01*
X224058Y675787D02*G75*G03X229650Y674548I4293J6131D01*G01*
X226982Y671065D02*G75*G03X223905Y675896I-7371J-1300D01*G01*
X226777Y673825D02*G75*G03X229782Y673799I1573J8093D01*G01*
X227731Y671197D02*G75*G03X226678Y674011I-8119J-1432D01*G01*
G54D63*X229825Y653388D02*G75*G03X225694Y653858I-2633J-4751D01*G01*
X227142Y656694D02*G75*G03X229730Y653440I5221J1497D01*G01*
G54D64*X340000Y562500D03*
G54D61*G36*
X347000Y565500D02*Y559500D01*
X353000D01*
Y565500D01*
X347000D01*
G37*
G54D64*X360000Y562500D03*
X370000D03*
G54D61*G36*
X307000Y565500D02*Y559500D01*
X313000D01*
Y565500D01*
X307000D01*
G37*
G54D64*X320000Y562500D03*
X330000D03*
X380000D03*
G54D61*G36*
X153500Y791000D02*Y785000D01*
X159500D01*
Y791000D01*
X153500D01*
G37*
G54D64*X166500Y788000D03*
G54D65*X291551Y762542D03*
Y781242D03*
Y799942D03*
G54D61*G36*
X371039Y763764D02*Y759764D01*
X375039D01*
Y763764D01*
X371039D01*
G37*
G54D66*X373039Y781843D03*
G54D67*X338258Y735551D03*
G54D61*G36*
X367557Y722828D02*Y716828D01*
X373557D01*
Y722828D01*
X367557D01*
G37*
G54D64*X370557Y709828D03*
G54D66*X385638Y761764D03*
Y781843D03*
X394299Y761764D03*
Y781843D03*
X402961Y761764D03*
Y781843D03*
G54D61*G36*
X414258Y739551D02*Y731551D01*
X422258D01*
Y739551D01*
X414258D01*
G37*
G36*
X154500Y559500D02*Y552500D01*
X161500D01*
Y559500D01*
X154500D01*
G37*
G54D68*X158000Y566000D03*
G54D61*G36*
X154500Y590500D02*Y583500D01*
X161500D01*
Y590500D01*
X154500D01*
G37*
G54D68*X158000Y597000D03*
G54D61*G36*
X154500Y621500D02*Y614500D01*
X161500D01*
Y621500D01*
X154500D01*
G37*
G54D68*X158000Y628000D03*
G54D61*G36*
X154500Y652500D02*Y645500D01*
X161500D01*
Y652500D01*
X154500D01*
G37*
G54D68*X158000Y659000D03*
G54D69*X225500Y510300D03*
X205500D03*
X215500Y530300D03*
G54D61*G36*
X206557Y674972D02*Y667972D01*
X213557D01*
Y674972D01*
X206557D01*
G37*
G54D69*X170058Y693251D03*
X180058Y713251D03*
X190058Y693251D03*
G54D68*X220057Y671472D03*
X230057D03*
X240057D03*
X250057D03*
X260057D03*
G54D61*G36*
X256542Y613149D02*Y607149D01*
X262542D01*
Y613149D01*
X256542D01*
G37*
G54D64*X269542Y610149D03*
G54D61*G36*
X235542Y613449D02*Y607449D01*
X241542D01*
Y613449D01*
X235542D01*
G37*
G54D70*X265719Y585855D03*
Y590185D03*
G54D61*G36*
X266342Y628349D02*Y622349D01*
X272342D01*
Y628349D01*
X266342D01*
G37*
G54D64*X259342Y625349D03*
X238542Y629649D03*
G54D61*G36*
X212000Y659000D02*Y653000D01*
X218000D01*
Y659000D01*
X212000D01*
G37*
G54D64*X225000Y656000D03*
X235000D03*
X245000D03*
X255000D03*
X265000D03*
X275000D03*
G54D61*G36*
X282000Y659000D02*Y653000D01*
X288000D01*
Y659000D01*
X282000D01*
G37*
G36*
X335842Y694749D02*Y688749D01*
X341842D01*
Y694749D01*
X335842D01*
G37*
G54D65*X333551Y799942D03*
Y781242D03*
G54D61*G36*
X329051Y767042D02*Y758042D01*
X338051D01*
Y767042D01*
X329051D01*
G37*
G54D64*X348842Y691749D03*
X358842D03*
X368842D03*
X378842D03*
G54D69*X414000Y696000D03*
X394000Y706000D03*
X414000Y716000D03*
G54D68*X270057Y671472D03*
X280057D03*
X290057D03*
X300057D03*
X310057D03*
X320057D03*
X330057D03*
X340057D03*
X350057D03*
X360057D03*
X447500Y746000D03*
X457500Y751000D03*
Y761000D03*
Y771000D03*
X447500Y756000D03*
Y766000D03*
G54D67*X377738Y801851D03*
G54D61*G36*
X419835Y786165D02*Y781835D01*
X424165D01*
Y786165D01*
X419835D01*
G37*
G54D71*X427906Y784000D03*
X433811D03*
G54D61*G36*
X453738Y805851D02*Y797851D01*
X461738D01*
Y805851D01*
X453738D01*
G37*
G36*
X453238Y820351D02*Y812351D01*
X461238D01*
Y820351D01*
X453238D01*
G37*
G54D67*X377238Y816351D03*
G54D72*X457591Y704000D03*
G54D73*X470189Y722504D03*
G54D74*X482000Y704000D03*
G54D75*X267906Y700914D03*
X249815Y697523D03*
X231515Y729023D03*
X273115Y749023D03*
X249315Y745023D03*
X249415Y705023D03*
X212115Y698123D03*
X257315Y660723D03*
X235015Y678623D03*
X244915Y676123D03*
X192515Y655523D03*
Y645523D03*
X207115Y626023D03*
X204915Y613423D03*
X224515Y620523D03*
X206415Y754123D03*
X181615Y791523D03*
Y797023D03*
X188015Y705023D03*
X201315Y731723D03*
X166015Y776423D03*
X187015Y804123D03*
X206915Y811823D03*
X265815Y808823D03*
X231415Y814223D03*
X241715Y805623D03*
X217015Y768923D03*
X242015Y760123D03*
X252915Y765823D03*
X265015Y729023D03*
X341215Y724023D03*
X330315Y722523D03*
X276415Y714523D03*
X379015Y740823D03*
X350015Y708723D03*
X379415Y711723D03*
X379015Y707323D03*
X371815Y703623D03*
X326015Y739223D03*
X402015Y741623D03*
X416415Y662523D03*
X373315Y645423D03*
X365815Y649923D03*
Y645423D03*
X164115Y551923D03*
X153715Y548623D03*
X195715Y535623D03*
X252015Y551223D03*
X263415Y534323D03*
X331715Y534923D03*
X397715Y533623D03*
X465715Y533923D03*
X336915Y580223D03*
X337815Y576423D03*
X341015Y574223D03*
X327815Y589523D03*
X347615Y589423D03*
X351715Y649923D03*
X355715Y622023D03*
Y611323D03*
X364815Y632023D03*
X352715Y640823D03*
X344515Y576123D03*
X244015Y572523D03*
X295615Y566323D03*
X261015Y570923D03*
X278515Y623123D03*
X257215Y600523D03*
X304215Y613823D03*
X329215Y640923D03*
X340915D03*
X207915Y566123D03*
X333815Y589523D03*
X330515Y708823D03*
X362515Y702023D03*
X284815Y692523D03*
X371315Y699223D03*
X378115Y698523D03*
X378515Y702923D03*
X373315Y649923D03*
X376315Y620523D03*
X364615Y600123D03*
X376215Y616223D03*
X406915Y624123D03*
X422915Y590023D03*
X405592Y607046D03*
X425515Y625923D03*
X405815Y599023D03*
X447115Y577823D03*
X471515D03*
X480015Y582023D03*
X483515Y635223D03*
G54D76*G54D75*G54D77*G54D78*G54D75*G54D78*G54D75*G54D64*G54D79*G54D80*G54D81*G54D79*G54D80*G54D77*G54D78*G54D75*G54D82*G54D83*G54D77*G54D82*G54D83*G54D75*G54D84*G54D85*G54D75*G54D84*G54D75*G54D66*G54D64*G54D66*G54D82*G54D83*G54D77*G54D81*G54D86*G54D81*G54D80*G54D87*G54D86*G54D78*G54D80*G54D88*G54D89*G54D90*M02*
