G04 start of page 11 for group -3984 idx -3984 *
G04 Title: Balsamo, fab *
G04 Creator: pcb 1.99z *
G04 CreationDate: jue 24 oct 2013 15:42:49 GMT UTC *
G04 For: jalon *
G04 Format: Gerber/RS-274X *
G04 PCB-Dimensions (mil): 10000.00 10000.00 *
G04 PCB-Coordinate-Origin: lower left *
%MOIN*%
%FSLAX25Y25*%
%LNFAB*%
%ADD189C,0.0100*%
%ADD188C,0.0075*%
%ADD187C,0.0060*%
%ADD186R,0.0080X0.0080*%
%ADD185C,0.0001*%
G54D185*G36*
X452791Y709366D02*X462956Y699200D01*
X462391Y698634D01*
X452225Y708800D01*
X452791Y709366D01*
G37*
G36*
X452225Y699200D02*X462391Y709366D01*
X462956Y708800D01*
X452791Y698634D01*
X452225Y699200D01*
G37*
G54D186*X455991Y705600D02*X459191D01*
X455991D02*Y702400D01*
X459191D01*
Y705600D02*Y702400D01*
X454391Y707200D02*X460791D01*
X454391D02*Y700800D01*
X460791D01*
Y707200D02*Y700800D01*
X452791Y708800D02*X462391D01*
X452791D02*Y699200D01*
X462391D01*
Y708800D02*Y699200D01*
X151000Y517400D02*Y504600D01*
X144600Y511000D02*X157400D01*
X149400Y512600D02*X152600D01*
X149400D02*Y509400D01*
X152600D01*
Y512600D02*Y509400D01*
X147800Y514200D02*X154200D01*
X147800D02*Y507800D01*
X154200D01*
Y514200D02*Y507800D01*
X146200Y515800D02*X155800D01*
X146200D02*Y506200D01*
X155800D01*
Y515800D02*Y506200D01*
X479000Y517400D02*Y504600D01*
X472600Y511000D02*X485400D01*
X477400Y512600D02*X480600D01*
X477400D02*Y509400D01*
X480600D01*
Y512600D02*Y509400D01*
X475800Y514200D02*X482200D01*
X475800D02*Y507800D01*
X482200D01*
Y514200D02*Y507800D01*
X474200Y515800D02*X483800D01*
X474200D02*Y506200D01*
X483800D01*
Y515800D02*Y506200D01*
X479000Y817400D02*Y804600D01*
X472600Y811000D02*X485400D01*
X477400Y812600D02*X480600D01*
X477400D02*Y809400D01*
X480600D01*
Y812600D02*Y809400D01*
X475800Y814200D02*X482200D01*
X475800D02*Y807800D01*
X482200D01*
Y814200D02*Y807800D01*
X474200Y815800D02*X483800D01*
X474200D02*Y806200D01*
X483800D01*
Y815800D02*Y806200D01*
X151000Y817400D02*Y804600D01*
X144600Y811000D02*X157400D01*
X149400Y812600D02*X152600D01*
X149400D02*Y809400D01*
X152600D01*
Y812600D02*Y809400D01*
X147800Y814200D02*X154200D01*
X147800D02*Y807800D01*
X154200D01*
Y814200D02*Y807800D01*
X146200Y815800D02*X155800D01*
X146200D02*Y806200D01*
X155800D01*
Y815800D02*Y806200D01*
G54D185*G36*
X10200Y1016616D02*X20366Y1006450D01*
X19800Y1005884D01*
X9634Y1016050D01*
X10200Y1016616D01*
G37*
G36*
X9634Y1006450D02*X19800Y1016616D01*
X20366Y1016050D01*
X10200Y1005884D01*
X9634Y1006450D01*
G37*
G54D186*X13400Y1012850D02*X16600D01*
X13400D02*Y1009650D01*
X16600D01*
Y1012850D02*Y1009650D01*
X11800Y1014450D02*X18200D01*
X11800D02*Y1008050D01*
X18200D01*
Y1014450D02*Y1008050D01*
X10200Y1016050D02*X19800D01*
X10200D02*Y1006450D01*
X19800D01*
Y1016050D02*Y1006450D01*
G54D187*X135000Y1013500D02*X136500Y1010500D01*
X138000Y1013500D01*
X136500Y1010500D02*Y1007500D01*
X139800Y1010800D02*X142050D01*
X139800Y1007500D02*X142800D01*
X139800Y1013500D02*Y1007500D01*
Y1013500D02*X142800D01*
X147600D02*X148350Y1012750D01*
X145350Y1013500D02*X147600D01*
X144600Y1012750D02*X145350Y1013500D01*
X144600Y1012750D02*Y1011250D01*
X145350Y1010500D01*
X147600D01*
X148350Y1009750D01*
Y1008250D01*
X147600Y1007500D02*X148350Y1008250D01*
X145350Y1007500D02*X147600D01*
X144600Y1008250D02*X145350Y1007500D01*
X98000Y1012300D02*X99200Y1013500D01*
Y1007500D01*
X98000D02*X100250D01*
X15000Y1032650D02*Y1019850D01*
X8600Y1026250D02*X21400D01*
X13400Y1027850D02*X16600D01*
X13400D02*Y1024650D01*
X16600D01*
Y1027850D02*Y1024650D01*
X11800Y1029450D02*X18200D01*
X11800D02*Y1023050D01*
X18200D01*
Y1029450D02*Y1023050D01*
X10200Y1031050D02*X19800D01*
X10200D02*Y1021450D01*
X19800D01*
Y1031050D02*Y1021450D01*
X140000Y1028500D02*Y1022500D01*
Y1028500D02*X143750Y1022500D01*
Y1028500D02*Y1022500D01*
X145550Y1027750D02*Y1023250D01*
Y1027750D02*X146300Y1028500D01*
X147800D01*
X148550Y1027750D01*
Y1023250D01*
X147800Y1022500D02*X148550Y1023250D01*
X146300Y1022500D02*X147800D01*
X145550Y1023250D02*X146300Y1022500D01*
X98000Y1024750D02*X101000Y1028500D01*
X98000Y1024750D02*X101750D01*
X101000Y1028500D02*Y1022500D01*
X45000Y1023250D02*X45750Y1022500D01*
X45000Y1027750D02*Y1023250D01*
Y1027750D02*X45750Y1028500D01*
X47250D01*
X48000Y1027750D01*
Y1023250D01*
X47250Y1022500D02*X48000Y1023250D01*
X45750Y1022500D02*X47250D01*
X45000Y1024000D02*X48000Y1027000D01*
X49800Y1022500D02*X50550D01*
X52350Y1027300D02*X53550Y1028500D01*
Y1022500D01*
X52350D02*X54600D01*
X56400Y1027750D02*X57150Y1028500D01*
X58650D01*
X59400Y1027750D01*
X58650Y1022500D02*X59400Y1023250D01*
X57150Y1022500D02*X58650D01*
X56400Y1023250D02*X57150Y1022500D01*
Y1025800D02*X58650D01*
X59400Y1027750D02*Y1026550D01*
Y1025050D02*Y1023250D01*
Y1025050D02*X58650Y1025800D01*
X59400Y1026550D02*X58650Y1025800D01*
X61200Y1023250D02*X61950Y1022500D01*
X61200Y1024450D02*Y1023250D01*
Y1024450D02*X62250Y1025500D01*
X63150D01*
X64200Y1024450D01*
Y1023250D01*
X63450Y1022500D02*X64200Y1023250D01*
X61950Y1022500D02*X63450D01*
X61200Y1026550D02*X62250Y1025500D01*
X61200Y1027750D02*Y1026550D01*
Y1027750D02*X61950Y1028500D01*
X63450D01*
X64200Y1027750D01*
Y1026550D01*
X63150Y1025500D02*X64200Y1026550D01*
X45000Y1008250D02*X45750Y1007500D01*
X45000Y1012750D02*Y1008250D01*
Y1012750D02*X45750Y1013500D01*
X47250D01*
X48000Y1012750D01*
Y1008250D01*
X47250Y1007500D02*X48000Y1008250D01*
X45750Y1007500D02*X47250D01*
X45000Y1009000D02*X48000Y1012000D01*
X49800Y1007500D02*X50550D01*
X52350Y1012300D02*X53550Y1013500D01*
Y1007500D01*
X52350D02*X54600D01*
X56400Y1012750D02*X57150Y1013500D01*
X58650D01*
X59400Y1012750D01*
X58650Y1007500D02*X59400Y1008250D01*
X57150Y1007500D02*X58650D01*
X56400Y1008250D02*X57150Y1007500D01*
Y1010800D02*X58650D01*
X59400Y1012750D02*Y1011550D01*
Y1010050D02*Y1008250D01*
Y1010050D02*X58650Y1010800D01*
X59400Y1011550D02*X58650Y1010800D01*
X61200Y1008250D02*X61950Y1007500D01*
X61200Y1009450D02*Y1008250D01*
Y1009450D02*X62250Y1010500D01*
X63150D01*
X64200Y1009450D01*
Y1008250D01*
X63450Y1007500D02*X64200Y1008250D01*
X61950Y1007500D02*X63450D01*
X61200Y1011550D02*X62250Y1010500D01*
X61200Y1012750D02*Y1011550D01*
Y1012750D02*X61950Y1013500D01*
X63450D01*
X64200Y1012750D01*
Y1011550D01*
X63150Y1010500D02*X64200Y1011550D01*
X482500Y738500D02*Y732100D01*
Y738500D02*X488047Y741700D01*
X482500Y738500D02*X476953Y741700D01*
X480900Y738500D02*G75*G03X484100Y738500I1600J0D01*G01*
G75*G03X480900Y738500I-1600J0D01*G01*
X479300D02*G75*G03X485700Y738500I3200J0D01*G01*
G75*G03X479300Y738500I-3200J0D01*G01*
X477700D02*G75*G03X487300Y738500I4800J0D01*G01*
G75*G03X477700Y738500I-4800J0D01*G01*
X482500Y778500D02*Y772100D01*
Y778500D02*X488047Y781700D01*
X482500Y778500D02*X476953Y781700D01*
X480900Y778500D02*G75*G03X484100Y778500I1600J0D01*G01*
G75*G03X480900Y778500I-1600J0D01*G01*
X479300D02*G75*G03X485700Y778500I3200J0D01*G01*
G75*G03X479300Y778500I-3200J0D01*G01*
X477700D02*G75*G03X487300Y778500I4800J0D01*G01*
G75*G03X477700Y778500I-4800J0D01*G01*
X15000Y1041250D02*Y1034850D01*
Y1041250D02*X20547Y1044450D01*
X15000Y1041250D02*X9453Y1044450D01*
X13400Y1041250D02*G75*G03X16600Y1041250I1600J0D01*G01*
G75*G03X13400Y1041250I-1600J0D01*G01*
X11800D02*G75*G03X18200Y1041250I3200J0D01*G01*
G75*G03X11800Y1041250I-3200J0D01*G01*
X10200D02*G75*G03X19800Y1041250I4800J0D01*G01*
G75*G03X10200Y1041250I-4800J0D01*G01*
X140000Y1043500D02*Y1037500D01*
Y1043500D02*X143750Y1037500D01*
Y1043500D02*Y1037500D01*
X145550Y1042750D02*Y1038250D01*
Y1042750D02*X146300Y1043500D01*
X147800D01*
X148550Y1042750D01*
Y1038250D01*
X147800Y1037500D02*X148550Y1038250D01*
X146300Y1037500D02*X147800D01*
X145550Y1038250D02*X146300Y1037500D01*
X98000Y1042750D02*X98750Y1043500D01*
X101000D01*
X101750Y1042750D01*
Y1041250D01*
X98000Y1037500D02*X101750Y1041250D01*
X98000Y1037500D02*X101750D01*
X45000Y1038250D02*X45750Y1037500D01*
X45000Y1042750D02*Y1038250D01*
Y1042750D02*X45750Y1043500D01*
X47250D01*
X48000Y1042750D01*
Y1038250D01*
X47250Y1037500D02*X48000Y1038250D01*
X45750Y1037500D02*X47250D01*
X45000Y1039000D02*X48000Y1042000D01*
X49800Y1037500D02*X50550D01*
X52350Y1042300D02*X53550Y1043500D01*
Y1037500D01*
X52350D02*X54600D01*
X56400Y1042750D02*X57150Y1043500D01*
X59400D01*
X60150Y1042750D01*
Y1041250D01*
X56400Y1037500D02*X60150Y1041250D01*
X56400Y1037500D02*X60150D01*
X61950Y1038250D02*X62700Y1037500D01*
X61950Y1039450D02*Y1038250D01*
Y1039450D02*X63000Y1040500D01*
X63900D01*
X64950Y1039450D01*
Y1038250D01*
X64200Y1037500D02*X64950Y1038250D01*
X62700Y1037500D02*X64200D01*
X61950Y1041550D02*X63000Y1040500D01*
X61950Y1042750D02*Y1041550D01*
Y1042750D02*X62700Y1043500D01*
X64200D01*
X64950Y1042750D01*
Y1041550D01*
X63900Y1040500D02*X64950Y1041550D01*
X480400Y705600D02*X483600D01*
X480400D02*Y702400D01*
X483600D01*
Y705600D02*Y702400D01*
X478800Y707200D02*X485200D01*
X478800D02*Y700800D01*
X485200D01*
Y707200D02*Y700800D01*
X477200Y708800D02*X486800D01*
X477200D02*Y699200D01*
X486800D01*
Y708800D02*Y699200D01*
X13400Y1057850D02*X16600D01*
X13400D02*Y1054650D01*
X16600D01*
Y1057850D02*Y1054650D01*
X11800Y1059450D02*X18200D01*
X11800D02*Y1053050D01*
X18200D01*
Y1059450D02*Y1053050D01*
X10200Y1061050D02*X19800D01*
X10200D02*Y1051450D01*
X19800D01*
Y1061050D02*Y1051450D01*
X135000Y1058500D02*X136500Y1055500D01*
X138000Y1058500D01*
X136500Y1055500D02*Y1052500D01*
X139800Y1055800D02*X142050D01*
X139800Y1052500D02*X142800D01*
X139800Y1058500D02*Y1052500D01*
Y1058500D02*X142800D01*
X147600D02*X148350Y1057750D01*
X145350Y1058500D02*X147600D01*
X144600Y1057750D02*X145350Y1058500D01*
X144600Y1057750D02*Y1056250D01*
X145350Y1055500D01*
X147600D01*
X148350Y1054750D01*
Y1053250D01*
X147600Y1052500D02*X148350Y1053250D01*
X145350Y1052500D02*X147600D01*
X144600Y1053250D02*X145350Y1052500D01*
X98000Y1057300D02*X99200Y1058500D01*
Y1052500D01*
X98000D02*X100250D01*
X45000Y1053250D02*X45750Y1052500D01*
X45000Y1057750D02*Y1053250D01*
Y1057750D02*X45750Y1058500D01*
X47250D01*
X48000Y1057750D01*
Y1053250D01*
X47250Y1052500D02*X48000Y1053250D01*
X45750Y1052500D02*X47250D01*
X45000Y1054000D02*X48000Y1057000D01*
X49800Y1052500D02*X50550D01*
X52350Y1057300D02*X53550Y1058500D01*
Y1052500D01*
X52350D02*X54600D01*
X56400Y1057300D02*X57600Y1058500D01*
Y1052500D01*
X56400D02*X58650D01*
X60450Y1053250D02*X61200Y1052500D01*
X60450Y1054450D02*Y1053250D01*
Y1054450D02*X61500Y1055500D01*
X62400D01*
X63450Y1054450D01*
Y1053250D01*
X62700Y1052500D02*X63450Y1053250D01*
X61200Y1052500D02*X62700D01*
X60450Y1056550D02*X61500Y1055500D01*
X60450Y1057750D02*Y1056550D01*
Y1057750D02*X61200Y1058500D01*
X62700D01*
X63450Y1057750D01*
Y1056550D01*
X62400Y1055500D02*X63450Y1056550D01*
X469389Y722504D02*G75*G03X470989Y722504I800J0D01*G01*
G75*G03X469389Y722504I-800J0D01*G01*
X467789D02*G75*G03X472589Y722504I2400J0D01*G01*
G75*G03X467789Y722504I-2400J0D01*G01*
X466189D02*G75*G03X474189Y722504I4000J0D01*G01*
G75*G03X466189Y722504I-4000J0D01*G01*
X14200Y1071250D02*G75*G03X15800Y1071250I800J0D01*G01*
G75*G03X14200Y1071250I-800J0D01*G01*
X12600D02*G75*G03X17400Y1071250I2400J0D01*G01*
G75*G03X12600Y1071250I-2400J0D01*G01*
X11000D02*G75*G03X19000Y1071250I4000J0D01*G01*
G75*G03X11000Y1071250I-4000J0D01*G01*
X135000Y1073500D02*X136500Y1070500D01*
X138000Y1073500D01*
X136500Y1070500D02*Y1067500D01*
X139800Y1070800D02*X142050D01*
X139800Y1067500D02*X142800D01*
X139800Y1073500D02*Y1067500D01*
Y1073500D02*X142800D01*
X147600D02*X148350Y1072750D01*
X145350Y1073500D02*X147600D01*
X144600Y1072750D02*X145350Y1073500D01*
X144600Y1072750D02*Y1071250D01*
X145350Y1070500D01*
X147600D01*
X148350Y1069750D01*
Y1068250D01*
X147600Y1067500D02*X148350Y1068250D01*
X145350Y1067500D02*X147600D01*
X144600Y1068250D02*X145350Y1067500D01*
X98000Y1072300D02*X99200Y1073500D01*
Y1067500D01*
X98000D02*X100250D01*
X45000Y1068250D02*X45750Y1067500D01*
X45000Y1072750D02*Y1068250D01*
Y1072750D02*X45750Y1073500D01*
X47250D01*
X48000Y1072750D01*
Y1068250D01*
X47250Y1067500D02*X48000Y1068250D01*
X45750Y1067500D02*X47250D01*
X45000Y1069000D02*X48000Y1072000D01*
X49800Y1067500D02*X50550D01*
X52350Y1072300D02*X53550Y1073500D01*
Y1067500D01*
X52350D02*X54600D01*
X56400Y1072300D02*X57600Y1073500D01*
Y1067500D01*
X56400D02*X58650D01*
X60450Y1069750D02*X63450Y1073500D01*
X60450Y1069750D02*X64200D01*
X63450Y1073500D02*Y1067500D01*
X184804Y675072D02*X192004Y667872D01*
X184804D02*X192004Y675072D01*
X186804Y673072D02*X190004D01*
X186804D02*Y669872D01*
X190004D01*
Y673072D02*Y669872D01*
X185204Y674672D02*X191604D01*
X185204D02*Y668272D01*
X191604D01*
Y674672D02*Y668272D01*
X480080Y675072D02*X487280Y667872D01*
X480080D02*X487280Y675072D01*
X482080Y673072D02*X485280D01*
X482080D02*Y669872D01*
X485280D01*
Y673072D02*Y669872D01*
X480480Y674672D02*X486880D01*
X480480D02*Y668272D01*
X486880D01*
Y674672D02*Y668272D01*
X480080Y553025D02*X487280Y545825D01*
X480080D02*X487280Y553025D01*
X482080Y551025D02*X485280D01*
X482080D02*Y547825D01*
X485280D01*
Y551025D02*Y547825D01*
X480480Y552625D02*X486880D01*
X480480D02*Y546225D01*
X486880D01*
Y552625D02*Y546225D01*
X184804Y553025D02*X192004Y545825D01*
X184804D02*X192004Y553025D01*
X186804Y551025D02*X190004D01*
X186804D02*Y547825D01*
X190004D01*
Y551025D02*Y547825D01*
X185204Y552625D02*X191604D01*
X185204D02*Y546225D01*
X191604D01*
Y552625D02*Y546225D01*
X11400Y1089850D02*X18600Y1082650D01*
X11400D02*X18600Y1089850D01*
X13400Y1087850D02*X16600D01*
X13400D02*Y1084650D01*
X16600D01*
Y1087850D02*Y1084650D01*
X11800Y1089450D02*X18200D01*
X11800D02*Y1083050D01*
X18200D01*
Y1089450D02*Y1083050D01*
X140000Y1088500D02*Y1082500D01*
Y1088500D02*X143750Y1082500D01*
Y1088500D02*Y1082500D01*
X145550Y1087750D02*Y1083250D01*
Y1087750D02*X146300Y1088500D01*
X147800D01*
X148550Y1087750D01*
Y1083250D01*
X147800Y1082500D02*X148550Y1083250D01*
X146300Y1082500D02*X147800D01*
X145550Y1083250D02*X146300Y1082500D01*
X98000Y1084750D02*X101000Y1088500D01*
X98000Y1084750D02*X101750D01*
X101000Y1088500D02*Y1082500D01*
X45000Y1083250D02*X45750Y1082500D01*
X45000Y1087750D02*Y1083250D01*
Y1087750D02*X45750Y1088500D01*
X47250D01*
X48000Y1087750D01*
Y1083250D01*
X47250Y1082500D02*X48000Y1083250D01*
X45750Y1082500D02*X47250D01*
X45000Y1084000D02*X48000Y1087000D01*
X49800Y1082500D02*X50550D01*
X52350Y1083250D02*X53100Y1082500D01*
X52350Y1087750D02*Y1083250D01*
Y1087750D02*X53100Y1088500D01*
X54600D01*
X55350Y1087750D01*
Y1083250D01*
X54600Y1082500D02*X55350Y1083250D01*
X53100Y1082500D02*X54600D01*
X52350Y1084000D02*X55350Y1087000D01*
X57900Y1082500D02*X60150Y1085500D01*
Y1087750D02*Y1085500D01*
X59400Y1088500D02*X60150Y1087750D01*
X57900Y1088500D02*X59400D01*
X57150Y1087750D02*X57900Y1088500D01*
X57150Y1087750D02*Y1086250D01*
X57900Y1085500D01*
X60150D01*
X61950Y1083250D02*X62700Y1082500D01*
X61950Y1084450D02*Y1083250D01*
Y1084450D02*X63000Y1085500D01*
X63900D01*
X64950Y1084450D01*
Y1083250D01*
X64200Y1082500D02*X64950Y1083250D01*
X62700Y1082500D02*X64200D01*
X61950Y1086550D02*X63000Y1085500D01*
X61950Y1087750D02*Y1086550D01*
Y1087750D02*X62700Y1088500D01*
X64200D01*
X64950Y1087750D01*
Y1086550D01*
X63900Y1085500D02*X64950Y1086550D01*
X291551Y767342D02*Y757742D01*
X286751Y762542D02*X296351D01*
X289951Y764142D02*X293151D01*
X289951D02*Y760942D01*
X293151D01*
Y764142D02*Y760942D01*
X288351Y765742D02*X294751D01*
X288351D02*Y759342D01*
X294751D01*
Y765742D02*Y759342D01*
X291551Y786042D02*Y776442D01*
X286751Y781242D02*X296351D01*
X289951Y782842D02*X293151D01*
X289951D02*Y779642D01*
X293151D01*
Y782842D02*Y779642D01*
X288351Y784442D02*X294751D01*
X288351D02*Y778042D01*
X294751D01*
Y784442D02*Y778042D01*
X291551Y804742D02*Y795142D01*
X286751Y799942D02*X296351D01*
X289951Y801542D02*X293151D01*
X289951D02*Y798342D01*
X293151D01*
Y801542D02*Y798342D01*
X288351Y803142D02*X294751D01*
X288351D02*Y796742D01*
X294751D01*
Y803142D02*Y796742D01*
X333551Y804742D02*Y795142D01*
X328751Y799942D02*X338351D01*
X331951Y801542D02*X335151D01*
X331951D02*Y798342D01*
X335151D01*
Y801542D02*Y798342D01*
X330351Y803142D02*X336751D01*
X330351D02*Y796742D01*
X336751D01*
Y803142D02*Y796742D01*
X333551Y786042D02*Y776442D01*
X328751Y781242D02*X338351D01*
X331951Y782842D02*X335151D01*
X331951D02*Y779642D01*
X335151D01*
Y782842D02*Y779642D01*
X330351Y784442D02*X336751D01*
X330351D02*Y778042D01*
X336751D01*
Y784442D02*Y778042D01*
X333551Y767342D02*Y757742D01*
X328751Y762542D02*X338351D01*
X331951Y764142D02*X335151D01*
X331951D02*Y760942D01*
X335151D01*
Y764142D02*Y760942D01*
X330351Y765742D02*X336751D01*
X330351D02*Y759342D01*
X336751D01*
Y765742D02*Y759342D01*
X15000Y1106050D02*Y1096450D01*
X10200Y1101250D02*X19800D01*
X13400Y1102850D02*X16600D01*
X13400D02*Y1099650D01*
X16600D01*
Y1102850D02*Y1099650D01*
X11800Y1104450D02*X18200D01*
X11800D02*Y1098050D01*
X18200D01*
Y1104450D02*Y1098050D01*
X135000Y1103500D02*X136500Y1100500D01*
X138000Y1103500D01*
X136500Y1100500D02*Y1097500D01*
X139800Y1100800D02*X142050D01*
X139800Y1097500D02*X142800D01*
X139800Y1103500D02*Y1097500D01*
Y1103500D02*X142800D01*
X147600D02*X148350Y1102750D01*
X145350Y1103500D02*X147600D01*
X144600Y1102750D02*X145350Y1103500D01*
X144600Y1102750D02*Y1101250D01*
X145350Y1100500D01*
X147600D01*
X148350Y1099750D01*
Y1098250D01*
X147600Y1097500D02*X148350Y1098250D01*
X145350Y1097500D02*X147600D01*
X144600Y1098250D02*X145350Y1097500D01*
X100250Y1103500D02*X101000Y1102750D01*
X98750Y1103500D02*X100250D01*
X98000Y1102750D02*X98750Y1103500D01*
X98000Y1102750D02*Y1098250D01*
X98750Y1097500D01*
X100250Y1100800D02*X101000Y1100050D01*
X98000Y1100800D02*X100250D01*
X98750Y1097500D02*X100250D01*
X101000Y1098250D01*
Y1100050D02*Y1098250D01*
X45000D02*X45750Y1097500D01*
X45000Y1102750D02*Y1098250D01*
Y1102750D02*X45750Y1103500D01*
X47250D01*
X48000Y1102750D01*
Y1098250D01*
X47250Y1097500D02*X48000Y1098250D01*
X45750Y1097500D02*X47250D01*
X45000Y1099000D02*X48000Y1102000D01*
X49800Y1097500D02*X50550D01*
X52350Y1098250D02*X53100Y1097500D01*
X52350Y1102750D02*Y1098250D01*
Y1102750D02*X53100Y1103500D01*
X54600D01*
X55350Y1102750D01*
Y1098250D01*
X54600Y1097500D02*X55350Y1098250D01*
X53100Y1097500D02*X54600D01*
X52350Y1099000D02*X55350Y1102000D01*
X59400Y1103500D02*X60150Y1102750D01*
X57900Y1103500D02*X59400D01*
X57150Y1102750D02*X57900Y1103500D01*
X57150Y1102750D02*Y1098250D01*
X57900Y1097500D01*
X59400Y1100800D02*X60150Y1100050D01*
X57150Y1100800D02*X59400D01*
X57900Y1097500D02*X59400D01*
X60150Y1098250D01*
Y1100050D02*Y1098250D01*
X61950D02*X62700Y1097500D01*
X61950Y1102750D02*Y1098250D01*
Y1102750D02*X62700Y1103500D01*
X64200D01*
X64950Y1102750D01*
Y1098250D01*
X64200Y1097500D02*X64950Y1098250D01*
X62700Y1097500D02*X64200D01*
X61950Y1099000D02*X64950Y1102000D01*
X457738Y801851D02*Y797051D01*
Y801851D02*X461898Y804251D01*
X457738Y801851D02*X453578Y804251D01*
X456138Y801851D02*G75*G03X459338Y801851I1600J0D01*G01*
G75*G03X456138Y801851I-1600J0D01*G01*
X454538D02*G75*G03X460938Y801851I3200J0D01*G01*
G75*G03X454538Y801851I-3200J0D01*G01*
X377738D02*Y797051D01*
Y801851D02*X381898Y804251D01*
X377738Y801851D02*X373578Y804251D01*
X376138Y801851D02*G75*G03X379338Y801851I1600J0D01*G01*
G75*G03X376138Y801851I-1600J0D01*G01*
X374538D02*G75*G03X380938Y801851I3200J0D01*G01*
G75*G03X374538Y801851I-3200J0D01*G01*
X457238Y816351D02*Y811551D01*
Y816351D02*X461398Y818751D01*
X457238Y816351D02*X453078Y818751D01*
X455638Y816351D02*G75*G03X458838Y816351I1600J0D01*G01*
G75*G03X455638Y816351I-1600J0D01*G01*
X454038D02*G75*G03X460438Y816351I3200J0D01*G01*
G75*G03X454038Y816351I-3200J0D01*G01*
X377238D02*Y811551D01*
Y816351D02*X381398Y818751D01*
X377238Y816351D02*X373078Y818751D01*
X375638Y816351D02*G75*G03X378838Y816351I1600J0D01*G01*
G75*G03X375638Y816351I-1600J0D01*G01*
X374038D02*G75*G03X380438Y816351I3200J0D01*G01*
G75*G03X374038Y816351I-3200J0D01*G01*
X418258Y735551D02*Y730751D01*
Y735551D02*X422418Y737951D01*
X418258Y735551D02*X414098Y737951D01*
X416658Y735551D02*G75*G03X419858Y735551I1600J0D01*G01*
G75*G03X416658Y735551I-1600J0D01*G01*
X415058D02*G75*G03X421458Y735551I3200J0D01*G01*
G75*G03X415058Y735551I-3200J0D01*G01*
X338258D02*Y730751D01*
Y735551D02*X342418Y737951D01*
X338258Y735551D02*X334098Y737951D01*
X336658Y735551D02*G75*G03X339858Y735551I1600J0D01*G01*
G75*G03X336658Y735551I-1600J0D01*G01*
X335058D02*G75*G03X341458Y735551I3200J0D01*G01*
G75*G03X335058Y735551I-3200J0D01*G01*
X15000Y1116250D02*Y1111450D01*
Y1116250D02*X19160Y1118650D01*
X15000Y1116250D02*X10840Y1118650D01*
X13400Y1116250D02*G75*G03X16600Y1116250I1600J0D01*G01*
G75*G03X13400Y1116250I-1600J0D01*G01*
X11800D02*G75*G03X18200Y1116250I3200J0D01*G01*
G75*G03X11800Y1116250I-3200J0D01*G01*
X135000Y1118500D02*X136500Y1115500D01*
X138000Y1118500D01*
X136500Y1115500D02*Y1112500D01*
X139800Y1115800D02*X142050D01*
X139800Y1112500D02*X142800D01*
X139800Y1118500D02*Y1112500D01*
Y1118500D02*X142800D01*
X147600D02*X148350Y1117750D01*
X145350Y1118500D02*X147600D01*
X144600Y1117750D02*X145350Y1118500D01*
X144600Y1117750D02*Y1116250D01*
X145350Y1115500D01*
X147600D01*
X148350Y1114750D01*
Y1113250D01*
X147600Y1112500D02*X148350Y1113250D01*
X145350Y1112500D02*X147600D01*
X144600Y1113250D02*X145350Y1112500D01*
X100250Y1118500D02*X101000Y1117750D01*
X98750Y1118500D02*X100250D01*
X98000Y1117750D02*X98750Y1118500D01*
X98000Y1117750D02*Y1113250D01*
X98750Y1112500D01*
X100250Y1115800D02*X101000Y1115050D01*
X98000Y1115800D02*X100250D01*
X98750Y1112500D02*X100250D01*
X101000Y1113250D01*
Y1115050D02*Y1113250D01*
X45000D02*X45750Y1112500D01*
X45000Y1117750D02*Y1113250D01*
Y1117750D02*X45750Y1118500D01*
X47250D01*
X48000Y1117750D01*
Y1113250D01*
X47250Y1112500D02*X48000Y1113250D01*
X45750Y1112500D02*X47250D01*
X45000Y1114000D02*X48000Y1117000D01*
X49800Y1112500D02*X50550D01*
X52350Y1113250D02*X53100Y1112500D01*
X52350Y1117750D02*Y1113250D01*
Y1117750D02*X53100Y1118500D01*
X54600D01*
X55350Y1117750D01*
Y1113250D01*
X54600Y1112500D02*X55350Y1113250D01*
X53100Y1112500D02*X54600D01*
X52350Y1114000D02*X55350Y1117000D01*
X57150Y1118500D02*X60150D01*
X57150D02*Y1115500D01*
X57900Y1116250D01*
X59400D01*
X60150Y1115500D01*
Y1113250D01*
X59400Y1112500D02*X60150Y1113250D01*
X57900Y1112500D02*X59400D01*
X57150Y1113250D02*X57900Y1112500D01*
X61950Y1113250D02*X62700Y1112500D01*
X61950Y1117750D02*Y1113250D01*
Y1117750D02*X62700Y1118500D01*
X64200D01*
X64950Y1117750D01*
Y1113250D01*
X64200Y1112500D02*X64950Y1113250D01*
X62700Y1112500D02*X64200D01*
X61950Y1114000D02*X64950Y1117000D01*
X337242Y693349D02*X340442D01*
X337242D02*Y690149D01*
X340442D01*
Y693349D02*Y690149D01*
X335642Y694949D02*X342042D01*
X335642D02*Y688549D01*
X342042D01*
Y694949D02*Y688549D01*
X347242Y693349D02*X350442D01*
X347242D02*Y690149D01*
X350442D01*
Y693349D02*Y690149D01*
X345642Y694949D02*X352042D01*
X345642D02*Y688549D01*
X352042D01*
Y694949D02*Y688549D01*
X357242Y693349D02*X360442D01*
X357242D02*Y690149D01*
X360442D01*
Y693349D02*Y690149D01*
X355642Y694949D02*X362042D01*
X355642D02*Y688549D01*
X362042D01*
Y694949D02*Y688549D01*
X367242Y693349D02*X370442D01*
X367242D02*Y690149D01*
X370442D01*
Y693349D02*Y690149D01*
X365642Y694949D02*X372042D01*
X365642D02*Y688549D01*
X372042D01*
Y694949D02*Y688549D01*
X377242Y693349D02*X380442D01*
X377242D02*Y690149D01*
X380442D01*
Y693349D02*Y690149D01*
X375642Y694949D02*X382042D01*
X375642D02*Y688549D01*
X382042D01*
Y694949D02*Y688549D01*
X13400Y1132850D02*X16600D01*
X13400D02*Y1129650D01*
X16600D01*
Y1132850D02*Y1129650D01*
X11800Y1134450D02*X18200D01*
X11800D02*Y1128050D01*
X18200D01*
Y1134450D02*Y1128050D01*
X135000Y1133500D02*X136500Y1130500D01*
X138000Y1133500D01*
X136500Y1130500D02*Y1127500D01*
X139800Y1130800D02*X142050D01*
X139800Y1127500D02*X142800D01*
X139800Y1133500D02*Y1127500D01*
Y1133500D02*X142800D01*
X147600D02*X148350Y1132750D01*
X145350Y1133500D02*X147600D01*
X144600Y1132750D02*X145350Y1133500D01*
X144600Y1132750D02*Y1131250D01*
X145350Y1130500D01*
X147600D01*
X148350Y1129750D01*
Y1128250D01*
X147600Y1127500D02*X148350Y1128250D01*
X145350Y1127500D02*X147600D01*
X144600Y1128250D02*X145350Y1127500D01*
X98000Y1133500D02*X101000D01*
X98000D02*Y1130500D01*
X98750Y1131250D01*
X100250D01*
X101000Y1130500D01*
Y1128250D01*
X100250Y1127500D02*X101000Y1128250D01*
X98750Y1127500D02*X100250D01*
X98000Y1128250D02*X98750Y1127500D01*
X45000Y1128250D02*X45750Y1127500D01*
X45000Y1132750D02*Y1128250D01*
Y1132750D02*X45750Y1133500D01*
X47250D01*
X48000Y1132750D01*
Y1128250D01*
X47250Y1127500D02*X48000Y1128250D01*
X45750Y1127500D02*X47250D01*
X45000Y1129000D02*X48000Y1132000D01*
X49800Y1127500D02*X50550D01*
X52350Y1128250D02*X53100Y1127500D01*
X52350Y1132750D02*Y1128250D01*
Y1132750D02*X53100Y1133500D01*
X54600D01*
X55350Y1132750D01*
Y1128250D01*
X54600Y1127500D02*X55350Y1128250D01*
X53100Y1127500D02*X54600D01*
X52350Y1129000D02*X55350Y1132000D01*
X57150Y1129750D02*X60150Y1133500D01*
X57150Y1129750D02*X60900D01*
X60150Y1133500D02*Y1127500D01*
X62700Y1128250D02*X63450Y1127500D01*
X62700Y1132750D02*Y1128250D01*
Y1132750D02*X63450Y1133500D01*
X64950D01*
X65700Y1132750D01*
Y1128250D01*
X64950Y1127500D02*X65700Y1128250D01*
X63450Y1127500D02*X64950D01*
X62700Y1129000D02*X65700Y1132000D01*
X209257Y671472D02*G75*G03X210857Y671472I800J0D01*G01*
G75*G03X209257Y671472I-800J0D01*G01*
X207657D02*G75*G03X212457Y671472I2400J0D01*G01*
G75*G03X207657Y671472I-2400J0D01*G01*
X219257D02*G75*G03X220857Y671472I800J0D01*G01*
G75*G03X219257Y671472I-800J0D01*G01*
X217657D02*G75*G03X222457Y671472I2400J0D01*G01*
G75*G03X217657Y671472I-2400J0D01*G01*
X229257D02*G75*G03X230857Y671472I800J0D01*G01*
G75*G03X229257Y671472I-800J0D01*G01*
X227657D02*G75*G03X232457Y671472I2400J0D01*G01*
G75*G03X227657Y671472I-2400J0D01*G01*
X239257D02*G75*G03X240857Y671472I800J0D01*G01*
G75*G03X239257Y671472I-800J0D01*G01*
X237657D02*G75*G03X242457Y671472I2400J0D01*G01*
G75*G03X237657Y671472I-2400J0D01*G01*
X249257D02*G75*G03X250857Y671472I800J0D01*G01*
G75*G03X249257Y671472I-800J0D01*G01*
X247657D02*G75*G03X252457Y671472I2400J0D01*G01*
G75*G03X247657Y671472I-2400J0D01*G01*
X259257D02*G75*G03X260857Y671472I800J0D01*G01*
G75*G03X259257Y671472I-800J0D01*G01*
X257657D02*G75*G03X262457Y671472I2400J0D01*G01*
G75*G03X257657Y671472I-2400J0D01*G01*
X269257D02*G75*G03X270857Y671472I800J0D01*G01*
G75*G03X269257Y671472I-800J0D01*G01*
X267657D02*G75*G03X272457Y671472I2400J0D01*G01*
G75*G03X267657Y671472I-2400J0D01*G01*
X279257D02*G75*G03X280857Y671472I800J0D01*G01*
G75*G03X279257Y671472I-800J0D01*G01*
X277657D02*G75*G03X282457Y671472I2400J0D01*G01*
G75*G03X277657Y671472I-2400J0D01*G01*
X289257D02*G75*G03X290857Y671472I800J0D01*G01*
G75*G03X289257Y671472I-800J0D01*G01*
X287657D02*G75*G03X292457Y671472I2400J0D01*G01*
G75*G03X287657Y671472I-2400J0D01*G01*
X299257D02*G75*G03X300857Y671472I800J0D01*G01*
G75*G03X299257Y671472I-800J0D01*G01*
X297657D02*G75*G03X302457Y671472I2400J0D01*G01*
G75*G03X297657Y671472I-2400J0D01*G01*
X309257D02*G75*G03X310857Y671472I800J0D01*G01*
G75*G03X309257Y671472I-800J0D01*G01*
X307657D02*G75*G03X312457Y671472I2400J0D01*G01*
G75*G03X307657Y671472I-2400J0D01*G01*
X319257D02*G75*G03X320857Y671472I800J0D01*G01*
G75*G03X319257Y671472I-800J0D01*G01*
X317657D02*G75*G03X322457Y671472I2400J0D01*G01*
G75*G03X317657Y671472I-2400J0D01*G01*
X329257D02*G75*G03X330857Y671472I800J0D01*G01*
G75*G03X329257Y671472I-800J0D01*G01*
X327657D02*G75*G03X332457Y671472I2400J0D01*G01*
G75*G03X327657Y671472I-2400J0D01*G01*
X339257D02*G75*G03X340857Y671472I800J0D01*G01*
G75*G03X339257Y671472I-800J0D01*G01*
X337657D02*G75*G03X342457Y671472I2400J0D01*G01*
G75*G03X337657Y671472I-2400J0D01*G01*
X349257D02*G75*G03X350857Y671472I800J0D01*G01*
G75*G03X349257Y671472I-800J0D01*G01*
X347657D02*G75*G03X352457Y671472I2400J0D01*G01*
G75*G03X347657Y671472I-2400J0D01*G01*
X359257D02*G75*G03X360857Y671472I800J0D01*G01*
G75*G03X359257Y671472I-800J0D01*G01*
X357657D02*G75*G03X362457Y671472I2400J0D01*G01*
G75*G03X357657Y671472I-2400J0D01*G01*
X14200Y1146250D02*G75*G03X15800Y1146250I800J0D01*G01*
G75*G03X14200Y1146250I-800J0D01*G01*
X12600D02*G75*G03X17400Y1146250I2400J0D01*G01*
G75*G03X12600Y1146250I-2400J0D01*G01*
X135000Y1148500D02*X136500Y1145500D01*
X138000Y1148500D01*
X136500Y1145500D02*Y1142500D01*
X139800Y1145800D02*X142050D01*
X139800Y1142500D02*X142800D01*
X139800Y1148500D02*Y1142500D01*
Y1148500D02*X142800D01*
X147600D02*X148350Y1147750D01*
X145350Y1148500D02*X147600D01*
X144600Y1147750D02*X145350Y1148500D01*
X144600Y1147750D02*Y1146250D01*
X145350Y1145500D01*
X147600D01*
X148350Y1144750D01*
Y1143250D01*
X147600Y1142500D02*X148350Y1143250D01*
X145350Y1142500D02*X147600D01*
X144600Y1143250D02*X145350Y1142500D01*
X98000Y1147300D02*X99200Y1148500D01*
Y1142500D01*
X98000D02*X100250D01*
X104300Y1148500D02*X105050Y1147750D01*
X102800Y1148500D02*X104300D01*
X102050Y1147750D02*X102800Y1148500D01*
X102050Y1147750D02*Y1143250D01*
X102800Y1142500D01*
X104300Y1145800D02*X105050Y1145050D01*
X102050Y1145800D02*X104300D01*
X102800Y1142500D02*X104300D01*
X105050Y1143250D01*
Y1145050D02*Y1143250D01*
X45000D02*X45750Y1142500D01*
X45000Y1147750D02*Y1143250D01*
Y1147750D02*X45750Y1148500D01*
X47250D01*
X48000Y1147750D01*
Y1143250D01*
X47250Y1142500D02*X48000Y1143250D01*
X45750Y1142500D02*X47250D01*
X45000Y1144000D02*X48000Y1147000D01*
X49800Y1142500D02*X50550D01*
X52350Y1143250D02*X53100Y1142500D01*
X52350Y1147750D02*Y1143250D01*
Y1147750D02*X53100Y1148500D01*
X54600D01*
X55350Y1147750D01*
Y1143250D01*
X54600Y1142500D02*X55350Y1143250D01*
X53100Y1142500D02*X54600D01*
X52350Y1144000D02*X55350Y1147000D01*
X57150Y1147750D02*X57900Y1148500D01*
X59400D01*
X60150Y1147750D01*
X59400Y1142500D02*X60150Y1143250D01*
X57900Y1142500D02*X59400D01*
X57150Y1143250D02*X57900Y1142500D01*
Y1145800D02*X59400D01*
X60150Y1147750D02*Y1146550D01*
Y1145050D02*Y1143250D01*
Y1145050D02*X59400Y1145800D01*
X60150Y1146550D02*X59400Y1145800D01*
X62700Y1142500D02*X64950Y1145500D01*
Y1147750D02*Y1145500D01*
X64200Y1148500D02*X64950Y1147750D01*
X62700Y1148500D02*X64200D01*
X61950Y1147750D02*X62700Y1148500D01*
X61950Y1147750D02*Y1146250D01*
X62700Y1145500D01*
X64950D01*
X236142Y612849D02*X240942Y608049D01*
X236142D02*X240942Y612849D01*
X236942Y612049D02*X240142D01*
X236942D02*Y608849D01*
X240142D01*
Y612049D02*Y608849D01*
X236142Y632049D02*X240942Y627249D01*
X236142D02*X240942Y632049D01*
X236942Y631249D02*X240142D01*
X236942D02*Y628049D01*
X240142D01*
Y631249D02*Y628049D01*
X12600Y1163650D02*X17400Y1158850D01*
X12600D02*X17400Y1163650D01*
X13400Y1162850D02*X16600D01*
X13400D02*Y1159650D01*
X16600D01*
Y1162850D02*Y1159650D01*
X135000Y1163500D02*X136500Y1160500D01*
X138000Y1163500D01*
X136500Y1160500D02*Y1157500D01*
X139800Y1160800D02*X142050D01*
X139800Y1157500D02*X142800D01*
X139800Y1163500D02*Y1157500D01*
Y1163500D02*X142800D01*
X147600D02*X148350Y1162750D01*
X145350Y1163500D02*X147600D01*
X144600Y1162750D02*X145350Y1163500D01*
X144600Y1162750D02*Y1161250D01*
X145350Y1160500D01*
X147600D01*
X148350Y1159750D01*
Y1158250D01*
X147600Y1157500D02*X148350Y1158250D01*
X145350Y1157500D02*X147600D01*
X144600Y1158250D02*X145350Y1157500D01*
X98000Y1162750D02*X98750Y1163500D01*
X101000D01*
X101750Y1162750D01*
Y1161250D01*
X98000Y1157500D02*X101750Y1161250D01*
X98000Y1157500D02*X101750D01*
X45000Y1158250D02*X45750Y1157500D01*
X45000Y1162750D02*Y1158250D01*
Y1162750D02*X45750Y1163500D01*
X47250D01*
X48000Y1162750D01*
Y1158250D01*
X47250Y1157500D02*X48000Y1158250D01*
X45750Y1157500D02*X47250D01*
X45000Y1159000D02*X48000Y1162000D01*
X49800Y1157500D02*X50550D01*
X52350Y1158250D02*X53100Y1157500D01*
X52350Y1162750D02*Y1158250D01*
Y1162750D02*X53100Y1163500D01*
X54600D01*
X55350Y1162750D01*
Y1158250D01*
X54600Y1157500D02*X55350Y1158250D01*
X53100Y1157500D02*X54600D01*
X52350Y1159000D02*X55350Y1162000D01*
X57150Y1162750D02*X57900Y1163500D01*
X59400D01*
X60150Y1162750D01*
X59400Y1157500D02*X60150Y1158250D01*
X57900Y1157500D02*X59400D01*
X57150Y1158250D02*X57900Y1157500D01*
Y1160800D02*X59400D01*
X60150Y1162750D02*Y1161550D01*
Y1160050D02*Y1158250D01*
Y1160050D02*X59400Y1160800D01*
X60150Y1161550D02*X59400Y1160800D01*
X61950Y1162750D02*X62700Y1163500D01*
X64950D01*
X65700Y1162750D01*
Y1161250D01*
X61950Y1157500D02*X65700Y1161250D01*
X61950Y1157500D02*X65700D01*
X447500Y749200D02*Y742800D01*
X444300Y746000D02*X450700D01*
X445900Y747600D02*X449100D01*
X445900D02*Y744400D01*
X449100D01*
Y747600D02*Y744400D01*
X457500Y754200D02*Y747800D01*
X454300Y751000D02*X460700D01*
X455900Y752600D02*X459100D01*
X455900D02*Y749400D01*
X459100D01*
Y752600D02*Y749400D01*
X447500Y759200D02*Y752800D01*
X444300Y756000D02*X450700D01*
X445900Y757600D02*X449100D01*
X445900D02*Y754400D01*
X449100D01*
Y757600D02*Y754400D01*
X457500Y764200D02*Y757800D01*
X454300Y761000D02*X460700D01*
X455900Y762600D02*X459100D01*
X455900D02*Y759400D01*
X459100D01*
Y762600D02*Y759400D01*
X447500Y769200D02*Y762800D01*
X444300Y766000D02*X450700D01*
X445900Y767600D02*X449100D01*
X445900D02*Y764400D01*
X449100D01*
Y767600D02*Y764400D01*
X457500Y774200D02*Y767800D01*
X454300Y771000D02*X460700D01*
X455900Y772600D02*X459100D01*
X455900D02*Y769400D01*
X459100D01*
Y772600D02*Y769400D01*
X370557Y723028D02*Y716628D01*
X367357Y719828D02*X373757D01*
X368957Y721428D02*X372157D01*
X368957D02*Y718228D01*
X372157D01*
Y721428D02*Y718228D01*
X370557Y713028D02*Y706628D01*
X367357Y709828D02*X373757D01*
X368957Y711428D02*X372157D01*
X368957D02*Y708228D01*
X372157D01*
Y711428D02*Y708228D01*
X15000Y1179450D02*Y1173050D01*
X11800Y1176250D02*X18200D01*
X13400Y1177850D02*X16600D01*
X13400D02*Y1174650D01*
X16600D01*
Y1177850D02*Y1174650D01*
X135000Y1178500D02*X136500Y1175500D01*
X138000Y1178500D01*
X136500Y1175500D02*Y1172500D01*
X139800Y1175800D02*X142050D01*
X139800Y1172500D02*X142800D01*
X139800Y1178500D02*Y1172500D01*
Y1178500D02*X142800D01*
X147600D02*X148350Y1177750D01*
X145350Y1178500D02*X147600D01*
X144600Y1177750D02*X145350Y1178500D01*
X144600Y1177750D02*Y1176250D01*
X145350Y1175500D01*
X147600D01*
X148350Y1174750D01*
Y1173250D01*
X147600Y1172500D02*X148350Y1173250D01*
X145350Y1172500D02*X147600D01*
X144600Y1173250D02*X145350Y1172500D01*
X98000Y1173250D02*X98750Y1172500D01*
X98000Y1174450D02*Y1173250D01*
Y1174450D02*X99050Y1175500D01*
X99950D01*
X101000Y1174450D01*
Y1173250D01*
X100250Y1172500D02*X101000Y1173250D01*
X98750Y1172500D02*X100250D01*
X98000Y1176550D02*X99050Y1175500D01*
X98000Y1177750D02*Y1176550D01*
Y1177750D02*X98750Y1178500D01*
X100250D01*
X101000Y1177750D01*
Y1176550D01*
X99950Y1175500D02*X101000Y1176550D01*
X45000Y1173250D02*X45750Y1172500D01*
X45000Y1177750D02*Y1173250D01*
Y1177750D02*X45750Y1178500D01*
X47250D01*
X48000Y1177750D01*
Y1173250D01*
X47250Y1172500D02*X48000Y1173250D01*
X45750Y1172500D02*X47250D01*
X45000Y1174000D02*X48000Y1177000D01*
X49800Y1172500D02*X50550D01*
X52350Y1173250D02*X53100Y1172500D01*
X52350Y1177750D02*Y1173250D01*
Y1177750D02*X53100Y1178500D01*
X54600D01*
X55350Y1177750D01*
Y1173250D01*
X54600Y1172500D02*X55350Y1173250D01*
X53100Y1172500D02*X54600D01*
X52350Y1174000D02*X55350Y1177000D01*
X57150Y1177750D02*X57900Y1178500D01*
X59400D01*
X60150Y1177750D01*
X59400Y1172500D02*X60150Y1173250D01*
X57900Y1172500D02*X59400D01*
X57150Y1173250D02*X57900Y1172500D01*
Y1175800D02*X59400D01*
X60150Y1177750D02*Y1176550D01*
Y1175050D02*Y1173250D01*
Y1175050D02*X59400Y1175800D01*
X60150Y1176550D02*X59400Y1175800D01*
X61950Y1173250D02*X62700Y1172500D01*
X61950Y1177750D02*Y1173250D01*
Y1177750D02*X62700Y1178500D01*
X64200D01*
X64950Y1177750D01*
Y1173250D01*
X64200Y1172500D02*X64950Y1173250D01*
X62700Y1172500D02*X64200D01*
X61950Y1174000D02*X64950Y1177000D01*
X310000Y562500D02*Y559300D01*
Y562500D02*X312773Y564100D01*
X310000Y562500D02*X307227Y564100D01*
X308400Y562500D02*G75*G03X311600Y562500I1600J0D01*G01*
G75*G03X308400Y562500I-1600J0D01*G01*
X320000D02*Y559300D01*
Y562500D02*X322773Y564100D01*
X320000Y562500D02*X317227Y564100D01*
X318400Y562500D02*G75*G03X321600Y562500I1600J0D01*G01*
G75*G03X318400Y562500I-1600J0D01*G01*
X330000D02*Y559300D01*
Y562500D02*X332773Y564100D01*
X330000Y562500D02*X327227Y564100D01*
X328400Y562500D02*G75*G03X331600Y562500I1600J0D01*G01*
G75*G03X328400Y562500I-1600J0D01*G01*
X340000D02*Y559300D01*
Y562500D02*X342773Y564100D01*
X340000Y562500D02*X337227Y564100D01*
X338400Y562500D02*G75*G03X341600Y562500I1600J0D01*G01*
G75*G03X338400Y562500I-1600J0D01*G01*
X350000D02*Y559300D01*
Y562500D02*X352773Y564100D01*
X350000Y562500D02*X347227Y564100D01*
X348400Y562500D02*G75*G03X351600Y562500I1600J0D01*G01*
G75*G03X348400Y562500I-1600J0D01*G01*
X360000D02*Y559300D01*
Y562500D02*X362773Y564100D01*
X360000Y562500D02*X357227Y564100D01*
X358400Y562500D02*G75*G03X361600Y562500I1600J0D01*G01*
G75*G03X358400Y562500I-1600J0D01*G01*
X370000D02*Y559300D01*
Y562500D02*X372773Y564100D01*
X370000Y562500D02*X367227Y564100D01*
X368400Y562500D02*G75*G03X371600Y562500I1600J0D01*G01*
G75*G03X368400Y562500I-1600J0D01*G01*
X380000D02*Y559300D01*
Y562500D02*X382773Y564100D01*
X380000Y562500D02*X377227Y564100D01*
X378400Y562500D02*G75*G03X381600Y562500I1600J0D01*G01*
G75*G03X378400Y562500I-1600J0D01*G01*
X156500Y788000D02*Y784800D01*
Y788000D02*X159273Y789600D01*
X156500Y788000D02*X153727Y789600D01*
X154900Y788000D02*G75*G03X158100Y788000I1600J0D01*G01*
G75*G03X154900Y788000I-1600J0D01*G01*
X166500D02*Y784800D01*
Y788000D02*X169273Y789600D01*
X166500Y788000D02*X163727Y789600D01*
X164900Y788000D02*G75*G03X168100Y788000I1600J0D01*G01*
G75*G03X164900Y788000I-1600J0D01*G01*
X158000Y587000D02*Y583800D01*
Y587000D02*X160773Y588600D01*
X158000Y587000D02*X155227Y588600D01*
X156400Y587000D02*G75*G03X159600Y587000I1600J0D01*G01*
G75*G03X156400Y587000I-1600J0D01*G01*
X158000Y597000D02*Y593800D01*
Y597000D02*X160773Y598600D01*
X158000Y597000D02*X155227Y598600D01*
X156400Y597000D02*G75*G03X159600Y597000I1600J0D01*G01*
G75*G03X156400Y597000I-1600J0D01*G01*
X158000Y556000D02*Y552800D01*
Y556000D02*X160773Y557600D01*
X158000Y556000D02*X155227Y557600D01*
X156400Y556000D02*G75*G03X159600Y556000I1600J0D01*G01*
G75*G03X156400Y556000I-1600J0D01*G01*
X158000Y566000D02*Y562800D01*
Y566000D02*X160773Y567600D01*
X158000Y566000D02*X155227Y567600D01*
X156400Y566000D02*G75*G03X159600Y566000I1600J0D01*G01*
G75*G03X156400Y566000I-1600J0D01*G01*
X158000Y618000D02*Y614800D01*
Y618000D02*X160773Y619600D01*
X158000Y618000D02*X155227Y619600D01*
X156400Y618000D02*G75*G03X159600Y618000I1600J0D01*G01*
G75*G03X156400Y618000I-1600J0D01*G01*
X158000Y628000D02*Y624800D01*
Y628000D02*X160773Y629600D01*
X158000Y628000D02*X155227Y629600D01*
X156400Y628000D02*G75*G03X159600Y628000I1600J0D01*G01*
G75*G03X156400Y628000I-1600J0D01*G01*
X158000Y649000D02*Y645800D01*
Y649000D02*X160773Y650600D01*
X158000Y649000D02*X155227Y650600D01*
X156400Y649000D02*G75*G03X159600Y649000I1600J0D01*G01*
G75*G03X156400Y649000I-1600J0D01*G01*
X158000Y659000D02*Y655800D01*
Y659000D02*X160773Y660600D01*
X158000Y659000D02*X155227Y660600D01*
X156400Y659000D02*G75*G03X159600Y659000I1600J0D01*G01*
G75*G03X156400Y659000I-1600J0D01*G01*
X259542Y610149D02*Y606949D01*
Y610149D02*X262315Y611749D01*
X259542Y610149D02*X256768Y611749D01*
X257942Y610149D02*G75*G03X261142Y610149I1600J0D01*G01*
G75*G03X257942Y610149I-1600J0D01*G01*
X269542D02*Y606949D01*
Y610149D02*X272315Y611749D01*
X269542Y610149D02*X266768Y611749D01*
X267942Y610149D02*G75*G03X271142Y610149I1600J0D01*G01*
G75*G03X267942Y610149I-1600J0D01*G01*
X269342Y625349D02*Y622149D01*
Y625349D02*X272115Y626949D01*
X269342Y625349D02*X266568Y626949D01*
X267742Y625349D02*G75*G03X270942Y625349I1600J0D01*G01*
G75*G03X267742Y625349I-1600J0D01*G01*
X259342D02*Y622149D01*
Y625349D02*X262115Y626949D01*
X259342Y625349D02*X256568Y626949D01*
X257742Y625349D02*G75*G03X260942Y625349I1600J0D01*G01*
G75*G03X257742Y625349I-1600J0D01*G01*
X215000Y656000D02*Y652800D01*
Y656000D02*X217773Y657600D01*
X215000Y656000D02*X212227Y657600D01*
X213400Y656000D02*G75*G03X216600Y656000I1600J0D01*G01*
G75*G03X213400Y656000I-1600J0D01*G01*
X225000D02*Y652800D01*
Y656000D02*X227773Y657600D01*
X225000Y656000D02*X222227Y657600D01*
X223400Y656000D02*G75*G03X226600Y656000I1600J0D01*G01*
G75*G03X223400Y656000I-1600J0D01*G01*
X235000D02*Y652800D01*
Y656000D02*X237773Y657600D01*
X235000Y656000D02*X232227Y657600D01*
X233400Y656000D02*G75*G03X236600Y656000I1600J0D01*G01*
G75*G03X233400Y656000I-1600J0D01*G01*
X245000D02*Y652800D01*
Y656000D02*X247773Y657600D01*
X245000Y656000D02*X242227Y657600D01*
X243400Y656000D02*G75*G03X246600Y656000I1600J0D01*G01*
G75*G03X243400Y656000I-1600J0D01*G01*
X255000D02*Y652800D01*
Y656000D02*X257773Y657600D01*
X255000Y656000D02*X252227Y657600D01*
X253400Y656000D02*G75*G03X256600Y656000I1600J0D01*G01*
G75*G03X253400Y656000I-1600J0D01*G01*
X265000D02*Y652800D01*
Y656000D02*X267773Y657600D01*
X265000Y656000D02*X262227Y657600D01*
X263400Y656000D02*G75*G03X266600Y656000I1600J0D01*G01*
G75*G03X263400Y656000I-1600J0D01*G01*
X285000D02*Y652800D01*
Y656000D02*X287773Y657600D01*
X285000Y656000D02*X282227Y657600D01*
X283400Y656000D02*G75*G03X286600Y656000I1600J0D01*G01*
G75*G03X283400Y656000I-1600J0D01*G01*
X275000D02*Y652800D01*
Y656000D02*X277773Y657600D01*
X275000Y656000D02*X272227Y657600D01*
X273400Y656000D02*G75*G03X276600Y656000I1600J0D01*G01*
G75*G03X273400Y656000I-1600J0D01*G01*
X15000Y1191250D02*Y1188050D01*
Y1191250D02*X17773Y1192850D01*
X15000Y1191250D02*X12227Y1192850D01*
X13400Y1191250D02*G75*G03X16600Y1191250I1600J0D01*G01*
G75*G03X13400Y1191250I-1600J0D01*G01*
X135000Y1193500D02*X136500Y1190500D01*
X138000Y1193500D01*
X136500Y1190500D02*Y1187500D01*
X139800Y1190800D02*X142050D01*
X139800Y1187500D02*X142800D01*
X139800Y1193500D02*Y1187500D01*
Y1193500D02*X142800D01*
X147600D02*X148350Y1192750D01*
X145350Y1193500D02*X147600D01*
X144600Y1192750D02*X145350Y1193500D01*
X144600Y1192750D02*Y1191250D01*
X145350Y1190500D01*
X147600D01*
X148350Y1189750D01*
Y1188250D01*
X147600Y1187500D02*X148350Y1188250D01*
X145350Y1187500D02*X147600D01*
X144600Y1188250D02*X145350Y1187500D01*
X98000Y1192750D02*X98750Y1193500D01*
X100250D01*
X101000Y1192750D01*
X100250Y1187500D02*X101000Y1188250D01*
X98750Y1187500D02*X100250D01*
X98000Y1188250D02*X98750Y1187500D01*
Y1190800D02*X100250D01*
X101000Y1192750D02*Y1191550D01*
Y1190050D02*Y1188250D01*
Y1190050D02*X100250Y1190800D01*
X101000Y1191550D02*X100250Y1190800D01*
X102800Y1188250D02*X103550Y1187500D01*
X102800Y1192750D02*Y1188250D01*
Y1192750D02*X103550Y1193500D01*
X105050D01*
X105800Y1192750D01*
Y1188250D01*
X105050Y1187500D02*X105800Y1188250D01*
X103550Y1187500D02*X105050D01*
X102800Y1189000D02*X105800Y1192000D01*
X45000Y1188250D02*X45750Y1187500D01*
X45000Y1192750D02*Y1188250D01*
Y1192750D02*X45750Y1193500D01*
X47250D01*
X48000Y1192750D01*
Y1188250D01*
X47250Y1187500D02*X48000Y1188250D01*
X45750Y1187500D02*X47250D01*
X45000Y1189000D02*X48000Y1192000D01*
X49800Y1187500D02*X50550D01*
X52350Y1188250D02*X53100Y1187500D01*
X52350Y1192750D02*Y1188250D01*
Y1192750D02*X53100Y1193500D01*
X54600D01*
X55350Y1192750D01*
Y1188250D01*
X54600Y1187500D02*X55350Y1188250D01*
X53100Y1187500D02*X54600D01*
X52350Y1189000D02*X55350Y1192000D01*
X57150Y1192750D02*X57900Y1193500D01*
X60150D01*
X60900Y1192750D01*
Y1191250D01*
X57150Y1187500D02*X60900Y1191250D01*
X57150Y1187500D02*X60900D01*
X62700Y1188250D02*X63450Y1187500D01*
X62700Y1189450D02*Y1188250D01*
Y1189450D02*X63750Y1190500D01*
X64650D01*
X65700Y1189450D01*
Y1188250D01*
X64950Y1187500D02*X65700Y1188250D01*
X63450Y1187500D02*X64950D01*
X62700Y1191550D02*X63750Y1190500D01*
X62700Y1192750D02*Y1191550D01*
Y1192750D02*X63450Y1193500D01*
X64950D01*
X65700Y1192750D01*
Y1191550D01*
X64650Y1190500D02*X65700Y1191550D01*
X412400Y697600D02*X415600D01*
X412400D02*Y694400D01*
X415600D01*
Y697600D02*Y694400D01*
X392400Y707600D02*X395600D01*
X392400D02*Y704400D01*
X395600D01*
Y707600D02*Y704400D01*
X412400Y717600D02*X415600D01*
X412400D02*Y714400D01*
X415600D01*
Y717600D02*Y714400D01*
X168458Y694851D02*X171658D01*
X168458D02*Y691651D01*
X171658D01*
Y694851D02*Y691651D01*
X188458Y694851D02*X191658D01*
X188458D02*Y691651D01*
X191658D01*
Y694851D02*Y691651D01*
X178458Y714851D02*X181658D01*
X178458D02*Y711651D01*
X181658D01*
Y714851D02*Y711651D01*
X223900Y511900D02*X227100D01*
X223900D02*Y508700D01*
X227100D01*
Y511900D02*Y508700D01*
X203900Y511900D02*X207100D01*
X203900D02*Y508700D01*
X207100D01*
Y511900D02*Y508700D01*
X213900Y531900D02*X217100D01*
X213900D02*Y528700D01*
X217100D01*
Y531900D02*Y528700D01*
X13400Y1207850D02*X16600D01*
X13400D02*Y1204650D01*
X16600D01*
Y1207850D02*Y1204650D01*
X135000Y1208500D02*X136500Y1205500D01*
X138000Y1208500D01*
X136500Y1205500D02*Y1202500D01*
X139800Y1205800D02*X142050D01*
X139800Y1202500D02*X142800D01*
X139800Y1208500D02*Y1202500D01*
Y1208500D02*X142800D01*
X147600D02*X148350Y1207750D01*
X145350Y1208500D02*X147600D01*
X144600Y1207750D02*X145350Y1208500D01*
X144600Y1207750D02*Y1206250D01*
X145350Y1205500D01*
X147600D01*
X148350Y1204750D01*
Y1203250D01*
X147600Y1202500D02*X148350Y1203250D01*
X145350Y1202500D02*X147600D01*
X144600Y1203250D02*X145350Y1202500D01*
X98750D02*X101000Y1205500D01*
Y1207750D02*Y1205500D01*
X100250Y1208500D02*X101000Y1207750D01*
X98750Y1208500D02*X100250D01*
X98000Y1207750D02*X98750Y1208500D01*
X98000Y1207750D02*Y1206250D01*
X98750Y1205500D01*
X101000D01*
X45000Y1203250D02*X45750Y1202500D01*
X45000Y1207750D02*Y1203250D01*
Y1207750D02*X45750Y1208500D01*
X47250D01*
X48000Y1207750D01*
Y1203250D01*
X47250Y1202500D02*X48000Y1203250D01*
X45750Y1202500D02*X47250D01*
X45000Y1204000D02*X48000Y1207000D01*
X49800Y1202500D02*X50550D01*
X52350Y1203250D02*X53100Y1202500D01*
X52350Y1207750D02*Y1203250D01*
Y1207750D02*X53100Y1208500D01*
X54600D01*
X55350Y1207750D01*
Y1203250D01*
X54600Y1202500D02*X55350Y1203250D01*
X53100Y1202500D02*X54600D01*
X52350Y1204000D02*X55350Y1207000D01*
X57150Y1207750D02*X57900Y1208500D01*
X60150D01*
X60900Y1207750D01*
Y1206250D01*
X57150Y1202500D02*X60900Y1206250D01*
X57150Y1202500D02*X60900D01*
X62700Y1208500D02*X65700D01*
X62700D02*Y1205500D01*
X63450Y1206250D01*
X64950D01*
X65700Y1205500D01*
Y1203250D01*
X64950Y1202500D02*X65700Y1203250D01*
X63450Y1202500D02*X64950D01*
X62700Y1203250D02*X63450Y1202500D01*
X421200Y784000D02*G75*G03X422800Y784000I800J0D01*G01*
G75*G03X421200Y784000I-800J0D01*G01*
X427106D02*G75*G03X428706Y784000I800J0D01*G01*
G75*G03X427106Y784000I-800J0D01*G01*
X433011D02*G75*G03X434611Y784000I800J0D01*G01*
G75*G03X433011Y784000I-800J0D01*G01*
X14200Y1221250D02*G75*G03X15800Y1221250I800J0D01*G01*
G75*G03X14200Y1221250I-800J0D01*G01*
X135000Y1223500D02*X136500Y1220500D01*
X138000Y1223500D01*
X136500Y1220500D02*Y1217500D01*
X139800Y1220800D02*X142050D01*
X139800Y1217500D02*X142800D01*
X139800Y1223500D02*Y1217500D01*
Y1223500D02*X142800D01*
X147600D02*X148350Y1222750D01*
X145350Y1223500D02*X147600D01*
X144600Y1222750D02*X145350Y1223500D01*
X144600Y1222750D02*Y1221250D01*
X145350Y1220500D01*
X147600D01*
X148350Y1219750D01*
Y1218250D01*
X147600Y1217500D02*X148350Y1218250D01*
X145350Y1217500D02*X147600D01*
X144600Y1218250D02*X145350Y1217500D01*
X98000Y1222750D02*X98750Y1223500D01*
X100250D01*
X101000Y1222750D01*
X100250Y1217500D02*X101000Y1218250D01*
X98750Y1217500D02*X100250D01*
X98000Y1218250D02*X98750Y1217500D01*
Y1220800D02*X100250D01*
X101000Y1222750D02*Y1221550D01*
Y1220050D02*Y1218250D01*
Y1220050D02*X100250Y1220800D01*
X101000Y1221550D02*X100250Y1220800D01*
X45000Y1218250D02*X45750Y1217500D01*
X45000Y1222750D02*Y1218250D01*
Y1222750D02*X45750Y1223500D01*
X47250D01*
X48000Y1222750D01*
Y1218250D01*
X47250Y1217500D02*X48000Y1218250D01*
X45750Y1217500D02*X47250D01*
X45000Y1219000D02*X48000Y1222000D01*
X49800Y1217500D02*X50550D01*
X52350Y1218250D02*X53100Y1217500D01*
X52350Y1222750D02*Y1218250D01*
Y1222750D02*X53100Y1223500D01*
X54600D01*
X55350Y1222750D01*
Y1218250D01*
X54600Y1217500D02*X55350Y1218250D01*
X53100Y1217500D02*X54600D01*
X52350Y1219000D02*X55350Y1222000D01*
X57150Y1222750D02*X57900Y1223500D01*
X60150D01*
X60900Y1222750D01*
Y1221250D01*
X57150Y1217500D02*X60900Y1221250D01*
X57150Y1217500D02*X60900D01*
X62700Y1219750D02*X65700Y1223500D01*
X62700Y1219750D02*X66450D01*
X65700Y1223500D02*Y1217500D01*
X371839Y762964D02*X374239Y760564D01*
X371839D02*X374239Y762964D01*
X384438D02*X386838Y760564D01*
X384438D02*X386838Y762964D01*
X393099D02*X395499Y760564D01*
X393099D02*X395499Y762964D01*
X401761D02*X404161Y760564D01*
X401761D02*X404161Y762964D01*
X401761Y783043D02*X404161Y780643D01*
X401761D02*X404161Y783043D01*
X393099D02*X395499Y780643D01*
X393099D02*X395499Y783043D01*
X384438D02*X386838Y780643D01*
X384438D02*X386838Y783043D01*
X371839D02*X374239Y780643D01*
X371839D02*X374239Y783043D01*
X13800Y1237450D02*X16200Y1235050D01*
X13800D02*X16200Y1237450D01*
X135000Y1238500D02*X136500Y1235500D01*
X138000Y1238500D01*
X136500Y1235500D02*Y1232500D01*
X139800Y1235800D02*X142050D01*
X139800Y1232500D02*X142800D01*
X139800Y1238500D02*Y1232500D01*
Y1238500D02*X142800D01*
X147600D02*X148350Y1237750D01*
X145350Y1238500D02*X147600D01*
X144600Y1237750D02*X145350Y1238500D01*
X144600Y1237750D02*Y1236250D01*
X145350Y1235500D01*
X147600D01*
X148350Y1234750D01*
Y1233250D01*
X147600Y1232500D02*X148350Y1233250D01*
X145350Y1232500D02*X147600D01*
X144600Y1233250D02*X145350Y1232500D01*
X98000Y1233250D02*X98750Y1232500D01*
X98000Y1234450D02*Y1233250D01*
Y1234450D02*X99050Y1235500D01*
X99950D01*
X101000Y1234450D01*
Y1233250D01*
X100250Y1232500D02*X101000Y1233250D01*
X98750Y1232500D02*X100250D01*
X98000Y1236550D02*X99050Y1235500D01*
X98000Y1237750D02*Y1236550D01*
Y1237750D02*X98750Y1238500D01*
X100250D01*
X101000Y1237750D01*
Y1236550D01*
X99950Y1235500D02*X101000Y1236550D01*
X45000Y1233250D02*X45750Y1232500D01*
X45000Y1237750D02*Y1233250D01*
Y1237750D02*X45750Y1238500D01*
X47250D01*
X48000Y1237750D01*
Y1233250D01*
X47250Y1232500D02*X48000Y1233250D01*
X45750Y1232500D02*X47250D01*
X45000Y1234000D02*X48000Y1237000D01*
X49800Y1232500D02*X50550D01*
X52350Y1233250D02*X53100Y1232500D01*
X52350Y1237750D02*Y1233250D01*
Y1237750D02*X53100Y1238500D01*
X54600D01*
X55350Y1237750D01*
Y1233250D01*
X54600Y1232500D02*X55350Y1233250D01*
X53100Y1232500D02*X54600D01*
X52350Y1234000D02*X55350Y1237000D01*
X57150Y1237750D02*X57900Y1238500D01*
X60150D01*
X60900Y1237750D01*
Y1236250D01*
X57150Y1232500D02*X60900Y1236250D01*
X57150Y1232500D02*X60900D01*
X62700Y1233250D02*X63450Y1232500D01*
X62700Y1237750D02*Y1233250D01*
Y1237750D02*X63450Y1238500D01*
X64950D01*
X65700Y1237750D01*
Y1233250D01*
X64950Y1232500D02*X65700Y1233250D01*
X63450Y1232500D02*X64950D01*
X62700Y1234000D02*X65700Y1237000D01*
X265719Y587455D02*Y584255D01*
X264119Y585855D02*X267319D01*
X265719Y591785D02*Y588585D01*
X264119Y590185D02*X267319D01*
X15000Y1252850D02*Y1249650D01*
X13400Y1251250D02*X16600D01*
X135000Y1253500D02*X136500Y1250500D01*
X138000Y1253500D01*
X136500Y1250500D02*Y1247500D01*
X139800Y1250800D02*X142050D01*
X139800Y1247500D02*X142800D01*
X139800Y1253500D02*Y1247500D01*
Y1253500D02*X142800D01*
X147600D02*X148350Y1252750D01*
X145350Y1253500D02*X147600D01*
X144600Y1252750D02*X145350Y1253500D01*
X144600Y1252750D02*Y1251250D01*
X145350Y1250500D01*
X147600D01*
X148350Y1249750D01*
Y1248250D01*
X147600Y1247500D02*X148350Y1248250D01*
X145350Y1247500D02*X147600D01*
X144600Y1248250D02*X145350Y1247500D01*
X98000Y1252750D02*X98750Y1253500D01*
X101000D01*
X101750Y1252750D01*
Y1251250D01*
X98000Y1247500D02*X101750Y1251250D01*
X98000Y1247500D02*X101750D01*
X45000Y1248250D02*X45750Y1247500D01*
X45000Y1252750D02*Y1248250D01*
Y1252750D02*X45750Y1253500D01*
X47250D01*
X48000Y1252750D01*
Y1248250D01*
X47250Y1247500D02*X48000Y1248250D01*
X45750Y1247500D02*X47250D01*
X45000Y1249000D02*X48000Y1252000D01*
X49800Y1247500D02*X50550D01*
X52350Y1248250D02*X53100Y1247500D01*
X52350Y1252750D02*Y1248250D01*
Y1252750D02*X53100Y1253500D01*
X54600D01*
X55350Y1252750D01*
Y1248250D01*
X54600Y1247500D02*X55350Y1248250D01*
X53100Y1247500D02*X54600D01*
X52350Y1249000D02*X55350Y1252000D01*
X57150Y1252300D02*X58350Y1253500D01*
Y1247500D01*
X57150D02*X59400D01*
X63450Y1253500D02*X64200Y1252750D01*
X61950Y1253500D02*X63450D01*
X61200Y1252750D02*X61950Y1253500D01*
X61200Y1252750D02*Y1248250D01*
X61950Y1247500D01*
X63450Y1250800D02*X64200Y1250050D01*
X61200Y1250800D02*X63450D01*
X61950Y1247500D02*X63450D01*
X64200Y1248250D01*
Y1250050D02*Y1248250D01*
X406915Y624123D02*Y622523D01*
Y624123D02*X408302Y624923D01*
X406915Y624123D02*X405529Y624923D01*
X422915Y590023D02*Y588423D01*
Y590023D02*X424302Y590823D01*
X422915Y590023D02*X421529Y590823D01*
X376315Y620523D02*Y618923D01*
Y620523D02*X377702Y621323D01*
X376315Y620523D02*X374929Y621323D01*
X405592Y607046D02*Y605446D01*
Y607046D02*X406979Y607846D01*
X405592Y607046D02*X404205Y607846D01*
X336915Y580223D02*Y578623D01*
Y580223D02*X338302Y581023D01*
X336915Y580223D02*X335529Y581023D01*
X337815Y576423D02*Y574823D01*
Y576423D02*X339202Y577223D01*
X337815Y576423D02*X336429Y577223D01*
X341015Y574223D02*Y572623D01*
Y574223D02*X342402Y575023D01*
X341015Y574223D02*X339629Y575023D01*
X347615Y589423D02*Y587823D01*
Y589423D02*X349002Y590223D01*
X347615Y589423D02*X346229Y590223D01*
X333815Y589523D02*Y587923D01*
Y589523D02*X335202Y590323D01*
X333815Y589523D02*X332429Y590323D01*
X344515Y576123D02*Y574523D01*
Y576123D02*X345902Y576923D01*
X344515Y576123D02*X343129Y576923D01*
X164115Y551923D02*Y550323D01*
Y551923D02*X165502Y552723D01*
X164115Y551923D02*X162729Y552723D01*
X244015Y572523D02*Y570923D01*
Y572523D02*X245402Y573323D01*
X244015Y572523D02*X242629Y573323D01*
X351715Y649923D02*Y648323D01*
Y649923D02*X353102Y650723D01*
X351715Y649923D02*X350329Y650723D01*
X267906Y700914D02*Y699314D01*
Y700914D02*X269293Y701714D01*
X267906Y700914D02*X266520Y701714D01*
X249815Y697523D02*Y695923D01*
Y697523D02*X251202Y698323D01*
X249815Y697523D02*X248429Y698323D01*
X206415Y754123D02*Y752523D01*
Y754123D02*X207802Y754923D01*
X206415Y754123D02*X205029Y754923D01*
X231515Y729023D02*Y727423D01*
Y729023D02*X232902Y729823D01*
X231515Y729023D02*X230129Y729823D01*
X265815Y808823D02*Y807223D01*
Y808823D02*X267202Y809623D01*
X265815Y808823D02*X264429Y809623D01*
X231415Y814223D02*Y812623D01*
Y814223D02*X232802Y815023D01*
X231415Y814223D02*X230029Y815023D01*
X355715Y622023D02*Y620423D01*
Y622023D02*X357102Y622823D01*
X355715Y622023D02*X354329Y622823D01*
X181615Y791523D02*Y789923D01*
Y791523D02*X183002Y792323D01*
X181615Y791523D02*X180229Y792323D01*
X364615Y600123D02*Y598523D01*
Y600123D02*X366002Y600923D01*
X364615Y600123D02*X363229Y600923D01*
X379015Y740823D02*Y739223D01*
Y740823D02*X380402Y741623D01*
X379015Y740823D02*X377629Y741623D01*
X355715Y611323D02*Y609723D01*
Y611323D02*X357102Y612123D01*
X355715Y611323D02*X354329Y612123D01*
X364815Y632023D02*Y630423D01*
Y632023D02*X366202Y632823D01*
X364815Y632023D02*X363429Y632823D01*
X295615Y566323D02*Y564723D01*
Y566323D02*X297002Y567123D01*
X295615Y566323D02*X294229Y567123D01*
X181615Y797023D02*Y795423D01*
Y797023D02*X183002Y797823D01*
X181615Y797023D02*X180229Y797823D01*
X273115Y749023D02*Y747423D01*
Y749023D02*X274502Y749823D01*
X273115Y749023D02*X271729Y749823D01*
X153715Y548623D02*Y547023D01*
Y548623D02*X155102Y549423D01*
X153715Y548623D02*X152329Y549423D01*
X212115Y698123D02*Y696523D01*
Y698123D02*X213502Y698923D01*
X212115Y698123D02*X210729Y698923D01*
X257315Y660723D02*Y659123D01*
Y660723D02*X258702Y661523D01*
X257315Y660723D02*X255929Y661523D01*
X235015Y678623D02*Y677023D01*
Y678623D02*X236402Y679423D01*
X235015Y678623D02*X233629Y679423D01*
X188015Y705023D02*Y703423D01*
Y705023D02*X189402Y705823D01*
X188015Y705023D02*X186629Y705823D01*
X244915Y676123D02*Y674523D01*
Y676123D02*X246302Y676923D01*
X244915Y676123D02*X243529Y676923D01*
X201315Y731723D02*Y730123D01*
Y731723D02*X202702Y732523D01*
X201315Y731723D02*X199929Y732523D01*
X166015Y776423D02*Y774823D01*
Y776423D02*X167402Y777223D01*
X166015Y776423D02*X164629Y777223D01*
X187015Y804123D02*Y802523D01*
Y804123D02*X188402Y804923D01*
X187015Y804123D02*X185629Y804923D01*
X206915Y811823D02*Y810223D01*
Y811823D02*X208302Y812623D01*
X206915Y811823D02*X205529Y812623D01*
X241715Y805623D02*Y804023D01*
Y805623D02*X243102Y806423D01*
X241715Y805623D02*X240329Y806423D01*
X217015Y768923D02*Y767323D01*
Y768923D02*X218402Y769723D01*
X217015Y768923D02*X215629Y769723D01*
X242015Y760123D02*Y758523D01*
Y760123D02*X243402Y760923D01*
X242015Y760123D02*X240629Y760923D01*
X249315Y745023D02*Y743423D01*
Y745023D02*X250702Y745823D01*
X249315Y745023D02*X247929Y745823D01*
X252915Y765823D02*Y764223D01*
Y765823D02*X254302Y766623D01*
X252915Y765823D02*X251529Y766623D01*
X265015Y729023D02*Y727423D01*
Y729023D02*X266402Y729823D01*
X265015Y729023D02*X263629Y729823D01*
X330515Y708823D02*Y707223D01*
Y708823D02*X331902Y709623D01*
X330515Y708823D02*X329129Y709623D01*
X341215Y724023D02*Y722423D01*
Y724023D02*X342602Y724823D01*
X341215Y724023D02*X339829Y724823D01*
X330315Y722523D02*Y720923D01*
Y722523D02*X331702Y723323D01*
X330315Y722523D02*X328929Y723323D01*
X350015Y708723D02*Y707123D01*
Y708723D02*X351402Y709523D01*
X350015Y708723D02*X348629Y709523D01*
X362515Y702023D02*Y700423D01*
Y702023D02*X363902Y702823D01*
X362515Y702023D02*X361129Y702823D01*
X326015Y739223D02*Y737623D01*
Y739223D02*X327402Y740023D01*
X326015Y739223D02*X324629Y740023D01*
X402015Y741623D02*Y740023D01*
Y741623D02*X403402Y742423D01*
X402015Y741623D02*X400629Y742423D01*
X249415Y705023D02*Y703423D01*
Y705023D02*X250802Y705823D01*
X249415Y705023D02*X248029Y705823D01*
X276415Y714523D02*Y712923D01*
Y714523D02*X277802Y715323D01*
X276415Y714523D02*X275029Y715323D01*
X192515Y655523D02*Y653923D01*
Y655523D02*X193902Y656323D01*
X192515Y655523D02*X191129Y656323D01*
X192515Y645523D02*Y643923D01*
Y645523D02*X193902Y646323D01*
X192515Y645523D02*X191129Y646323D01*
X207115Y626023D02*Y624423D01*
Y626023D02*X208502Y626823D01*
X207115Y626023D02*X205729Y626823D01*
X204915Y613423D02*Y611823D01*
Y613423D02*X206302Y614223D01*
X204915Y613423D02*X203529Y614223D01*
X224515Y620523D02*Y618923D01*
Y620523D02*X225902Y621323D01*
X224515Y620523D02*X223129Y621323D01*
X195715Y535623D02*Y534023D01*
Y535623D02*X197102Y536423D01*
X195715Y535623D02*X194329Y536423D01*
X252015Y551223D02*Y549623D01*
Y551223D02*X253402Y552023D01*
X252015Y551223D02*X250629Y552023D01*
X263415Y534323D02*Y532723D01*
Y534323D02*X264802Y535123D01*
X263415Y534323D02*X262029Y535123D01*
X331715Y534923D02*Y533323D01*
Y534923D02*X333102Y535723D01*
X331715Y534923D02*X330329Y535723D01*
X397715Y533623D02*Y532023D01*
Y533623D02*X399102Y534423D01*
X397715Y533623D02*X396329Y534423D01*
X465715Y533923D02*Y532323D01*
Y533923D02*X467102Y534723D01*
X465715Y533923D02*X464329Y534723D01*
X278515Y623123D02*Y621523D01*
Y623123D02*X279902Y623923D01*
X278515Y623123D02*X277129Y623923D01*
X304215Y613823D02*Y612223D01*
Y613823D02*X305602Y614623D01*
X304215Y613823D02*X302829Y614623D01*
X329215Y640923D02*Y639323D01*
Y640923D02*X330602Y641723D01*
X329215Y640923D02*X327829Y641723D01*
X340915Y640923D02*Y639323D01*
Y640923D02*X342302Y641723D01*
X340915Y640923D02*X339529Y641723D01*
X352715Y640823D02*Y639223D01*
Y640823D02*X354102Y641623D01*
X352715Y640823D02*X351329Y641623D01*
X376215Y616223D02*Y614623D01*
Y616223D02*X377602Y617023D01*
X376215Y616223D02*X374829Y617023D01*
X327815Y589523D02*Y587923D01*
Y589523D02*X329202Y590323D01*
X327815Y589523D02*X326429Y590323D01*
X261015Y570923D02*Y569323D01*
Y570923D02*X262402Y571723D01*
X261015Y570923D02*X259629Y571723D01*
X257215Y600523D02*Y598923D01*
Y600523D02*X258602Y601323D01*
X257215Y600523D02*X255829Y601323D01*
X425515Y625923D02*Y624323D01*
Y625923D02*X426902Y626723D01*
X425515Y625923D02*X424129Y626723D01*
X405815Y599023D02*Y597423D01*
Y599023D02*X407202Y599823D01*
X405815Y599023D02*X404429Y599823D01*
X447115Y577823D02*Y576223D01*
Y577823D02*X448502Y578623D01*
X447115Y577823D02*X445729Y578623D01*
X471515Y577823D02*Y576223D01*
Y577823D02*X472902Y578623D01*
X471515Y577823D02*X470129Y578623D01*
X480015Y582023D02*Y580423D01*
Y582023D02*X481402Y582823D01*
X480015Y582023D02*X478629Y582823D01*
X483515Y635223D02*Y633623D01*
Y635223D02*X484902Y636023D01*
X483515Y635223D02*X482129Y636023D01*
X416415Y662523D02*Y660923D01*
Y662523D02*X417802Y663323D01*
X416415Y662523D02*X415029Y663323D01*
X284815Y692523D02*Y690923D01*
Y692523D02*X286202Y693323D01*
X284815Y692523D02*X283429Y693323D01*
X379415Y711723D02*Y710123D01*
Y711723D02*X380802Y712523D01*
X379415Y711723D02*X378029Y712523D01*
X379015Y707323D02*Y705723D01*
Y707323D02*X380402Y708123D01*
X379015Y707323D02*X377629Y708123D01*
X378515Y702923D02*Y701323D01*
Y702923D02*X379902Y703723D01*
X378515Y702923D02*X377129Y703723D01*
X371815Y703623D02*Y702023D01*
Y703623D02*X373202Y704423D01*
X371815Y703623D02*X370429Y704423D01*
X371315Y699223D02*Y697623D01*
Y699223D02*X372702Y700023D01*
X371315Y699223D02*X369929Y700023D01*
X378115Y698523D02*Y696923D01*
Y698523D02*X379502Y699323D01*
X378115Y698523D02*X376729Y699323D01*
X373315Y649923D02*Y648323D01*
Y649923D02*X374702Y650723D01*
X373315Y649923D02*X371929Y650723D01*
X373315Y645423D02*Y643823D01*
Y645423D02*X374702Y646223D01*
X373315Y645423D02*X371929Y646223D01*
X365815Y649923D02*Y648323D01*
Y649923D02*X367202Y650723D01*
X365815Y649923D02*X364429Y650723D01*
X365815Y645423D02*Y643823D01*
Y645423D02*X367202Y646223D01*
X365815Y645423D02*X364429Y646223D01*
X207915Y566123D02*Y564523D01*
Y566123D02*X209302Y566923D01*
X207915Y566123D02*X206529Y566923D01*
X15000Y1266250D02*Y1264650D01*
Y1266250D02*X16387Y1267050D01*
X15000Y1266250D02*X13613Y1267050D01*
X135000Y1268500D02*X136500Y1265500D01*
X138000Y1268500D01*
X136500Y1265500D02*Y1262500D01*
X139800Y1265800D02*X142050D01*
X139800Y1262500D02*X142800D01*
X139800Y1268500D02*Y1262500D01*
Y1268500D02*X142800D01*
X147600D02*X148350Y1267750D01*
X145350Y1268500D02*X147600D01*
X144600Y1267750D02*X145350Y1268500D01*
X144600Y1267750D02*Y1266250D01*
X145350Y1265500D01*
X147600D01*
X148350Y1264750D01*
Y1263250D01*
X147600Y1262500D02*X148350Y1263250D01*
X145350Y1262500D02*X147600D01*
X144600Y1263250D02*X145350Y1262500D01*
X98750D02*X101000Y1265500D01*
Y1267750D02*Y1265500D01*
X100250Y1268500D02*X101000Y1267750D01*
X98750Y1268500D02*X100250D01*
X98000Y1267750D02*X98750Y1268500D01*
X98000Y1267750D02*Y1266250D01*
X98750Y1265500D01*
X101000D01*
X102800Y1267750D02*X103550Y1268500D01*
X105800D01*
X106550Y1267750D01*
Y1266250D01*
X102800Y1262500D02*X106550Y1266250D01*
X102800Y1262500D02*X106550D01*
X45000Y1263250D02*X45750Y1262500D01*
X45000Y1267750D02*Y1263250D01*
Y1267750D02*X45750Y1268500D01*
X47250D01*
X48000Y1267750D01*
Y1263250D01*
X47250Y1262500D02*X48000Y1263250D01*
X45750Y1262500D02*X47250D01*
X45000Y1264000D02*X48000Y1267000D01*
X49800Y1262500D02*X50550D01*
X52350Y1263250D02*X53100Y1262500D01*
X52350Y1267750D02*Y1263250D01*
Y1267750D02*X53100Y1268500D01*
X54600D01*
X55350Y1267750D01*
Y1263250D01*
X54600Y1262500D02*X55350Y1263250D01*
X53100Y1262500D02*X54600D01*
X52350Y1264000D02*X55350Y1267000D01*
X57150Y1267300D02*X58350Y1268500D01*
Y1262500D01*
X57150D02*X59400D01*
X61200Y1267750D02*X61950Y1268500D01*
X64200D01*
X64950Y1267750D01*
Y1266250D01*
X61200Y1262500D02*X64950Y1266250D01*
X61200Y1262500D02*X64950D01*
X3000Y1283500D02*X3750Y1282750D01*
X750Y1283500D02*X3000D01*
X0Y1282750D02*X750Y1283500D01*
X0Y1282750D02*Y1281250D01*
X750Y1280500D01*
X3000D01*
X3750Y1279750D01*
Y1278250D01*
X3000Y1277500D02*X3750Y1278250D01*
X750Y1277500D02*X3000D01*
X0Y1278250D02*X750Y1277500D01*
X5550Y1280500D02*Y1278250D01*
X6300Y1277500D01*
X8550Y1280500D02*Y1276000D01*
X7800Y1275250D02*X8550Y1276000D01*
X6300Y1275250D02*X7800D01*
X5550Y1276000D02*X6300Y1275250D01*
Y1277500D02*X7800D01*
X8550Y1278250D01*
X11100Y1279750D02*Y1277500D01*
Y1279750D02*X11850Y1280500D01*
X12600D01*
X13350Y1279750D01*
Y1277500D01*
Y1279750D02*X14100Y1280500D01*
X14850D01*
X15600Y1279750D01*
Y1277500D01*
X10350Y1280500D02*X11100Y1279750D01*
X17400Y1283500D02*Y1277500D01*
Y1278250D02*X18150Y1277500D01*
X19650D01*
X20400Y1278250D01*
Y1279750D02*Y1278250D01*
X19650Y1280500D02*X20400Y1279750D01*
X18150Y1280500D02*X19650D01*
X17400Y1279750D02*X18150Y1280500D01*
X22200Y1279750D02*Y1278250D01*
Y1279750D02*X22950Y1280500D01*
X24450D01*
X25200Y1279750D01*
Y1278250D01*
X24450Y1277500D02*X25200Y1278250D01*
X22950Y1277500D02*X24450D01*
X22200Y1278250D02*X22950Y1277500D01*
X27000Y1283500D02*Y1278250D01*
X27750Y1277500D01*
X0Y1274250D02*X29250D01*
X41750Y1283500D02*Y1277500D01*
X43700Y1283500D02*X44750Y1282450D01*
Y1278550D01*
X43700Y1277500D02*X44750Y1278550D01*
X41000Y1277500D02*X43700D01*
X41000Y1283500D02*X43700D01*
G54D188*X46550Y1282000D02*Y1281850D01*
G54D187*Y1279750D02*Y1277500D01*
X50300Y1280500D02*X51050Y1279750D01*
X48800Y1280500D02*X50300D01*
X48050Y1279750D02*X48800Y1280500D01*
X48050Y1279750D02*Y1278250D01*
X48800Y1277500D01*
X51050Y1280500D02*Y1278250D01*
X51800Y1277500D01*
X48800D02*X50300D01*
X51050Y1278250D01*
X54350Y1279750D02*Y1277500D01*
Y1279750D02*X55100Y1280500D01*
X55850D01*
X56600Y1279750D01*
Y1277500D01*
Y1279750D02*X57350Y1280500D01*
X58100D01*
X58850Y1279750D01*
Y1277500D01*
X53600Y1280500D02*X54350Y1279750D01*
X60650Y1277500D02*X61400D01*
X65900Y1278250D02*X66650Y1277500D01*
X65900Y1282750D02*X66650Y1283500D01*
X65900Y1282750D02*Y1278250D01*
X68450Y1283500D02*X69950D01*
X69200D02*Y1277500D01*
X68450D02*X69950D01*
X72500Y1279750D02*Y1277500D01*
Y1279750D02*X73250Y1280500D01*
X74000D01*
X74750Y1279750D01*
Y1277500D01*
X71750Y1280500D02*X72500Y1279750D01*
X77300Y1280500D02*X79550D01*
X76550Y1279750D02*X77300Y1280500D01*
X76550Y1279750D02*Y1278250D01*
X77300Y1277500D01*
X79550D01*
X81350Y1283500D02*Y1277500D01*
Y1279750D02*X82100Y1280500D01*
X83600D01*
X84350Y1279750D01*
Y1277500D01*
X86150Y1283500D02*X86900Y1282750D01*
Y1278250D01*
X86150Y1277500D02*X86900Y1278250D01*
X41000Y1274250D02*X88700D01*
X96050Y1277500D02*X98000D01*
X95000Y1278550D02*X96050Y1277500D01*
X95000Y1282450D02*Y1278550D01*
Y1282450D02*X96050Y1283500D01*
X98000D01*
X99800Y1279750D02*Y1278250D01*
Y1279750D02*X100550Y1280500D01*
X102050D01*
X102800Y1279750D01*
Y1278250D01*
X102050Y1277500D02*X102800Y1278250D01*
X100550Y1277500D02*X102050D01*
X99800Y1278250D02*X100550Y1277500D01*
X104600Y1280500D02*Y1278250D01*
X105350Y1277500D01*
X106850D01*
X107600Y1278250D01*
Y1280500D02*Y1278250D01*
X110150Y1279750D02*Y1277500D01*
Y1279750D02*X110900Y1280500D01*
X111650D01*
X112400Y1279750D01*
Y1277500D01*
X109400Y1280500D02*X110150Y1279750D01*
X114950Y1283500D02*Y1278250D01*
X115700Y1277500D01*
X114200Y1281250D02*X115700D01*
X95000Y1274250D02*X117200D01*
X130750Y1283500D02*Y1277500D01*
X130000Y1283500D02*X133000D01*
X133750Y1282750D01*
Y1281250D01*
X133000Y1280500D02*X133750Y1281250D01*
X130750Y1280500D02*X133000D01*
X135550Y1283500D02*Y1278250D01*
X136300Y1277500D01*
X140050Y1280500D02*X140800Y1279750D01*
X138550Y1280500D02*X140050D01*
X137800Y1279750D02*X138550Y1280500D01*
X137800Y1279750D02*Y1278250D01*
X138550Y1277500D01*
X140800Y1280500D02*Y1278250D01*
X141550Y1277500D01*
X138550D02*X140050D01*
X140800Y1278250D01*
X144100Y1283500D02*Y1278250D01*
X144850Y1277500D01*
X143350Y1281250D02*X144850D01*
X147100Y1277500D02*X149350D01*
X146350Y1278250D02*X147100Y1277500D01*
X146350Y1279750D02*Y1278250D01*
Y1279750D02*X147100Y1280500D01*
X148600D01*
X149350Y1279750D01*
X146350Y1279000D02*X149350D01*
Y1279750D02*Y1279000D01*
X154150Y1283500D02*Y1277500D01*
X153400D02*X154150Y1278250D01*
X151900Y1277500D02*X153400D01*
X151150Y1278250D02*X151900Y1277500D01*
X151150Y1279750D02*Y1278250D01*
Y1279750D02*X151900Y1280500D01*
X153400D01*
X154150Y1279750D01*
X157450Y1280500D02*Y1279750D01*
Y1278250D02*Y1277500D01*
X155950Y1282750D02*Y1282000D01*
Y1282750D02*X156700Y1283500D01*
X158200D01*
X158950Y1282750D01*
Y1282000D01*
X157450Y1280500D02*X158950Y1282000D01*
X130000Y1274250D02*X160750D01*
X0Y1298500D02*X3000D01*
X1500D02*Y1292500D01*
X4800Y1298500D02*Y1292500D01*
Y1294750D02*X5550Y1295500D01*
X7050D01*
X7800Y1294750D01*
Y1292500D01*
X10350D02*X12600D01*
X9600Y1293250D02*X10350Y1292500D01*
X9600Y1294750D02*Y1293250D01*
Y1294750D02*X10350Y1295500D01*
X11850D01*
X12600Y1294750D01*
X9600Y1294000D02*X12600D01*
Y1294750D02*Y1294000D01*
X15150Y1294750D02*Y1292500D01*
Y1294750D02*X15900Y1295500D01*
X17400D01*
X14400D02*X15150Y1294750D01*
X19950Y1292500D02*X22200D01*
X19200Y1293250D02*X19950Y1292500D01*
X19200Y1294750D02*Y1293250D01*
Y1294750D02*X19950Y1295500D01*
X21450D01*
X22200Y1294750D01*
X19200Y1294000D02*X22200D01*
Y1294750D02*Y1294000D01*
X28950Y1295500D02*X29700Y1294750D01*
X27450Y1295500D02*X28950D01*
X26700Y1294750D02*X27450Y1295500D01*
X26700Y1294750D02*Y1293250D01*
X27450Y1292500D01*
X29700Y1295500D02*Y1293250D01*
X30450Y1292500D01*
X27450D02*X28950D01*
X29700Y1293250D01*
X33000Y1294750D02*Y1292500D01*
Y1294750D02*X33750Y1295500D01*
X35250D01*
X32250D02*X33000Y1294750D01*
X37800Y1292500D02*X40050D01*
X37050Y1293250D02*X37800Y1292500D01*
X37050Y1294750D02*Y1293250D01*
Y1294750D02*X37800Y1295500D01*
X39300D01*
X40050Y1294750D01*
X37050Y1294000D02*X40050D01*
Y1294750D02*Y1294000D01*
X44550Y1297300D02*X45750Y1298500D01*
Y1292500D01*
X44550D02*X46800D01*
X49350D02*X52350Y1298500D01*
X48600D02*X52350D01*
X59850D02*Y1292500D01*
X59100D02*X59850Y1293250D01*
X57600Y1292500D02*X59100D01*
X56850Y1293250D02*X57600Y1292500D01*
X56850Y1294750D02*Y1293250D01*
Y1294750D02*X57600Y1295500D01*
X59100D01*
X59850Y1294750D01*
G54D188*X61650Y1297000D02*Y1296850D01*
G54D187*Y1294750D02*Y1292500D01*
X63900Y1297750D02*Y1292500D01*
Y1297750D02*X64650Y1298500D01*
X65400D01*
X63150Y1295500D02*X64650D01*
X67650Y1297750D02*Y1292500D01*
Y1297750D02*X68400Y1298500D01*
X69150D01*
X66900Y1295500D02*X68400D01*
X71400Y1292500D02*X73650D01*
X70650Y1293250D02*X71400Y1292500D01*
X70650Y1294750D02*Y1293250D01*
Y1294750D02*X71400Y1295500D01*
X72900D01*
X73650Y1294750D01*
X70650Y1294000D02*X73650D01*
Y1294750D02*Y1294000D01*
X76200Y1294750D02*Y1292500D01*
Y1294750D02*X76950Y1295500D01*
X78450D01*
X75450D02*X76200Y1294750D01*
X81000Y1292500D02*X83250D01*
X80250Y1293250D02*X81000Y1292500D01*
X80250Y1294750D02*Y1293250D01*
Y1294750D02*X81000Y1295500D01*
X82500D01*
X83250Y1294750D01*
X80250Y1294000D02*X83250D01*
Y1294750D02*Y1294000D01*
X85800Y1294750D02*Y1292500D01*
Y1294750D02*X86550Y1295500D01*
X87300D01*
X88050Y1294750D01*
Y1292500D01*
X85050Y1295500D02*X85800Y1294750D01*
X90600Y1298500D02*Y1293250D01*
X91350Y1292500D01*
X89850Y1296250D02*X91350D01*
X98550Y1298500D02*Y1292500D01*
X97800D02*X98550Y1293250D01*
X96300Y1292500D02*X97800D01*
X95550Y1293250D02*X96300Y1292500D01*
X95550Y1294750D02*Y1293250D01*
Y1294750D02*X96300Y1295500D01*
X97800D01*
X98550Y1294750D01*
X101100D02*Y1292500D01*
Y1294750D02*X101850Y1295500D01*
X103350D01*
X100350D02*X101100Y1294750D01*
G54D188*X105150Y1297000D02*Y1296850D01*
G54D187*Y1294750D02*Y1292500D01*
X106650Y1298500D02*Y1293250D01*
X107400Y1292500D01*
X108900Y1298500D02*Y1293250D01*
X109650Y1292500D01*
X114600D02*X116850D01*
X117600Y1293250D01*
X116850Y1294000D02*X117600Y1293250D01*
X114600Y1294000D02*X116850D01*
X113850Y1294750D02*X114600Y1294000D01*
X113850Y1294750D02*X114600Y1295500D01*
X116850D01*
X117600Y1294750D01*
X113850Y1293250D02*X114600Y1292500D01*
G54D188*X119400Y1297000D02*Y1296850D01*
G54D187*Y1294750D02*Y1292500D01*
X120900Y1295500D02*X123900D01*
X120900Y1292500D02*X123900Y1295500D01*
X120900Y1292500D02*X123900D01*
X126450D02*X128700D01*
X125700Y1293250D02*X126450Y1292500D01*
X125700Y1294750D02*Y1293250D01*
Y1294750D02*X126450Y1295500D01*
X127950D01*
X128700Y1294750D01*
X125700Y1294000D02*X128700D01*
Y1294750D02*Y1294000D01*
X131250Y1292500D02*X133500D01*
X134250Y1293250D01*
X133500Y1294000D02*X134250Y1293250D01*
X131250Y1294000D02*X133500D01*
X130500Y1294750D02*X131250Y1294000D01*
X130500Y1294750D02*X131250Y1295500D01*
X133500D01*
X134250Y1294750D01*
X130500Y1293250D02*X131250Y1292500D01*
X138750Y1295500D02*Y1293250D01*
X139500Y1292500D01*
X141000D01*
X141750Y1293250D01*
Y1295500D02*Y1293250D01*
X144300Y1292500D02*X146550D01*
X147300Y1293250D01*
X146550Y1294000D02*X147300Y1293250D01*
X144300Y1294000D02*X146550D01*
X143550Y1294750D02*X144300Y1294000D01*
X143550Y1294750D02*X144300Y1295500D01*
X146550D01*
X147300Y1294750D01*
X143550Y1293250D02*X144300Y1292500D01*
X149850D02*X152100D01*
X149100Y1293250D02*X149850Y1292500D01*
X149100Y1294750D02*Y1293250D01*
Y1294750D02*X149850Y1295500D01*
X151350D01*
X152100Y1294750D01*
X149100Y1294000D02*X152100D01*
Y1294750D02*Y1294000D01*
X156900Y1298500D02*Y1292500D01*
X156150D02*X156900Y1293250D01*
X154650Y1292500D02*X156150D01*
X153900Y1293250D02*X154650Y1292500D01*
X153900Y1294750D02*Y1293250D01*
Y1294750D02*X154650Y1295500D01*
X156150D01*
X156900Y1294750D01*
G54D188*X161400Y1297000D02*Y1296850D01*
G54D187*Y1294750D02*Y1292500D01*
X163650Y1294750D02*Y1292500D01*
Y1294750D02*X164400Y1295500D01*
X165150D01*
X165900Y1294750D01*
Y1292500D01*
X162900Y1295500D02*X163650Y1294750D01*
X171150Y1298500D02*Y1293250D01*
X171900Y1292500D01*
X170400Y1296250D02*X171900D01*
X173400Y1298500D02*Y1292500D01*
Y1294750D02*X174150Y1295500D01*
X175650D01*
X176400Y1294750D01*
Y1292500D01*
G54D188*X178200Y1297000D02*Y1296850D01*
G54D187*Y1294750D02*Y1292500D01*
X180450D02*X182700D01*
X183450Y1293250D01*
X182700Y1294000D02*X183450Y1293250D01*
X180450Y1294000D02*X182700D01*
X179700Y1294750D02*X180450Y1294000D01*
X179700Y1294750D02*X180450Y1295500D01*
X182700D01*
X183450Y1294750D01*
X179700Y1293250D02*X180450Y1292500D01*
X187950Y1298500D02*Y1293250D01*
X188700Y1292500D01*
X192450Y1295500D02*X193200Y1294750D01*
X190950Y1295500D02*X192450D01*
X190200Y1294750D02*X190950Y1295500D01*
X190200Y1294750D02*Y1293250D01*
X190950Y1292500D01*
X193200Y1295500D02*Y1293250D01*
X193950Y1292500D01*
X190950D02*X192450D01*
X193200Y1293250D01*
X195750Y1295500D02*Y1293250D01*
X196500Y1292500D01*
X198750Y1295500D02*Y1291000D01*
X198000Y1290250D02*X198750Y1291000D01*
X196500Y1290250D02*X198000D01*
X195750Y1291000D02*X196500Y1290250D01*
Y1292500D02*X198000D01*
X198750Y1293250D01*
X200550Y1294750D02*Y1293250D01*
Y1294750D02*X201300Y1295500D01*
X202800D01*
X203550Y1294750D01*
Y1293250D01*
X202800Y1292500D02*X203550Y1293250D01*
X201300Y1292500D02*X202800D01*
X200550Y1293250D02*X201300Y1292500D01*
X205350Y1295500D02*Y1293250D01*
X206100Y1292500D01*
X207600D01*
X208350Y1293250D01*
Y1295500D02*Y1293250D01*
X210900Y1298500D02*Y1293250D01*
X211650Y1292500D01*
X210150Y1296250D02*X211650D01*
X213150Y1291000D02*X214650Y1292500D01*
X219150Y1297750D02*X219900Y1298500D01*
X222150D01*
X222900Y1297750D01*
Y1296250D01*
X219150Y1292500D02*X222900Y1296250D01*
X219150Y1292500D02*X222900D01*
X224700Y1293250D02*X225450Y1292500D01*
X224700Y1297750D02*Y1293250D01*
Y1297750D02*X225450Y1298500D01*
X226950D01*
X227700Y1297750D01*
Y1293250D01*
X226950Y1292500D02*X227700Y1293250D01*
X225450Y1292500D02*X226950D01*
X224700Y1294000D02*X227700Y1297000D01*
X229500Y1293250D02*X230250Y1292500D01*
X229500Y1297750D02*Y1293250D01*
Y1297750D02*X230250Y1298500D01*
X231750D01*
X232500Y1297750D01*
Y1293250D01*
X231750Y1292500D02*X232500Y1293250D01*
X230250Y1292500D02*X231750D01*
X229500Y1294000D02*X232500Y1297000D01*
X237000Y1298500D02*Y1292500D01*
Y1294750D02*X237750Y1295500D01*
X239250D01*
X240000Y1294750D01*
Y1292500D01*
X241800Y1294750D02*Y1293250D01*
Y1294750D02*X242550Y1295500D01*
X244050D01*
X244800Y1294750D01*
Y1293250D01*
X244050Y1292500D02*X244800Y1293250D01*
X242550Y1292500D02*X244050D01*
X241800Y1293250D02*X242550Y1292500D01*
X246600Y1298500D02*Y1293250D01*
X247350Y1292500D01*
X249600D02*X251850D01*
X248850Y1293250D02*X249600Y1292500D01*
X248850Y1294750D02*Y1293250D01*
Y1294750D02*X249600Y1295500D01*
X251100D01*
X251850Y1294750D01*
X248850Y1294000D02*X251850D01*
Y1294750D02*Y1294000D01*
X254400Y1292500D02*X256650D01*
X257400Y1293250D01*
X256650Y1294000D02*X257400Y1293250D01*
X254400Y1294000D02*X256650D01*
X253650Y1294750D02*X254400Y1294000D01*
X253650Y1294750D02*X254400Y1295500D01*
X256650D01*
X257400Y1294750D01*
X253650Y1293250D02*X254400Y1292500D01*
X262650Y1298500D02*Y1293250D01*
X263400Y1292500D01*
X261900Y1296250D02*X263400D01*
X264900Y1294750D02*Y1293250D01*
Y1294750D02*X265650Y1295500D01*
X267150D01*
X267900Y1294750D01*
Y1293250D01*
X267150Y1292500D02*X267900Y1293250D01*
X265650Y1292500D02*X267150D01*
X264900Y1293250D02*X265650Y1292500D01*
X270450Y1298500D02*Y1293250D01*
X271200Y1292500D01*
X269700Y1296250D02*X271200D01*
X274950Y1295500D02*X275700Y1294750D01*
X273450Y1295500D02*X274950D01*
X272700Y1294750D02*X273450Y1295500D01*
X272700Y1294750D02*Y1293250D01*
X273450Y1292500D01*
X275700Y1295500D02*Y1293250D01*
X276450Y1292500D01*
X273450D02*X274950D01*
X275700Y1293250D01*
X278250Y1298500D02*Y1293250D01*
X279000Y1292500D01*
G54D189*X151000Y826000D02*X479000D01*
X494000Y811000D02*Y511000D01*
X479000Y496000D02*X151000D01*
X136000Y511000D02*Y811000D01*
X151000Y826000D02*G75*G03X136000Y811000I0J-15000D01*G01*
X479000Y826000D02*G75*G02X494000Y811000I0J-15000D01*G01*
X479000Y496000D02*G75*G03X494000Y511000I0J15000D01*G01*
X136000Y512000D02*G75*G03X152000Y496000I16000J0D01*G01*
G54D187*X413675Y-9500D02*X416675D01*
X417425Y-8750D01*
Y-6950D02*Y-8750D01*
X416675Y-6200D02*X417425Y-6950D01*
X414425Y-6200D02*X416675D01*
X414425Y-3500D02*Y-9500D01*
X413675Y-3500D02*X416675D01*
X417425Y-4250D01*
Y-5450D01*
X416675Y-6200D02*X417425Y-5450D01*
X419225Y-7250D02*Y-8750D01*
Y-7250D02*X419975Y-6500D01*
X421475D01*
X422225Y-7250D01*
Y-8750D01*
X421475Y-9500D02*X422225Y-8750D01*
X419975Y-9500D02*X421475D01*
X419225Y-8750D02*X419975Y-9500D01*
X426275Y-6500D02*X427025Y-7250D01*
X424775Y-6500D02*X426275D01*
X424025Y-7250D02*X424775Y-6500D01*
X424025Y-7250D02*Y-8750D01*
X424775Y-9500D01*
X427025Y-6500D02*Y-8750D01*
X427775Y-9500D01*
X424775D02*X426275D01*
X427025Y-8750D01*
X430325Y-7250D02*Y-9500D01*
Y-7250D02*X431075Y-6500D01*
X432575D01*
X429575D02*X430325Y-7250D01*
X437375Y-3500D02*Y-9500D01*
X436625D02*X437375Y-8750D01*
X435125Y-9500D02*X436625D01*
X434375Y-8750D02*X435125Y-9500D01*
X434375Y-7250D02*Y-8750D01*
Y-7250D02*X435125Y-6500D01*
X436625D01*
X437375Y-7250D01*
X441875D02*Y-8750D01*
Y-7250D02*X442625Y-6500D01*
X444125D01*
X444875Y-7250D01*
Y-8750D01*
X444125Y-9500D02*X444875Y-8750D01*
X442625Y-9500D02*X444125D01*
X441875Y-8750D02*X442625Y-9500D01*
X446675Y-6500D02*Y-8750D01*
X447425Y-9500D01*
X448925D01*
X449675Y-8750D01*
Y-6500D02*Y-8750D01*
X452225Y-3500D02*Y-8750D01*
X452975Y-9500D01*
X451475Y-5750D02*X452975D01*
X454475Y-3500D02*Y-8750D01*
X455225Y-9500D01*
G54D188*X456725Y-5000D02*Y-5150D01*
G54D187*Y-7250D02*Y-9500D01*
X458975Y-7250D02*Y-9500D01*
Y-7250D02*X459725Y-6500D01*
X460475D01*
X461225Y-7250D01*
Y-9500D01*
X458225Y-6500D02*X458975Y-7250D01*
X463775Y-9500D02*X466025D01*
X463025Y-8750D02*X463775Y-9500D01*
X463025Y-7250D02*Y-8750D01*
Y-7250D02*X463775Y-6500D01*
X465275D01*
X466025Y-7250D01*
X463025Y-8000D02*X466025D01*
Y-7250D02*Y-8000D01*
G54D188*X470525Y-5000D02*Y-5150D01*
G54D187*Y-7250D02*Y-9500D01*
X472775D02*X475025D01*
X475775Y-8750D01*
X475025Y-8000D02*X475775Y-8750D01*
X472775Y-8000D02*X475025D01*
X472025Y-7250D02*X472775Y-8000D01*
X472025Y-7250D02*X472775Y-6500D01*
X475025D01*
X475775Y-7250D01*
X472025Y-8750D02*X472775Y-9500D01*
X481025Y-3500D02*Y-8750D01*
X481775Y-9500D01*
X480275Y-5750D02*X481775D01*
X483275Y-3500D02*Y-9500D01*
Y-7250D02*X484025Y-6500D01*
X485525D01*
X486275Y-7250D01*
Y-9500D01*
X488825D02*X491075D01*
X488075Y-8750D02*X488825Y-9500D01*
X488075Y-7250D02*Y-8750D01*
Y-7250D02*X488825Y-6500D01*
X490325D01*
X491075Y-7250D01*
X488075Y-8000D02*X491075D01*
Y-7250D02*Y-8000D01*
X496325Y-6500D02*X498575D01*
X495575Y-7250D02*X496325Y-6500D01*
X495575Y-7250D02*Y-8750D01*
X496325Y-9500D01*
X498575D01*
X501125D02*X503375D01*
X500375Y-8750D02*X501125Y-9500D01*
X500375Y-7250D02*Y-8750D01*
Y-7250D02*X501125Y-6500D01*
X502625D01*
X503375Y-7250D01*
X500375Y-8000D02*X503375D01*
Y-7250D02*Y-8000D01*
X505925Y-7250D02*Y-9500D01*
Y-7250D02*X506675Y-6500D01*
X507425D01*
X508175Y-7250D01*
Y-9500D01*
X505175Y-6500D02*X505925Y-7250D01*
X510725Y-3500D02*Y-8750D01*
X511475Y-9500D01*
X509975Y-5750D02*X511475D01*
X513725Y-9500D02*X515975D01*
X512975Y-8750D02*X513725Y-9500D01*
X512975Y-7250D02*Y-8750D01*
Y-7250D02*X513725Y-6500D01*
X515225D01*
X515975Y-7250D01*
X512975Y-8000D02*X515975D01*
Y-7250D02*Y-8000D01*
X518525Y-7250D02*Y-9500D01*
Y-7250D02*X519275Y-6500D01*
X520775D01*
X517775D02*X518525Y-7250D01*
X522575Y-3500D02*Y-8750D01*
X523325Y-9500D01*
G54D188*X524825Y-5000D02*Y-5150D01*
G54D187*Y-7250D02*Y-9500D01*
X527075Y-7250D02*Y-9500D01*
Y-7250D02*X527825Y-6500D01*
X528575D01*
X529325Y-7250D01*
Y-9500D01*
X526325Y-6500D02*X527075Y-7250D01*
X531875Y-9500D02*X534125D01*
X531125Y-8750D02*X531875Y-9500D01*
X531125Y-7250D02*Y-8750D01*
Y-7250D02*X531875Y-6500D01*
X533375D01*
X534125Y-7250D01*
X531125Y-8000D02*X534125D01*
Y-7250D02*Y-8000D01*
X538625Y-7250D02*Y-8750D01*
Y-7250D02*X539375Y-6500D01*
X540875D01*
X541625Y-7250D01*
Y-8750D01*
X540875Y-9500D02*X541625Y-8750D01*
X539375Y-9500D02*X540875D01*
X538625Y-8750D02*X539375Y-9500D01*
X544175Y-4250D02*Y-9500D01*
Y-4250D02*X544925Y-3500D01*
X545675D01*
X543425Y-6500D02*X544925D01*
X550625Y-3500D02*Y-8750D01*
X551375Y-9500D01*
X549875Y-5750D02*X551375D01*
X552875Y-3500D02*Y-9500D01*
Y-7250D02*X553625Y-6500D01*
X555125D01*
X555875Y-7250D01*
Y-9500D01*
G54D188*X557675Y-5000D02*Y-5150D01*
G54D187*Y-7250D02*Y-9500D01*
X559925D02*X562175D01*
X562925Y-8750D01*
X562175Y-8000D02*X562925Y-8750D01*
X559925Y-8000D02*X562175D01*
X559175Y-7250D02*X559925Y-8000D01*
X559175Y-7250D02*X559925Y-6500D01*
X562175D01*
X562925Y-7250D01*
X559175Y-8750D02*X559925Y-9500D01*
X568175Y-7250D02*Y-11750D01*
X567425Y-6500D02*X568175Y-7250D01*
X568925Y-6500D01*
X570425D01*
X571175Y-7250D01*
Y-8750D01*
X570425Y-9500D02*X571175Y-8750D01*
X568925Y-9500D02*X570425D01*
X568175Y-8750D02*X568925Y-9500D01*
X575225Y-6500D02*X575975Y-7250D01*
X573725Y-6500D02*X575225D01*
X572975Y-7250D02*X573725Y-6500D01*
X572975Y-7250D02*Y-8750D01*
X573725Y-9500D01*
X575975Y-6500D02*Y-8750D01*
X576725Y-9500D01*
X573725D02*X575225D01*
X575975Y-8750D01*
X579275Y-3500D02*Y-8750D01*
X580025Y-9500D01*
X578525Y-5750D02*X580025D01*
X581525Y-3500D02*Y-9500D01*
Y-7250D02*X582275Y-6500D01*
X583775D01*
X584525Y-7250D01*
Y-9500D01*
X200750Y1028500D02*Y1022500D01*
X202700Y1028500D02*X203750Y1027450D01*
Y1023550D01*
X202700Y1022500D02*X203750Y1023550D01*
X200000Y1022500D02*X202700D01*
X200000Y1028500D02*X202700D01*
X207800Y1025500D02*X208550Y1024750D01*
X206300Y1025500D02*X207800D01*
X205550Y1024750D02*X206300Y1025500D01*
X205550Y1024750D02*Y1023250D01*
X206300Y1022500D01*
X208550Y1025500D02*Y1023250D01*
X209300Y1022500D01*
X206300D02*X207800D01*
X208550Y1023250D01*
X211850Y1028500D02*Y1023250D01*
X212600Y1022500D01*
X211100Y1026250D02*X212600D01*
X214850Y1022500D02*X217100D01*
X214100Y1023250D02*X214850Y1022500D01*
X214100Y1024750D02*Y1023250D01*
Y1024750D02*X214850Y1025500D01*
X216350D01*
X217100Y1024750D01*
X214100Y1024000D02*X217100D01*
Y1024750D02*Y1024000D01*
X218900Y1026250D02*X219650D01*
X218900Y1024750D02*X219650D01*
G54D188*X224900Y1027000D02*Y1026850D01*
G54D187*Y1024750D02*Y1021000D01*
X224150Y1020250D02*X224900Y1021000D01*
X226400Y1025500D02*Y1023250D01*
X227150Y1022500D01*
X228650D01*
X229400Y1023250D01*
Y1025500D02*Y1023250D01*
X231950Y1022500D02*X234200D01*
X231200Y1023250D02*X231950Y1022500D01*
X231200Y1024750D02*Y1023250D01*
Y1024750D02*X231950Y1025500D01*
X233450D01*
X234200Y1024750D01*
X231200Y1024000D02*X234200D01*
Y1024750D02*Y1024000D01*
X238700Y1027750D02*X239450Y1028500D01*
X241700D01*
X242450Y1027750D01*
Y1026250D01*
X238700Y1022500D02*X242450Y1026250D01*
X238700Y1022500D02*X242450D01*
X244250Y1024750D02*X247250Y1028500D01*
X244250Y1024750D02*X248000D01*
X247250Y1028500D02*Y1022500D01*
X252500Y1024750D02*Y1023250D01*
Y1024750D02*X253250Y1025500D01*
X254750D01*
X255500Y1024750D01*
Y1023250D01*
X254750Y1022500D02*X255500Y1023250D01*
X253250Y1022500D02*X254750D01*
X252500Y1023250D02*X253250Y1022500D01*
X258050Y1025500D02*X260300D01*
X257300Y1024750D02*X258050Y1025500D01*
X257300Y1024750D02*Y1023250D01*
X258050Y1022500D01*
X260300D01*
X262850Y1028500D02*Y1023250D01*
X263600Y1022500D01*
X262100Y1026250D02*X263600D01*
X267800Y1027750D02*X268550Y1028500D01*
X270800D01*
X271550Y1027750D01*
Y1026250D01*
X267800Y1022500D02*X271550Y1026250D01*
X267800Y1022500D02*X271550D01*
X273350Y1023250D02*X274100Y1022500D01*
X273350Y1027750D02*Y1023250D01*
Y1027750D02*X274100Y1028500D01*
X275600D01*
X276350Y1027750D01*
Y1023250D01*
X275600Y1022500D02*X276350Y1023250D01*
X274100Y1022500D02*X275600D01*
X273350Y1024000D02*X276350Y1027000D01*
X278150Y1027300D02*X279350Y1028500D01*
Y1022500D01*
X278150D02*X280400D01*
X282200Y1027750D02*X282950Y1028500D01*
X284450D01*
X285200Y1027750D01*
X284450Y1022500D02*X285200Y1023250D01*
X282950Y1022500D02*X284450D01*
X282200Y1023250D02*X282950Y1022500D01*
Y1025800D02*X284450D01*
X285200Y1027750D02*Y1026550D01*
Y1025050D02*Y1023250D01*
Y1025050D02*X284450Y1025800D01*
X285200Y1026550D02*X284450Y1025800D01*
X289700Y1027300D02*X290900Y1028500D01*
Y1022500D01*
X289700D02*X291950D01*
X293750Y1028500D02*X296750D01*
X293750D02*Y1025500D01*
X294500Y1026250D01*
X296000D01*
X296750Y1025500D01*
Y1023250D01*
X296000Y1022500D02*X296750Y1023250D01*
X294500Y1022500D02*X296000D01*
X293750Y1023250D02*X294500Y1022500D01*
X298550Y1026250D02*X299300D01*
X298550Y1024750D02*X299300D01*
X301100D02*X304100Y1028500D01*
X301100Y1024750D02*X304850D01*
X304100Y1028500D02*Y1022500D01*
X306650Y1027750D02*X307400Y1028500D01*
X309650D01*
X310400Y1027750D01*
Y1026250D01*
X306650Y1022500D02*X310400Y1026250D01*
X306650Y1022500D02*X310400D01*
X312200Y1026250D02*X312950D01*
X312200Y1024750D02*X312950D01*
X314750D02*X317750Y1028500D01*
X314750Y1024750D02*X318500D01*
X317750Y1028500D02*Y1022500D01*
X321050D02*X323300Y1025500D01*
Y1027750D02*Y1025500D01*
X322550Y1028500D02*X323300Y1027750D01*
X321050Y1028500D02*X322550D01*
X320300Y1027750D02*X321050Y1028500D01*
X320300Y1027750D02*Y1026250D01*
X321050Y1025500D01*
X323300D01*
X330800Y1028500D02*X331550Y1027750D01*
X328550Y1028500D02*X330800D01*
X327800Y1027750D02*X328550Y1028500D01*
X327800Y1027750D02*Y1023250D01*
X328550Y1022500D01*
X330800D01*
X331550Y1023250D01*
Y1024750D02*Y1023250D01*
X330800Y1025500D02*X331550Y1024750D01*
X329300Y1025500D02*X330800D01*
X333350Y1028500D02*Y1022500D01*
Y1028500D02*X335600Y1025500D01*
X337850Y1028500D01*
Y1022500D01*
X339650Y1028500D02*X342650D01*
X341150D02*Y1022500D01*
X347150Y1028500D02*Y1023250D01*
X347900Y1022500D01*
X349400D01*
X350150Y1023250D01*
Y1028500D02*Y1023250D01*
X351950Y1028500D02*X354950D01*
X353450D02*Y1022500D01*
X357800D02*X359750D01*
X356750Y1023550D02*X357800Y1022500D01*
X356750Y1027450D02*Y1023550D01*
Y1027450D02*X357800Y1028500D01*
X359750D01*
X200000Y1042000D02*Y1037500D01*
Y1042000D02*X201050Y1043500D01*
X202700D01*
X203750Y1042000D01*
Y1037500D01*
X200000Y1040500D02*X203750D01*
X205550D02*Y1038250D01*
X206300Y1037500D01*
X207800D01*
X208550Y1038250D01*
Y1040500D02*Y1038250D01*
X211100Y1043500D02*Y1038250D01*
X211850Y1037500D01*
X210350Y1041250D02*X211850D01*
X213350Y1043500D02*Y1037500D01*
Y1039750D02*X214100Y1040500D01*
X215600D01*
X216350Y1039750D01*
Y1037500D01*
X218150Y1039750D02*Y1038250D01*
Y1039750D02*X218900Y1040500D01*
X220400D01*
X221150Y1039750D01*
Y1038250D01*
X220400Y1037500D02*X221150Y1038250D01*
X218900Y1037500D02*X220400D01*
X218150Y1038250D02*X218900Y1037500D01*
X223700Y1039750D02*Y1037500D01*
Y1039750D02*X224450Y1040500D01*
X225950D01*
X222950D02*X223700Y1039750D01*
X227750Y1041250D02*X228500D01*
X227750Y1039750D02*X228500D01*
X200000Y1058500D02*X203000D01*
X201500D02*Y1052500D01*
G54D188*X204800Y1057000D02*Y1056850D01*
G54D187*Y1054750D02*Y1052500D01*
X207050Y1058500D02*Y1053250D01*
X207800Y1052500D01*
X206300Y1056250D02*X207800D01*
X209300Y1058500D02*Y1053250D01*
X210050Y1052500D01*
X212300D02*X214550D01*
X211550Y1053250D02*X212300Y1052500D01*
X211550Y1054750D02*Y1053250D01*
Y1054750D02*X212300Y1055500D01*
X213800D01*
X214550Y1054750D01*
X211550Y1054000D02*X214550D01*
Y1054750D02*Y1054000D01*
X216350Y1056250D02*X217100D01*
X216350Y1054750D02*X217100D01*
X221600Y1052500D02*X224600D01*
X225350Y1053250D01*
Y1055050D02*Y1053250D01*
X224600Y1055800D02*X225350Y1055050D01*
X222350Y1055800D02*X224600D01*
X222350Y1058500D02*Y1052500D01*
X221600Y1058500D02*X224600D01*
X225350Y1057750D01*
Y1056550D01*
X224600Y1055800D02*X225350Y1056550D01*
X229400Y1055500D02*X230150Y1054750D01*
X227900Y1055500D02*X229400D01*
X227150Y1054750D02*X227900Y1055500D01*
X227150Y1054750D02*Y1053250D01*
X227900Y1052500D01*
X230150Y1055500D02*Y1053250D01*
X230900Y1052500D01*
X227900D02*X229400D01*
X230150Y1053250D01*
X232700Y1058500D02*Y1053250D01*
X233450Y1052500D01*
X235700D02*X237950D01*
X238700Y1053250D01*
X237950Y1054000D02*X238700Y1053250D01*
X235700Y1054000D02*X237950D01*
X234950Y1054750D02*X235700Y1054000D01*
X234950Y1054750D02*X235700Y1055500D01*
X237950D01*
X238700Y1054750D01*
X234950Y1053250D02*X235700Y1052500D01*
X242750Y1055500D02*X243500Y1054750D01*
X241250Y1055500D02*X242750D01*
X240500Y1054750D02*X241250Y1055500D01*
X240500Y1054750D02*Y1053250D01*
X241250Y1052500D01*
X243500Y1055500D02*Y1053250D01*
X244250Y1052500D01*
X241250D02*X242750D01*
X243500Y1053250D01*
X246800Y1054750D02*Y1052500D01*
Y1054750D02*X247550Y1055500D01*
X248300D01*
X249050Y1054750D01*
Y1052500D01*
Y1054750D02*X249800Y1055500D01*
X250550D01*
X251300Y1054750D01*
Y1052500D01*
X246050Y1055500D02*X246800Y1054750D01*
X253100D02*Y1053250D01*
Y1054750D02*X253850Y1055500D01*
X255350D01*
X256100Y1054750D01*
Y1053250D01*
X255350Y1052500D02*X256100Y1053250D01*
X253850Y1052500D02*X255350D01*
X253100Y1053250D02*X253850Y1052500D01*
X260600Y1055500D02*X263600D01*
X268100Y1058500D02*Y1052500D01*
Y1058500D02*X271100D01*
X268100Y1055800D02*X270350D01*
X275150Y1055500D02*X275900Y1054750D01*
X273650Y1055500D02*X275150D01*
X272900Y1054750D02*X273650Y1055500D01*
X272900Y1054750D02*Y1053250D01*
X273650Y1052500D01*
X275900Y1055500D02*Y1053250D01*
X276650Y1052500D01*
X273650D02*X275150D01*
X275900Y1053250D01*
X278450Y1058500D02*Y1052500D01*
Y1053250D02*X279200Y1052500D01*
X280700D01*
X281450Y1053250D01*
Y1054750D02*Y1053250D01*
X280700Y1055500D02*X281450Y1054750D01*
X279200Y1055500D02*X280700D01*
X278450Y1054750D02*X279200Y1055500D01*
X284000Y1054750D02*Y1052500D01*
Y1054750D02*X284750Y1055500D01*
X286250D01*
X283250D02*X284000Y1054750D01*
G54D188*X288050Y1057000D02*Y1056850D01*
G54D187*Y1054750D02*Y1052500D01*
X290300Y1055500D02*X292550D01*
X289550Y1054750D02*X290300Y1055500D01*
X289550Y1054750D02*Y1053250D01*
X290300Y1052500D01*
X292550D01*
X296600Y1055500D02*X297350Y1054750D01*
X295100Y1055500D02*X296600D01*
X294350Y1054750D02*X295100Y1055500D01*
X294350Y1054750D02*Y1053250D01*
X295100Y1052500D01*
X297350Y1055500D02*Y1053250D01*
X298100Y1052500D01*
X295100D02*X296600D01*
X297350Y1053250D01*
X300650Y1058500D02*Y1053250D01*
X301400Y1052500D01*
X299900Y1056250D02*X301400D01*
G54D188*X302900Y1057000D02*Y1056850D01*
G54D187*Y1054750D02*Y1052500D01*
X304400Y1054750D02*Y1053250D01*
Y1054750D02*X305150Y1055500D01*
X306650D01*
X307400Y1054750D01*
Y1053250D01*
X306650Y1052500D02*X307400Y1053250D01*
X305150Y1052500D02*X306650D01*
X304400Y1053250D02*X305150Y1052500D01*
X309950Y1054750D02*Y1052500D01*
Y1054750D02*X310700Y1055500D01*
X311450D01*
X312200Y1054750D01*
Y1052500D01*
X309200Y1055500D02*X309950Y1054750D01*
X317450Y1058500D02*Y1052500D01*
X319400Y1058500D02*X320450Y1057450D01*
Y1053550D01*
X319400Y1052500D02*X320450Y1053550D01*
X316700Y1052500D02*X319400D01*
X316700Y1058500D02*X319400D01*
X323000Y1054750D02*Y1052500D01*
Y1054750D02*X323750Y1055500D01*
X325250D01*
X322250D02*X323000Y1054750D01*
X329300Y1055500D02*X330050Y1054750D01*
X327800Y1055500D02*X329300D01*
X327050Y1054750D02*X327800Y1055500D01*
X327050Y1054750D02*Y1053250D01*
X327800Y1052500D01*
X330050Y1055500D02*Y1053250D01*
X330800Y1052500D01*
X327800D02*X329300D01*
X330050Y1053250D01*
X332600Y1055500D02*Y1053250D01*
X333350Y1052500D01*
X334100D01*
X334850Y1053250D01*
Y1055500D02*Y1053250D01*
X335600Y1052500D01*
X336350D01*
X337100Y1053250D01*
Y1055500D02*Y1053250D01*
G54D188*X338900Y1057000D02*Y1056850D01*
G54D187*Y1054750D02*Y1052500D01*
X341150Y1054750D02*Y1052500D01*
Y1054750D02*X341900Y1055500D01*
X342650D01*
X343400Y1054750D01*
Y1052500D01*
X340400Y1055500D02*X341150Y1054750D01*
X347450Y1055500D02*X348200Y1054750D01*
X345950Y1055500D02*X347450D01*
X345200Y1054750D02*X345950Y1055500D01*
X345200Y1054750D02*Y1053250D01*
X345950Y1052500D01*
X347450D01*
X348200Y1053250D01*
X345200Y1051000D02*X345950Y1050250D01*
X347450D01*
X348200Y1051000D01*
Y1055500D02*Y1051000D01*
M02*
