M48
INCH
T106C0.012
T105C0.118
T104C0.114
T103C0.138
T102C0.024
T101C0.040
T100C0.016
T99C0.032
T98C0.039
T97C0.025
T96C0.030
T95C0.050
T94C0.020
T93C0.060
T92C0.028
%
T106
X015372Y054862
X016412Y055192
X016602Y077642
X018162Y079702
X018162Y079152
X018702Y080412
X018802Y070502
X019252Y065552
X019252Y064552
X019572Y053562
X020132Y073172
X020492Y061342
X020642Y075412
X020692Y081182
X020712Y062602
X020792Y056612
X021212Y069812
X021702Y076892
X022452Y062052
X023142Y081422
X023152Y072902
X023502Y067862
X024172Y080562
X024202Y076012
X024402Y057252
X024492Y067612
X024932Y074502
X024942Y070502
X024982Y069752
X025202Y055122
X025292Y076582
X025722Y060052
X025732Y066072
X026102Y057092
X026342Y053432
X026502Y072902
X026582Y080882
X026791Y070091
X027312Y074902
X027642Y071452
X027852Y062312
X028482Y069252
X029562Y056632
X030422Y061382
X032602Y073922
X032782Y058952
X032922Y064092
X033032Y072252
X033052Y070882
X033172Y053492
X033382Y058952
X033692Y058022
X033782Y057642
X034092Y064092
X034102Y057422
X034122Y072402
X034452Y057612
X034762Y058942
X035002Y070872
X035172Y064992
X035272Y064082
X035572Y062202
X035572Y061132
X036252Y070202
X036462Y060012
X036482Y063202
X036582Y064992
X036582Y064542
X037132Y069922
X037182Y070362
X037332Y064992
X037332Y064542
X037622Y061622
X037632Y062052
X037812Y069852
X037852Y070292
X037902Y074082
X037902Y070732
X037942Y071172
X039772Y053362
X040202Y074162
X040559Y060705
X040582Y059902
X040692Y062412
X041642Y066252
X042292Y059002
X042552Y062592
X044712Y057782
X046572Y053392
X047152Y057782
X048002Y058202
X048352Y063522
T100
X026572Y059019
X026572Y058585
T94
X037304Y078184
X037304Y076176
X038564Y078184
X038564Y076176
X039430Y078184
X039430Y076176
X040296Y078184
X040296Y076176
T102
X042200Y078400
X042791Y078400
X043381Y078400
T97
X017006Y069325
X018006Y071325
X019006Y069325
X020550Y051030
X021550Y053030
X022550Y051030
X039400Y070600
X041400Y071600
X041400Y069600
T92
X015650Y078800
X015800Y065900
X015800Y064900
X015800Y062800
X015800Y061800
X015800Y059700
X015800Y058700
X015800Y056600
X015800Y055600
X016650Y078800
X021500Y065600
X022500Y065600
X023500Y065600
X024500Y065600
X025500Y065600
X025934Y062535
X025954Y061015
X026500Y065600
X026934Y062535
X026954Y061015
X027500Y065600
X028500Y065600
X031000Y056250
X032000Y056250
X033000Y056250
X034000Y056250
X035000Y056250
X036000Y056250
X037000Y056250
X038000Y056250
T96
X037056Y071983
X037056Y070983
X044750Y076600
X044750Y075600
X044750Y074600
X045750Y077100
X045750Y076100
X045750Y075100
T99
X023854Y062965
X023854Y061045
T98
X021006Y067147
X022006Y067147
X023006Y067147
X024006Y067147
X025006Y067147
X026006Y067147
X027006Y067147
X028006Y067147
X029006Y067147
X030006Y067147
X031006Y067147
X032006Y067147
X033006Y067147
X034006Y067147
X035006Y067147
X036006Y067147
T101
X033884Y069175
X034884Y069175
X035884Y069175
X036884Y069175
X037884Y069175
T95
X033826Y073555
X037724Y081635
X037774Y080185
X041826Y073555
X045724Y081635
X045774Y080185
T93
X029155Y079994
X029155Y078124
X029155Y076254
X033355Y079994
X033355Y078124
X033355Y076254
T104
X047019Y072250
T105
X048200Y070400
T103
X045759Y070400
M30
