G04 start of page 7 for group -4063 idx -4063 *
G04 Title: Balsamo, componentmask *
G04 Creator: pcb 1.99z *
G04 CreationDate: jue 24 oct 2013 15:42:48 GMT UTC *
G04 For: jalon *
G04 Format: Gerber/RS-274X *
G04 PCB-Dimensions (mil): 10000.00 10000.00 *
G04 PCB-Coordinate-Origin: lower left *
%MOIN*%
%FSLAX25Y25*%
%LNTOPMASK*%
%ADD143R,0.0370X0.0370*%
%ADD142R,0.0570X0.0570*%
%ADD141R,0.0450X0.0450*%
%ADD140R,0.0340X0.0340*%
%ADD139R,0.0400X0.0400*%
%ADD138R,0.1050X0.1050*%
%ADD137R,0.0350X0.0350*%
%ADD136C,0.0187*%
%ADD135R,0.0187X0.0187*%
%ADD134R,0.0300X0.0300*%
%ADD133R,0.1260X0.1260*%
%ADD132R,0.0155X0.0155*%
%ADD131R,0.0660X0.0660*%
%ADD130R,0.0360X0.0360*%
%ADD129C,0.0300*%
%ADD128R,0.0572X0.0572*%
%ADD127R,0.0572X0.0572*%
%ADD126R,0.0510X0.0510*%
%ADD125C,0.1871*%
%ADD124C,0.1832*%
%ADD123C,0.2068*%
%ADD122C,0.0493*%
%ADD121C,0.1300*%
%ADD120C,0.0750*%
%ADD119C,0.0395*%
%ADD118C,0.0510*%
%ADD117C,0.0760*%
%ADD116C,0.0860*%
%ADD115C,0.0460*%
%ADD114C,0.0960*%
%ADD113C,0.1440*%
%ADD112C,0.1044*%
%ADD111C,0.0001*%
%ADD110C,0.0660*%
G54D110*X340000Y562500D03*
G54D111*G36*
X346700Y565800D02*Y559200D01*
X353300D01*
Y565800D01*
X346700D01*
G37*
G54D110*X360000Y562500D03*
X370000D03*
G54D111*G36*
X306700Y565800D02*Y559200D01*
X313300D01*
Y565800D01*
X306700D01*
G37*
G54D110*X320000Y562500D03*
X330000D03*
X380000D03*
G54D112*X483680Y549425D03*
G54D113*X479000Y511000D03*
G54D111*G36*
X153200Y791300D02*Y784700D01*
X159800D01*
Y791300D01*
X153200D01*
G37*
G54D113*X151000Y811000D03*
G54D110*X166500Y788000D03*
G54D114*X291551Y762542D03*
Y781242D03*
Y799942D03*
G54D111*G36*
X370739Y764064D02*Y759464D01*
X375339D01*
Y764064D01*
X370739D01*
G37*
G54D115*X373039Y781843D03*
G54D116*X338258Y735551D03*
G54D111*G36*
X367257Y723128D02*Y716528D01*
X373857D01*
Y723128D01*
X367257D01*
G37*
G54D110*X370557Y709828D03*
G54D115*X385638Y761764D03*
Y781843D03*
X394299Y761764D03*
Y781843D03*
X402961Y761764D03*
Y781843D03*
G54D111*G36*
X413958Y739851D02*Y731251D01*
X422558D01*
Y739851D01*
X413958D01*
G37*
G54D112*X188404Y549425D03*
G54D113*X151000Y511000D03*
G54D111*G36*
X154200Y559800D02*Y552200D01*
X161800D01*
Y559800D01*
X154200D01*
G37*
G54D117*X158000Y566000D03*
G54D111*G36*
X154200Y590800D02*Y583200D01*
X161800D01*
Y590800D01*
X154200D01*
G37*
G54D117*X158000Y597000D03*
G54D111*G36*
X154200Y621800D02*Y614200D01*
X161800D01*
Y621800D01*
X154200D01*
G37*
G54D117*X158000Y628000D03*
G54D111*G36*
X154200Y652800D02*Y645200D01*
X161800D01*
Y652800D01*
X154200D01*
G37*
G54D117*X158000Y659000D03*
G54D118*X225500Y510300D03*
X205500D03*
X215500Y530300D03*
G54D111*G36*
X206257Y675272D02*Y667672D01*
X213857D01*
Y675272D01*
X206257D01*
G37*
G54D112*X188404Y671472D03*
G54D118*X170058Y693251D03*
X180058Y713251D03*
X190058Y693251D03*
G54D117*X220057Y671472D03*
X230057D03*
X240057D03*
X250057D03*
X260057D03*
G54D111*G36*
X256242Y613449D02*Y606849D01*
X262842D01*
Y613449D01*
X256242D01*
G37*
G54D110*X269542Y610149D03*
G54D111*G36*
X235242Y613749D02*Y607149D01*
X241842D01*
Y613749D01*
X235242D01*
G37*
G54D119*X265719Y585855D03*
Y590185D03*
G54D111*G36*
X266042Y628649D02*Y622049D01*
X272642D01*
Y628649D01*
X266042D01*
G37*
G54D110*X259342Y625349D03*
X238542Y629649D03*
G54D111*G36*
X211700Y659300D02*Y652700D01*
X218300D01*
Y659300D01*
X211700D01*
G37*
G54D110*X225000Y656000D03*
X235000D03*
X245000D03*
X255000D03*
X265000D03*
X275000D03*
G54D111*G36*
X281700Y659300D02*Y652700D01*
X288300D01*
Y659300D01*
X281700D01*
G37*
G36*
X335542Y695049D02*Y688449D01*
X342142D01*
Y695049D01*
X335542D01*
G37*
G54D114*X333551Y799942D03*
Y781242D03*
G54D111*G36*
X328751Y767342D02*Y757742D01*
X338351D01*
Y767342D01*
X328751D01*
G37*
G54D110*X348842Y691749D03*
X358842D03*
X368842D03*
X378842D03*
G54D118*X414000Y696000D03*
X394000Y706000D03*
X414000Y716000D03*
G54D117*X270057Y671472D03*
X280057D03*
X290057D03*
X300057D03*
X310057D03*
X320057D03*
X330057D03*
X340057D03*
X350057D03*
X360057D03*
G54D112*X483680D03*
G54D120*X447500Y746000D03*
G54D121*X482500Y738500D03*
G54D120*X457500Y751000D03*
Y761000D03*
Y771000D03*
X447500Y756000D03*
Y766000D03*
G54D116*X377738Y801851D03*
G54D111*G36*
X419535Y786465D02*Y781535D01*
X424465D01*
Y786465D01*
X419535D01*
G37*
G54D122*X427906Y784000D03*
X433811D03*
G54D121*X482500Y778500D03*
G54D113*X479000Y811000D03*
G54D111*G36*
X453438Y806151D02*Y797551D01*
X462038D01*
Y806151D01*
X453438D01*
G37*
G36*
X452938Y820651D02*Y812051D01*
X461538D01*
Y820651D01*
X452938D01*
G37*
G54D116*X377238Y816351D03*
G54D123*X457591Y704000D03*
G54D124*X470189Y722504D03*
G54D125*X482000Y704000D03*
G54D126*X172000Y544700D02*Y543300D01*
X164000Y544700D02*Y543300D01*
G54D127*X240783Y503513D02*Y502489D01*
Y534812D02*Y533788D01*
G54D126*X252000Y546700D02*Y545300D01*
X244000Y546700D02*Y545300D01*
G54D127*X173142Y504764D02*Y503740D01*
X190858Y504764D02*Y503740D01*
X173142Y536063D02*Y535039D01*
X190858Y536063D02*Y535039D01*
X258500Y503513D02*Y502489D01*
Y534812D02*Y533788D01*
X309083Y504113D02*Y503089D01*
X326800Y504113D02*Y503089D01*
X309083Y535412D02*Y534388D01*
X326800Y535412D02*Y534388D01*
G54D126*X387000Y546200D02*Y544800D01*
X379000Y546200D02*Y544800D01*
X322000Y546700D02*Y545300D01*
X314000Y546700D02*Y545300D01*
X456000Y546700D02*Y545300D01*
X448000Y546700D02*Y545300D01*
G54D127*X443083Y503213D02*Y502189D01*
X375142Y502764D02*Y501740D01*
X392858Y502764D02*Y501740D01*
X460800Y503213D02*Y502189D01*
X443083Y534512D02*Y533488D01*
X375142Y534063D02*Y533039D01*
X392858Y534063D02*Y533039D01*
X460800Y534512D02*Y533488D01*
G54D128*X153607Y703543D02*X154393D01*
X153607Y696457D02*X154393D01*
X153607Y712457D02*X154393D01*
X153607Y719543D02*X154393D01*
G54D127*X154132Y731170D02*Y730146D01*
X171849Y731170D02*Y730146D01*
G54D129*X234750Y714000D02*X241250D01*
G54D130*X224000Y631500D02*X225000D01*
X224000Y625500D02*X225000D01*
X224000Y609500D02*X225000D01*
X224000Y615500D02*X225000D01*
G54D128*X214000Y712393D02*Y711607D01*
X221086Y712393D02*Y711607D01*
G54D131*X219543Y722500D02*Y721500D01*
X207543Y722500D02*Y721500D01*
G54D128*X181543Y660393D02*Y659607D01*
X174457Y660393D02*Y659607D01*
X181543Y629393D02*Y628607D01*
X174457Y629393D02*Y628607D01*
X181543Y595393D02*Y594607D01*
X174457Y595393D02*Y594607D01*
G54D126*X197000Y646200D02*Y644800D01*
X205000Y646200D02*Y644800D01*
X207068Y621458D02*Y620058D01*
X199068Y621458D02*Y620058D01*
X197000Y656200D02*Y654800D01*
X205000Y656200D02*Y654800D01*
G54D132*X205936Y610578D02*Y605854D01*
X203968Y610578D02*Y605854D01*
X202000Y610578D02*Y605854D01*
X200031Y610578D02*Y605854D01*
G54D128*X181543Y566393D02*Y565607D01*
X174457Y566393D02*Y565607D01*
G54D132*X200031Y592862D02*Y588138D01*
X202000Y592862D02*Y588138D01*
X203968Y592862D02*Y588138D01*
X205936Y592862D02*Y588138D01*
X207905Y592862D02*Y588138D01*
Y610578D02*Y605854D01*
G54D126*X197168Y578758D02*X198568D01*
X197168Y570758D02*X198568D01*
X207168Y578758D02*X208568D01*
X207168Y570758D02*X208568D01*
G54D128*X289000Y591393D02*Y590607D01*
Y615393D02*Y614607D01*
X281914Y591393D02*Y590607D01*
Y615393D02*Y614607D01*
G54D130*X267000Y601000D02*Y600000D01*
X261000Y601000D02*Y600000D01*
X267000Y576000D02*Y575000D01*
X261000Y576000D02*Y575000D01*
X282242Y623649D02*Y622649D01*
X288242Y623649D02*Y622649D01*
G54D133*X228765Y588023D02*X253465D01*
G54D126*X244900Y705700D02*Y704300D01*
X236900Y705700D02*Y704300D01*
G54D128*X256357Y707893D02*Y707107D01*
X263443Y707893D02*Y707107D01*
G54D126*X262400Y698200D02*Y696800D01*
X254400Y698200D02*Y696800D01*
G54D134*X255250Y714000D02*X261750D01*
G54D129*X255250Y719000D02*X261750D01*
X255250Y724000D02*X261750D01*
X255250Y729000D02*X261750D01*
X234750D02*X241250D01*
X234750Y724000D02*X241250D01*
X234750Y719000D02*X241250D01*
G54D128*X279943Y692893D02*Y692107D01*
X272857Y692893D02*Y692107D01*
X279943Y701393D02*Y700607D01*
X272857Y701393D02*Y700607D01*
X279943Y709893D02*Y709107D01*
X272857Y709893D02*Y709107D01*
X279486Y729293D02*Y728507D01*
G54D126*X280400Y719600D02*Y718200D01*
X272400Y719600D02*Y718200D01*
G54D128*X272400Y729293D02*Y728507D01*
G54D135*X358788Y590839D02*X361714D01*
G54D136*X358788Y593398D02*X361714D01*
X358788Y595957D02*X361714D01*
X358788Y598516D02*X361714D01*
X358788Y601075D02*X361714D01*
X358788Y603634D02*X361714D01*
X358788Y606193D02*X361714D01*
X358788Y608752D02*X361714D01*
X349135Y586303D02*Y583377D01*
X351694Y586303D02*Y583377D01*
G54D135*X354253Y586303D02*Y583377D01*
G54D136*X358788Y611311D02*X361714D01*
G54D135*X358788Y613870D02*X361714D01*
G54D136*X358788Y616429D02*X361714D01*
X358788Y618988D02*X361714D01*
X358788Y621547D02*X361714D01*
X358788Y624106D02*X361714D01*
X358788Y626665D02*X361714D01*
G54D130*X371500Y614500D02*X372500D01*
X371500Y620500D02*X372500D01*
G54D136*X358788Y629224D02*X361714D01*
X358788Y631783D02*X361714D01*
X358788Y634342D02*X361714D01*
X358788Y636901D02*X361714D01*
G54D135*X358788Y639460D02*X361714D01*
G54D136*X354252Y646921D02*Y643995D01*
X351693Y646921D02*Y643995D01*
X349134Y646921D02*Y643995D01*
X346575Y646921D02*Y643995D01*
X344016Y646921D02*Y643995D01*
X341457Y646921D02*Y643995D01*
X338898Y646921D02*Y643995D01*
X336339Y646921D02*Y643995D01*
X333780Y646921D02*Y643995D01*
G54D135*X331221Y646921D02*Y643995D01*
G54D136*X328662Y646921D02*Y643995D01*
G54D130*X330642Y655249D02*Y654249D01*
X324642Y655249D02*Y654249D01*
G54D136*X326103Y646921D02*Y643995D01*
X323544Y646921D02*Y643995D01*
X320985Y646921D02*Y643995D01*
X318426Y646921D02*Y643995D01*
X315867Y646921D02*Y643995D01*
X313308Y646921D02*Y643995D01*
X310749Y646921D02*Y643995D01*
X308190Y646921D02*Y643995D01*
G54D135*X305631Y646921D02*Y643995D01*
G54D136*X298170Y639459D02*X301096D01*
X298170Y636900D02*X301096D01*
X298170Y634341D02*X301096D01*
X298170Y631782D02*X301096D01*
X298170Y629223D02*X301096D01*
X298170Y626664D02*X301096D01*
X298170Y624105D02*X301096D01*
X298170Y621546D02*X301096D01*
X298170Y618987D02*X301096D01*
G54D135*X298170Y616428D02*X301096D01*
G54D136*X298170Y613869D02*X301096D01*
X298170Y611310D02*X301096D01*
X298170Y608751D02*X301096D01*
X298170Y606192D02*X301096D01*
X298170Y603633D02*X301096D01*
X298170Y601074D02*X301096D01*
X298170Y598515D02*X301096D01*
X298170Y595956D02*X301096D01*
X298170Y593397D02*X301096D01*
G54D135*X298170Y590838D02*X301096D01*
G54D136*X305632Y586303D02*Y583377D01*
X308191Y586303D02*Y583377D01*
X310750Y586303D02*Y583377D01*
X313309Y586303D02*Y583377D01*
X315868Y586303D02*Y583377D01*
X318427Y586303D02*Y583377D01*
X320986Y586303D02*Y583377D01*
X323545Y586303D02*Y583377D01*
G54D130*X326000Y576000D02*Y575000D01*
X332000Y576000D02*Y575000D01*
G54D136*X326104Y586303D02*Y583377D01*
G54D135*X328663Y586303D02*Y583377D01*
G54D136*X331222Y586303D02*Y583377D01*
X333781Y586303D02*Y583377D01*
X336340Y586303D02*Y583377D01*
X338899Y586303D02*Y583377D01*
X341458Y586303D02*Y583377D01*
X344017Y586303D02*Y583377D01*
X346576Y586303D02*Y583377D01*
G54D126*X326000Y710700D02*Y709300D01*
G54D134*X325200Y718000D02*X326800D01*
G54D126*X318000Y710700D02*Y709300D01*
G54D129*X325200Y721900D02*X326800D01*
X325200Y725800D02*X326800D01*
X317000D02*X318600D01*
X317000Y718000D02*X318600D01*
G54D128*X381000Y671393D02*Y670607D01*
X373914Y671393D02*Y670607D01*
G54D126*X358000Y702700D02*Y701300D01*
X350000Y702700D02*Y701300D01*
G54D137*X410400Y658800D02*Y658200D01*
X415500Y658800D02*Y658200D01*
G54D131*X429500Y740000D02*X430500D01*
X429500Y728000D02*X430500D01*
G54D137*X413000Y665800D02*Y665200D01*
G54D128*X362000Y657393D02*Y656607D01*
G54D126*X362520Y786900D02*Y785500D01*
G54D138*X358700Y815500D02*X361300D01*
X358700Y798000D02*X361300D01*
G54D131*X358826Y773923D02*X359826D01*
X358826Y761923D02*X359826D01*
G54D128*X354914Y657393D02*Y656607D01*
G54D126*X354520Y786900D02*Y785500D01*
X335300Y724000D02*X336700D01*
X335300Y716000D02*X336700D01*
G54D131*X349500Y714000D02*X350500D01*
X349500Y726000D02*X350500D01*
G54D126*X326000Y734700D02*Y733300D01*
X318000Y734700D02*Y733300D01*
G54D128*X389385Y790157D02*Y789371D01*
X382299Y790157D02*Y789371D01*
X404299Y790157D02*Y789371D01*
X397213Y790157D02*Y789371D01*
X387643Y746593D02*Y745807D01*
G54D139*X394200Y746300D02*Y745700D01*
X402000Y746300D02*Y745700D01*
G54D128*X380557Y746593D02*Y745807D01*
X387643Y754593D02*Y753807D01*
X380557Y754593D02*Y753807D01*
G54D139*X398100Y754500D02*Y753900D01*
G54D128*X261607Y804000D02*X262393D01*
G54D126*X262000Y814657D02*Y813257D01*
G54D128*X261607Y796914D02*X262393D01*
X269107D02*X269893D01*
X269107Y804000D02*X269893D01*
G54D126*X270000Y814657D02*Y813257D01*
X236300Y809500D02*X237700D01*
G54D131*X224949Y814258D02*X225949D01*
G54D128*X246607Y808043D02*X247393D01*
X254107D02*X254893D01*
X214107D02*X214893D01*
G54D139*X206600Y807757D02*X207200D01*
G54D126*X236300Y801500D02*X237700D01*
G54D131*X224949Y802258D02*X225949D01*
G54D128*X246607Y800957D02*X247393D01*
X254107D02*X254893D01*
X214107D02*X214893D01*
G54D126*X262000Y739400D02*Y738000D01*
G54D128*X260957Y749393D02*Y748607D01*
G54D126*X259500Y759700D02*Y758300D01*
X270000Y739400D02*Y738000D01*
G54D128*X268043Y749393D02*Y748607D01*
G54D126*X267500Y759700D02*Y758300D01*
G54D129*X242000Y772000D02*Y765500D01*
G54D131*X252449Y771258D02*X253449D01*
X252449Y783258D02*X253449D01*
X264949D02*X265949D01*
X264949Y771258D02*X265949D01*
G54D126*X186300Y799500D02*X187700D01*
X186300Y791500D02*X187700D01*
G54D128*X198457Y792393D02*Y791607D01*
X205543Y792393D02*Y791607D01*
G54D139*X206600Y799957D02*X207200D01*
X198400Y803857D02*X199000D01*
G54D126*X166000Y771700D02*Y770300D01*
G54D127*X171849Y762469D02*Y761446D01*
G54D126*X158000Y771700D02*Y770300D01*
G54D127*X154132Y762469D02*Y761446D01*
G54D126*X216300Y773500D02*X217700D01*
X216300Y781500D02*X217700D01*
G54D134*X227000Y772000D02*Y765500D01*
G54D129*X232000Y772000D02*Y765500D01*
X237000Y772000D02*Y765500D01*
X242000Y792500D02*Y786000D01*
X237000Y792500D02*Y786000D01*
X232000Y792500D02*Y786000D01*
X227000Y792500D02*Y786000D01*
G54D126*X244500Y754700D02*Y753300D01*
X236500Y754700D02*Y753300D01*
G54D128*X243607Y745043D02*X244393D01*
X243607Y737957D02*X244393D01*
X236107D02*X236893D01*
X236107Y745043D02*X236893D01*
G54D126*X194343Y731500D02*X195743D01*
G54D131*X207543Y732500D02*Y731500D01*
X219543Y732500D02*Y731500D01*
G54D126*X194343Y739500D02*X195743D01*
G54D128*X206024Y742174D02*X206810D01*
X206024Y749260D02*X206810D01*
X221086Y749893D02*Y749107D01*
X214000Y749893D02*Y749107D01*
Y742393D02*Y741607D01*
X221086Y742393D02*Y741607D01*
G54D140*X429142Y619849D02*X431142D01*
X429142Y615549D02*X431142D01*
X429142Y611149D02*X431142D01*
G54D141*X429742Y625949D02*X430542D01*
G54D142*X488442Y635249D02*X490742D01*
G54D140*X429142Y606849D02*X431142D01*
X429142Y602549D02*X431142D01*
X429142Y598149D02*X431142D01*
X429142Y593849D02*X431142D01*
X429142Y589549D02*X431142D01*
X429142Y585749D02*X431142D01*
G54D143*X471442Y582449D02*Y581649D01*
G54D141*X446642Y582049D02*X447442D01*
X484242D02*X491342D01*
G54D126*X410300Y599000D02*X411700D01*
X410300Y607000D02*X411700D01*
X420300Y599000D02*X421700D01*
X420300Y607000D02*X421700D01*
M02*
