G04 start of page 9 for group -4079 idx -4079 *
G04 Title: Balsamo, topsilk *
G04 Creator: pcb 1.99z *
G04 CreationDate: jue 24 oct 2013 15:42:49 GMT UTC *
G04 For: jalon *
G04 Format: Gerber/RS-274X *
G04 PCB-Dimensions (mil): 10000.00 10000.00 *
G04 PCB-Coordinate-Origin: lower left *
%MOIN*%
%FSLAX25Y25*%
%LNTOPSILK*%
%ADD164C,0.0236*%
%ADD163C,0.0150*%
%ADD162C,0.0243*%
%ADD161C,0.0100*%
%ADD160C,0.0080*%
G54D160*X197315Y772423D02*X211315D01*
Y757923D02*X197315D01*
X204315D02*Y772423D01*
X211315Y757923D02*Y779423D01*
X197315D01*
Y757923D02*Y779423D01*
X215315Y753923D02*X231315D01*
X229815Y755423D01*
X231315Y753923D02*X229815Y752423D01*
X210815Y753423D02*X209815Y754423D01*
X210815Y753423D02*X211815Y754423D01*
X176815Y774923D02*X191815D01*
X192315Y759923D02*X176815D01*
X195815Y756423D02*X208315D01*
X176815Y759923D02*Y774923D01*
Y767423D02*X191815D01*
X192315Y759923D02*Y774923D01*
X159315Y515923D02*Y526423D01*
X157315Y524423D01*
X159315Y526423D02*X161315Y524423D01*
X256815Y748923D02*X255815Y749923D01*
X256815Y748923D02*X255815Y747923D01*
X246815Y697923D02*X249815Y700923D01*
Y702923D01*
X252815Y705923D01*
X251315D01*
X252815D02*Y704423D01*
X224815Y699423D02*Y709923D01*
X227315Y712423D02*X231315D01*
X230315Y713423D01*
X231315Y712423D02*X230315Y711423D01*
X397815Y726923D02*X384315D01*
X380315Y722923D02*Y725423D01*
Y722923D02*X382315D01*
X384315Y726923D02*X380315Y722923D01*
X273815Y523923D02*Y513423D01*
X275815Y515423D01*
X273815Y513423D02*X271815Y515423D01*
X350815Y521423D02*Y518423D01*
X348815Y516423D02*X341315D01*
X342815Y517923D01*
X341315Y516423D02*X342815Y514923D01*
X406315Y516923D02*X414315D01*
Y520923D02*X405815D01*
X407315Y519423D01*
X405815Y520923D02*X407315Y522423D01*
X350815Y518423D02*G75*G02X348815Y516423I-2000J0D01*G01*
X414315Y516923D02*G75*G03X416315Y518923I0J2000D01*G01*
X211315Y757923D02*G75*G03X215315Y753923I4000J0D01*G01*
X192315Y759923D02*G75*G03X195815Y756423I3500J0D01*G01*
X208315D02*G75*G02X210815Y753923I0J-2500D01*G01*
X253315Y745423D02*G75*G02X256815Y748923I3500J0D01*G01*
X224815Y709923D02*G75*G02X227315Y712423I2500J0D01*G01*
X416315Y518923D02*G75*G03X414315Y520923I-2000J0D01*G01*
X307315Y687923D02*Y683923D01*
X309315D01*
X311215D02*X312515D01*
X310515Y684623D02*X311215Y683923D01*
X310515Y687223D02*Y684623D01*
Y687223D02*X311215Y687923D01*
X312515D01*
X314215D02*Y683923D01*
X315515Y687923D02*X316215Y687223D01*
Y684623D01*
X315515Y683923D02*X316215Y684623D01*
X313715Y683923D02*X315515D01*
X313715Y687923D02*X315515D01*
X442815Y698423D02*X446815D01*
X442815Y699723D02*X443515Y700423D01*
X446115D01*
X446815Y699723D02*X446115Y700423D01*
X446815Y699723D02*Y697923D01*
X442815Y699723D02*Y697923D01*
X446815Y703623D02*Y702323D01*
X446115Y701623D02*X446815Y702323D01*
X443515Y701623D02*X446115D01*
X443515D02*X442815Y702323D01*
Y703623D02*Y702323D01*
Y706623D02*X446815Y707623D01*
X442815Y708623D01*
Y710823D02*Y709823D01*
Y710323D02*X446815D01*
Y710823D02*Y709823D01*
X442815Y712023D02*X446815D01*
X442815D02*X446815Y714523D01*
X442815D02*X446815D01*
X475815Y790423D02*Y786423D01*
X477815D01*
X479015Y790423D02*X480015D01*
X479515D02*Y786423D01*
X479015D02*X480015D01*
X481215Y790423D02*Y786423D01*
Y790423D02*X483715Y786423D01*
Y790423D02*Y786423D01*
X484915Y788623D02*X486415D01*
X484915Y786423D02*X486915D01*
X484915Y790423D02*Y786423D01*
Y790423D02*X486915D01*
X464815Y639423D02*Y637923D01*
X465315Y637423D01*
X466315D01*
X466815Y637923D01*
Y639423D02*Y637923D01*
X470015Y641423D02*X470515Y640923D01*
X468515Y641423D02*X470015D01*
X468015Y640923D02*X468515Y641423D01*
X468015Y640923D02*Y639923D01*
X468515Y639423D01*
X470015D01*
X470515Y638923D01*
Y637923D01*
X470015Y637423D02*X470515Y637923D01*
X468515Y637423D02*X470015D01*
X468015Y637923D02*X468515Y637423D01*
X472215Y641423D02*Y637423D01*
X473515Y641423D02*X474215Y640723D01*
Y638123D01*
X473515Y637423D02*X474215Y638123D01*
X471715Y637423D02*X473515D01*
X471715Y641423D02*X473515D01*
X416815Y753923D02*X418815D01*
X419315Y754423D01*
Y755623D02*Y754423D01*
X418815Y756123D02*X419315Y755623D01*
X417315Y756123D02*X418815D01*
X417315Y757923D02*Y753923D01*
X416815Y757923D02*X418815D01*
X419315Y757423D01*
Y756623D01*
X418815Y756123D02*X419315Y756623D01*
X420515Y756923D02*Y753923D01*
Y756923D02*X421215Y757923D01*
X422315D01*
X423015Y756923D01*
Y753923D01*
X420515Y755923D02*X423015D01*
X424215Y757923D02*X426215D01*
X425215D02*Y753923D01*
X427415Y757923D02*X429415D01*
X428415D02*Y753923D01*
X430615Y756123D02*X432115D01*
X430615Y753923D02*X432615D01*
X430615Y757923D02*Y753923D01*
Y757923D02*X432615D01*
X433815D02*X435815D01*
X436315Y757423D01*
Y756423D01*
X435815Y755923D02*X436315Y756423D01*
X434315Y755923D02*X435815D01*
X434315Y757923D02*Y753923D01*
X435115Y755923D02*X436315Y753923D01*
X437515Y757923D02*X438515Y755923D01*
X439515Y757923D01*
X438515Y755923D02*Y753923D01*
X434315Y690423D02*Y688423D01*
Y690423D02*X433815Y690923D01*
X432615D02*X433815D01*
X432115Y690423D02*X432615Y690923D01*
X432115Y690423D02*Y688923D01*
X430315D02*X434315D01*
X430315Y690423D02*Y688423D01*
Y690423D02*X430815Y690923D01*
X431615D01*
X432115Y690423D02*X431615Y690923D01*
X430315Y694123D02*Y692123D01*
Y694123D02*X430815Y694623D01*
X431815D01*
X432315Y694123D02*X431815Y694623D01*
X432315Y694123D02*Y692623D01*
X430315D02*X434315D01*
X432315Y693423D02*X434315Y694623D01*
X430315Y696823D02*Y695823D01*
Y696323D02*X434315D01*
Y696823D02*Y695823D01*
X430315Y700023D02*X430815Y700523D01*
X430315Y700023D02*Y698523D01*
X430815Y698023D02*X430315Y698523D01*
X430815Y698023D02*X433815D01*
X434315Y698523D01*
Y700023D02*Y698523D01*
Y700023D02*X433815Y700523D01*
X432815D02*X433815D01*
X432315Y700023D02*X432815Y700523D01*
X432315Y700023D02*Y699023D01*
X430315Y701723D02*X434315D01*
X430315Y704223D02*X434315D01*
X432315D02*Y701723D01*
X430315Y707423D02*Y705423D01*
Y706423D02*X434315D01*
X430315Y708623D02*X434315D01*
X430315D02*X434315Y711123D01*
X430315D02*X434315D01*
X432115Y713823D02*Y712323D01*
X434315Y714323D02*Y712323D01*
X430315D02*X434315D01*
X430315Y714323D02*Y712323D01*
Y717523D02*X430815Y718023D01*
X430315Y717523D02*Y716023D01*
X430815Y715523D02*X430315Y716023D01*
X430815Y715523D02*X431815D01*
X432315Y716023D01*
Y717523D02*Y716023D01*
Y717523D02*X432815Y718023D01*
X433815D01*
X434315Y717523D02*X433815Y718023D01*
X434315Y717523D02*Y716023D01*
X433815Y715523D02*X434315Y716023D01*
X430315Y721223D02*X430815Y721723D01*
X430315Y721223D02*Y719723D01*
X430815Y719223D02*X430315Y719723D01*
X430815Y719223D02*X431815D01*
X432315Y719723D01*
Y721223D02*Y719723D01*
Y721223D02*X432815Y721723D01*
X433815D01*
X434315Y721223D02*X433815Y721723D01*
X434315Y721223D02*Y719723D01*
X433815Y719223D02*X434315Y719723D01*
X143415Y550363D02*Y547923D01*
Y550363D02*X142805Y550973D01*
X141341D02*X142805D01*
X140731Y550363D02*X141341Y550973D01*
X140731Y550363D02*Y548533D01*
X138535D02*X143415D01*
X138535Y550363D02*Y547923D01*
Y550363D02*X139145Y550973D01*
X140121D01*
X140731Y550363D02*X140121Y550973D01*
X139755Y552437D02*X143415D01*
X139755D02*X138535Y553291D01*
Y554633D02*Y553291D01*
Y554633D02*X139755Y555487D01*
X143415D01*
X140975D02*Y552437D01*
X138535Y556951D02*X143415D01*
Y559391D02*Y556951D01*
X138535Y563295D02*X139145Y563905D01*
X138535Y563295D02*Y561465D01*
X139145Y560855D02*X138535Y561465D01*
X139145Y560855D02*X140365D01*
X140975Y561465D01*
Y563295D02*Y561465D01*
Y563295D02*X141585Y563905D01*
X142805D01*
X143415Y563295D02*X142805Y563905D01*
X143415Y563295D02*Y561465D01*
X142805Y560855D02*X143415Y561465D01*
X139755Y565369D02*X143415D01*
X139755D02*X138535Y566223D01*
Y567565D02*Y566223D01*
Y567565D02*X139755Y568419D01*
X143415D01*
X140975D02*Y565369D01*
X138535Y569883D02*X143415D01*
X138535D02*X140975Y571713D01*
X138535Y573543D01*
X143415D01*
X139145Y575007D02*X142805D01*
X139145D02*X138535Y575617D01*
Y576837D02*Y575617D01*
Y576837D02*X139145Y577447D01*
X142805D01*
X143415Y576837D02*X142805Y577447D01*
X143415Y576837D02*Y575617D01*
X142805Y575007D02*X143415Y575617D01*
X138535Y583547D02*Y581107D01*
Y583547D02*X139145Y584157D01*
X140365D01*
X140975Y583547D02*X140365Y584157D01*
X140975Y583547D02*Y581717D01*
X138535D02*X143415D01*
X140975Y582693D02*X143415Y584157D01*
Y588061D02*Y586231D01*
X142805Y585621D02*X143415Y586231D01*
X141585Y585621D02*X142805D01*
X141585D02*X140975Y586231D01*
Y587451D02*Y586231D01*
Y587451D02*X141585Y588061D01*
X142195D02*Y585621D01*
X141585Y588061D02*X142195D01*
X140975Y589525D02*X143415Y590745D01*
X140975Y591965D02*X143415Y590745D01*
Y594039D02*Y593429D01*
Y600139D02*Y597699D01*
Y600139D02*X142805Y600749D01*
X141341D02*X142805D01*
X140731Y600139D02*X141341Y600749D01*
X140731Y600139D02*Y598309D01*
X138535D02*X143415D01*
X138535Y600139D02*Y597699D01*
Y600139D02*X139145Y600749D01*
X140121D01*
X140731Y600139D02*X140121Y600749D01*
X140975Y606849D02*Y604409D01*
X138535Y612949D02*X143415D01*
Y612339D02*X142805Y612949D01*
X143415Y612339D02*Y611119D01*
X142805Y610509D02*X143415Y611119D01*
X141585Y610509D02*X142805D01*
X141585D02*X140975Y611119D01*
Y612339D02*Y611119D01*
Y612339D02*X141585Y612949D01*
Y614413D02*X142805D01*
X141585D02*X140975Y615023D01*
Y616243D02*Y615023D01*
Y616243D02*X141585Y616853D01*
X142805D01*
X143415Y616243D02*X142805Y616853D01*
X143415Y616243D02*Y615023D01*
X142805Y614413D02*X143415Y615023D01*
X141585Y618927D02*X143415D01*
X141585D02*X140975Y619537D01*
Y620757D02*Y619537D01*
Y618317D02*X141585Y618927D01*
X140975Y624051D02*X141585Y624661D01*
X140975Y624051D02*Y622831D01*
X141585Y622221D02*X140975Y622831D01*
X141585Y622221D02*X142805D01*
X143415Y622831D01*
X140975Y624661D02*X142805D01*
X143415Y625271D01*
Y624051D02*Y622831D01*
Y624051D02*X142805Y624661D01*
X140975Y628565D02*X141585Y629175D01*
X140975Y628565D02*Y627345D01*
X141585Y626735D02*X140975Y627345D01*
X141585Y626735D02*X142805D01*
X143415Y627345D01*
Y628565D02*Y627345D01*
Y628565D02*X142805Y629175D01*
X144635Y626735D02*X145245Y627345D01*
Y628565D02*Y627345D01*
Y628565D02*X144635Y629175D01*
X140975D02*X144635D01*
X140975Y632469D02*X141585Y633079D01*
X140975Y632469D02*Y631249D01*
X141585Y630639D02*X140975Y631249D01*
X141585Y630639D02*X142805D01*
X143415Y631249D01*
X140975Y633079D02*X142805D01*
X143415Y633689D01*
Y632469D02*Y631249D01*
Y632469D02*X142805Y633079D01*
X143415Y637593D02*Y635763D01*
Y637593D02*X142805Y638203D01*
X142195Y637593D02*X142805Y638203D01*
X142195Y637593D02*Y635763D01*
X141585Y635153D02*X142195Y635763D01*
X141585Y635153D02*X140975Y635763D01*
Y637593D02*Y635763D01*
Y637593D02*X141585Y638203D01*
X142805Y635153D02*X143415Y635763D01*
X140975Y639667D02*X142805D01*
X143415Y640277D01*
Y641497D02*Y640277D01*
Y641497D02*X142805Y642107D01*
X140975D02*X142805D01*
X144635Y643571D02*X143415Y644791D01*
X139145Y648451D02*X138535Y649061D01*
Y650891D02*Y649061D01*
Y650891D02*X139145Y651501D01*
X140365D01*
X143415Y648451D02*X140365Y651501D01*
X143415D02*Y648451D01*
X142805Y652965D02*X143415Y653575D01*
X139145Y652965D02*X142805D01*
X139145D02*X138535Y653575D01*
Y654795D02*Y653575D01*
Y654795D02*X139145Y655405D01*
X142805D01*
X143415Y654795D02*X142805Y655405D01*
X143415Y654795D02*Y653575D01*
X142195Y652965D02*X139755Y655405D01*
X139511Y656869D02*X138535Y657845D01*
X143415D01*
Y658699D02*Y656869D01*
X139145Y660163D02*X138535Y660773D01*
Y661993D02*Y660773D01*
Y661993D02*X139145Y662603D01*
X143415Y661993D02*X142805Y662603D01*
X143415Y661993D02*Y660773D01*
X142805Y660163D02*X143415Y660773D01*
X140731Y661993D02*Y660773D01*
X139145Y662603D02*X140121D01*
X141341D02*X142805D01*
X141341D02*X140731Y661993D01*
X140121Y662603D02*X140731Y661993D01*
X167815Y797423D02*X168315Y797923D01*
X167815Y797423D02*Y795923D01*
X168315Y795423D02*X167815Y795923D01*
X168315Y795423D02*X169315D01*
X169815Y795923D01*
Y797423D02*Y795923D01*
Y797423D02*X170315Y797923D01*
X171315D01*
X171815Y797423D02*X171315Y797923D01*
X171815Y797423D02*Y795923D01*
X171315Y795423D02*X171815Y795923D01*
X167815Y799623D02*X171815D01*
X167815Y801123D02*Y799123D01*
Y801123D02*X168315Y801623D01*
X169315D01*
X169815Y801123D02*X169315Y801623D01*
X169815Y801123D02*Y799623D01*
X169615Y804323D02*Y802823D01*
X171815Y804823D02*Y802823D01*
X167815D02*X171815D01*
X167815Y804823D02*Y802823D01*
X168815Y806023D02*X171815D01*
X168815D02*X167815Y806723D01*
Y807823D02*Y806723D01*
Y807823D02*X168815Y808523D01*
X171815D01*
X169815D02*Y806023D01*
X167815Y809723D02*X171815D01*
X169815D02*X167815Y811723D01*
X169815Y809723D02*X171815Y811723D01*
X169615Y814423D02*Y812923D01*
X171815Y814923D02*Y812923D01*
X167815D02*X171815D01*
X167815Y814923D02*Y812923D01*
Y818123D02*Y816123D01*
Y818123D02*X168315Y818623D01*
X169315D01*
X169815Y818123D02*X169315Y818623D01*
X169815Y818123D02*Y816623D01*
X167815D02*X171815D01*
X169815Y817423D02*X171815Y818623D01*
X144015Y740623D02*Y738623D01*
Y740623D02*X144515Y741123D01*
X145515D01*
X146015Y740623D02*X145515Y741123D01*
X146015Y740623D02*Y739123D01*
X144015D02*X148015D01*
X146015Y739923D02*X148015Y741123D01*
X145815Y743823D02*Y742323D01*
X148015Y744323D02*Y742323D01*
X144015D02*X148015D01*
X144015Y744323D02*Y742323D01*
Y747523D02*X144515Y748023D01*
X144015Y747523D02*Y746023D01*
X144515Y745523D02*X144015Y746023D01*
X144515Y745523D02*X145515D01*
X146015Y746023D01*
Y747523D02*Y746023D01*
Y747523D02*X146515Y748023D01*
X147515D01*
X148015Y747523D02*X147515Y748023D01*
X148015Y747523D02*Y746023D01*
X147515Y745523D02*X148015Y746023D01*
X145815Y750723D02*Y749223D01*
X148015Y751223D02*Y749223D01*
X144015D02*X148015D01*
X144015Y751223D02*Y749223D01*
Y754423D02*Y752423D01*
Y753423D02*X148015D01*
X209815Y689923D02*Y688623D01*
X209115Y687923D02*X209815Y688623D01*
X206515Y687923D02*X209115D01*
X206515D02*X205815Y688623D01*
Y689923D02*Y688623D01*
X206315Y691123D02*X209315D01*
X206315D02*X205815Y691623D01*
Y692623D02*Y691623D01*
Y692623D02*X206315Y693123D01*
X209315D01*
X209815Y692623D02*X209315Y693123D01*
X209815Y692623D02*Y691623D01*
X209315Y691123D02*X209815Y691623D01*
X205815Y694323D02*X209815D01*
X205815D02*X209815Y696823D01*
X205815D02*X209815D01*
X205815Y700023D02*Y698023D01*
Y699023D02*X209815D01*
X205815Y703223D02*Y701223D01*
Y703223D02*X206315Y703723D01*
X207315D01*
X207815Y703223D02*X207315Y703723D01*
X207815Y703223D02*Y701723D01*
X205815D02*X209815D01*
X207815Y702523D02*X209815Y703723D01*
X206815Y704923D02*X209815D01*
X206815D02*X205815Y705623D01*
Y706723D02*Y705623D01*
Y706723D02*X206815Y707423D01*
X209815D01*
X207815D02*Y704923D01*
X205815Y710623D02*X206315Y711123D01*
X205815Y710623D02*Y709123D01*
X206315Y708623D02*X205815Y709123D01*
X206315Y708623D02*X207315D01*
X207815Y709123D01*
Y710623D02*Y709123D01*
Y710623D02*X208315Y711123D01*
X209315D01*
X209815Y710623D02*X209315Y711123D01*
X209815Y710623D02*Y709123D01*
X209315Y708623D02*X209815Y709123D01*
X205815Y714323D02*Y712323D01*
Y713323D02*X209815D01*
X472815Y526923D02*Y522923D01*
Y526923D02*X474815D01*
X472815Y525123D02*X474315D01*
X476015Y526923D02*Y522923D01*
Y526923D02*X478515Y522923D01*
Y526923D02*Y522923D01*
X207815Y544923D02*Y540923D01*
X209815D01*
X211015Y543123D02*X212515D01*
X211015Y540923D02*X213015D01*
X211015Y544923D02*Y540923D01*
Y544923D02*X213015D01*
X214215D02*X215215Y540923D01*
X216215Y544923D01*
X217415Y543123D02*X218915D01*
X217415Y540923D02*X219415D01*
X217415Y544923D02*Y540923D01*
Y544923D02*X219415D01*
X220615D02*Y540923D01*
X222615D01*
G54D161*X338842Y686749D02*X378842D01*
X338842Y696749D02*X378842D01*
X343842D02*Y686749D01*
X338842Y696749D02*G75*G03X338842Y686749I0J-5000D01*G01*
X378842D02*G75*G03X378842Y696749I0J5000D01*G01*
G54D160*X377064Y668245D02*X377850D01*
X377064Y673755D02*X377850D01*
X361700Y706400D02*Y697600D01*
X346300Y706400D02*X361700D01*
X346300D02*Y697600D01*
X361700D01*
G54D161*X408300Y667900D02*Y656000D01*
X417700D01*
Y667900D01*
X408300D01*
G54D160*X345000Y730500D02*X355000D01*
X345000D02*Y709500D01*
X355000D01*
Y730500D02*Y709500D01*
X345000Y729500D02*X355000D01*
X366220Y790600D02*Y781800D01*
X350820Y790600D02*X366220D01*
X350820D02*Y781800D01*
X366220D01*
X354326Y757423D02*X364326D01*
Y778423D02*Y757423D01*
X354326Y778423D02*X364326D01*
X354326D02*Y757423D01*
Y758423D02*X364326D01*
G54D161*X370557Y730828D02*Y726828D01*
X368557Y728828D02*X372557D01*
X370557Y702828D02*Y698828D01*
Y724828D02*G75*G03X370557Y724828I0J-10000D01*G01*
G54D160*X352000Y821100D02*X368000D01*
X352000D02*Y793400D01*
X368000Y821100D02*Y793400D01*
X353500Y791900D02*X366500D01*
X352700Y792700D02*X367300D01*
X366500Y791900D02*X368000Y793400D01*
X353500Y791900D02*X352000Y793400D01*
X368315Y759795D02*Y783811D01*
X369890D01*
X376189D02*X383276D01*
X388000D02*X391937D01*
X396661D02*X400598D01*
X405323D02*X407685D01*
Y759795D01*
X405323D01*
X368315D02*X369890D01*
X376189D02*X383276D01*
X388000D02*X391937D01*
X396661D02*X400598D01*
G54D162*X373039Y777118D02*Y766488D01*
G54D161*X398258Y735551D02*X418258D01*
X338258D02*X358258D01*
Y728951D02*X398258D01*
X358258Y742151D02*Y728951D01*
Y742151D02*X398258D01*
Y728951D01*
G54D160*X383707Y751445D02*X384493D01*
X383707Y756955D02*X384493D01*
X383707Y743445D02*X384493D01*
X383707Y748955D02*X384493D01*
G54D161*X391700Y757000D02*Y743100D01*
X404500D01*
Y757000D01*
X391700D01*
G54D160*X385200Y724800D02*Y687200D01*
X422700D01*
Y724800D02*Y687200D01*
X385200Y724800D02*X422700D01*
X420700D02*Y722800D01*
X422700D01*
X387200Y724800D02*Y722800D01*
X385200D02*X387200D01*
Y689200D02*Y687200D01*
X385200Y689200D02*X387200D01*
X420700D02*X422700D01*
X420700D02*Y687200D01*
X400500Y706800D02*X407700D01*
Y707800D02*Y706800D01*
Y707800D02*X409500Y706000D01*
X407700Y704200D01*
Y705100D02*Y704200D01*
X400600Y705100D02*X407700D01*
X405300Y701000D02*G75*G03X410300Y706000I0J5000D01*G01*
G75*G03X405300Y711000I-5000J0D01*G01*
G75*G03X400300Y706000I0J-5000D01*G01*
G75*G03X405300Y701000I5000J0D01*G01*
G54D161*X437238Y816351D02*X457238D01*
X377238D02*X397238D01*
Y809751D02*X437238D01*
X397238Y822951D02*Y809751D01*
Y822951D02*X437238D01*
Y809751D01*
G54D160*X480031Y721717D02*X512315D01*
X455228D02*X460346D01*
X455228D02*Y715024D01*
Y692976D02*Y686283D01*
X512315D01*
Y721717D02*Y686283D01*
X498535Y721717D02*Y686283D01*
X455228Y690220D02*X498535D01*
X478850Y717780D02*X498535D01*
X455228D02*X461528D01*
X459165Y692976D02*Y690220D01*
Y717780D02*Y715024D01*
X425000Y723500D02*X435000D01*
Y744500D02*Y723500D01*
X425000Y744500D02*X435000D01*
X425000D02*Y723500D01*
Y724500D02*X435000D01*
G54D161*X442200Y784500D02*X513500D01*
X442200Y732500D02*X513500D01*
X442200Y784500D02*Y732500D01*
X513500D02*X513520Y784500D01*
G54D160*X479000Y819000D02*G75*G03X471000Y811000I0J-8000D01*G01*
G75*G03X479000Y803000I8000J0D01*G01*
G75*G03X487000Y811000I0J8000D01*G01*
G75*G03X479000Y819000I-8000J0D01*G01*
G54D161*X437738Y801851D02*X457738D01*
X377738D02*X397738D01*
Y795251D02*X437738D01*
X397738Y808451D02*Y795251D01*
Y808451D02*X437738D01*
Y795251D01*
G54D160*X416094Y789512D02*X439717D01*
Y765890D01*
X416094D02*X439717D01*
X416094Y789512D02*Y765890D01*
X418850Y789512D02*Y770614D01*
Y773764D02*X420425D01*
Y780063D02*Y770614D01*
X418850Y780063D02*X420425D01*
X419638Y770614D02*Y765890D01*
X418850Y770614D02*X420425D01*
X436961Y789512D02*Y770614D01*
X435386Y773764D02*X436961D01*
X435386Y780063D02*Y770614D01*
Y780063D02*X436961D01*
X436173Y770614D02*Y765890D01*
X435386Y770614D02*X436961D01*
X385449Y787009D02*X386235D01*
X385449Y792519D02*X386235D01*
X400363Y787009D02*X401149D01*
X400363Y792519D02*X401149D01*
X304753Y531160D02*Y507538D01*
Y531160D02*X331131D01*
Y507538D01*
X304753D02*X331131D01*
X317942Y525845D02*G75*G03X311446Y519349I0J-6496D01*G01*
X324438D02*G75*G03X317942Y525845I-6496J0D01*G01*
Y512853D02*G75*G03X324438Y519349I0J6496D01*G01*
X311446D02*G75*G03X317942Y512853I6496J0D01*G01*
X479000Y519000D02*G75*G03X471000Y511000I0J-8000D01*G01*
G75*G03X479000Y503000I8000J0D01*G01*
G75*G03X487000Y511000I0J8000D01*G01*
G75*G03X479000Y519000I-8000J0D01*G01*
X438753Y530260D02*Y506638D01*
Y530260D02*X465131D01*
Y506638D01*
X438753D02*X465131D01*
X451942Y524945D02*G75*G03X445446Y518449I0J-6496D01*G01*
X458438D02*G75*G03X451942Y524945I-6496J0D01*G01*
Y511953D02*G75*G03X458438Y518449I0J6496D01*G01*
X445446D02*G75*G03X451942Y511953I6496J0D01*G01*
X370811Y529811D02*Y506189D01*
Y529811D02*X397189D01*
Y506189D01*
X370811D02*X397189D01*
X384000Y524496D02*G75*G03X377504Y518000I0J-6496D01*G01*
X390496D02*G75*G03X384000Y524496I-6496J0D01*G01*
Y511504D02*G75*G03X390496Y518000I0J6496D01*G01*
X377504D02*G75*G03X384000Y511504I6496J0D01*G01*
X459700Y550400D02*Y541600D01*
X444300Y550400D02*X459700D01*
X444300D02*Y541600D01*
X459700D01*
X493342Y631849D02*Y584849D01*
X473942Y581649D02*X481442D01*
X450242D02*X469042D01*
X428142D02*X443842D01*
X428142Y583549D02*Y581649D01*
X428342Y636149D02*Y628749D01*
Y636149D02*X485042D01*
X493342Y584949D02*X488342Y599549D01*
Y614649D02*Y599549D01*
X465242Y586849D02*X481342D01*
X465242Y588549D02*Y586849D01*
Y588549D02*X467242D01*
X478342Y590249D01*
X481342D01*
X488342Y614649D02*X493342Y629249D01*
X465242Y627349D02*X481342D01*
X465242D02*Y625649D01*
X467242D01*
X478342Y623949D01*
X481342D01*
G54D163*X461042Y592749D02*X470842D01*
X460642Y621549D02*X470442D01*
G54D160*X437442Y636149D02*Y634149D01*
X442542D01*
Y636149D02*Y634149D01*
X469942Y636149D02*Y634149D01*
X475042D01*
Y636149D02*Y634149D01*
X453342Y582349D02*X454642D01*
X453442Y582249D02*X450342Y585349D01*
X445142D02*X450342D01*
X445142D02*X444242Y586249D01*
X439042D02*X444242D01*
X439042D02*X435242Y582449D01*
X432742D02*X435242D01*
X435842Y630049D02*X457242D01*
Y628349D01*
X445642D02*X457242D01*
X445642D02*X444442Y627149D01*
X440942D02*X444442D01*
X440942D02*X447242D01*
Y625149D01*
X442542D02*X447242D01*
X442542D02*X438442Y626149D01*
X435842D02*X438442D01*
X435842Y630049D02*Y626149D01*
X469942Y632449D02*X475042D01*
Y631049D01*
X469942D02*X475042D01*
X469942Y632449D02*Y631049D01*
X475042Y583549D02*Y581649D01*
X473842Y583549D02*X475042D01*
X468142D02*X469042D01*
X468142D02*Y581649D01*
X406600Y595300D02*X415400D01*
Y610700D02*Y595300D01*
X406600Y610700D02*X415400D01*
X406600D02*Y595300D01*
X416600D02*X425400D01*
Y610700D02*Y595300D01*
X416600Y610700D02*X425400D01*
X416600D02*Y595300D01*
X323000Y579000D02*Y572000D01*
X335000D01*
Y579000D02*Y572000D01*
X323000Y579000D02*X335000D01*
X368500Y611500D02*X375500D01*
Y623500D02*Y611500D01*
X368500Y623500D02*X375500D01*
X368500D02*Y611500D01*
G54D161*X310000Y557500D02*X340000D01*
X310000Y567500D02*X340000D01*
X315000D02*Y557500D01*
X310000Y567500D02*G75*G03X310000Y557500I0J-5000D01*G01*
X340000D02*G75*G03X340000Y567500I0J5000D01*G01*
X350000Y557500D02*X380000D01*
X350000Y567500D02*X380000D01*
X355000D02*Y557500D01*
X350000Y567500D02*G75*G03X350000Y557500I0J-5000D01*G01*
X380000D02*G75*G03X380000Y567500I0J5000D01*G01*
G54D160*X390700Y549900D02*Y541100D01*
X375300Y549900D02*X390700D01*
X375300D02*Y541100D01*
X390700D01*
X325700Y550400D02*Y541600D01*
X310300Y550400D02*X325700D01*
X310300D02*Y541600D01*
X325700D01*
X178561Y681315D02*X493522D01*
Y539583D01*
X178561D01*
Y681315D01*
X195687Y662220D02*X476396D01*
Y558677D01*
X195687D01*
Y662220D01*
X209073Y642732D02*X463010D01*
Y578165D01*
X209073D01*
Y642732D01*
G54D164*X202380Y652378D02*X469703D01*
X202774Y568323D02*X469506D01*
G54D160*X358064Y654245D02*X358850D01*
X358064Y659755D02*X358850D01*
X302783Y587990D02*X354201D01*
X302783Y642308D02*Y587990D01*
Y642308D02*X357101D01*
Y590890D01*
X354201Y587990D01*
X355201Y590890D02*G75*G03X355201Y590890I-1000J0D01*G01*
X333642Y658249D02*Y651249D01*
X321642Y658249D02*X333642D01*
X321642D02*Y651249D01*
X333642D01*
X236453Y530560D02*Y506938D01*
Y530560D02*X262831D01*
Y506938D01*
X236453D02*X262831D01*
X249642Y525245D02*G75*G03X243146Y518749I0J-6496D01*G01*
X256138D02*G75*G03X249642Y525245I-6496J0D01*G01*
Y512253D02*G75*G03X256138Y518749I0J6496D01*G01*
X243146D02*G75*G03X249642Y512253I6496J0D01*G01*
X168811Y531811D02*Y508189D01*
Y531811D02*X195189D01*
Y508189D01*
X168811D02*X195189D01*
X182000Y526496D02*G75*G03X175504Y520000I0J-6496D01*G01*
X188496D02*G75*G03X182000Y526496I-6496J0D01*G01*
Y513504D02*G75*G03X188496Y520000I0J6496D01*G01*
X175504D02*G75*G03X182000Y513504I6496J0D01*G01*
X196700Y539100D02*X234300D01*
X196700D02*Y501600D01*
X234300D01*
Y539100D02*Y501600D01*
X232300Y503600D02*X234300D01*
X232300D02*Y501600D01*
Y537100D02*X234300D01*
X232300Y539100D02*Y537100D01*
X196700D02*X198700D01*
Y539100D02*Y537100D01*
Y503600D02*Y501600D01*
X196700Y503600D02*X198700D01*
X216300Y523800D02*Y516600D01*
X217300D01*
X215500Y514800D01*
X213700Y516600D01*
X214600D01*
Y523700D02*Y516600D01*
X210500Y519000D02*G75*G03X215500Y514000I5000J0D01*G01*
G75*G03X220500Y519000I0J5000D01*G01*
G75*G03X215500Y524000I-5000J0D01*G01*
G75*G03X210500Y519000I0J-5000D01*G01*
X255700Y550400D02*Y541600D01*
X240300Y550400D02*X255700D01*
X240300D02*Y541600D01*
X255700D01*
X175700Y548400D02*Y539600D01*
X160300Y548400D02*X175700D01*
X160300D02*Y539600D01*
X175700D01*
X151000Y519000D02*G75*G03X143000Y511000I0J-8000D01*G01*
G75*G03X151000Y503000I8000J0D01*G01*
G75*G03X159000Y511000I0J8000D01*G01*
G75*G03X151000Y519000I-8000J0D01*G01*
G54D161*X164100Y582500D02*X151800D01*
X166100Y584500D02*X164100Y582500D01*
X149700Y584500D02*X151800Y582500D01*
X166102Y584498D02*G75*G03X149698Y584498I-8202J8202D01*G01*
X164100Y551500D02*X151800D01*
X166100Y553500D02*X164100Y551500D01*
X149700Y553500D02*X151800Y551500D01*
X166102Y553498D02*G75*G03X149698Y553498I-8202J8202D01*G01*
X164100Y613500D02*X151800D01*
X166100Y615500D02*X164100Y613500D01*
X149700Y615500D02*X151800Y613500D01*
X166102Y615498D02*G75*G03X149698Y615498I-8202J8202D01*G01*
X164100Y644500D02*X151800D01*
X166100Y646500D02*X164100Y644500D01*
X149700Y646500D02*X151800Y644500D01*
X166102Y646498D02*G75*G03X149698Y646498I-8202J8202D01*G01*
G54D160*X177607Y657245D02*X178393D01*
X177607Y662755D02*X178393D01*
X177607Y626245D02*X178393D01*
X177607Y631755D02*X178393D01*
X177607Y592245D02*X178393D01*
X177607Y597755D02*X178393D01*
X177607Y563245D02*X178393D01*
X177607Y568755D02*X178393D01*
G54D161*X259542Y605149D02*X269542D01*
X259542Y615149D02*X269542D01*
X264542D02*Y605149D01*
X259542Y615149D02*G75*G03X259542Y605149I0J-5000D01*G01*
X269542D02*G75*G03X269542Y615149I0J5000D01*G01*
X259342Y630349D02*X269342D01*
X259342Y620349D02*X269342D01*
X264342Y630349D02*Y620349D01*
X269342D02*G75*G03X269342Y630349I0J5000D01*G01*
X259342D02*G75*G03X259342Y620349I0J-5000D01*G01*
X215000Y651000D02*X265000D01*
X215000Y661000D02*X265000D01*
X220000D02*Y651000D01*
X215000Y661000D02*G75*G03X215000Y651000I0J-5000D01*G01*
X265000D02*G75*G03X265000Y661000I0J5000D01*G01*
X275000D02*X285000D01*
X275000Y651000D02*X285000D01*
X280000Y661000D02*Y651000D01*
X285000D02*G75*G03X285000Y661000I0J5000D01*G01*
X275000D02*G75*G03X275000Y651000I0J-5000D01*G01*
G54D160*X193300Y649900D02*Y641100D01*
X208700D01*
Y649900D02*Y641100D01*
X193300Y649900D02*X208700D01*
X193300Y659900D02*Y651100D01*
X208700D01*
Y659900D02*Y651100D01*
X193300Y659900D02*X208700D01*
X221000Y634500D02*X228000D01*
X221000D02*Y622500D01*
X228000D01*
Y634500D02*Y622500D01*
X285064Y588245D02*X285850D01*
X285064Y593755D02*X285850D01*
X221000Y606500D02*X228000D01*
Y618500D02*Y606500D01*
X221000Y618500D02*X228000D01*
X221000D02*Y606500D01*
X285064Y612245D02*X285850D01*
X285064Y617755D02*X285850D01*
X270000Y604000D02*Y597000D01*
X258000Y604000D02*X270000D01*
X258000D02*Y597000D01*
X270000D01*
Y579000D02*Y572000D01*
X258000Y579000D02*X270000D01*
X258000D02*Y572000D01*
X270000D01*
X210768Y625158D02*Y616358D01*
X195368Y625158D02*X210768D01*
X195368D02*Y616358D01*
X210768D01*
G54D161*X198441Y586547D02*X209495D01*
Y612169D02*Y586547D01*
X198441Y612169D02*X209495D01*
X198441Y596858D02*Y586547D01*
Y612169D02*Y601858D01*
Y596858D02*G75*G03X198441Y601858I0J2500D01*G01*
G54D160*X193468Y582458D02*X202268D01*
X193468D02*Y567058D01*
X202268D01*
Y582458D02*Y567058D01*
X203468Y582458D02*X212268D01*
X203468D02*Y567058D01*
X212268D01*
Y582458D02*Y567058D01*
X279242Y626649D02*Y619649D01*
X291242D01*
Y626649D02*Y619649D01*
X279242Y626649D02*X291242D01*
G54D161*X229442Y632749D02*Y607449D01*
X247742Y632749D02*Y607449D01*
X247642Y632749D02*G75*G03X229442Y632749I-9100J0D01*G01*
Y607449D02*G75*G03X247642Y607449I9100J0D01*G01*
G54D160*X259420Y590185D02*X263357D01*
X259420Y585855D02*X263357D01*
X259420Y594122D02*Y581918D01*
X222806D02*X259420D01*
X222806Y594122D02*Y581918D01*
Y594122D02*X259420D01*
G54D161*X156500Y783000D02*X166500D01*
X156500Y793000D02*X166500D01*
X161500D02*Y783000D01*
X156500Y793000D02*G75*G03X156500Y783000I0J-5000D01*G01*
X166500D02*G75*G03X166500Y793000I0J5000D01*G01*
G54D160*X182600Y803200D02*X191400D01*
X182600D02*Y787800D01*
X191400D01*
Y803200D02*Y787800D01*
X201607Y794755D02*X202393D01*
X201607Y789245D02*X202393D01*
G54D161*X195900Y797457D02*X209800D01*
Y810257D02*Y797457D01*
X195900Y810257D02*X209800D01*
X195900D02*Y797457D01*
G54D160*X264755Y800850D02*Y800064D01*
X259245Y800850D02*Y800064D01*
X266745Y800850D02*Y800064D01*
X272255Y800850D02*Y800064D01*
X273700Y818357D02*Y809557D01*
X258300Y818357D02*X273700D01*
X258300D02*Y809557D01*
X273700D01*
X247949Y787758D02*X257949D01*
X247949D02*Y766758D01*
X257949D01*
Y787758D02*Y766758D01*
X247949Y786758D02*X257949D01*
X249755Y804893D02*Y804107D01*
X244245Y804893D02*Y804107D01*
X257255Y804893D02*Y804107D01*
X251745Y804893D02*Y804107D01*
X212600Y769800D02*X221400D01*
Y785200D02*Y769800D01*
X212600Y785200D02*X221400D01*
X212600D02*Y769800D01*
G54D161*X225000Y763500D02*X244000D01*
Y794500D02*Y763500D01*
X225000Y794500D02*X244000D01*
X225000Y776500D02*Y763500D01*
Y794500D02*Y781500D01*
Y776500D02*G75*G03X225000Y781500I0J2500D01*G01*
G54D160*X232600Y813200D02*X241400D01*
X232600D02*Y797800D01*
X241400D01*
Y813200D02*Y797800D01*
X220449Y797758D02*X230449D01*
Y818758D02*Y797758D01*
X220449Y818758D02*X230449D01*
X220449D02*Y797758D01*
Y798758D02*X230449D01*
X217255Y804893D02*Y804107D01*
X211745Y804893D02*Y804107D01*
X331600Y727700D02*X340400D01*
X331600D02*Y712300D01*
X340400D01*
Y727700D02*Y712300D01*
X329700Y738400D02*Y729600D01*
X314300Y738400D02*X329700D01*
X314300D02*Y729600D01*
X329700D01*
Y714400D02*Y705600D01*
X314300Y714400D02*X329700D01*
X314300D02*Y705600D01*
X329700D01*
G54D161*X314900Y727800D02*X328800D01*
X314900D02*Y716000D01*
X328800D01*
Y727800D02*Y716000D01*
G54D160*X277551Y811242D02*Y751242D01*
X303551Y821842D02*Y740642D01*
X321551D01*
Y821842D02*Y740642D01*
X303551Y821842D02*X321551D01*
X282551Y746242D02*X303551D01*
X282551Y816242D02*X303551D01*
X321551Y746242D02*X342551D01*
X347551Y811242D02*Y751242D01*
X321551Y816242D02*X342551D01*
Y746242D02*G75*G03X347551Y751242I0J5000D01*G01*
Y811242D02*G75*G03X342551Y816242I-5000J0D01*G01*
X277551Y751242D02*G75*G03X282551Y746242I5000J0D01*G01*
Y816242D02*G75*G03X277551Y811242I0J-5000D01*G01*
X260449Y766758D02*X270449D01*
Y787758D02*Y766758D01*
X260449Y787758D02*X270449D01*
X260449D02*Y766758D01*
Y767758D02*X270449D01*
X258300Y743100D02*Y734300D01*
X273700D01*
Y743100D02*Y734300D01*
X258300Y743100D02*X273700D01*
X264107Y751755D02*X264893D01*
X264107Y746245D02*X264893D01*
X271200Y763400D02*Y754600D01*
X255800Y763400D02*X271200D01*
X255800D02*Y754600D01*
X271200D01*
X284100Y723300D02*Y714500D01*
X268700Y723300D02*X284100D01*
X268700D02*Y714500D01*
X284100D01*
X233745Y741893D02*Y741107D01*
X239255Y741893D02*Y741107D01*
X151000Y819000D02*G75*G03X143000Y811000I0J-8000D01*G01*
G75*G03X151000Y803000I8000J0D01*G01*
G75*G03X159000Y811000I0J8000D01*G01*
G75*G03X151000Y819000I-8000J0D01*G01*
X169700Y775400D02*Y766600D01*
X154300Y775400D02*X169700D01*
X154300D02*Y766600D01*
X169700D01*
X149802Y758217D02*Y734595D01*
Y758217D02*X176180D01*
Y734595D01*
X149802D02*X176180D01*
X162991Y752902D02*G75*G03X156494Y746406I0J-6496D01*G01*
X169487D02*G75*G03X162991Y752902I-6496J0D01*G01*
Y739910D02*G75*G03X169487Y746406I0J6496D01*G01*
X156494D02*G75*G03X162991Y739910I6496J0D01*G01*
X156755Y700393D02*Y699607D01*
X151245Y700393D02*Y699607D01*
X248600Y709400D02*Y700600D01*
X233200Y709400D02*X248600D01*
X233200D02*Y700600D01*
X248600D01*
X259507Y710255D02*X260293D01*
X259507Y704745D02*X260293D01*
X266100Y701900D02*Y693100D01*
X250700Y701900D02*X266100D01*
X250700D02*Y693100D01*
X266100D01*
G54D161*X263750Y731000D02*Y712000D01*
X232750Y731000D02*X263750D01*
X232750D02*Y712000D01*
X250750D02*X263750D01*
X232750D02*X245750D01*
X250750D02*G75*G03X245750Y712000I-2500J0D01*G01*
G54D160*X151245Y716393D02*Y715607D01*
X156755Y716393D02*Y715607D01*
X161258Y722051D02*X198858D01*
X161258D02*Y684551D01*
X198858D01*
Y722051D02*Y684551D01*
X196858Y686551D02*X198858D01*
X196858D02*Y684551D01*
Y720051D02*X198858D01*
X196858Y722051D02*Y720051D01*
X161258D02*X163258D01*
Y722051D02*Y720051D01*
Y686551D02*Y684551D01*
X161258Y686551D02*X163258D01*
X180858Y706751D02*Y699551D01*
X181858D01*
X180058Y697751D01*
X178258Y699551D01*
X179158D01*
Y706651D02*Y699551D01*
X175058Y701951D02*G75*G03X180058Y696951I5000J0D01*G01*
G75*G03X185058Y701951I0J5000D01*G01*
G75*G03X180058Y706951I-5000J0D01*G01*
G75*G03X175058Y701951I0J-5000D01*G01*
X217150Y714755D02*X217936D01*
X217150Y709245D02*X217936D01*
X203043Y727000D02*Y717000D01*
X224043D01*
Y727000D02*Y717000D01*
X203043Y727000D02*X224043D01*
X204043D02*Y717000D01*
X248200Y758400D02*Y749600D01*
X232800Y758400D02*X248200D01*
X232800D02*Y749600D01*
X248200D01*
X246755Y741893D02*Y741107D01*
X241245Y741893D02*Y741107D01*
X190643Y727800D02*X199443D01*
Y743200D02*Y727800D01*
X190643Y743200D02*X199443D01*
X190643D02*Y727800D01*
X203662Y746110D02*Y745324D01*
X209172Y746110D02*Y745324D01*
X224043Y737000D02*Y727000D01*
X203043Y737000D02*X224043D01*
X203043D02*Y727000D01*
X224043D01*
X223043Y737000D02*Y727000D01*
X217150Y746745D02*X217936D01*
X217150Y752255D02*X217936D01*
X217150Y744755D02*X217936D01*
X217150Y739245D02*X217936D01*
X276007Y689745D02*X276793D01*
X276007Y695255D02*X276793D01*
X276007Y706745D02*X276793D01*
X276007Y712255D02*X276793D01*
X276007Y698245D02*X276793D01*
X276007Y703755D02*X276793D01*
X275550Y726145D02*X276336D01*
X275550Y731655D02*X276336D01*
X265366Y514237D02*X265866Y514737D01*
X265366Y514237D02*Y512737D01*
X265866Y512237D02*X265366Y512737D01*
X265866Y512237D02*X266866D01*
X267366Y512737D01*
Y514237D02*Y512737D01*
Y514237D02*X267866Y514737D01*
X268866D01*
X269366Y514237D02*X268866Y514737D01*
X269366Y514237D02*Y512737D01*
X268866Y512237D02*X269366Y512737D01*
X265866Y515937D02*X265366Y516437D01*
Y517937D02*Y516437D01*
Y517937D02*X265866Y518437D01*
X266866D01*
X269366Y515937D02*X266866Y518437D01*
X269366D02*Y515937D01*
X268866Y519637D02*X269366Y520137D01*
X265866Y519637D02*X268866D01*
X265866D02*X265366Y520137D01*
Y521137D02*Y520137D01*
Y521137D02*X265866Y521637D01*
X268866D01*
X269366Y521137D02*X268866Y521637D01*
X269366Y521137D02*Y520137D01*
X268366Y519637D02*X266366Y521637D01*
X265366Y524337D02*X265866Y524837D01*
X265366Y524337D02*Y523337D01*
X265866Y522837D02*X265366Y523337D01*
X265866Y522837D02*X268866D01*
X269366Y523337D01*
X267166Y524337D02*X267666Y524837D01*
X267166Y524337D02*Y522837D01*
X269366Y524337D02*Y523337D01*
Y524337D02*X268866Y524837D01*
X267666D02*X268866D01*
X162724Y516488D02*X163224Y516988D01*
X162724Y516488D02*Y514988D01*
X163224Y514488D02*X162724Y514988D01*
X163224Y514488D02*X164224D01*
X164724Y514988D01*
Y516488D02*Y514988D01*
Y516488D02*X165224Y516988D01*
X166224D01*
X166724Y516488D02*X166224Y516988D01*
X166724Y516488D02*Y514988D01*
X166224Y514488D02*X166724Y514988D01*
X163224Y518188D02*X162724Y518688D01*
Y520188D02*Y518688D01*
Y520188D02*X163224Y520688D01*
X164224D01*
X166724Y518188D02*X164224Y520688D01*
X166724D02*Y518188D01*
X166224Y521888D02*X166724Y522388D01*
X163224Y521888D02*X166224D01*
X163224D02*X162724Y522388D01*
Y523388D02*Y522388D01*
Y523388D02*X163224Y523888D01*
X166224D01*
X166724Y523388D02*X166224Y523888D01*
X166724Y523388D02*Y522388D01*
X165724Y521888D02*X163724Y523888D01*
X162724Y527088D02*Y525088D01*
X164724D01*
X164224Y525588D01*
Y526588D02*Y525588D01*
Y526588D02*X164724Y527088D01*
X166224D01*
X166724Y526588D02*X166224Y527088D01*
X166724Y526588D02*Y525588D01*
X166224Y525088D02*X166724Y525588D01*
X257931Y544046D02*X259231D01*
X257231Y544746D02*X257931Y544046D01*
X257231Y547346D02*Y544746D01*
Y547346D02*X257931Y548046D01*
X259231D01*
X260431Y547546D02*X260931Y548046D01*
X262431D01*
X262931Y547546D01*
Y546546D01*
X260431Y544046D02*X262931Y546546D01*
X260431Y544046D02*X262931D01*
X264131Y544546D02*X264631Y544046D01*
X264131Y547546D02*Y544546D01*
Y547546D02*X264631Y548046D01*
X265631D01*
X266131Y547546D01*
Y544546D01*
X265631Y544046D02*X266131Y544546D01*
X264631Y544046D02*X265631D01*
X264131Y545046D02*X266131Y547046D01*
X267831Y544046D02*X269831Y548046D01*
X267331D02*X269831D01*
X146931Y541546D02*X148231D01*
X146231Y542246D02*X146931Y541546D01*
X146231Y544846D02*Y542246D01*
Y544846D02*X146931Y545546D01*
X148231D01*
X149431Y545046D02*X149931Y545546D01*
X151431D01*
X151931Y545046D01*
Y544046D01*
X149431Y541546D02*X151931Y544046D01*
X149431Y541546D02*X151931D01*
X153131Y542046D02*X153631Y541546D01*
X153131Y545046D02*Y542046D01*
Y545046D02*X153631Y545546D01*
X154631D01*
X155131Y545046D01*
Y542046D01*
X154631Y541546D02*X155131Y542046D01*
X153631Y541546D02*X154631D01*
X153131Y542546D02*X155131Y544546D01*
X157831Y545546D02*X158331Y545046D01*
X156831Y545546D02*X157831D01*
X156331Y545046D02*X156831Y545546D01*
X156331Y545046D02*Y542046D01*
X156831Y541546D01*
X157831Y543746D02*X158331Y543246D01*
X156331Y543746D02*X157831D01*
X156831Y541546D02*X157831D01*
X158331Y542046D01*
Y543246D02*Y542046D01*
X208231Y551046D02*X210231D01*
X210731Y550546D01*
Y549546D01*
X210231Y549046D02*X210731Y549546D01*
X208731Y549046D02*X210231D01*
X208731Y551046D02*Y547046D01*
X209531Y549046D02*X210731Y547046D01*
X211931Y550546D02*X212431Y551046D01*
X213931D01*
X214431Y550546D01*
Y549546D01*
X211931Y547046D02*X214431Y549546D01*
X211931Y547046D02*X214431D01*
X215631Y550246D02*X216431Y551046D01*
Y547046D01*
X215631D02*X217131D01*
X218331Y550546D02*X218831Y551046D01*
X220331D01*
X220831Y550546D01*
Y549546D01*
X218331Y547046D02*X220831Y549546D01*
X218331Y547046D02*X220831D01*
X145881Y695454D02*Y693454D01*
Y695454D02*X146381Y695954D01*
X147381D01*
X147881Y695454D02*X147381Y695954D01*
X147881Y695454D02*Y693954D01*
X145881D02*X149881D01*
X147881Y694754D02*X149881Y695954D01*
X146381Y697154D02*X145881Y697654D01*
Y699154D02*Y697654D01*
Y699154D02*X146381Y699654D01*
X147381D01*
X149881Y697154D02*X147381Y699654D01*
X149881D02*Y697154D01*
X149381Y700854D02*X149881Y701354D01*
X146381Y700854D02*X149381D01*
X146381D02*X145881Y701354D01*
Y702354D02*Y701354D01*
Y702354D02*X146381Y702854D01*
X149381D01*
X149881Y702354D02*X149381Y702854D01*
X149881Y702354D02*Y701354D01*
X148881Y700854D02*X146881Y702854D01*
X145881Y706054D02*Y704054D01*
X147881D01*
X147381Y704554D01*
Y705554D02*Y704554D01*
Y705554D02*X147881Y706054D01*
X149381D01*
X149881Y705554D02*X149381Y706054D01*
X149881Y705554D02*Y704554D01*
X149381Y704054D02*X149881Y704554D01*
X152200Y671700D02*Y667700D01*
X153500Y671700D02*X154200Y671000D01*
Y668400D01*
X153500Y667700D02*X154200Y668400D01*
X151700Y667700D02*X153500D01*
X151700Y671700D02*X153500D01*
X155400Y671200D02*X155900Y671700D01*
X157400D01*
X157900Y671200D01*
Y670200D01*
X155400Y667700D02*X157900Y670200D01*
X155400Y667700D02*X157900D01*
X159100Y668200D02*X159600Y667700D01*
X159100Y671200D02*Y668200D01*
Y671200D02*X159600Y671700D01*
X160600D01*
X161100Y671200D01*
Y668200D01*
X160600Y667700D02*X161100Y668200D01*
X159600Y667700D02*X160600D01*
X159100Y668700D02*X161100Y670700D01*
X162300Y670900D02*X163100Y671700D01*
Y667700D01*
X162300D02*X163800D01*
X173242Y666189D02*Y664189D01*
Y666189D02*X173742Y666689D01*
X174742D01*
X175242Y666189D02*X174742Y666689D01*
X175242Y666189D02*Y664689D01*
X173242D02*X177242D01*
X175242Y665489D02*X177242Y666689D01*
X173742Y667889D02*X173242Y668389D01*
Y669889D02*Y668389D01*
Y669889D02*X173742Y670389D01*
X174742D01*
X177242Y667889D02*X174742Y670389D01*
X177242D02*Y667889D01*
X176742Y671589D02*X177242Y672089D01*
X173742Y671589D02*X176742D01*
X173742D02*X173242Y672089D01*
Y673089D02*Y672089D01*
Y673089D02*X173742Y673589D01*
X176742D01*
X177242Y673089D02*X176742Y673589D01*
X177242Y673089D02*Y672089D01*
X176242Y671589D02*X174242Y673589D01*
X173242Y676289D02*X173742Y676789D01*
X173242Y676289D02*Y675289D01*
X173742Y674789D02*X173242Y675289D01*
X173742Y674789D02*X176742D01*
X177242Y675289D01*
X175042Y676289D02*X175542Y676789D01*
X175042Y676289D02*Y674789D01*
X177242Y676289D02*Y675289D01*
Y676289D02*X176742Y676789D01*
X175542D02*X176742D01*
X146010Y711770D02*Y709850D01*
Y711770D02*X146490Y712250D01*
X147450D01*
X147930Y711770D02*X147450Y712250D01*
X147930Y711770D02*Y710330D01*
X146010D02*X149850D01*
X147930Y711098D02*X149850Y712250D01*
X146490Y713402D02*X146010Y713882D01*
Y715322D02*Y713882D01*
Y715322D02*X146490Y715802D01*
X147450D01*
X149850Y713402D02*X147450Y715802D01*
X149850D02*Y713402D01*
X149370Y716954D02*X149850Y717434D01*
X146490Y716954D02*X149370D01*
X146490D02*X146010Y717434D01*
Y718394D02*Y717434D01*
Y718394D02*X146490Y718874D01*
X149370D01*
X149850Y718394D02*X149370Y718874D01*
X149850Y718394D02*Y717434D01*
X148890Y716954D02*X146970Y718874D01*
X148410Y720026D02*X146010Y721946D01*
X148410Y722426D02*Y720026D01*
X146010Y721946D02*X149850D01*
X152200Y609700D02*Y605700D01*
X153500Y609700D02*X154200Y609000D01*
Y606400D01*
X153500Y605700D02*X154200Y606400D01*
X151700Y605700D02*X153500D01*
X151700Y609700D02*X153500D01*
X155400Y609200D02*X155900Y609700D01*
X157400D01*
X157900Y609200D01*
Y608200D01*
X155400Y605700D02*X157900Y608200D01*
X155400Y605700D02*X157900D01*
X159100Y606200D02*X159600Y605700D01*
X159100Y609200D02*Y606200D01*
Y609200D02*X159600Y609700D01*
X160600D01*
X161100Y609200D01*
Y606200D01*
X160600Y605700D02*X161100Y606200D01*
X159600Y605700D02*X160600D01*
X159100Y606700D02*X161100Y608700D01*
X162300Y607200D02*X164300Y609700D01*
X162300Y607200D02*X164800D01*
X164300Y609700D02*Y605700D01*
X151700Y578700D02*Y574700D01*
X153000Y578700D02*X153700Y578000D01*
Y575400D01*
X153000Y574700D02*X153700Y575400D01*
X151200Y574700D02*X153000D01*
X151200Y578700D02*X153000D01*
X154900Y578200D02*X155400Y578700D01*
X156900D01*
X157400Y578200D01*
Y577200D01*
X154900Y574700D02*X157400Y577200D01*
X154900Y574700D02*X157400D01*
X158600Y575200D02*X159100Y574700D01*
X158600Y578200D02*Y575200D01*
Y578200D02*X159100Y578700D01*
X160100D01*
X160600Y578200D01*
Y575200D01*
X160100Y574700D02*X160600Y575200D01*
X159100Y574700D02*X160100D01*
X158600Y575700D02*X160600Y577700D01*
X161800Y578200D02*X162300Y578700D01*
X163300D01*
X163800Y578200D01*
X163300Y574700D02*X163800Y575200D01*
X162300Y574700D02*X163300D01*
X161800Y575200D02*X162300Y574700D01*
Y576900D02*X163300D01*
X163800Y578200D02*Y577400D01*
Y576400D02*Y575200D01*
Y576400D02*X163300Y576900D01*
X163800Y577400D02*X163300Y576900D01*
X152200Y640700D02*Y636700D01*
X153500Y640700D02*X154200Y640000D01*
Y637400D01*
X153500Y636700D02*X154200Y637400D01*
X151700Y636700D02*X153500D01*
X151700Y640700D02*X153500D01*
X155400Y640200D02*X155900Y640700D01*
X157400D01*
X157900Y640200D01*
Y639200D01*
X155400Y636700D02*X157900Y639200D01*
X155400Y636700D02*X157900D01*
X159100Y637200D02*X159600Y636700D01*
X159100Y640200D02*Y637200D01*
Y640200D02*X159600Y640700D01*
X160600D01*
X161100Y640200D01*
Y637200D01*
X160600Y636700D02*X161100Y637200D01*
X159600Y636700D02*X160600D01*
X159100Y637700D02*X161100Y639700D01*
X162300Y640200D02*X162800Y640700D01*
X164300D01*
X164800Y640200D01*
Y639200D01*
X162300Y636700D02*X164800Y639200D01*
X162300Y636700D02*X164800D01*
X173442Y635346D02*Y633346D01*
Y635346D02*X173942Y635846D01*
X174942D01*
X175442Y635346D02*X174942Y635846D01*
X175442Y635346D02*Y633846D01*
X173442D02*X177442D01*
X175442Y634646D02*X177442Y635846D01*
X173942Y637046D02*X173442Y637546D01*
Y639046D02*Y637546D01*
Y639046D02*X173942Y639546D01*
X174942D01*
X177442Y637046D02*X174942Y639546D01*
X177442D02*Y637046D01*
X176942Y640746D02*X177442Y641246D01*
X173942Y640746D02*X176942D01*
X173942D02*X173442Y641246D01*
Y642246D02*Y641246D01*
Y642246D02*X173942Y642746D01*
X176942D01*
X177442Y642246D02*X176942Y642746D01*
X177442Y642246D02*Y641246D01*
X176442Y640746D02*X174442Y642746D01*
X177442Y644446D02*X173442Y646446D01*
Y643946D01*
X173142Y601046D02*Y599046D01*
Y601046D02*X173642Y601546D01*
X174642D01*
X175142Y601046D02*X174642Y601546D01*
X175142Y601046D02*Y599546D01*
X173142D02*X177142D01*
X175142Y600346D02*X177142Y601546D01*
X173642Y602746D02*X173142Y603246D01*
Y604746D02*Y603246D01*
Y604746D02*X173642Y605246D01*
X174642D01*
X177142Y602746D02*X174642Y605246D01*
X177142D02*Y602746D01*
X176642Y606446D02*X177142Y606946D01*
X173642Y606446D02*X176642D01*
X173642D02*X173142Y606946D01*
Y607946D02*Y606946D01*
Y607946D02*X173642Y608446D01*
X176642D01*
X177142Y607946D02*X176642Y608446D01*
X177142Y607946D02*Y606946D01*
X176142Y606446D02*X174142Y608446D01*
X177142Y610146D02*X175142Y611646D01*
X173642D02*X175142D01*
X173142Y611146D02*X173642Y611646D01*
X173142Y611146D02*Y610146D01*
X173642Y609646D02*X173142Y610146D01*
X173642Y609646D02*X174642D01*
X175142Y610146D01*
Y611646D02*Y610146D01*
X173265Y571987D02*Y569987D01*
Y571987D02*X173765Y572487D01*
X174765D01*
X175265Y571987D02*X174765Y572487D01*
X175265Y571987D02*Y570487D01*
X173265D02*X177265D01*
X175265Y571287D02*X177265Y572487D01*
X173765Y573687D02*X173265Y574187D01*
Y575687D02*Y574187D01*
Y575687D02*X173765Y576187D01*
X174765D01*
X177265Y573687D02*X174765Y576187D01*
X177265D02*Y573687D01*
X176765Y577387D02*X177265Y577887D01*
X173765Y577387D02*X176765D01*
X173765D02*X173265Y577887D01*
Y578887D02*Y577887D01*
Y578887D02*X173765Y579387D01*
X176765D01*
X177265Y578887D02*X176765Y579387D01*
X177265Y578887D02*Y577887D01*
X176265Y577387D02*X174265Y579387D01*
X176765Y580587D02*X177265Y581087D01*
X175965Y580587D02*X176765D01*
X175965D02*X175265Y581287D01*
Y581887D02*Y581287D01*
Y581887D02*X175965Y582587D01*
X176765D01*
X177265Y582087D02*X176765Y582587D01*
X177265Y582087D02*Y581087D01*
X174565Y580587D02*X175265Y581287D01*
X173765Y580587D02*X174565D01*
X173765D02*X173265Y581087D01*
Y582087D02*Y581087D01*
Y582087D02*X173765Y582587D01*
X174565D01*
X175265Y581887D02*X174565Y582587D01*
X191863Y570889D02*Y569589D01*
X191163Y568889D02*X191863Y569589D01*
X188563Y568889D02*X191163D01*
X188563D02*X187863Y569589D01*
Y570889D02*Y569589D01*
X188363Y572089D02*X187863Y572589D01*
Y574089D02*Y572589D01*
Y574089D02*X188363Y574589D01*
X189363D01*
X191863Y572089D02*X189363Y574589D01*
X191863D02*Y572089D01*
X188663Y575789D02*X187863Y576589D01*
X191863D01*
Y577289D02*Y575789D01*
X191363Y578489D02*X191863Y578989D01*
X190563Y578489D02*X191363D01*
X190563D02*X189863Y579189D01*
Y579789D02*Y579189D01*
Y579789D02*X190563Y580489D01*
X191363D01*
X191863Y579989D02*X191363Y580489D01*
X191863Y579989D02*Y578989D01*
X189163Y578489D02*X189863Y579189D01*
X188363Y578489D02*X189163D01*
X188363D02*X187863Y578989D01*
Y579989D02*Y578989D01*
Y579989D02*X188363Y580489D01*
X189163D01*
X189863Y579789D02*X189163Y580489D01*
X190239Y638708D02*Y637408D01*
X189539Y636708D02*X190239Y637408D01*
X186939Y636708D02*X189539D01*
X186939D02*X186239Y637408D01*
Y638708D02*Y637408D01*
X186739Y639908D02*X186239Y640408D01*
Y641908D02*Y640408D01*
Y641908D02*X186739Y642408D01*
X187739D01*
X190239Y639908D02*X187739Y642408D01*
X190239D02*Y639908D01*
X186739Y643608D02*X186239Y644108D01*
Y645608D02*Y644108D01*
Y645608D02*X186739Y646108D01*
X187739D01*
X190239Y643608D02*X187739Y646108D01*
X190239D02*Y643608D01*
X186739Y647308D02*X186239Y647808D01*
Y649308D02*Y647808D01*
Y649308D02*X186739Y649808D01*
X187739D01*
X190239Y647308D02*X187739Y649808D01*
X190239D02*Y647308D01*
X181563Y618689D02*X182863D01*
X180863Y619389D02*X181563Y618689D01*
X180863Y621989D02*Y619389D01*
Y621989D02*X181563Y622689D01*
X182863D01*
X184063Y622189D02*X184563Y622689D01*
X186063D01*
X186563Y622189D01*
Y621189D01*
X184063Y618689D02*X186563Y621189D01*
X184063Y618689D02*X186563D01*
X187763Y622189D02*X188263Y622689D01*
X189763D01*
X190263Y622189D01*
Y621189D01*
X187763Y618689D02*X190263Y621189D01*
X187763Y618689D02*X190263D01*
X191463Y619189D02*X191963Y618689D01*
X191463Y622189D02*Y619189D01*
Y622189D02*X191963Y622689D01*
X192963D01*
X193463Y622189D01*
Y619189D01*
X192963Y618689D02*X193463Y619189D01*
X191963Y618689D02*X192963D01*
X191463Y619689D02*X193463Y621689D01*
X190468Y593358D02*X193968D01*
X194468Y593858D01*
Y594858D02*Y593858D01*
Y594858D02*X193968Y595358D01*
X190468D02*X193968D01*
X190968Y596558D02*X190468Y597058D01*
Y598558D02*Y597058D01*
Y598558D02*X190968Y599058D01*
X191968D01*
X194468Y596558D02*X191968Y599058D01*
X194468D02*Y596558D01*
X193968Y600258D02*X194468Y600758D01*
X190968Y600258D02*X193968D01*
X190968D02*X190468Y600758D01*
Y601758D02*Y600758D01*
Y601758D02*X190968Y602258D01*
X193968D01*
X194468Y601758D02*X193968Y602258D01*
X194468Y601758D02*Y600758D01*
X193468Y600258D02*X191468Y602258D01*
X190968Y603458D02*X190468Y603958D01*
Y605458D02*Y603958D01*
Y605458D02*X190968Y605958D01*
X191968D01*
X194468Y603458D02*X191968Y605958D01*
X194468D02*Y603458D01*
X190280Y653957D02*Y652657D01*
X189580Y651957D02*X190280Y652657D01*
X186980Y651957D02*X189580D01*
X186980D02*X186280Y652657D01*
Y653957D02*Y652657D01*
X186780Y655157D02*X186280Y655657D01*
Y657157D02*Y655657D01*
Y657157D02*X186780Y657657D01*
X187780D01*
X190280Y655157D02*X187780Y657657D01*
X190280D02*Y655157D01*
X186780Y658857D02*X186280Y659357D01*
Y660857D02*Y659357D01*
Y660857D02*X186780Y661357D01*
X187780D01*
X190280Y658857D02*X187780Y661357D01*
X190280D02*Y658857D01*
X187080Y662557D02*X186280Y663357D01*
X190280D01*
Y664057D02*Y662557D01*
X253642Y601349D02*Y600049D01*
X252942Y599349D02*X253642Y600049D01*
X250342Y599349D02*X252942D01*
X250342D02*X249642Y600049D01*
Y601349D02*Y600049D01*
X250142Y602549D02*X253142D01*
X250142D02*X249642Y603049D01*
Y604049D02*Y603049D01*
Y604049D02*X250142Y604549D01*
X253142D01*
X253642Y604049D02*X253142Y604549D01*
X253642Y604049D02*Y603049D01*
X253142Y602549D02*X253642Y603049D01*
X249642Y605749D02*X253642D01*
X249642D02*X253642Y608249D01*
X249642D02*X253642D01*
X249642Y609449D02*X253642D01*
X249642D02*X253642Y611949D01*
X249642D02*X253642D01*
X250142Y613149D02*X249642Y613649D01*
Y615149D02*Y613649D01*
Y615149D02*X250142Y615649D01*
X251142D01*
X253642Y613149D02*X251142Y615649D01*
X253642D02*Y613149D01*
X253142Y616849D02*X253642Y617349D01*
X250142Y616849D02*X253142D01*
X250142D02*X249642Y617349D01*
Y618349D02*Y617349D01*
Y618349D02*X250142Y618849D01*
X253142D01*
X253642Y618349D02*X253142Y618849D01*
X253642Y618349D02*Y617349D01*
X252642Y616849D02*X250642Y618849D01*
X249642Y621549D02*X250142Y622049D01*
X249642Y621549D02*Y620549D01*
X250142Y620049D02*X249642Y620549D01*
X250142Y620049D02*X253142D01*
X253642Y620549D01*
X251442Y621549D02*X251942Y622049D01*
X251442Y621549D02*Y620049D01*
X253642Y621549D02*Y620549D01*
Y621549D02*X253142Y622049D01*
X251942D02*X253142D01*
X219000Y608900D02*Y607600D01*
X218300Y606900D02*X219000Y607600D01*
X215700Y606900D02*X218300D01*
X215700D02*X215000Y607600D01*
Y608900D02*Y607600D01*
X215500Y610100D02*X215000Y610600D01*
Y612100D02*Y610600D01*
Y612100D02*X215500Y612600D01*
X216500D01*
X219000Y610100D02*X216500Y612600D01*
X219000D02*Y610100D01*
X215800Y613800D02*X215000Y614600D01*
X219000D01*
Y615300D02*Y613800D01*
X218500Y616500D02*X219000Y617000D01*
X215500Y616500D02*X218500D01*
X215500D02*X215000Y617000D01*
Y618000D02*Y617000D01*
Y618000D02*X215500Y618500D01*
X218500D01*
X219000Y618000D02*X218500Y618500D01*
X219000Y618000D02*Y617000D01*
X218000Y616500D02*X216000Y618500D01*
X214181Y570876D02*X215481D01*
X213481Y571576D02*X214181Y570876D01*
X213481Y574176D02*Y571576D01*
Y574176D02*X214181Y574876D01*
X215481D01*
X216681Y574376D02*X217181Y574876D01*
X218681D01*
X219181Y574376D01*
Y573376D01*
X216681Y570876D02*X219181Y573376D01*
X216681Y570876D02*X219181D01*
X220381Y574076D02*X221181Y574876D01*
Y570876D01*
X220381D02*X221881D01*
X223581D02*X225081Y572876D01*
Y574376D02*Y572876D01*
X224581Y574876D02*X225081Y574376D01*
X223581Y574876D02*X224581D01*
X223081Y574376D02*X223581Y574876D01*
X223081Y574376D02*Y573376D01*
X223581Y572876D01*
X225081D01*
X221050Y582145D02*X217050Y584645D01*
Y582145D02*X221050Y584645D01*
X217550Y585845D02*X217050Y586345D01*
Y587845D02*Y586345D01*
Y587845D02*X217550Y588345D01*
X218550D01*
X221050Y585845D02*X218550Y588345D01*
X221050D02*Y585845D01*
X220550Y589545D02*X221050Y590045D01*
X217550Y589545D02*X220550D01*
X217550D02*X217050Y590045D01*
Y591045D02*Y590045D01*
Y591045D02*X217550Y591545D01*
X220550D01*
X221050Y591045D02*X220550Y591545D01*
X221050Y591045D02*Y590045D01*
X220050Y589545D02*X218050Y591545D01*
X217850Y592745D02*X217050Y593545D01*
X221050D01*
Y594245D02*Y592745D01*
X254142Y632649D02*X255442D01*
X253442Y633349D02*X254142Y632649D01*
X253442Y635949D02*Y633349D01*
Y635949D02*X254142Y636649D01*
X255442D01*
X256642Y636149D02*Y633149D01*
Y636149D02*X257142Y636649D01*
X258142D01*
X258642Y636149D01*
Y633149D01*
X258142Y632649D02*X258642Y633149D01*
X257142Y632649D02*X258142D01*
X256642Y633149D02*X257142Y632649D01*
X259842Y636649D02*Y632649D01*
Y636649D02*X262342Y632649D01*
Y636649D02*Y632649D01*
X263542Y636649D02*Y632649D01*
Y636649D02*X266042Y632649D01*
Y636649D02*Y632649D01*
X267242Y636149D02*X267742Y636649D01*
X269242D01*
X269742Y636149D01*
Y635149D01*
X267242Y632649D02*X269742Y635149D01*
X267242Y632649D02*X269742D01*
X270942Y633149D02*X271442Y632649D01*
X270942Y636149D02*Y633149D01*
Y636149D02*X271442Y636649D01*
X272442D01*
X272942Y636149D01*
Y633149D01*
X272442Y632649D02*X272942Y633149D01*
X271442Y632649D02*X272442D01*
X270942Y633649D02*X272942Y635649D01*
X274142Y636649D02*X276142D01*
X274142D02*Y634649D01*
X274642Y635149D01*
X275642D01*
X276142Y634649D01*
Y633149D01*
X275642Y632649D02*X276142Y633149D01*
X274642Y632649D02*X275642D01*
X274142Y633149D02*X274642Y632649D01*
X219131Y625446D02*Y624146D01*
X218431Y623446D02*X219131Y624146D01*
X215831Y623446D02*X218431D01*
X215831D02*X215131Y624146D01*
Y625446D02*Y624146D01*
X215631Y626646D02*X215131Y627146D01*
Y628646D02*Y627146D01*
Y628646D02*X215631Y629146D01*
X216631D01*
X219131Y626646D02*X216631Y629146D01*
X219131D02*Y626646D01*
X215931Y630346D02*X215131Y631146D01*
X219131D01*
Y631846D02*Y630346D01*
X215931Y633046D02*X215131Y633846D01*
X219131D01*
Y634546D02*Y633046D01*
X279881Y599596D02*X281881D01*
X282381Y599096D01*
Y598096D01*
X281881Y597596D02*X282381Y598096D01*
X280381Y597596D02*X281881D01*
X280381Y599596D02*Y595596D01*
X281181Y597596D02*X282381Y595596D01*
X283581Y599096D02*X284081Y599596D01*
X285581D01*
X286081Y599096D01*
Y598096D01*
X283581Y595596D02*X286081Y598096D01*
X283581Y595596D02*X286081D01*
X287281Y598796D02*X288081Y599596D01*
Y595596D01*
X287281D02*X288781D01*
X289981Y596096D02*X290481Y595596D01*
X289981Y599096D02*Y596096D01*
Y599096D02*X290481Y599596D01*
X291481D01*
X291981Y599096D01*
Y596096D01*
X291481Y595596D02*X291981Y596096D01*
X290481Y595596D02*X291481D01*
X289981Y596596D02*X291981Y598596D01*
X279408Y610645D02*X281408D01*
X281908Y610145D01*
Y609145D01*
X281408Y608645D02*X281908Y609145D01*
X279908Y608645D02*X281408D01*
X279908Y610645D02*Y606645D01*
X280708Y608645D02*X281908Y606645D01*
X283108Y610145D02*X283608Y610645D01*
X285108D01*
X285608Y610145D01*
Y609145D01*
X283108Y606645D02*X285608Y609145D01*
X283108Y606645D02*X285608D01*
X286808Y609845D02*X287608Y610645D01*
Y606645D01*
X286808D02*X288308D01*
X289508Y609845D02*X290308Y610645D01*
Y606645D01*
X289508D02*X291008D01*
X275240Y593696D02*Y592396D01*
X274540Y591696D02*X275240Y592396D01*
X271940Y591696D02*X274540D01*
X271940D02*X271240Y592396D01*
Y593696D02*Y592396D01*
X271740Y594896D02*X271240Y595396D01*
Y596896D02*Y595396D01*
Y596896D02*X271740Y597396D01*
X272740D01*
X275240Y594896D02*X272740Y597396D01*
X275240D02*Y594896D01*
X274740Y598596D02*X275240Y599096D01*
X271740Y598596D02*X274740D01*
X271740D02*X271240Y599096D01*
Y600096D02*Y599096D01*
Y600096D02*X271740Y600596D01*
X274740D01*
X275240Y600096D02*X274740Y600596D01*
X275240Y600096D02*Y599096D01*
X274240Y598596D02*X272240Y600596D01*
X275240Y602296D02*X273240Y603796D01*
X271740D02*X273240D01*
X271240Y603296D02*X271740Y603796D01*
X271240Y603296D02*Y602296D01*
X271740Y601796D02*X271240Y602296D01*
X271740Y601796D02*X272740D01*
X273240Y602296D01*
Y603796D02*Y602296D01*
X272731Y573146D02*X274031D01*
X272031Y573846D02*X272731Y573146D01*
X272031Y576446D02*Y573846D01*
Y576446D02*X272731Y577146D01*
X274031D01*
X275231Y576646D02*X275731Y577146D01*
X277231D01*
X277731Y576646D01*
Y575646D01*
X275231Y573146D02*X277731Y575646D01*
X275231Y573146D02*X277731D01*
X278931Y573646D02*X279431Y573146D01*
X278931Y576646D02*Y573646D01*
Y576646D02*X279431Y577146D01*
X280431D01*
X280931Y576646D01*
Y573646D01*
X280431Y573146D02*X280931Y573646D01*
X279431Y573146D02*X280431D01*
X278931Y574146D02*X280931Y576146D01*
X282131Y573646D02*X282631Y573146D01*
X282131Y574446D02*Y573646D01*
Y574446D02*X282831Y575146D01*
X283431D01*
X284131Y574446D01*
Y573646D01*
X283631Y573146D02*X284131Y573646D01*
X282631Y573146D02*X283631D01*
X282131Y575846D02*X282831Y575146D01*
X282131Y576646D02*Y575846D01*
Y576646D02*X282631Y577146D01*
X283631D01*
X284131Y576646D01*
Y575846D01*
X283431Y575146D02*X284131Y575846D01*
X280128Y628249D02*X281428D01*
X279428Y628949D02*X280128Y628249D01*
X279428Y631549D02*Y628949D01*
Y631549D02*X280128Y632249D01*
X281428D01*
X282628Y631749D02*X283128Y632249D01*
X284628D01*
X285128Y631749D01*
Y630749D01*
X282628Y628249D02*X285128Y630749D01*
X282628Y628249D02*X285128D01*
X286328Y631449D02*X287128Y632249D01*
Y628249D01*
X286328D02*X287828D01*
X289028Y629749D02*X291028Y632249D01*
X289028Y629749D02*X291528D01*
X291028Y632249D02*Y628249D01*
X231241Y644297D02*X233741Y648297D01*
X231241D02*X233741Y644297D01*
X234941Y647797D02*X235441Y648297D01*
X236941D01*
X237441Y647797D01*
Y646797D01*
X234941Y644297D02*X237441Y646797D01*
X234941Y644297D02*X237441D01*
X238641Y644797D02*X239141Y644297D01*
X238641Y647797D02*Y644797D01*
Y647797D02*X239141Y648297D01*
X240141D01*
X240641Y647797D01*
Y644797D01*
X240141Y644297D02*X240641Y644797D01*
X239141Y644297D02*X240141D01*
X238641Y645297D02*X240641Y647297D01*
X241841Y647797D02*X242341Y648297D01*
X243841D01*
X244341Y647797D01*
Y646797D01*
X241841Y644297D02*X244341Y646797D01*
X241841Y644297D02*X244341D01*
X270796Y688048D02*X272796D01*
X273296Y687548D01*
Y686548D01*
X272796Y686048D02*X273296Y686548D01*
X271296Y686048D02*X272796D01*
X271296Y688048D02*Y684048D01*
X272096Y686048D02*X273296Y684048D01*
X274496Y687248D02*X275296Y688048D01*
Y684048D01*
X274496D02*X275996D01*
X277196Y687248D02*X277996Y688048D01*
Y684048D01*
X277196D02*X278696D01*
X279896Y687548D02*X280396Y688048D01*
X281396D01*
X281896Y687548D01*
X281396Y684048D02*X281896Y684548D01*
X280396Y684048D02*X281396D01*
X279896Y684548D02*X280396Y684048D01*
Y686248D02*X281396D01*
X281896Y687548D02*Y686748D01*
Y685748D02*Y684548D01*
Y685748D02*X281396Y686248D01*
X281896Y686748D02*X281396Y686248D01*
X314700Y552000D02*X316000D01*
X314000Y552700D02*X314700Y552000D01*
X314000Y555300D02*Y552700D01*
Y555300D02*X314700Y556000D01*
X316000D01*
X317200Y555500D02*Y552500D01*
Y555500D02*X317700Y556000D01*
X318700D01*
X319200Y555500D01*
Y552500D01*
X318700Y552000D02*X319200Y552500D01*
X317700Y552000D02*X318700D01*
X317200Y552500D02*X317700Y552000D01*
X320400Y556000D02*Y552000D01*
Y556000D02*X322900Y552000D01*
Y556000D02*Y552000D01*
X324100Y556000D02*Y552000D01*
Y556000D02*X326600Y552000D01*
Y556000D02*Y552000D01*
X327800Y555500D02*X328300Y556000D01*
X329800D01*
X330300Y555500D01*
Y554500D01*
X327800Y552000D02*X330300Y554500D01*
X327800Y552000D02*X330300D01*
X331500Y552500D02*X332000Y552000D01*
X331500Y555500D02*Y552500D01*
Y555500D02*X332000Y556000D01*
X333000D01*
X333500Y555500D01*
Y552500D01*
X333000Y552000D02*X333500Y552500D01*
X332000Y552000D02*X333000D01*
X331500Y553000D02*X333500Y555000D01*
X334700Y552500D02*X335200Y552000D01*
X334700Y553300D02*Y552500D01*
Y553300D02*X335400Y554000D01*
X336000D01*
X336700Y553300D01*
Y552500D01*
X336200Y552000D02*X336700Y552500D01*
X335200Y552000D02*X336200D01*
X334700Y554700D02*X335400Y554000D01*
X334700Y555500D02*Y554700D01*
Y555500D02*X335200Y556000D01*
X336200D01*
X336700Y555500D01*
Y554700D01*
X336000Y554000D02*X336700Y554700D01*
X355400Y551600D02*X356700D01*
X354700Y552300D02*X355400Y551600D01*
X354700Y554900D02*Y552300D01*
Y554900D02*X355400Y555600D01*
X356700D01*
X357900Y555100D02*Y552100D01*
Y555100D02*X358400Y555600D01*
X359400D01*
X359900Y555100D01*
Y552100D01*
X359400Y551600D02*X359900Y552100D01*
X358400Y551600D02*X359400D01*
X357900Y552100D02*X358400Y551600D01*
X361100Y555600D02*Y551600D01*
Y555600D02*X363600Y551600D01*
Y555600D02*Y551600D01*
X364800Y555600D02*Y551600D01*
Y555600D02*X367300Y551600D01*
Y555600D02*Y551600D01*
X368500Y555100D02*X369000Y555600D01*
X370500D01*
X371000Y555100D01*
Y554100D01*
X368500Y551600D02*X371000Y554100D01*
X368500Y551600D02*X371000D01*
X372200Y552100D02*X372700Y551600D01*
X372200Y555100D02*Y552100D01*
Y555100D02*X372700Y555600D01*
X373700D01*
X374200Y555100D01*
Y552100D01*
X373700Y551600D02*X374200Y552100D01*
X372700Y551600D02*X373700D01*
X372200Y552600D02*X374200Y554600D01*
X375400Y553100D02*X377400Y555600D01*
X375400Y553100D02*X377900D01*
X377400Y555600D02*Y551600D01*
X361031Y543746D02*X362331D01*
X360331Y544446D02*X361031Y543746D01*
X360331Y547046D02*Y544446D01*
Y547046D02*X361031Y547746D01*
X362331D01*
X363531Y547246D02*X364031Y547746D01*
X365531D01*
X366031Y547246D01*
Y546246D01*
X363531Y543746D02*X366031Y546246D01*
X363531Y543746D02*X366031D01*
X367231Y544246D02*X367731Y543746D01*
X367231Y547246D02*Y544246D01*
Y547246D02*X367731Y547746D01*
X368731D01*
X369231Y547246D01*
Y544246D01*
X368731Y543746D02*X369231Y544246D01*
X367731Y543746D02*X368731D01*
X367231Y544746D02*X369231Y546746D01*
X370431Y545246D02*X372431Y547746D01*
X370431Y545246D02*X372931D01*
X372431Y547746D02*Y543746D01*
X296831Y544146D02*X298131D01*
X296131Y544846D02*X296831Y544146D01*
X296131Y547446D02*Y544846D01*
Y547446D02*X296831Y548146D01*
X298131D01*
X299331Y547646D02*X299831Y548146D01*
X301331D01*
X301831Y547646D01*
Y546646D01*
X299331Y544146D02*X301831Y546646D01*
X299331Y544146D02*X301831D01*
X303031Y544646D02*X303531Y544146D01*
X303031Y547646D02*Y544646D01*
Y547646D02*X303531Y548146D01*
X304531D01*
X305031Y547646D01*
Y544646D01*
X304531Y544146D02*X305031Y544646D01*
X303531Y544146D02*X304531D01*
X303031Y545146D02*X305031Y547146D01*
X306231Y548146D02*X308231D01*
X306231D02*Y546146D01*
X306731Y546646D01*
X307731D01*
X308231Y546146D01*
Y544646D01*
X307731Y544146D02*X308231Y544646D01*
X306731Y544146D02*X307731D01*
X306231Y544646D02*X306731Y544146D01*
X430631Y544046D02*X431931D01*
X429931Y544746D02*X430631Y544046D01*
X429931Y547346D02*Y544746D01*
Y547346D02*X430631Y548046D01*
X431931D01*
X433131Y547546D02*X433631Y548046D01*
X435131D01*
X435631Y547546D01*
Y546546D01*
X433131Y544046D02*X435631Y546546D01*
X433131Y544046D02*X435631D01*
X436831Y544546D02*X437331Y544046D01*
X436831Y547546D02*Y544546D01*
Y547546D02*X437331Y548046D01*
X438331D01*
X438831Y547546D01*
Y544546D01*
X438331Y544046D02*X438831Y544546D01*
X437331Y544046D02*X438331D01*
X436831Y545046D02*X438831Y547046D01*
X440031Y547546D02*X440531Y548046D01*
X441531D01*
X442031Y547546D01*
X441531Y544046D02*X442031Y544546D01*
X440531Y544046D02*X441531D01*
X440031Y544546D02*X440531Y544046D01*
Y546246D02*X441531D01*
X442031Y547546D02*Y546746D01*
Y545746D02*Y544546D01*
Y545746D02*X441531Y546246D01*
X442031Y546746D02*X441531Y546246D01*
X333166Y514837D02*X333666Y515337D01*
X333166Y514837D02*Y513337D01*
X333666Y512837D02*X333166Y513337D01*
X333666Y512837D02*X334666D01*
X335166Y513337D01*
Y514837D02*Y513337D01*
Y514837D02*X335666Y515337D01*
X336666D01*
X337166Y514837D02*X336666Y515337D01*
X337166Y514837D02*Y513337D01*
X336666Y512837D02*X337166Y513337D01*
X333666Y516537D02*X333166Y517037D01*
Y518537D02*Y517037D01*
Y518537D02*X333666Y519037D01*
X334666D01*
X337166Y516537D02*X334666Y519037D01*
X337166D02*Y516537D01*
X336666Y520237D02*X337166Y520737D01*
X333666Y520237D02*X336666D01*
X333666D02*X333166Y520737D01*
Y521737D02*Y520737D01*
Y521737D02*X333666Y522237D01*
X336666D01*
X337166Y521737D02*X336666Y522237D01*
X337166Y521737D02*Y520737D01*
X336166Y520237D02*X334166Y522237D01*
X335666Y523437D02*X333166Y525437D01*
X335666Y525937D02*Y523437D01*
X333166Y525437D02*X337166D01*
X399224Y514988D02*X399724Y515488D01*
X399224Y514988D02*Y513488D01*
X399724Y512988D02*X399224Y513488D01*
X399724Y512988D02*X400724D01*
X401224Y513488D01*
Y514988D02*Y513488D01*
Y514988D02*X401724Y515488D01*
X402724D01*
X403224Y514988D02*X402724Y515488D01*
X403224Y514988D02*Y513488D01*
X402724Y512988D02*X403224Y513488D01*
X399724Y516688D02*X399224Y517188D01*
Y518688D02*Y517188D01*
Y518688D02*X399724Y519188D01*
X400724D01*
X403224Y516688D02*X400724Y519188D01*
X403224D02*Y516688D01*
X402724Y520388D02*X403224Y520888D01*
X399724Y520388D02*X402724D01*
X399724D02*X399224Y520888D01*
Y521888D02*Y520888D01*
Y521888D02*X399724Y522388D01*
X402724D01*
X403224Y521888D02*X402724Y522388D01*
X403224Y521888D02*Y520888D01*
X402224Y520388D02*X400224Y522388D01*
X399724Y523588D02*X399224Y524088D01*
Y525088D02*Y524088D01*
Y525088D02*X399724Y525588D01*
X403224Y525088D02*X402724Y525588D01*
X403224Y525088D02*Y524088D01*
X402724Y523588D02*X403224Y524088D01*
X401024Y525088D02*Y524088D01*
X399724Y525588D02*X400524D01*
X401524D02*X402724D01*
X401524D02*X401024Y525088D01*
X400524Y525588D02*X401024Y525088D01*
X357189Y587398D02*Y583898D01*
X357689Y583398D01*
X358689D01*
X359189Y583898D01*
Y587398D02*Y583898D01*
X360389Y586898D02*X360889Y587398D01*
X362389D01*
X362889Y586898D01*
Y585898D01*
X360389Y583398D02*X362889Y585898D01*
X360389Y583398D02*X362889D01*
X364089Y583898D02*X364589Y583398D01*
X364089Y586898D02*Y583898D01*
Y586898D02*X364589Y587398D01*
X365589D01*
X366089Y586898D01*
Y583898D01*
X365589Y583398D02*X366089Y583898D01*
X364589Y583398D02*X365589D01*
X364089Y584398D02*X366089Y586398D01*
X367289Y586598D02*X368089Y587398D01*
Y583398D01*
X367289D02*X368789D01*
X310200Y572800D02*X311500D01*
X309500Y573500D02*X310200Y572800D01*
X309500Y576100D02*Y573500D01*
Y576100D02*X310200Y576800D01*
X311500D01*
X312700Y576300D02*X313200Y576800D01*
X314700D01*
X315200Y576300D01*
Y575300D01*
X312700Y572800D02*X315200Y575300D01*
X312700Y572800D02*X315200D01*
X316400Y576000D02*X317200Y576800D01*
Y572800D01*
X316400D02*X317900D01*
X319100Y576300D02*X319600Y576800D01*
X320600D01*
X321100Y576300D01*
X320600Y572800D02*X321100Y573300D01*
X319600Y572800D02*X320600D01*
X319100Y573300D02*X319600Y572800D01*
Y575000D02*X320600D01*
X321100Y576300D02*Y575500D01*
Y574500D02*Y573300D01*
Y574500D02*X320600Y575000D01*
X321100Y575500D02*X320600Y575000D01*
X406639Y673508D02*Y670508D01*
Y673508D02*X407139Y674008D01*
X408139D01*
X408639Y673508D01*
Y671008D01*
X407639Y670008D02*X408639Y671008D01*
X407139Y670008D02*X407639D01*
X406639Y670508D02*X407139Y670008D01*
X407639Y671508D02*X408639Y670008D01*
X409839Y673508D02*X410339Y674008D01*
X411839D01*
X412339Y673508D01*
Y672508D01*
X409839Y670008D02*X412339Y672508D01*
X409839Y670008D02*X412339D01*
X413539Y670508D02*X414039Y670008D01*
X413539Y673508D02*Y670508D01*
Y673508D02*X414039Y674008D01*
X415039D01*
X415539Y673508D01*
Y670508D01*
X415039Y670008D02*X415539Y670508D01*
X414039Y670008D02*X415039D01*
X413539Y671008D02*X415539Y673008D01*
X416739Y673208D02*X417539Y674008D01*
Y670008D01*
X416739D02*X418239D01*
X438041Y637197D02*X439341D01*
X437341Y637897D02*X438041Y637197D01*
X437341Y640497D02*Y637897D01*
Y640497D02*X438041Y641197D01*
X439341D01*
X440541Y640697D02*Y637697D01*
Y640697D02*X441041Y641197D01*
X442041D01*
X442541Y640697D01*
Y637697D01*
X442041Y637197D02*X442541Y637697D01*
X441041Y637197D02*X442041D01*
X440541Y637697D02*X441041Y637197D01*
X443741Y641197D02*Y637197D01*
Y641197D02*X446241Y637197D01*
Y641197D02*Y637197D01*
X447441Y641197D02*Y637197D01*
Y641197D02*X449941Y637197D01*
Y641197D02*Y637197D01*
X451141Y640697D02*X451641Y641197D01*
X453141D01*
X453641Y640697D01*
Y639697D01*
X451141Y637197D02*X453641Y639697D01*
X451141Y637197D02*X453641D01*
X454841Y637697D02*X455341Y637197D01*
X454841Y640697D02*Y637697D01*
Y640697D02*X455341Y641197D01*
X456341D01*
X456841Y640697D01*
Y637697D01*
X456341Y637197D02*X456841Y637697D01*
X455341Y637197D02*X456341D01*
X454841Y638197D02*X456841Y640197D01*
X458541Y637197D02*X460541Y641197D01*
X458041D02*X460541D01*
X413600Y614400D02*Y613100D01*
X412900Y612400D02*X413600Y613100D01*
X410300Y612400D02*X412900D01*
X410300D02*X409600Y613100D01*
Y614400D02*Y613100D01*
X410100Y615600D02*X409600Y616100D01*
Y617600D02*Y616100D01*
Y617600D02*X410100Y618100D01*
X411100D01*
X413600Y615600D02*X411100Y618100D01*
X413600D02*Y615600D01*
X410400Y619300D02*X409600Y620100D01*
X413600D01*
Y620800D02*Y619300D01*
Y622500D02*X409600Y624500D01*
Y622000D01*
X422574Y614274D02*Y612974D01*
X421874Y612274D02*X422574Y612974D01*
X419274Y612274D02*X421874D01*
X419274D02*X418574Y612974D01*
Y614274D02*Y612974D01*
X419074Y615474D02*X418574Y615974D01*
Y617474D02*Y615974D01*
Y617474D02*X419074Y617974D01*
X420074D01*
X422574Y615474D02*X420074Y617974D01*
X422574D02*Y615474D01*
X419374Y619174D02*X418574Y619974D01*
X422574D01*
Y620674D02*Y619174D01*
X418574Y623374D02*X419074Y623874D01*
X418574Y623374D02*Y622374D01*
X419074Y621874D02*X418574Y622374D01*
X419074Y621874D02*X422074D01*
X422574Y622374D01*
X420374Y623374D02*X420874Y623874D01*
X420374Y623374D02*Y621874D01*
X422574Y623374D02*Y622374D01*
Y623374D02*X422074Y623874D01*
X420874D02*X422074D01*
X373900Y627500D02*Y626200D01*
X373200Y625500D02*X373900Y626200D01*
X370600Y625500D02*X373200D01*
X370600D02*X369900Y626200D01*
Y627500D02*Y626200D01*
X370400Y628700D02*X369900Y629200D01*
Y630700D02*Y629200D01*
Y630700D02*X370400Y631200D01*
X371400D01*
X373900Y628700D02*X371400Y631200D01*
X373900D02*Y628700D01*
X370700Y632400D02*X369900Y633200D01*
X373900D01*
Y633900D02*Y632400D01*
X370400Y635100D02*X369900Y635600D01*
Y637100D02*Y635600D01*
Y637100D02*X370400Y637600D01*
X371400D01*
X373900Y635100D02*X371400Y637600D01*
X373900D02*Y635100D01*
X366181Y659396D02*X368181D01*
X368681Y658896D01*
Y657896D01*
X368181Y657396D02*X368681Y657896D01*
X366681Y657396D02*X368181D01*
X366681Y659396D02*Y655396D01*
X367481Y657396D02*X368681Y655396D01*
X369881Y658896D02*X370381Y659396D01*
X371881D01*
X372381Y658896D01*
Y657896D01*
X369881Y655396D02*X372381Y657896D01*
X369881Y655396D02*X372381D01*
X373581Y655896D02*X374081Y655396D01*
X373581Y658896D02*Y655896D01*
Y658896D02*X374081Y659396D01*
X375081D01*
X375581Y658896D01*
Y655896D01*
X375081Y655396D02*X375581Y655896D01*
X374081Y655396D02*X375081D01*
X373581Y656396D02*X375581Y658396D01*
X376781Y658896D02*X377281Y659396D01*
X378781D01*
X379281Y658896D01*
Y657896D01*
X376781Y655396D02*X379281Y657896D01*
X376781Y655396D02*X379281D01*
X292831Y654846D02*X294131D01*
X292131Y655546D02*X292831Y654846D01*
X292131Y658146D02*Y655546D01*
Y658146D02*X292831Y658846D01*
X294131D01*
X295331Y658346D02*Y655346D01*
Y658346D02*X295831Y658846D01*
X296831D01*
X297331Y658346D01*
Y655346D01*
X296831Y654846D02*X297331Y655346D01*
X295831Y654846D02*X296831D01*
X295331Y655346D02*X295831Y654846D01*
X298531Y658846D02*Y654846D01*
Y658846D02*X301031Y654846D01*
Y658846D02*Y654846D01*
X302231Y658846D02*Y654846D01*
Y658846D02*X304731Y654846D01*
Y658846D02*Y654846D01*
X305931Y658346D02*X306431Y658846D01*
X307931D01*
X308431Y658346D01*
Y657346D01*
X305931Y654846D02*X308431Y657346D01*
X305931Y654846D02*X308431D01*
X309631Y655346D02*X310131Y654846D01*
X309631Y658346D02*Y655346D01*
Y658346D02*X310131Y658846D01*
X311131D01*
X311631Y658346D01*
Y655346D01*
X311131Y654846D02*X311631Y655346D01*
X310131Y654846D02*X311131D01*
X309631Y655846D02*X311631Y657846D01*
X312831Y658346D02*X313331Y658846D01*
X314831D01*
X315331Y658346D01*
Y657346D01*
X312831Y654846D02*X315331Y657346D01*
X312831Y654846D02*X315331D01*
X336189Y654798D02*X337489D01*
X335489Y655498D02*X336189Y654798D01*
X335489Y658098D02*Y655498D01*
Y658098D02*X336189Y658798D01*
X337489D01*
X338689Y658298D02*X339189Y658798D01*
X340689D01*
X341189Y658298D01*
Y657298D01*
X338689Y654798D02*X341189Y657298D01*
X338689Y654798D02*X341189D01*
X342389Y657998D02*X343189Y658798D01*
Y654798D01*
X342389D02*X343889D01*
X345089Y658798D02*X347089D01*
X345089D02*Y656798D01*
X345589Y657298D01*
X346589D01*
X347089Y656798D01*
Y655298D01*
X346589Y654798D02*X347089Y655298D01*
X345589Y654798D02*X346589D01*
X345089Y655298D02*X345589Y654798D01*
X466666Y516437D02*X467166Y516937D01*
X466666Y516437D02*Y514937D01*
X467166Y514437D02*X466666Y514937D01*
X467166Y514437D02*X468166D01*
X468666Y514937D01*
Y516437D02*Y514937D01*
Y516437D02*X469166Y516937D01*
X470166D01*
X470666Y516437D02*X470166Y516937D01*
X470666Y516437D02*Y514937D01*
X470166Y514437D02*X470666Y514937D01*
X467166Y518137D02*X466666Y518637D01*
Y520137D02*Y518637D01*
Y520137D02*X467166Y520637D01*
X468166D01*
X470666Y518137D02*X468166Y520637D01*
X470666D02*Y518137D01*
X470166Y521837D02*X470666Y522337D01*
X467166Y521837D02*X470166D01*
X467166D02*X466666Y522337D01*
Y523337D02*Y522337D01*
Y523337D02*X467166Y523837D01*
X470166D01*
X470666Y523337D02*X470166Y523837D01*
X470666Y523337D02*Y522337D01*
X469666Y521837D02*X467666Y523837D01*
X467166Y525037D02*X466666Y525537D01*
Y527037D02*Y525537D01*
Y527037D02*X467166Y527537D01*
X468166D01*
X470666Y525037D02*X468166Y527537D01*
X470666D02*Y525037D01*
X370424Y679296D02*X372424D01*
X372924Y678796D01*
Y677796D01*
X372424Y677296D02*X372924Y677796D01*
X370924Y677296D02*X372424D01*
X370924Y679296D02*Y675296D01*
X371724Y677296D02*X372924Y675296D01*
X374124Y678796D02*X374624Y679296D01*
X376124D01*
X376624Y678796D01*
Y677796D01*
X374124Y675296D02*X376624Y677796D01*
X374124Y675296D02*X376624D01*
X377824Y675796D02*X378324Y675296D01*
X377824Y678796D02*Y675796D01*
Y678796D02*X378324Y679296D01*
X379324D01*
X379824Y678796D01*
Y675796D01*
X379324Y675296D02*X379824Y675796D01*
X378324Y675296D02*X379324D01*
X377824Y676296D02*X379824Y678296D01*
X381024Y678796D02*X381524Y679296D01*
X382524D01*
X383024Y678796D01*
X382524Y675296D02*X383024Y675796D01*
X381524Y675296D02*X382524D01*
X381024Y675796D02*X381524Y675296D01*
Y677496D02*X382524D01*
X383024Y678796D02*Y677996D01*
Y676996D02*Y675796D01*
Y676996D02*X382524Y677496D01*
X383024Y677996D02*X382524Y677496D01*
X424392Y750239D02*Y746239D01*
X425692Y750239D02*X426392Y749539D01*
Y746939D01*
X425692Y746239D02*X426392Y746939D01*
X423892Y746239D02*X425692D01*
X423892Y750239D02*X425692D01*
X427592Y749439D02*X428392Y750239D01*
Y746239D01*
X427592D02*X429092D01*
X430292Y746739D02*X430792Y746239D01*
X430292Y749739D02*Y746739D01*
Y749739D02*X430792Y750239D01*
X431792D01*
X432292Y749739D01*
Y746739D01*
X431792Y746239D02*X432292Y746739D01*
X430792Y746239D02*X431792D01*
X430292Y747239D02*X432292Y749239D01*
X434992Y750239D02*X435492Y749739D01*
X433992Y750239D02*X434992D01*
X433492Y749739D02*X433992Y750239D01*
X433492Y749739D02*Y746739D01*
X433992Y746239D01*
X434992Y748439D02*X435492Y747939D01*
X433492Y748439D02*X434992D01*
X433992Y746239D02*X434992D01*
X435492Y746739D01*
Y747939D02*Y746739D01*
X440972Y696657D02*Y695357D01*
X440272Y694657D02*X440972Y695357D01*
X437672Y694657D02*X440272D01*
X437672D02*X436972Y695357D01*
Y696657D02*Y695357D01*
X437472Y697857D02*X440472D01*
X437472D02*X436972Y698357D01*
Y699357D02*Y698357D01*
Y699357D02*X437472Y699857D01*
X440472D01*
X440972Y699357D02*X440472Y699857D01*
X440972Y699357D02*Y698357D01*
X440472Y697857D02*X440972Y698357D01*
X436972Y701057D02*X440972D01*
X436972D02*X440972Y703557D01*
X436972D02*X440972D01*
X436972Y704757D02*X440972D01*
X436972D02*X440972Y707257D01*
X436972D02*X440972D01*
X437772Y708457D02*X436972Y709257D01*
X440972D01*
Y709957D02*Y708457D01*
X440472Y711158D02*X440972Y711658D01*
X437472Y711158D02*X440472D01*
X437472D02*X436972Y711658D01*
Y712658D02*Y711658D01*
Y712658D02*X437472Y713158D01*
X440472D01*
X440972Y712658D02*X440472Y713158D01*
X440972Y712658D02*Y711658D01*
X439972Y711158D02*X437972Y713158D01*
X437472Y714358D02*X436972Y714858D01*
Y716358D02*Y714858D01*
Y716358D02*X437472Y716858D01*
X438472D01*
X440972Y714358D02*X438472Y716858D01*
X440972D02*Y714358D01*
X400611Y726065D02*X401911D01*
X399911Y726765D02*X400611Y726065D01*
X399911Y729365D02*Y726765D01*
Y729365D02*X400611Y730065D01*
X401911D01*
X403111Y729265D02*X403911Y730065D01*
Y726065D01*
X403111D02*X404611D01*
X405811Y729265D02*X406611Y730065D01*
Y726065D01*
X405811D02*X407311D01*
X410011Y730065D02*X410511Y729565D01*
X409011Y730065D02*X410011D01*
X408511Y729565D02*X409011Y730065D01*
X408511Y729565D02*Y726565D01*
X409011Y726065D01*
X410011Y728265D02*X410511Y727765D01*
X408511Y728265D02*X410011D01*
X409011Y726065D02*X410011D01*
X410511Y726565D01*
Y727765D02*Y726565D01*
X443988Y786346D02*X445288D01*
X443288Y787046D02*X443988Y786346D01*
X443288Y789646D02*Y787046D01*
Y789646D02*X443988Y790346D01*
X445288D01*
X446488Y789846D02*Y786846D01*
Y789846D02*X446988Y790346D01*
X447988D01*
X448488Y789846D01*
Y786846D01*
X447988Y786346D02*X448488Y786846D01*
X446988Y786346D02*X447988D01*
X446488Y786846D02*X446988Y786346D01*
X449688Y790346D02*Y786346D01*
Y790346D02*X452188Y786346D01*
Y790346D02*Y786346D01*
X453388Y790346D02*Y786346D01*
Y790346D02*X455888Y786346D01*
Y790346D02*Y786346D01*
X457088Y789546D02*X457888Y790346D01*
Y786346D01*
X457088D02*X458588D01*
X459788Y786846D02*X460288Y786346D01*
X459788Y789846D02*Y786846D01*
Y789846D02*X460288Y790346D01*
X461288D01*
X461788Y789846D01*
Y786846D01*
X461288Y786346D02*X461788Y786846D01*
X460288Y786346D02*X461288D01*
X459788Y787346D02*X461788Y789346D01*
X462988Y789846D02*X463488Y790346D01*
X464488D01*
X464988Y789846D01*
X464488Y786346D02*X464988Y786846D01*
X463488Y786346D02*X464488D01*
X462988Y786846D02*X463488Y786346D01*
Y788546D02*X464488D01*
X464988Y789846D02*Y789046D01*
Y788046D02*Y786846D01*
Y788046D02*X464488Y788546D01*
X464988Y789046D02*X464488Y788546D01*
X417869Y760098D02*X419169D01*
X417169Y760798D02*X417869Y760098D01*
X417169Y763398D02*Y760798D01*
Y763398D02*X417869Y764098D01*
X419169D01*
X420369Y763598D02*Y760598D01*
Y763598D02*X420869Y764098D01*
X421869D01*
X422369Y763598D01*
Y760598D01*
X421869Y760098D02*X422369Y760598D01*
X420869Y760098D02*X421869D01*
X420369Y760598D02*X420869Y760098D01*
X423569Y764098D02*Y760098D01*
Y764098D02*X426069Y760098D01*
Y764098D02*Y760098D01*
X427269Y764098D02*Y760098D01*
Y764098D02*X429769Y760098D01*
Y764098D02*Y760098D01*
X430969Y763298D02*X431769Y764098D01*
Y760098D01*
X430969D02*X432469D01*
X433669Y760598D02*X434169Y760098D01*
X433669Y763598D02*Y760598D01*
Y763598D02*X434169Y764098D01*
X435169D01*
X435669Y763598D01*
Y760598D01*
X435169Y760098D02*X435669Y760598D01*
X434169Y760098D02*X435169D01*
X433669Y761098D02*X435669Y763098D01*
X436869Y763298D02*X437669Y764098D01*
Y760098D01*
X436869D02*X438369D01*
X368549Y785998D02*X369849D01*
X367849Y786698D02*X368549Y785998D01*
X367849Y789298D02*Y786698D01*
Y789298D02*X368549Y789998D01*
X369849D01*
X371049Y789198D02*X371849Y789998D01*
Y785998D01*
X371049D02*X372549D01*
X373749Y786498D02*X374249Y785998D01*
X373749Y789498D02*Y786498D01*
Y789498D02*X374249Y789998D01*
X375249D01*
X375749Y789498D01*
Y786498D01*
X375249Y785998D02*X375749Y786498D01*
X374249Y785998D02*X375249D01*
X373749Y786998D02*X375749Y788998D01*
X376949Y789198D02*X377749Y789998D01*
Y785998D01*
X376949D02*X378449D01*
X380752Y798124D02*X382752D01*
X383252Y797624D01*
Y796624D01*
X382752Y796124D02*X383252Y796624D01*
X381252Y796124D02*X382752D01*
X381252Y798124D02*Y794124D01*
X382052Y796124D02*X383252Y794124D01*
X384452Y797324D02*X385252Y798124D01*
Y794124D01*
X384452D02*X385952D01*
X387152Y797624D02*X387652Y798124D01*
X389152D01*
X389652Y797624D01*
Y796624D01*
X387152Y794124D02*X389652Y796624D01*
X387152Y794124D02*X389652D01*
X390852Y797624D02*X391352Y798124D01*
X392352D01*
X392852Y797624D01*
X392352Y794124D02*X392852Y794624D01*
X391352Y794124D02*X392352D01*
X390852Y794624D02*X391352Y794124D01*
Y796324D02*X392352D01*
X392852Y797624D02*Y796824D01*
Y795824D02*Y794624D01*
Y795824D02*X392352Y796324D01*
X392852Y796824D02*X392352Y796324D01*
X408774Y784029D02*Y782029D01*
Y784029D02*X409274Y784529D01*
X410274D01*
X410774Y784029D02*X410274Y784529D01*
X410774Y784029D02*Y782529D01*
X408774D02*X412774D01*
X410774Y783329D02*X412774Y784529D01*
X409574Y785729D02*X408774Y786529D01*
X412774D01*
Y787229D02*Y785729D01*
X412274Y788429D02*X412774Y788929D01*
X409274Y788429D02*X412274D01*
X409274D02*X408774Y788929D01*
Y789929D02*Y788929D01*
Y789929D02*X409274Y790429D01*
X412274D01*
X412774Y789929D02*X412274Y790429D01*
X412774Y789929D02*Y788929D01*
X411774Y788429D02*X409774Y790429D01*
X409574Y791629D02*X408774Y792429D01*
X412774D01*
Y793129D02*Y791629D01*
X409289Y766834D02*Y764834D01*
Y766834D02*X409789Y767334D01*
X410789D01*
X411289Y766834D02*X410789Y767334D01*
X411289Y766834D02*Y765334D01*
X409289D02*X413289D01*
X411289Y766134D02*X413289Y767334D01*
X410089Y768534D02*X409289Y769334D01*
X413289D01*
Y770034D02*Y768534D01*
X412789Y771234D02*X413289Y771734D01*
X409789Y771234D02*X412789D01*
X409789D02*X409289Y771734D01*
Y772734D02*Y771734D01*
Y772734D02*X409789Y773234D01*
X412789D01*
X413289Y772734D02*X412789Y773234D01*
X413289Y772734D02*Y771734D01*
X412289Y771234D02*X410289Y773234D01*
X409789Y774434D02*X409289Y774934D01*
Y776434D02*Y774934D01*
Y776434D02*X409789Y776934D01*
X410789D01*
X413289Y774434D02*X410789Y776934D01*
X413289D02*Y774434D01*
X439893Y808095D02*Y804095D01*
Y808095D02*X441893D01*
X439893Y806295D02*X441393D01*
X443093Y807295D02*X443893Y808095D01*
Y804095D01*
X443093D02*X444593D01*
X445793Y804595D02*X446293Y804095D01*
X445793Y807595D02*Y804595D01*
Y807595D02*X446293Y808095D01*
X447293D01*
X447793Y807595D01*
Y804595D01*
X447293Y804095D02*X447793Y804595D01*
X446293Y804095D02*X447293D01*
X445793Y805095D02*X447793Y807095D01*
X448993Y807295D02*X449793Y808095D01*
Y804095D01*
X448993D02*X450493D01*
X407131Y743846D02*X410131D01*
X407131D02*X406631Y744346D01*
Y745346D02*Y744346D01*
Y745346D02*X407131Y745846D01*
X409631D01*
X410631Y744846D02*X409631Y745846D01*
X410631Y744846D02*Y744346D01*
X410131Y743846D02*X410631Y744346D01*
X409131Y744846D02*X410631Y745846D01*
X407431Y747046D02*X406631Y747846D01*
X410631D01*
Y748546D02*Y747046D01*
X410131Y749746D02*X410631Y750246D01*
X407131Y749746D02*X410131D01*
X407131D02*X406631Y750246D01*
Y751246D02*Y750246D01*
Y751246D02*X407131Y751746D01*
X410131D01*
X410631Y751246D02*X410131Y751746D01*
X410631Y751246D02*Y750246D01*
X409631Y749746D02*X407631Y751746D01*
X407131Y752946D02*X406631Y753446D01*
Y754946D02*Y753446D01*
Y754946D02*X407131Y755446D01*
X408131D01*
X410631Y752946D02*X408131Y755446D01*
X410631D02*Y752946D01*
X424631Y702446D02*Y700446D01*
Y702446D02*X425131Y702946D01*
X426131D01*
X426631Y702446D02*X426131Y702946D01*
X426631Y702446D02*Y700946D01*
X424631D02*X428631D01*
X426631Y701746D02*X428631Y702946D01*
X425131Y704146D02*X424631Y704646D01*
Y706146D02*Y704646D01*
Y706146D02*X425131Y706646D01*
X426131D01*
X428631Y704146D02*X426131Y706646D01*
X428631D02*Y704146D01*
X428131Y707846D02*X428631Y708346D01*
X425131Y707846D02*X428131D01*
X425131D02*X424631Y708346D01*
Y709346D02*Y708346D01*
Y709346D02*X425131Y709846D01*
X428131D01*
X428631Y709346D02*X428131Y709846D01*
X428631Y709346D02*Y708346D01*
X427631Y707846D02*X425631Y709846D01*
X425431Y711046D02*X424631Y711846D01*
X428631D01*
Y712546D02*Y711046D01*
X337631Y700846D02*Y699546D01*
X336931Y698846D02*X337631Y699546D01*
X334331Y698846D02*X336931D01*
X334331D02*X333631Y699546D01*
Y700846D02*Y699546D01*
X334431Y702046D02*X333631Y702846D01*
X337631D01*
Y703546D02*Y702046D01*
X337131Y704746D02*X337631Y705246D01*
X334131Y704746D02*X337131D01*
X334131D02*X333631Y705246D01*
Y706246D02*Y705246D01*
Y706246D02*X334131Y706746D01*
X337131D01*
X337631Y706246D02*X337131Y706746D01*
X337631Y706246D02*Y705246D01*
X336631Y704746D02*X334631Y706746D01*
X337631Y708446D02*X335631Y709946D01*
X334131D02*X335631D01*
X333631Y709446D02*X334131Y709946D01*
X333631Y709446D02*Y708446D01*
X334131Y707946D02*X333631Y708446D01*
X334131Y707946D02*X335131D01*
X335631Y708446D01*
Y709946D02*Y708446D01*
X439893Y822595D02*Y818595D01*
Y822595D02*X441893D01*
X439893Y820795D02*X441393D01*
X443093Y821795D02*X443893Y822595D01*
Y818595D01*
X443093D02*X444593D01*
X445793Y819095D02*X446293Y818595D01*
X445793Y822095D02*Y819095D01*
Y822095D02*X446293Y822595D01*
X447293D01*
X447793Y822095D01*
Y819095D01*
X447293Y818595D02*X447793Y819095D01*
X446293Y818595D02*X447293D01*
X445793Y819595D02*X447793Y821595D01*
X448993Y822095D02*X449493Y822595D01*
X450993D01*
X451493Y822095D01*
Y821095D01*
X448993Y818595D02*X451493Y821095D01*
X448993Y818595D02*X451493D01*
X339009Y821858D02*Y817858D01*
X340309Y821858D02*X341009Y821158D01*
Y818558D01*
X340309Y817858D02*X341009Y818558D01*
X338509Y817858D02*X340309D01*
X338509Y821858D02*X340309D01*
X342209Y821058D02*X343009Y821858D01*
Y817858D01*
X342209D02*X343709D01*
X344909Y818358D02*X345409Y817858D01*
X344909Y821358D02*Y818358D01*
Y821358D02*X345409Y821858D01*
X346409D01*
X346909Y821358D01*
Y818358D01*
X346409Y817858D02*X346909Y818358D01*
X345409Y817858D02*X346409D01*
X344909Y818858D02*X346909Y820858D01*
X348109Y821858D02*X350109D01*
X348109D02*Y819858D01*
X348609Y820358D01*
X349609D01*
X350109Y819858D01*
Y818358D01*
X349609Y817858D02*X350109Y818358D01*
X348609Y817858D02*X349609D01*
X348109Y818358D02*X348609Y817858D01*
X334542Y681749D02*X335842D01*
X333842Y682449D02*X334542Y681749D01*
X333842Y685049D02*Y682449D01*
Y685049D02*X334542Y685749D01*
X335842D01*
X337042Y685249D02*Y682249D01*
Y685249D02*X337542Y685749D01*
X338542D01*
X339042Y685249D01*
Y682249D01*
X338542Y681749D02*X339042Y682249D01*
X337542Y681749D02*X338542D01*
X337042Y682249D02*X337542Y681749D01*
X340242Y685749D02*Y681749D01*
Y685749D02*X342742Y681749D01*
Y685749D02*Y681749D01*
X343942Y685749D02*Y681749D01*
Y685749D02*X346442Y681749D01*
Y685749D02*Y681749D01*
X347642Y685249D02*X348142Y685749D01*
X349642D01*
X350142Y685249D01*
Y684249D01*
X347642Y681749D02*X350142Y684249D01*
X347642Y681749D02*X350142D01*
X351342Y682249D02*X351842Y681749D01*
X351342Y685249D02*Y682249D01*
Y685249D02*X351842Y685749D01*
X352842D01*
X353342Y685249D01*
Y682249D01*
X352842Y681749D02*X353342Y682249D01*
X351842Y681749D02*X352842D01*
X351342Y682749D02*X353342Y684749D01*
X354542Y684949D02*X355342Y685749D01*
Y681749D01*
X354542D02*X356042D01*
X343941Y699997D02*Y698697D01*
X343241Y697997D02*X343941Y698697D01*
X340641Y697997D02*X343241D01*
X340641D02*X339941Y698697D01*
Y699997D02*Y698697D01*
X340441Y701197D02*X339941Y701697D01*
Y703197D02*Y701697D01*
Y703197D02*X340441Y703697D01*
X341441D01*
X343941Y701197D02*X341441Y703697D01*
X343941D02*Y701197D01*
X343441Y704897D02*X343941Y705397D01*
X340441Y704897D02*X343441D01*
X340441D02*X339941Y705397D01*
Y706397D02*Y705397D01*
Y706397D02*X340441Y706897D01*
X343441D01*
X343941Y706397D02*X343441Y706897D01*
X343941Y706397D02*Y705397D01*
X342941Y704897D02*X340941Y706897D01*
X340441Y708097D02*X339941Y708597D01*
Y710097D02*Y708597D01*
Y710097D02*X340441Y710597D01*
X341441D01*
X343941Y708097D02*X341441Y710597D01*
X343941D02*Y708097D01*
X356131Y717346D02*X360131D01*
X356131Y718646D02*X356831Y719346D01*
X359431D01*
X360131Y718646D02*X359431Y719346D01*
X360131Y718646D02*Y716846D01*
X356131Y718646D02*Y716846D01*
X356931Y720546D02*X356131Y721346D01*
X360131D01*
Y722046D02*Y720546D01*
X359631Y723246D02*X360131Y723746D01*
X356631Y723246D02*X359631D01*
X356631D02*X356131Y723746D01*
Y724746D02*Y723746D01*
Y724746D02*X356631Y725246D01*
X359631D01*
X360131Y724746D02*X359631Y725246D01*
X360131Y724746D02*Y723746D01*
X359131Y723246D02*X357131Y725246D01*
X360131Y726946D02*X356131Y728946D01*
Y726446D01*
X302331Y732346D02*X303631D01*
X301631Y733046D02*X302331Y732346D01*
X301631Y735646D02*Y733046D01*
Y735646D02*X302331Y736346D01*
X303631D01*
X304831Y735546D02*X305631Y736346D01*
Y732346D01*
X304831D02*X306331D01*
X307531Y735546D02*X308331Y736346D01*
Y732346D01*
X307531D02*X309031D01*
X310231Y732846D02*X310731Y732346D01*
X310231Y735846D02*Y732846D01*
Y735846D02*X310731Y736346D01*
X311731D01*
X312231Y735846D01*
Y732846D01*
X311731Y732346D02*X312231Y732846D01*
X310731Y732346D02*X311731D01*
X310231Y733346D02*X312231Y735346D01*
X302815Y707923D02*X304115D01*
X302115Y708623D02*X302815Y707923D01*
X302115Y711223D02*Y708623D01*
Y711223D02*X302815Y711923D01*
X304115D01*
X305315Y711123D02*X306115Y711923D01*
Y707923D01*
X305315D02*X306815D01*
X308015Y711123D02*X308815Y711923D01*
Y707923D01*
X308015D02*X309515D01*
X310715Y711123D02*X311515Y711923D01*
Y707923D01*
X310715D02*X312215D01*
X301539Y724308D02*Y720808D01*
X302039Y720308D01*
X303039D01*
X303539Y720808D01*
Y724308D02*Y720808D01*
X304739Y723508D02*X305539Y724308D01*
Y720308D01*
X304739D02*X306239D01*
X307439Y720808D02*X307939Y720308D01*
X307439Y723808D02*Y720808D01*
Y723808D02*X307939Y724308D01*
X308939D01*
X309439Y723808D01*
Y720808D01*
X308939Y720308D02*X309439Y720808D01*
X307939Y720308D02*X308939D01*
X307439Y721308D02*X309439Y723308D01*
X310639Y723808D02*X311139Y724308D01*
X312139D01*
X312639Y723808D01*
X312139Y720308D02*X312639Y720808D01*
X311139Y720308D02*X312139D01*
X310639Y720808D02*X311139Y720308D01*
Y722508D02*X312139D01*
X312639Y723808D02*Y723008D01*
Y722008D02*Y720808D01*
Y722008D02*X312139Y722508D01*
X312639Y723008D02*X312139Y722508D01*
X344972Y741595D02*Y737595D01*
Y741595D02*X346972D01*
X344972Y739795D02*X346472D01*
X348172Y740795D02*X348972Y741595D01*
Y737595D01*
X348172D02*X349672D01*
X350872Y738095D02*X351372Y737595D01*
X350872Y741095D02*Y738095D01*
Y741095D02*X351372Y741595D01*
X352372D01*
X352872Y741095D01*
Y738095D01*
X352372Y737595D02*X352872Y738095D01*
X351372Y737595D02*X352372D01*
X350872Y738595D02*X352872Y740595D01*
X354072Y741095D02*X354572Y741595D01*
X355572D01*
X356072Y741095D01*
X355572Y737595D02*X356072Y738095D01*
X354572Y737595D02*X355572D01*
X354072Y738095D02*X354572Y737595D01*
Y739795D02*X355572D01*
X356072Y741095D02*Y740295D01*
Y739295D02*Y738095D01*
Y739295D02*X355572Y739795D01*
X356072Y740295D02*X355572Y739795D01*
X348826Y762423D02*X352826D01*
X348826Y763723D02*X349526Y764423D01*
X352126D01*
X352826Y763723D02*X352126Y764423D01*
X352826Y763723D02*Y761923D01*
X348826Y763723D02*Y761923D01*
X349626Y765623D02*X348826Y766423D01*
X352826D01*
Y767123D02*Y765623D01*
X352326Y768323D02*X352826Y768823D01*
X349326Y768323D02*X352326D01*
X349326D02*X348826Y768823D01*
Y769823D02*Y768823D01*
Y769823D02*X349326Y770323D01*
X352326D01*
X352826Y769823D02*X352326Y770323D01*
X352826Y769823D02*Y768823D01*
X351826Y768323D02*X349826Y770323D01*
X349626Y771523D02*X348826Y772323D01*
X352826D01*
Y773023D02*Y771523D01*
X364139Y756348D02*X366139D01*
X366639Y755848D01*
Y754848D01*
X366139Y754348D02*X366639Y754848D01*
X364639Y754348D02*X366139D01*
X364639Y756348D02*Y752348D01*
X365439Y754348D02*X366639Y752348D01*
X367839Y755548D02*X368639Y756348D01*
Y752348D01*
X367839D02*X369339D01*
X370539Y755848D02*X371039Y756348D01*
X372539D01*
X373039Y755848D01*
Y754848D01*
X370539Y752348D02*X373039Y754848D01*
X370539Y752348D02*X373039D01*
X374239Y755848D02*X374739Y756348D01*
X376239D01*
X376739Y755848D01*
Y754848D01*
X374239Y752348D02*X376739Y754848D01*
X374239Y752348D02*X376739D01*
X364682Y748348D02*X366682D01*
X367182Y747848D01*
Y746848D01*
X366682Y746348D02*X367182Y746848D01*
X365182Y746348D02*X366682D01*
X365182Y748348D02*Y744348D01*
X365982Y746348D02*X367182Y744348D01*
X368382Y747548D02*X369182Y748348D01*
Y744348D01*
X368382D02*X369882D01*
X371082Y747848D02*X371582Y748348D01*
X373082D01*
X373582Y747848D01*
Y746848D01*
X371082Y744348D02*X373582Y746848D01*
X371082Y744348D02*X373582D01*
X374782Y747548D02*X375582Y748348D01*
Y744348D01*
X374782D02*X376282D01*
X165239Y797508D02*Y796208D01*
X164539Y795508D02*X165239Y796208D01*
X161939Y795508D02*X164539D01*
X161939D02*X161239Y796208D01*
Y797508D02*Y796208D01*
X161739Y798708D02*X164739D01*
X161739D02*X161239Y799208D01*
Y800208D02*Y799208D01*
Y800208D02*X161739Y800708D01*
X164739D01*
X165239Y800208D02*X164739Y800708D01*
X165239Y800208D02*Y799208D01*
X164739Y798708D02*X165239Y799208D01*
X161239Y801908D02*X165239D01*
X161239D02*X165239Y804408D01*
X161239D02*X165239D01*
X161239Y805608D02*X165239D01*
X161239D02*X165239Y808108D01*
X161239D02*X165239D01*
X161739Y809308D02*X161239Y809808D01*
Y811308D02*Y809808D01*
Y811308D02*X161739Y811808D01*
X162739D01*
X165239Y809308D02*X162739Y811808D01*
X165239D02*Y809308D01*
X164739Y813008D02*X165239Y813508D01*
X161739Y813008D02*X164739D01*
X161739D02*X161239Y813508D01*
Y814508D02*Y813508D01*
Y814508D02*X161739Y815008D01*
X164739D01*
X165239Y814508D02*X164739Y815008D01*
X165239Y814508D02*Y813508D01*
X164239Y813008D02*X162239Y815008D01*
X165239Y816708D02*X163239Y818208D01*
X161739D02*X163239D01*
X161239Y817708D02*X161739Y818208D01*
X161239Y817708D02*Y816708D01*
X161739Y816208D02*X161239Y816708D01*
X161739Y816208D02*X162739D01*
X163239Y816708D01*
Y818208D02*Y816708D01*
X140731Y770146D02*X142031D01*
X140031Y770846D02*X140731Y770146D01*
X140031Y773446D02*Y770846D01*
Y773446D02*X140731Y774146D01*
X142031D01*
X143231Y773646D02*X143731Y774146D01*
X145231D01*
X145731Y773646D01*
Y772646D01*
X143231Y770146D02*X145731Y772646D01*
X143231Y770146D02*X145731D01*
X146931Y770646D02*X147431Y770146D01*
X146931Y773646D02*Y770646D01*
Y773646D02*X147431Y774146D01*
X148431D01*
X148931Y773646D01*
Y770646D01*
X148431Y770146D02*X148931Y770646D01*
X147431Y770146D02*X148431D01*
X146931Y771146D02*X148931Y773146D01*
X150131Y773346D02*X150931Y774146D01*
Y770146D01*
X150131D02*X151631D01*
X138366Y742579D02*X138866Y743079D01*
X138366Y742579D02*Y741079D01*
X138866Y740579D02*X138366Y741079D01*
X138866Y740579D02*X139866D01*
X140366Y741079D01*
Y742579D02*Y741079D01*
Y742579D02*X140866Y743079D01*
X141866D01*
X142366Y742579D02*X141866Y743079D01*
X142366Y742579D02*Y741079D01*
X141866Y740579D02*X142366Y741079D01*
X138866Y744279D02*X138366Y744779D01*
Y746279D02*Y744779D01*
Y746279D02*X138866Y746779D01*
X139866D01*
X142366Y744279D02*X139866Y746779D01*
X142366D02*Y744279D01*
X141866Y747979D02*X142366Y748479D01*
X138866Y747979D02*X141866D01*
X138866D02*X138366Y748479D01*
Y749479D02*Y748479D01*
Y749479D02*X138866Y749979D01*
X141866D01*
X142366Y749479D02*X141866Y749979D01*
X142366Y749479D02*Y748479D01*
X141366Y747979D02*X139366Y749979D01*
X139166Y751179D02*X138366Y751979D01*
X142366D01*
Y752679D02*Y751179D01*
X289337Y687598D02*Y684098D01*
X289837Y683598D01*
X290837D01*
X291337Y684098D01*
Y687598D02*Y684098D01*
X292537Y687098D02*X293037Y687598D01*
X294537D01*
X295037Y687098D01*
Y686098D01*
X292537Y683598D02*X295037Y686098D01*
X292537Y683598D02*X295037D01*
X296237Y684098D02*X296737Y683598D01*
X296237Y687098D02*Y684098D01*
Y687098D02*X296737Y687598D01*
X297737D01*
X298237Y687098D01*
Y684098D01*
X297737Y683598D02*X298237Y684098D01*
X296737Y683598D02*X297737D01*
X296237Y684598D02*X298237Y686598D01*
X299437Y687098D02*X299937Y687598D01*
X300937D01*
X301437Y687098D01*
X300937Y683598D02*X301437Y684098D01*
X299937Y683598D02*X300937D01*
X299437Y684098D02*X299937Y683598D01*
Y685798D02*X300937D01*
X301437Y687098D02*Y686298D01*
Y685298D02*Y684098D01*
Y685298D02*X300937Y685798D01*
X301437Y686298D02*X300937Y685798D01*
X253189Y687398D02*X254489D01*
X252489Y688098D02*X253189Y687398D01*
X252489Y690698D02*Y688098D01*
Y690698D02*X253189Y691398D01*
X254489D01*
X255689Y690598D02*X256489Y691398D01*
Y687398D01*
X255689D02*X257189D01*
X258389Y687898D02*X258889Y687398D01*
X258389Y690898D02*Y687898D01*
Y690898D02*X258889Y691398D01*
X259889D01*
X260389Y690898D01*
Y687898D01*
X259889Y687398D02*X260389Y687898D01*
X258889Y687398D02*X259889D01*
X258389Y688398D02*X260389Y690398D01*
X262089Y687398D02*X264089Y691398D01*
X261589D02*X264089D01*
X284882Y703048D02*X286882D01*
X287382Y702548D01*
Y701548D01*
X286882Y701048D02*X287382Y701548D01*
X285382Y701048D02*X286882D01*
X285382Y703048D02*Y699048D01*
X286182Y701048D02*X287382Y699048D01*
X288582Y702248D02*X289382Y703048D01*
Y699048D01*
X288582D02*X290082D01*
X291282Y702248D02*X292082Y703048D01*
Y699048D01*
X291282D02*X292782D01*
X295482Y703048D02*X295982Y702548D01*
X294482Y703048D02*X295482D01*
X293982Y702548D02*X294482Y703048D01*
X293982Y702548D02*Y699548D01*
X294482Y699048D01*
X295482Y701248D02*X295982Y700748D01*
X293982Y701248D02*X295482D01*
X294482Y699048D02*X295482D01*
X295982Y699548D01*
Y700748D02*Y699548D01*
X200143Y699280D02*Y697280D01*
Y699280D02*X200643Y699780D01*
X201643D01*
X202143Y699280D02*X201643Y699780D01*
X202143Y699280D02*Y697780D01*
X200143D02*X204143D01*
X202143Y698580D02*X204143Y699780D01*
X200643Y700980D02*X200143Y701480D01*
Y702980D02*Y701480D01*
Y702980D02*X200643Y703480D01*
X201643D01*
X204143Y700980D02*X201643Y703480D01*
X204143D02*Y700980D01*
X200943Y704680D02*X200143Y705480D01*
X204143D01*
Y706180D02*Y704680D01*
X200643Y707380D02*X200143Y707880D01*
Y708880D02*Y707880D01*
Y708880D02*X200643Y709380D01*
X204143Y708880D02*X203643Y709380D01*
X204143Y708880D02*Y707880D01*
X203643Y707380D02*X204143Y707880D01*
X201943Y708880D02*Y707880D01*
X200643Y709380D02*X201443D01*
X202443D02*X203643D01*
X202443D02*X201943Y708880D01*
X201443Y709380D02*X201943Y708880D01*
X222392Y686489D02*X225892D01*
X226392Y686989D01*
Y687989D02*Y686989D01*
Y687989D02*X225892Y688489D01*
X222392D02*X225892D01*
X223192Y689689D02*X222392Y690489D01*
X226392D01*
Y691189D02*Y689689D01*
X225892Y692389D02*X226392Y692889D01*
X222892Y692389D02*X225892D01*
X222892D02*X222392Y692889D01*
Y693889D02*Y692889D01*
Y693889D02*X222892Y694389D01*
X225892D01*
X226392Y693889D02*X225892Y694389D01*
X226392Y693889D02*Y692889D01*
X225392Y692389D02*X223392Y694389D01*
X222892Y695589D02*X222392Y696089D01*
Y697589D02*Y696089D01*
Y697589D02*X222892Y698089D01*
X223892D01*
X226392Y695589D02*X223892Y698089D01*
X226392D02*Y695589D01*
X211836Y707450D02*X213836D01*
X214336Y706950D01*
Y705950D01*
X213836Y705450D02*X214336Y705950D01*
X212336Y705450D02*X213836D01*
X212336Y707450D02*Y703450D01*
X213136Y705450D02*X214336Y703450D01*
X215536Y706650D02*X216336Y707450D01*
Y703450D01*
X215536D02*X217036D01*
X218236Y706650D02*X219036Y707450D01*
Y703450D01*
X218236D02*X219736D01*
X221436D02*X222936Y705450D01*
Y706950D02*Y705450D01*
X222436Y707450D02*X222936Y706950D01*
X221436Y707450D02*X222436D01*
X220936Y706950D02*X221436Y707450D01*
X220936Y706950D02*Y705950D01*
X221436Y705450D01*
X222936D01*
X228200Y663500D02*X229500D01*
X227500Y664200D02*X228200Y663500D01*
X227500Y666800D02*Y664200D01*
Y666800D02*X228200Y667500D01*
X229500D01*
X230700Y667000D02*Y664000D01*
Y667000D02*X231200Y667500D01*
X232200D01*
X232700Y667000D01*
Y664000D01*
X232200Y663500D02*X232700Y664000D01*
X231200Y663500D02*X232200D01*
X230700Y664000D02*X231200Y663500D01*
X233900Y667500D02*Y663500D01*
Y667500D02*X236400Y663500D01*
Y667500D02*Y663500D01*
X237600Y667500D02*Y663500D01*
Y667500D02*X240100Y663500D01*
Y667500D02*Y663500D01*
X241300Y667000D02*X241800Y667500D01*
X243300D01*
X243800Y667000D01*
Y666000D01*
X241300Y663500D02*X243800Y666000D01*
X241300Y663500D02*X243800D01*
X245000Y664000D02*X245500Y663500D01*
X245000Y667000D02*Y664000D01*
Y667000D02*X245500Y667500D01*
X246500D01*
X247000Y667000D01*
Y664000D01*
X246500Y663500D02*X247000Y664000D01*
X245500Y663500D02*X246500D01*
X245000Y664500D02*X247000Y666500D01*
X248200Y667000D02*X248700Y667500D01*
X249700D01*
X250200Y667000D01*
X249700Y663500D02*X250200Y664000D01*
X248700Y663500D02*X249700D01*
X248200Y664000D02*X248700Y663500D01*
Y665700D02*X249700D01*
X250200Y667000D02*Y666200D01*
Y665200D02*Y664000D01*
Y665200D02*X249700Y665700D01*
X250200Y666200D02*X249700Y665700D01*
X231341Y701554D02*Y700254D01*
X230641Y699554D02*X231341Y700254D01*
X228041Y699554D02*X230641D01*
X228041D02*X227341Y700254D01*
Y701554D02*Y700254D01*
X228141Y702754D02*X227341Y703554D01*
X231341D01*
Y704254D02*Y702754D01*
X228141Y705454D02*X227341Y706254D01*
X231341D01*
Y706954D02*Y705454D01*
X227841Y708154D02*X227341Y708654D01*
Y709654D02*Y708654D01*
Y709654D02*X227841Y710154D01*
X231341Y709654D02*X230841Y710154D01*
X231341Y709654D02*Y708654D01*
X230841Y708154D02*X231341Y708654D01*
X229141Y709654D02*Y708654D01*
X227841Y710154D02*X228641D01*
X229641D02*X230841D01*
X229641D02*X229141Y709654D01*
X228641Y710154D02*X229141Y709654D01*
X234593Y697778D02*X236593D01*
X237093Y697278D01*
Y696278D01*
X236593Y695778D02*X237093Y696278D01*
X235093Y695778D02*X236593D01*
X235093Y697778D02*Y693778D01*
X235893Y695778D02*X237093Y693778D01*
X238293Y696978D02*X239093Y697778D01*
Y693778D01*
X238293D02*X239793D01*
X240993Y696978D02*X241793Y697778D01*
Y693778D01*
X240993D02*X242493D01*
X243693Y697278D02*X244193Y697778D01*
X245693D01*
X246193Y697278D01*
Y696278D01*
X243693Y693778D02*X246193Y696278D01*
X243693Y693778D02*X246193D01*
X225392Y728153D02*X229392D01*
X225392Y729453D02*X226092Y730153D01*
X228692D01*
X229392Y729453D02*X228692Y730153D01*
X229392Y729453D02*Y727653D01*
X225392Y729453D02*Y727653D01*
X226192Y731353D02*X225392Y732153D01*
X229392D01*
Y732853D02*Y731353D01*
X228892Y734053D02*X229392Y734553D01*
X225892Y734053D02*X228892D01*
X225892D02*X225392Y734553D01*
Y735553D02*Y734553D01*
Y735553D02*X225892Y736053D01*
X228892D01*
X229392Y735553D02*X228892Y736053D01*
X229392Y735553D02*Y734553D01*
X228392Y734053D02*X226392Y736053D01*
X227892Y737253D02*X225392Y739253D01*
X227892Y739753D02*Y737253D01*
X225392Y739253D02*X229392D01*
X225739Y714694D02*X229739D01*
X225739Y715994D02*X226439Y716694D01*
X229039D01*
X229739Y715994D02*X229039Y716694D01*
X229739Y715994D02*Y714194D01*
X225739Y715994D02*Y714194D01*
X226539Y717894D02*X225739Y718694D01*
X229739D01*
Y719394D02*Y717894D01*
X229239Y720594D02*X229739Y721094D01*
X226239Y720594D02*X229239D01*
X226239D02*X225739Y721094D01*
Y722094D02*Y721094D01*
Y722094D02*X226239Y722594D01*
X229239D01*
X229739Y722094D02*X229239Y722594D01*
X229739Y722094D02*Y721094D01*
X228739Y720594D02*X226739Y722594D01*
X226239Y723794D02*X225739Y724294D01*
Y725294D02*Y724294D01*
Y725294D02*X226239Y725794D01*
X229739Y725294D02*X229239Y725794D01*
X229739Y725294D02*Y724294D01*
X229239Y723794D02*X229739Y724294D01*
X227539Y725294D02*Y724294D01*
X226239Y725794D02*X227039D01*
X228039D02*X229239D01*
X228039D02*X227539Y725294D01*
X227039Y725794D02*X227539Y725294D01*
X275800Y737000D02*X277100D01*
X275100Y737700D02*X275800Y737000D01*
X275100Y740300D02*Y737700D01*
Y740300D02*X275800Y741000D01*
X277100D01*
X278300Y740200D02*X279100Y741000D01*
Y737000D01*
X278300D02*X279800D01*
X281000Y740200D02*X281800Y741000D01*
Y737000D01*
X281000D02*X282500D01*
X283700Y738500D02*X285700Y741000D01*
X283700Y738500D02*X286200D01*
X285700Y741000D02*Y737000D01*
X284796Y711548D02*X286796D01*
X287296Y711048D01*
Y710048D01*
X286796Y709548D02*X287296Y710048D01*
X285296Y709548D02*X286796D01*
X285296Y711548D02*Y707548D01*
X286096Y709548D02*X287296Y707548D01*
X288496Y710748D02*X289296Y711548D01*
Y707548D01*
X288496D02*X289996D01*
X291196Y710748D02*X291996Y711548D01*
Y707548D01*
X291196D02*X292696D01*
X293896Y711548D02*X295896D01*
X293896D02*Y709548D01*
X294396Y710048D01*
X295396D01*
X295896Y709548D01*
Y708048D01*
X295396Y707548D02*X295896Y708048D01*
X294396Y707548D02*X295396D01*
X293896Y708048D02*X294396Y707548D01*
X283296Y731148D02*X285296D01*
X285796Y730648D01*
Y729648D01*
X285296Y729148D02*X285796Y729648D01*
X283796Y729148D02*X285296D01*
X283796Y731148D02*Y727148D01*
X284596Y729148D02*X285796Y727148D01*
X286996Y730348D02*X287796Y731148D01*
Y727148D01*
X286996D02*X288496D01*
X289696Y730348D02*X290496Y731148D01*
Y727148D01*
X289696D02*X291196D01*
X292396Y728648D02*X294396Y731148D01*
X292396Y728648D02*X294896D01*
X294396Y731148D02*Y727148D01*
X286689Y716998D02*X287989D01*
X285989Y717698D02*X286689Y716998D01*
X285989Y720298D02*Y717698D01*
Y720298D02*X286689Y720998D01*
X287989D01*
X289189Y720198D02*X289989Y720998D01*
Y716998D01*
X289189D02*X290689D01*
X291889Y717498D02*X292389Y716998D01*
X291889Y720498D02*Y717498D01*
Y720498D02*X292389Y720998D01*
X293389D01*
X293889Y720498D01*
Y717498D01*
X293389Y716998D02*X293889Y717498D01*
X292389Y716998D02*X293389D01*
X291889Y717998D02*X293889Y719998D01*
X296589Y720998D02*X297089Y720498D01*
X295589Y720998D02*X296589D01*
X295089Y720498D02*X295589Y720998D01*
X295089Y720498D02*Y717498D01*
X295589Y716998D01*
X296589Y719198D02*X297089Y718698D01*
X295089Y719198D02*X296589D01*
X295589Y716998D02*X296589D01*
X297089Y717498D01*
Y718698D02*Y717498D01*
X251537Y734673D02*Y732673D01*
Y734673D02*X252037Y735173D01*
X253037D01*
X253537Y734673D02*X253037Y735173D01*
X253537Y734673D02*Y733173D01*
X251537D02*X255537D01*
X253537Y733973D02*X255537Y735173D01*
X252337Y736373D02*X251537Y737173D01*
X255537D01*
Y737873D02*Y736373D01*
X255037Y739073D02*X255537Y739573D01*
X252037Y739073D02*X255037D01*
X252037D02*X251537Y739573D01*
Y740573D02*Y739573D01*
Y740573D02*X252037Y741073D01*
X255037D01*
X255537Y740573D02*X255037Y741073D01*
X255537Y740573D02*Y739573D01*
X254537Y739073D02*X252537Y741073D01*
X255537Y742773D02*X253537Y744273D01*
X252037D02*X253537D01*
X251537Y743773D02*X252037Y744273D01*
X251537Y743773D02*Y742773D01*
X252037Y742273D02*X251537Y742773D01*
X252037Y742273D02*X253037D01*
X253537Y742773D01*
Y744273D02*Y742773D01*
X276506Y755130D02*Y753830D01*
X275806Y753130D02*X276506Y753830D01*
X273206Y753130D02*X275806D01*
X273206D02*X272506Y753830D01*
Y755130D02*Y753830D01*
X273306Y756330D02*X272506Y757130D01*
X276506D01*
Y757830D02*Y756330D01*
X276006Y759030D02*X276506Y759530D01*
X273006Y759030D02*X276006D01*
X273006D02*X272506Y759530D01*
Y760530D02*Y759530D01*
Y760530D02*X273006Y761030D01*
X276006D01*
X276506Y760530D02*X276006Y761030D01*
X276506Y760530D02*Y759530D01*
X275506Y759030D02*X273506Y761030D01*
X273006Y762230D02*X272506Y762730D01*
Y764230D02*Y762730D01*
Y764230D02*X273006Y764730D01*
X274006D01*
X276506Y762230D02*X274006Y764730D01*
X276506D02*Y762230D01*
X219449Y757758D02*Y756458D01*
X218749Y755758D02*X219449Y756458D01*
X216149Y755758D02*X218749D01*
X216149D02*X215449Y756458D01*
Y757758D02*Y756458D01*
X216249Y758958D02*X215449Y759758D01*
X219449D01*
Y760458D02*Y758958D01*
X216249Y761658D02*X215449Y762458D01*
X219449D01*
Y763158D02*Y761658D01*
X215949Y764358D02*X215449Y764858D01*
Y766358D02*Y764858D01*
Y766358D02*X215949Y766858D01*
X216949D01*
X219449Y764358D02*X216949Y766858D01*
X219449D02*Y764358D01*
X249682Y753088D02*X253682D01*
X249682Y754388D02*X250382Y755088D01*
X252982D01*
X253682Y754388D02*X252982Y755088D01*
X253682Y754388D02*Y752588D01*
X249682Y754388D02*Y752588D01*
X250482Y756288D02*X249682Y757088D01*
X253682D01*
Y757788D02*Y756288D01*
X253182Y758988D02*X253682Y759488D01*
X250182Y758988D02*X253182D01*
X250182D02*X249682Y759488D01*
Y760488D02*Y759488D01*
Y760488D02*X250182Y760988D01*
X253182D01*
X253682Y760488D02*X253182Y760988D01*
X253682Y760488D02*Y759488D01*
X252682Y758988D02*X250682Y760988D01*
X253682Y762688D02*X251682Y764188D01*
X250182D02*X251682D01*
X249682Y763688D02*X250182Y764188D01*
X249682Y763688D02*Y762688D01*
X250182Y762188D02*X249682Y762688D01*
X250182Y762188D02*X251182D01*
X251682Y762688D01*
Y764188D02*Y762688D01*
X271949Y771758D02*X275949D01*
X271949Y773058D02*X272649Y773758D01*
X275249D01*
X275949Y773058D02*X275249Y773758D01*
X275949Y773058D02*Y771258D01*
X271949Y773058D02*Y771258D01*
X272749Y774958D02*X271949Y775758D01*
X275949D01*
Y776458D02*Y774958D01*
X275449Y777658D02*X275949Y778158D01*
X272449Y777658D02*X275449D01*
X272449D02*X271949Y778158D01*
Y779158D02*Y778158D01*
Y779158D02*X272449Y779658D01*
X275449D01*
X275949Y779158D02*X275449Y779658D01*
X275949Y779158D02*Y778158D01*
X274949Y777658D02*X272949Y779658D01*
X272449Y780858D02*X271949Y781358D01*
Y782858D02*Y781358D01*
Y782858D02*X272449Y783358D01*
X273449D01*
X275949Y780858D02*X273449Y783358D01*
X275949D02*Y780858D01*
X199404Y773821D02*X200704D01*
X198704Y774521D02*X199404Y773821D01*
X198704Y777121D02*Y774521D01*
Y777121D02*X199404Y777821D01*
X200704D01*
X201904Y777021D02*X202704Y777821D01*
Y773821D01*
X201904D02*X203404D01*
X204604Y774321D02*X205104Y773821D01*
X204604Y777321D02*Y774321D01*
Y777321D02*X205104Y777821D01*
X206104D01*
X206604Y777321D01*
Y774321D01*
X206104Y773821D02*X206604Y774321D01*
X205104Y773821D02*X206104D01*
X204604Y774821D02*X206604Y776821D01*
X207804Y777821D02*X209804D01*
X207804D02*Y775821D01*
X208304Y776321D01*
X209304D01*
X209804Y775821D01*
Y774321D01*
X209304Y773821D02*X209804Y774321D01*
X208304Y773821D02*X209304D01*
X207804Y774321D02*X208304Y773821D01*
X205665Y761230D02*Y759230D01*
Y761230D02*X206165Y761730D01*
X207165D01*
X207665Y761230D02*X207165Y761730D01*
X207665Y761230D02*Y759730D01*
X205665D02*X209665D01*
X207665Y760530D02*X209665Y761730D01*
X206465Y762930D02*X205665Y763730D01*
X209665D01*
Y764430D02*Y762930D01*
X206465Y765630D02*X205665Y766430D01*
X209665D01*
Y767130D02*Y765630D01*
X206465Y768330D02*X205665Y769130D01*
X209665D01*
Y769830D02*Y768330D01*
X198665Y761687D02*Y759687D01*
Y761687D02*X199165Y762187D01*
X200165D01*
X200665Y761687D02*X200165Y762187D01*
X200665Y761687D02*Y760187D01*
X198665D02*X202665D01*
X200665Y760987D02*X202665Y762187D01*
X199465Y763387D02*X198665Y764187D01*
X202665D01*
Y764887D02*Y763387D01*
X199465Y766087D02*X198665Y766887D01*
X202665D01*
Y767587D02*Y766087D01*
X202165Y768787D02*X202665Y769287D01*
X199165Y768787D02*X202165D01*
X199165D02*X198665Y769287D01*
Y770287D02*Y769287D01*
Y770287D02*X199165Y770787D01*
X202165D01*
X202665Y770287D02*X202165Y770787D01*
X202665Y770287D02*Y769287D01*
X201665Y768787D02*X199665Y770787D01*
X188543Y732000D02*Y730700D01*
X187843Y730000D02*X188543Y730700D01*
X185243Y730000D02*X187843D01*
X185243D02*X184543Y730700D01*
Y732000D02*Y730700D01*
X185343Y733200D02*X184543Y734000D01*
X188543D01*
Y734700D02*Y733200D01*
X188043Y735900D02*X188543Y736400D01*
X185043Y735900D02*X188043D01*
X185043D02*X184543Y736400D01*
Y737400D02*Y736400D01*
Y737400D02*X185043Y737900D01*
X188043D01*
X188543Y737400D02*X188043Y737900D01*
X188543Y737400D02*Y736400D01*
X187543Y735900D02*X185543Y737900D01*
X188043Y739100D02*X188543Y739600D01*
X187243Y739100D02*X188043D01*
X187243D02*X186543Y739800D01*
Y740400D02*Y739800D01*
Y740400D02*X187243Y741100D01*
X188043D01*
X188543Y740600D02*X188043Y741100D01*
X188543Y740600D02*Y739600D01*
X185843Y739100D02*X186543Y739800D01*
X185043Y739100D02*X185843D01*
X185043D02*X184543Y739600D01*
Y740600D02*Y739600D01*
Y740600D02*X185043Y741100D01*
X185843D01*
X186543Y740400D02*X185843Y741100D01*
X190675Y750522D02*X192675D01*
X193175Y750022D01*
Y749022D01*
X192675Y748522D02*X193175Y749022D01*
X191175Y748522D02*X192675D01*
X191175Y750522D02*Y746522D01*
X191975Y748522D02*X193175Y746522D01*
X194375Y749722D02*X195175Y750522D01*
Y746522D01*
X194375D02*X195875D01*
X197075Y749722D02*X197875Y750522D01*
Y746522D01*
X197075D02*X198575D01*
X200275D02*X202275Y750522D01*
X199775D02*X202275D01*
X178653Y773091D02*X180653D01*
X181153Y772591D01*
Y771591D01*
X180653Y771091D02*X181153Y771591D01*
X179153Y771091D02*X180653D01*
X179153Y773091D02*Y769091D01*
X179953Y771091D02*X181153Y769091D01*
X182353Y772291D02*X183153Y773091D01*
Y769091D01*
X182353D02*X183853D01*
X185053Y772591D02*X185553Y773091D01*
X187053D01*
X187553Y772591D01*
Y771591D01*
X185053Y769091D02*X187553Y771591D01*
X185053Y769091D02*X187553D01*
X188753Y769591D02*X189253Y769091D01*
X188753Y772591D02*Y769591D01*
Y772591D02*X189253Y773091D01*
X190253D01*
X190753Y772591D01*
Y769591D01*
X190253Y769091D02*X190753Y769591D01*
X189253Y769091D02*X190253D01*
X188753Y770091D02*X190753Y772091D01*
X178608Y765701D02*X180608D01*
X181108Y765201D01*
Y764201D01*
X180608Y763701D02*X181108Y764201D01*
X179108Y763701D02*X180608D01*
X179108Y765701D02*Y761701D01*
X179908Y763701D02*X181108Y761701D01*
X182308Y764901D02*X183108Y765701D01*
Y761701D01*
X182308D02*X183808D01*
X185008Y764901D02*X185808Y765701D01*
Y761701D01*
X185008D02*X186508D01*
X187708Y762201D02*X188208Y761701D01*
X187708Y763001D02*Y762201D01*
Y763001D02*X188408Y763701D01*
X189008D01*
X189708Y763001D01*
Y762201D01*
X189208Y761701D02*X189708Y762201D01*
X188208Y761701D02*X189208D01*
X187708Y764401D02*X188408Y763701D01*
X187708Y765201D02*Y764401D01*
Y765201D02*X188208Y765701D01*
X189208D01*
X189708Y765201D01*
Y764401D01*
X189008Y763701D02*X189708Y764401D01*
X288934Y822487D02*X290934D01*
X289934D02*Y818487D01*
X292134Y821687D02*X292934Y822487D01*
Y818487D01*
X292134D02*X293634D01*
X294834Y818987D02*X295334Y818487D01*
X294834Y821987D02*Y818987D01*
Y821987D02*X295334Y822487D01*
X296334D01*
X296834Y821987D01*
Y818987D01*
X296334Y818487D02*X296834Y818987D01*
X295334Y818487D02*X296334D01*
X294834Y819487D02*X296834Y821487D01*
X298034Y821687D02*X298834Y822487D01*
Y818487D01*
X298034D02*X299534D01*
X252381Y793124D02*X254381D01*
X254881Y792624D01*
Y791624D01*
X254381Y791124D02*X254881Y791624D01*
X252881Y791124D02*X254381D01*
X252881Y793124D02*Y789124D01*
X253681Y791124D02*X254881Y789124D01*
X256081Y792324D02*X256881Y793124D01*
Y789124D01*
X256081D02*X257581D01*
X258781Y789624D02*X259281Y789124D01*
X258781Y792624D02*Y789624D01*
Y792624D02*X259281Y793124D01*
X260281D01*
X260781Y792624D01*
Y789624D01*
X260281Y789124D02*X260781Y789624D01*
X259281Y789124D02*X260281D01*
X258781Y790124D02*X260781Y792124D01*
X263481Y793124D02*X263981Y792624D01*
X262481Y793124D02*X263481D01*
X261981Y792624D02*X262481Y793124D01*
X261981Y792624D02*Y789624D01*
X262481Y789124D01*
X263481Y791324D02*X263981Y790824D01*
X261981Y791324D02*X263481D01*
X262481Y789124D02*X263481D01*
X263981Y789624D01*
Y790824D02*Y789624D01*
X266165Y793073D02*X268165D01*
X268665Y792573D01*
Y791573D01*
X268165Y791073D02*X268665Y791573D01*
X266665Y791073D02*X268165D01*
X266665Y793073D02*Y789073D01*
X267465Y791073D02*X268665Y789073D01*
X269865Y792273D02*X270665Y793073D01*
Y789073D01*
X269865D02*X271365D01*
X272565Y789573D02*X273065Y789073D01*
X272565Y792573D02*Y789573D01*
Y792573D02*X273065Y793073D01*
X274065D01*
X274565Y792573D01*
Y789573D01*
X274065Y789073D02*X274565Y789573D01*
X273065Y789073D02*X274065D01*
X272565Y790073D02*X274565Y792073D01*
X275765Y792573D02*X276265Y793073D01*
X277265D01*
X277765Y792573D01*
X277265Y789073D02*X277765Y789573D01*
X276265Y789073D02*X277265D01*
X275765Y789573D02*X276265Y789073D01*
Y791273D02*X277265D01*
X277765Y792573D02*Y791773D01*
Y790773D02*Y789573D01*
Y790773D02*X277265Y791273D01*
X277765Y791773D02*X277265Y791273D01*
X181981Y781608D02*X183281D01*
X181281Y782308D02*X181981Y781608D01*
X181281Y784908D02*Y782308D01*
Y784908D02*X181981Y785608D01*
X183281D01*
X184482Y784808D02*X185282Y785608D01*
Y781608D01*
X184482D02*X185982D01*
X187182Y782108D02*X187682Y781608D01*
X187182Y785108D02*Y782108D01*
Y785108D02*X187682Y785608D01*
X188682D01*
X189182Y785108D01*
Y782108D01*
X188682Y781608D02*X189182Y782108D01*
X187682Y781608D02*X188682D01*
X187182Y782608D02*X189182Y784608D01*
X190382Y783108D02*X192382Y785608D01*
X190382Y783108D02*X192882D01*
X192382Y785608D02*Y781608D01*
X195850Y787650D02*X197850D01*
X198350Y787150D01*
Y786150D01*
X197850Y785650D02*X198350Y786150D01*
X196350Y785650D02*X197850D01*
X196350Y787650D02*Y783650D01*
X197150Y785650D02*X198350Y783650D01*
X199550Y786850D02*X200350Y787650D01*
Y783650D01*
X199550D02*X201050D01*
X202250Y784150D02*X202750Y783650D01*
X202250Y787150D02*Y784150D01*
Y787150D02*X202750Y787650D01*
X203750D01*
X204250Y787150D01*
Y784150D01*
X203750Y783650D02*X204250Y784150D01*
X202750Y783650D02*X203750D01*
X202250Y784650D02*X204250Y786650D01*
X205450Y784150D02*X205950Y783650D01*
X205450Y784950D02*Y784150D01*
Y784950D02*X206150Y785650D01*
X206750D01*
X207450Y784950D01*
Y784150D01*
X206950Y783650D02*X207450Y784150D01*
X205950Y783650D02*X206950D01*
X205450Y786350D02*X206150Y785650D01*
X205450Y787150D02*Y786350D01*
Y787150D02*X205950Y787650D01*
X206950D01*
X207450Y787150D01*
Y786350D01*
X206750Y785650D02*X207450Y786350D01*
X261274Y820017D02*X262574D01*
X260574Y820717D02*X261274Y820017D01*
X260574Y823317D02*Y820717D01*
Y823317D02*X261274Y824017D01*
X262574D01*
X263774Y823217D02*X264574Y824017D01*
Y820017D01*
X263774D02*X265274D01*
X266474Y820517D02*X266974Y820017D01*
X266474Y823517D02*Y820517D01*
Y823517D02*X266974Y824017D01*
X267974D01*
X268474Y823517D01*
Y820517D01*
X267974Y820017D02*X268474Y820517D01*
X266974Y820017D02*X267974D01*
X266474Y821017D02*X268474Y823017D01*
X269674Y823517D02*X270174Y824017D01*
X271174D01*
X271674Y823517D01*
X271174Y820017D02*X271674Y820517D01*
X270174Y820017D02*X271174D01*
X269674Y820517D02*X270174Y820017D01*
Y822217D02*X271174D01*
X271674Y823517D02*Y822717D01*
Y821717D02*Y820517D01*
Y821717D02*X271174Y822217D01*
X271674Y822717D02*X271174Y822217D01*
X244981Y813739D02*Y811739D01*
Y813739D02*X245481Y814239D01*
X246481D01*
X246981Y813739D02*X246481Y814239D01*
X246981Y813739D02*Y812239D01*
X244981D02*X248981D01*
X246981Y813039D02*X248981Y814239D01*
X245781Y815439D02*X244981Y816239D01*
X248981D01*
Y816939D02*Y815439D01*
X248481Y818139D02*X248981Y818639D01*
X245481Y818139D02*X248481D01*
X245481D02*X244981Y818639D01*
Y819639D02*Y818639D01*
Y819639D02*X245481Y820139D01*
X248481D01*
X248981Y819639D02*X248481Y820139D01*
X248981Y819639D02*Y818639D01*
X247981Y818139D02*X245981Y820139D01*
X244981Y823339D02*Y821339D01*
X246981D01*
X246481Y821839D01*
Y822839D02*Y821839D01*
Y822839D02*X246981Y823339D01*
X248481D01*
X248981Y822839D02*X248481Y823339D01*
X248981Y822839D02*Y821839D01*
X248481Y821339D02*X248981Y821839D01*
X251981Y814154D02*Y812154D01*
Y814154D02*X252481Y814654D01*
X253481D01*
X253981Y814154D02*X253481Y814654D01*
X253981Y814154D02*Y812654D01*
X251981D02*X255981D01*
X253981Y813454D02*X255981Y814654D01*
X252781Y815854D02*X251981Y816654D01*
X255981D01*
Y817354D02*Y815854D01*
X255481Y818554D02*X255981Y819054D01*
X252481Y818554D02*X255481D01*
X252481D02*X251981Y819054D01*
Y820054D02*Y819054D01*
Y820054D02*X252481Y820554D01*
X255481D01*
X255981Y820054D02*X255481Y820554D01*
X255981Y820054D02*Y819054D01*
X254981Y818554D02*X252981Y820554D01*
X254481Y821754D02*X251981Y823754D01*
X254481Y824254D02*Y821754D01*
X251981Y823754D02*X255981D01*
X212392Y793239D02*Y789739D01*
X212892Y789239D01*
X213892D01*
X214392Y789739D01*
Y793239D02*Y789739D01*
X215592Y792439D02*X216392Y793239D01*
Y789239D01*
X215592D02*X217092D01*
X218292Y789739D02*X218792Y789239D01*
X218292Y792739D02*Y789739D01*
Y792739D02*X218792Y793239D01*
X219792D01*
X220292Y792739D01*
Y789739D01*
X219792Y789239D02*X220292Y789739D01*
X218792Y789239D02*X219792D01*
X218292Y790239D02*X220292Y792239D01*
X221492Y792439D02*X222292Y793239D01*
Y789239D01*
X221492D02*X222992D01*
X239231Y816204D02*Y814904D01*
X238531Y814204D02*X239231Y814904D01*
X235931Y814204D02*X238531D01*
X235931D02*X235231Y814904D01*
Y816204D02*Y814904D01*
X236031Y817404D02*X235231Y818204D01*
X239231D01*
Y818904D02*Y817404D01*
X236031Y820104D02*X235231Y820904D01*
X239231D01*
Y821604D02*Y820104D01*
X235231Y824804D02*Y822804D01*
X237231D01*
X236731Y823304D01*
Y824304D02*Y823304D01*
Y824304D02*X237231Y824804D01*
X238731D01*
X239231Y824304D02*X238731Y824804D01*
X239231Y824304D02*Y823304D01*
X238731Y822804D02*X239231Y823304D01*
X219531Y823974D02*Y819974D01*
X220831Y823974D02*X221531Y823274D01*
Y820674D01*
X220831Y819974D02*X221531Y820674D01*
X219031Y819974D02*X220831D01*
X219031Y823974D02*X220831D01*
X222731Y823174D02*X223531Y823974D01*
Y819974D01*
X222731D02*X224231D01*
X225431Y820474D02*X225931Y819974D01*
X225431Y823474D02*Y820474D01*
Y823474D02*X225931Y823974D01*
X226931D01*
X227431Y823474D01*
Y820474D01*
X226931Y819974D02*X227431Y820474D01*
X225931Y819974D02*X226931D01*
X225431Y820974D02*X227431Y822974D01*
X228631Y820474D02*X229131Y819974D01*
X228631Y821274D02*Y820474D01*
Y821274D02*X229331Y821974D01*
X229931D01*
X230631Y821274D01*
Y820474D01*
X230131Y819974D02*X230631Y820474D01*
X229131Y819974D02*X230131D01*
X228631Y822674D02*X229331Y821974D01*
X228631Y823474D02*Y822674D01*
Y823474D02*X229131Y823974D01*
X230131D01*
X230631Y823474D01*
Y822674D01*
X229931Y821974D02*X230631Y822674D01*
X212481Y813696D02*Y811696D01*
Y813696D02*X212981Y814196D01*
X213981D01*
X214481Y813696D02*X213981Y814196D01*
X214481Y813696D02*Y812196D01*
X212481D02*X216481D01*
X214481Y812996D02*X216481Y814196D01*
X213281Y815396D02*X212481Y816196D01*
X216481D01*
Y816896D02*Y815396D01*
X215981Y818096D02*X216481Y818596D01*
X212981Y818096D02*X215981D01*
X212981D02*X212481Y818596D01*
Y819596D02*Y818596D01*
Y819596D02*X212981Y820096D01*
X215981D01*
X216481Y819596D02*X215981Y820096D01*
X216481Y819596D02*Y818596D01*
X215481Y818096D02*X213481Y820096D01*
X216481Y821796D02*X212481Y823796D01*
Y821296D01*
X193400Y815257D02*Y812257D01*
Y815257D02*X193900Y815757D01*
X194900D01*
X195400Y815257D01*
Y812757D01*
X194400Y811757D02*X195400Y812757D01*
X193900Y811757D02*X194400D01*
X193400Y812257D02*X193900Y811757D01*
X194400Y813257D02*X195400Y811757D01*
X196600Y814957D02*X197400Y815757D01*
Y811757D01*
X196600D02*X198100D01*
X199300Y812257D02*X199800Y811757D01*
X199300Y815257D02*Y812257D01*
Y815257D02*X199800Y815757D01*
X200800D01*
X201300Y815257D01*
Y812257D01*
X200800Y811757D02*X201300Y812257D01*
X199800Y811757D02*X200800D01*
X199300Y812757D02*X201300Y814757D01*
X202500Y814957D02*X203300Y815757D01*
Y811757D01*
X202500D02*X204000D01*
M02*
